<?xml version="1.0" encoding="UTF-8"?>
<svg version="1.1" xmlns="http://www.w3.org/2000/svg" width="64" height="64">
<path d="M0 0 C1.53718437 -0.01925285 1.53718437 -0.01925285 3.10542297 -0.03889465 C4.21685165 -0.04628159 5.32828033 -0.05366852 6.47338867 -0.0612793 C7.61289474 -0.06935104 8.75240082 -0.07742279 9.92643738 -0.08573914 C12.34156773 -0.09958792 14.75671772 -0.1103065 17.171875 -0.11816406 C20.86585567 -0.1353792 24.55894214 -0.17925999 28.25268555 -0.22338867 C30.59708 -0.2335151 32.94148206 -0.24203136 35.28588867 -0.2487793 C36.39124466 -0.26628738 37.49660065 -0.28379547 38.63545227 -0.30183411 C46.31575407 -0.28010887 46.31575407 -0.28010887 50.25341797 2.07861328 C52.99937913 5.23516486 53.2111978 6.99569885 53.25585938 11.09814453 C53.27511223 12.6353289 53.27511223 12.6353289 53.29475403 14.2035675 C53.30214096 15.31499619 53.30952789 16.42642487 53.31713867 17.5715332 C53.32521042 18.71103928 53.33328217 19.85054535 53.34159851 21.02458191 C53.35544729 23.43971226 53.36616588 25.85486225 53.37402344 28.27001953 C53.39123858 31.9640002 53.43511936 35.65708667 53.47924805 39.35083008 C53.48937448 41.69522453 53.49789074 44.0396266 53.50463867 46.3840332 C53.52214676 47.48938919 53.53965485 48.59474518 53.55769348 49.7335968 C53.53596824 57.4138986 53.53596824 57.4138986 51.17724609 61.3515625 C48.02069451 64.09752366 46.26016052 64.30934233 42.15771484 64.35400391 C40.62053047 64.37325676 40.62053047 64.37325676 39.05229187 64.39289856 C37.38514885 64.40397896 37.38514885 64.40397896 35.68432617 64.4152832 C34.5448201 64.42335495 33.40531403 64.4314267 32.23127747 64.43974304 C29.81614711 64.45359182 27.40099712 64.46431041 24.98583984 64.47216797 C21.29185918 64.48938311 17.59877271 64.53326389 13.9050293 64.57739258 C11.56063485 64.58751901 9.21623278 64.59603527 6.87182617 64.6027832 C5.21379219 64.62904533 5.21379219 64.62904533 3.52226257 64.65583801 C-4.15803923 64.63411277 -4.15803923 64.63411277 -8.09570312 62.27539062 C-10.84166429 59.11883904 -11.05348295 57.35830505 -11.09814453 53.25585938 C-11.11097977 52.23106979 -11.123815 51.20628021 -11.13703918 50.1504364 C-11.14442612 49.03900772 -11.15181305 47.92757904 -11.15942383 46.7824707 C-11.16749557 45.64296463 -11.17556732 44.50345856 -11.18388367 43.329422 C-11.19773245 40.91429164 -11.20845103 38.49914165 -11.21630859 36.08398438 C-11.23352373 32.39000371 -11.27740452 28.69691724 -11.3215332 25.00317383 C-11.33165964 22.65877938 -11.34017589 20.31437731 -11.34692383 17.9699707 C-11.37318596 16.31193672 -11.37318596 16.31193672 -11.39997864 14.6204071 C-11.3782534 6.9401053 -11.3782534 6.9401053 -9.01953125 3.00244141 C-5.86297967 0.25648024 -4.10244568 0.04466158 0 0 Z M7.07885742 14.17700195 C7.07885742 26.38700195 7.07885742 38.59700195 7.07885742 51.17700195 C10.21385742 51.25950195 13.34885742 51.34200195 16.57885742 51.42700195 C17.55016602 51.46341797 18.52147461 51.49983398 19.5222168 51.53735352 C25.36189329 51.61100281 30.38942646 50.91634374 35.07885742 47.17700195 C36.91851854 44.29134531 37.08052508 43.22369643 36.95385742 39.67700195 C36.0096897 35.90033106 35.14545677 34.50018328 32.07885742 32.17700195 C31.41885742 32.17700195 30.75885742 32.17700195 30.07885742 32.17700195 C30.07885742 31.51700195 30.07885742 30.85700195 30.07885742 30.17700195 C31.03791992 29.74387695 31.03791992 29.74387695 32.01635742 29.30200195 C34.23091821 28.34876744 34.23091821 28.34876744 35.07885742 26.17700195 C35.57980765 23.30393968 35.57980765 23.30393968 35.07885742 20.17700195 C32.34291892 16.75707883 30.36988298 14.92738587 26.07885742 14.17700195 C24.56490046 14.09881559 23.04792235 14.06910287 21.53198242 14.0793457 C20.77046875 14.08184326 20.00895508 14.08434082 19.22436523 14.08691406 C18.26884766 14.09601807 17.31333008 14.10512207 16.32885742 14.11450195 C13.27635742 14.13512695 10.22385742 14.15575195 7.07885742 14.17700195 Z " fill="#5E3A7F" transform="translate(10.921142578125,-0.177001953125)"/>
<path d="M0 0 C2.60444348 -0.05394705 5.20776998 -0.09364469 7.8125 -0.125 C8.55048828 -0.14175781 9.28847656 -0.15851562 10.04882812 -0.17578125 C13.91246426 -0.21074628 15.70903668 -0.19397555 19 2 C19.36328125 3.875 19.36328125 3.875 19.3125 6 C19.30863281 6.70125 19.30476563 7.4025 19.30078125 8.125 C19 10 19 10 17 12 C14.0906442 12.14517744 11.280054 12.18630796 8.375 12.125 C7.57320312 12.11597656 6.77140625 12.10695313 5.9453125 12.09765625 C3.96341477 12.07406223 1.98167019 12.03819065 0 12 C0 8.04 0 4.08 0 0 Z " fill="#5D3A7E" transform="translate(23,34)"/>
<path d="M0 0 C2.45840605 -0.02691685 4.91651882 -0.04679802 7.375 -0.0625 C8.07367188 -0.07087891 8.77234375 -0.07925781 9.4921875 -0.08789062 C14.7734375 -0.11328125 14.7734375 -0.11328125 17 1 C17.91952236 4.182962 18.40458267 6.12340422 16.9921875 9.18359375 C14.49995515 11.45592324 12.70223916 11.41529085 9.40429688 11.3515625 C8.36885742 11.30128906 8.36885742 11.30128906 7.3125 11.25 C6.2596582 11.22292969 6.2596582 11.22292969 5.18554688 11.1953125 C3.45644564 11.14826213 1.72804795 11.07651873 0 11 C0 7.37 0 3.74 0 0 Z " fill="#5D397E" transform="translate(23,19)"/>
</svg>
