<?xml version="1.0" encoding="UTF-8"?>
<svg version="1.1" xmlns="http://www.w3.org/2000/svg" width="64" height="64">
<path d="M0 0 C19.14 0 38.28 0 58 0 C54.74259681 42.0501139 54.74259681 42.0501139 53 58 C50.41710408 58.81391255 47.83371003 59.62617929 45.25 60.4375 C44.52039062 60.66759766 43.79078125 60.89769531 43.0390625 61.13476562 C42.33007812 61.35712891 41.62109375 61.57949219 40.890625 61.80859375 C40.24125977 62.01282959 39.59189453 62.21706543 38.92285156 62.42749023 C38.28831055 62.61641846 37.65376953 62.80534668 37 63 C36.42475586 63.18957275 35.84951172 63.37914551 35.25683594 63.57446289 C27.74707672 64.99046357 21.61981005 63.29738057 14.5 61 C13.12328125 60.57074219 13.12328125 60.57074219 11.71875 60.1328125 C9.47579441 59.43188888 7.23662076 58.72083092 5 58 C4.28534385 50.38305231 3.57355544 42.76584056 2.86376953 35.1484375 C2.62191898 32.55657872 2.37940958 29.96478134 2.13623047 27.37304688 C1.78700716 23.64989878 1.44014608 19.92653706 1.09375 16.203125 C0.9843811 15.04258606 0.87501221 13.88204712 0.7623291 12.68634033 C0.66222534 11.60552185 0.56212158 10.52470337 0.45898438 9.41113281 C0.37015991 8.46071106 0.28133545 7.51028931 0.18981934 6.53106689 C0.02694031 4.35922436 0 2.17794159 0 0 Z " fill="#1773B6" transform="translate(3,0)"/>
<path d="M0 0 C0 2.64 0 5.28 0 8 C-6.93 10.97 -6.93 10.97 -14 14 C-9.71 14.33 -5.42 14.66 -1 15 C-1.11400369 18.08409976 -1.24075202 21.16677137 -1.375 24.25 C-1.42140625 25.55904297 -1.42140625 25.55904297 -1.46875 26.89453125 C-1.50742187 27.73886719 -1.54609375 28.58320312 -1.5859375 29.453125 C-1.6173584 30.22817383 -1.6487793 31.00322266 -1.68115234 31.80175781 C-2.03617655 34.2494132 -2.69849473 35.9028749 -4 38 C-12.76520638 42.36631099 -20.9921293 41.59943395 -29.99609375 38.75390625 C-32 38 -32 38 -33 37 C-33.23363881 35.15108054 -33.41303635 33.29511969 -33.5625 31.4375 C-33.64628906 30.42558594 -33.73007812 29.41367187 -33.81640625 28.37109375 C-33.87699219 27.58863281 -33.93757813 26.80617188 -34 26 C-31.36 26 -28.72 26 -26 26 C-26 27.98 -26 29.96 -26 32 C-24.06257659 32.02703381 -22.12504521 32.04641125 -20.1875 32.0625 C-18.56908203 32.07990234 -18.56908203 32.07990234 -16.91796875 32.09765625 C-13.93487831 32.13624766 -13.93487831 32.13624766 -11 31 C-10.67 28.03 -10.34 25.06 -10 22 C-18.25 22 -26.5 22 -35 22 C-35 19.69 -35 17.38 -35 15 C-30.71 13.02 -26.42 11.04 -22 9 C-28.93 8.505 -28.93 8.505 -36 8 C-36 5.69 -36 3.38 -36 1 C-23.98168818 0.20446163 -12.04394251 -0.12812705 0 0 Z " fill="#DCE2E5" transform="translate(50,11)"/>
<path d="M0 0 C7.92 0 15.84 0 24 0 C22.90637151 16.69528599 21.70998042 33.3549778 20 50 C15.19553911 51.86433971 10.52152842 53.48918072 5.5 54.6875 C4.4584375 54.93886719 3.416875 55.19023438 2.34375 55.44921875 C1.5703125 55.63097656 0.796875 55.81273437 0 56 C0 53.36 0 50.72 0 48 C0.99902344 47.74605469 1.99804688 47.49210937 3.02734375 47.23046875 C4.3309063 46.88347728 5.63428235 46.5357846 6.9375 46.1875 C7.59685547 46.02185547 8.25621094 45.85621094 8.93554688 45.68554688 C11.07319969 45.13471432 11.07319969 45.13471432 14 44 C15.16360467 40.50918599 15.3115498 37.2023808 15.5 33.5625 C15.70774199 29.57308439 16.0242784 25.90288642 17 22 C12.05 22 7.1 22 2 22 C5.25341773 19.55993671 7.45141982 18.24355138 11.125 16.8125 C11.99382813 16.46832031 12.86265625 16.12414062 13.7578125 15.76953125 C16 15 16 15 18 15 C18 12.36 18 9.72 18 7 C12.06 7 6.12 7 0 7 C0 4.69 0 2.38 0 0 Z " fill="#36A7DA" transform="translate(32,4)"/>
<path d="M0 0 C1.48831242 0.00667405 2.97660807 0.01863442 4.46484375 0.03515625 C5.22345703 0.03966797 5.98207031 0.04417969 6.76367188 0.04882812 C8.64326246 0.06064945 10.52281274 0.07858547 12.40234375 0.09765625 C12.29213518 3.18170433 12.16158561 6.26456817 12.02734375 9.34765625 C11.9809375 10.65669922 11.9809375 10.65669922 11.93359375 11.9921875 C11.89492188 12.83652344 11.85625 13.68085937 11.81640625 14.55078125 C11.78498535 15.32583008 11.75356445 16.10087891 11.72119141 16.89941406 C11.3661672 19.34706945 10.70384902 21.00053115 9.40234375 23.09765625 C0.63713737 27.46396724 -7.58978555 26.6970902 -16.59375 23.8515625 C-18.59765625 23.09765625 -18.59765625 23.09765625 -19.59765625 22.09765625 C-19.83129506 20.24873679 -20.0106926 18.39277594 -20.16015625 16.53515625 C-20.28583984 15.01728516 -20.28583984 15.01728516 -20.4140625 13.46875 C-20.47464844 12.68628906 -20.53523438 11.90382813 -20.59765625 11.09765625 C-17.95765625 11.09765625 -15.31765625 11.09765625 -12.59765625 11.09765625 C-12.59765625 13.07765625 -12.59765625 15.05765625 -12.59765625 17.09765625 C-10.66023284 17.12469006 -8.72270146 17.1440675 -6.78515625 17.16015625 C-5.70621094 17.17175781 -4.62726562 17.18335937 -3.515625 17.1953125 C-0.53253456 17.23390391 -0.53253456 17.23390391 2.40234375 16.09765625 C2.73234375 13.12765625 3.06234375 10.15765625 3.40234375 7.09765625 C0.76234375 7.09765625 -1.87765625 7.09765625 -4.59765625 7.09765625 C-4.64019981 5.09810879 -4.63846408 3.09723989 -4.59765625 1.09765625 C-3.59765625 0.09765625 -3.59765625 0.09765625 0 0 Z " fill="#F9FCFC" transform="translate(36.59765625,25.90234375)"/>
<path d="M0 0 C5.94 0 11.88 0 18 0 C18 2.64 18 5.28 18 8 C15.7536764 9.00904375 13.50356063 10.0073602 11.25 11 C10.61578125 11.28617188 9.9815625 11.57234375 9.328125 11.8671875 C5.91582896 13.36006702 3.79218083 14 0 14 C0 9.38 0 4.76 0 0 Z " fill="#F8FBFC" transform="translate(32,11)"/>
<path d="M0 0 C2.64 0 5.28 0 8 0 C8 1.98 8 3.96 8 6 C11.3 6.33 14.6 6.66 18 7 C17.01 7.495 17.01 7.495 16 8 C16 10.31 16 12.62 16 15 C10.71321835 14.32220748 6.01331451 12.74706415 1 11 C0.67 7.37 0.34 3.74 0 0 Z " fill="#DEE3E5" transform="translate(16,37)"/>
<path d="M0 0 C5.94 0 11.88 0 18 0 C18 1.98 18 3.96 18 6 C12.06 6 6.12 6 0 6 C0 4.02 0 2.04 0 0 Z " fill="#E8E8E7" transform="translate(14,12)"/>
<path d="M0 0 C2.64 0 5.28 0 8 0 C8 2.97 8 5.94 8 9 C4 11 4 11 0 11 C0 7.37 0 3.74 0 0 Z " fill="#39A9DB" transform="translate(32,33)"/>
</svg>
