<?xml version="1.0" encoding="UTF-8"?>
<svg version="1.1" xmlns="http://www.w3.org/2000/svg" width="651" height="648">
<path d="M0 0 C0.88558594 0.63252686 0.88558594 0.63252686 1.7890625 1.27783203 C9.88154332 7.10041108 17.47525269 13.47322979 25 20 C25.78375 20.6703125 26.5675 21.340625 27.375 22.03125 C40.22487758 33.27489288 52.56211807 45.4781984 63 59 C64.45672318 60.73052334 65.91512192 62.45963731 67.375 64.1875 C73.05200222 71.13812533 78.05395768 78.52035819 83 86 C83.41894531 86.6300293 83.83789062 87.26005859 84.26953125 87.90917969 C114.86990176 134.27116962 130.43286022 188.65384681 132 244 C132.02191406 244.72155273 132.04382813 245.44310547 132.06640625 246.18652344 C133.61591351 306.33323014 118.98535727 368.77120036 85 419 C84.04287109 420.49660156 84.04287109 420.49660156 83.06640625 422.0234375 C75.4310699 433.86535209 66.81632816 445.32623969 57.1953125 455.62890625 C55.37529032 457.59465974 53.62751419 459.59335427 51.8828125 461.625 C47.38772485 466.77654551 42.58107422 471.60294016 37.75 476.4375 C36.87214844 477.32759766 35.99429688 478.21769531 35.08984375 479.13476562 C29.0408347 485.19705946 22.69727907 490.67003303 16 496 C14.77961673 497.01209597 13.56174776 498.02724008 12.34765625 499.046875 C-38.05134461 540.78814724 -103.05676118 562.16111641 -168 564 C-168.72155273 564.02191406 -169.44310547 564.04382813 -170.18652344 564.06640625 C-203.92165779 564.93549516 -237.65401889 560.61030884 -270 551 C-270.78729492 550.76700195 -271.57458984 550.53400391 -272.38574219 550.29394531 C-307.97115471 539.5531801 -341.93532377 521.07783382 -370.45507812 497.28466797 C-371.99194793 496.00669564 -373.55068186 494.75516871 -375.109375 493.50390625 C-383.31091003 486.8102712 -390.81431342 479.39634592 -398.3125 471.9375 C-398.82455994 471.43070709 -399.33661987 470.92391418 -399.86419678 470.40176392 C-405.94944258 464.36495703 -411.66794762 458.20967293 -417.01489258 451.49316406 C-419.08727582 448.89038733 -421.22384312 446.35035897 -423.375 443.8125 C-429.05200222 436.86187467 -434.05395768 429.47964181 -439 422 C-439.41894531 421.3699707 -439.83789062 420.73994141 -440.26953125 420.09082031 C-470.86990176 373.72883038 -486.43286022 319.34615319 -488 264 C-488.02191406 263.27844727 -488.04382813 262.55689453 -488.06640625 261.81347656 C-489.61591351 201.66676986 -474.98535727 139.22879964 -441 89 C-440.04287109 87.50339844 -440.04287109 87.50339844 -439.06640625 85.9765625 C-431.4310699 74.13464791 -422.81632816 62.67376031 -413.1953125 52.37109375 C-411.36557448 50.39484646 -409.60679204 48.38530263 -407.8515625 46.34375 C-397.32251997 34.27705722 -385.74281639 22.71615652 -373 13 C-371.55173828 11.80890625 -371.55173828 11.80890625 -370.07421875 10.59375 C-287.31302257 -57.27703754 -169.07983726 -74.21933095 0 0 Z " fill="#393939" transform="translate(503,70)"/>
<path d="M0 0 C19.30055725 15.6530691 32.1846572 37.58448228 37.60058594 61.82470703 C37.97252697 63.27534455 38.34495405 64.7258575 38.71777344 66.17626953 C42.23090264 81.17369694 41.60058594 92.5007583 41.60058594 108.82470703 C-15.15941406 108.82470703 -71.91941406 108.82470703 -130.39941406 108.82470703 C-128.05687676 133.42134868 -124.00566697 154.88242796 -105.39941406 171.82470703 C-91.83559962 182.51849697 -75.94463654 186.1889192 -59.02441406 186.13720703 C-57.45433594 186.16137695 -57.45433594 186.16137695 -55.85253906 186.18603516 C-38.88564965 186.19650854 -23.50133131 180.48741049 -11.24316406 168.76220703 C-4.8589488 162.09213138 -1.20739244 154.86459892 0.60058594 145.82470703 C12.81058594 145.82470703 25.02058594 145.82470703 37.60058594 145.82470703 C35.47000511 167.13051535 24.78023252 184.07196384 8.97558594 198.07470703 C-15.40233212 217.53900052 -46.31379174 221.89160364 -76.63378906 219.55126953 C-101.9664347 216.6700888 -125.26973446 205.14868839 -142.05566406 185.80126953 C-166.17710386 155.16704099 -172.53345411 115.36009351 -168.97363281 77.34033203 C-166.23455607 55.01194501 -156.57416366 34.12767723 -142.39941406 16.82470703 C-141.71363281 15.97392578 -141.02785156 15.12314453 -140.32128906 14.24658203 C-127.08572543 -1.34197069 -109.1651241 -12.17706744 -89.39941406 -17.17529297 C-88.48289062 -17.47177734 -87.56636719 -17.76826172 -86.62207031 -18.07373047 C-57.6740652 -26.5444219 -23.24254465 -18.32294151 0 0 Z " fill="#FDFDFD" transform="translate(268.3994140625,224.17529296875)"/>
<path d="M0 0 C44.75125234 -4.03639943 44.75125234 -4.03639943 53.77734375 2.12988281 C59.22209988 7.51092371 62.14565768 14.0002267 64.83203125 21.08691406 C66.39088165 24.97491635 68.41046445 27.71391216 71 31 C76.2513937 38.23840753 81.15224387 45.70176369 86.09082031 53.15576172 C90.59322452 59.93510832 95.19595387 66.61541913 99.984375 73.1953125 C106 81.56589147 106 81.56589147 106 84 C106.66 84 107.32 84 108 84 C108.22042969 83.32195312 108.44085938 82.64390625 108.66796875 81.9453125 C110.38826188 78.14149719 112.7546214 75.15391325 115.3125 71.875 C119.90867184 65.87537422 124.27456235 59.76587506 128.5 53.5 C133.02470624 46.803003 137.71854934 40.28594413 142.61450195 33.85644531 C146.55257704 28.66128817 150.27801118 23.3430382 153.90869141 17.92895508 C154.75237169 16.67886578 155.62234999 15.44625023 156.51342773 14.22949219 C158.12837746 11.92292033 158.12837746 11.92292033 159.48852539 8.87207031 C161.52797294 5.20295937 163.36329953 2.16167975 167 0 C174.77569117 -2.01295847 183.12422945 -1.1231791 191.0625 -0.75 C193.28566357 -0.68975254 195.50898355 -0.63500919 197.73242188 -0.5859375 C203.15838058 -0.45423885 208.57846163 -0.25397489 214 0 C214 0.66 214 1.32 214 2 C213.46890625 2.52722656 212.9378125 3.05445313 212.390625 3.59765625 C209.08847669 6.91599156 206.48892522 10.6498872 203.75 14.4375 C198.58127315 21.52259804 193.33411783 28.53860096 188 35.5 C182.93309962 42.11917022 177.92564099 48.7750381 173 55.5 C167.42264074 63.11475076 161.72631882 70.6315769 155.98950195 78.12670898 C149.67907671 86.38638355 143.50685563 94.74453226 137.37182617 103.13500977 C136 105 136 105 134.26293945 106.98803711 C132.78607925 108.89342627 132.78607925 108.89342627 133.17089844 111.03271484 C134.02676819 113.06351534 134.97934751 114.68806711 136.265625 116.4765625 C136.73677734 117.13785156 137.20792969 117.79914063 137.69335938 118.48046875 C138.20705078 119.18816406 138.72074219 119.89585937 139.25 120.625 C139.78431641 121.37136719 140.31863281 122.11773437 140.86914062 122.88671875 C142.57277414 125.26268261 144.28537758 127.63195692 146 130 C147.08866189 131.5077257 148.17720557 133.01553676 149.265625 134.5234375 C150.88959968 136.77198008 152.51441254 139.01989547 154.14160156 141.26611328 C157.79857443 146.31813744 161.41260116 151.39838169 165 156.5 C171.25432876 165.39076572 177.6211553 174.19833001 184 183 C190.87555727 192.4870449 197.72499329 201.98874358 204.45874023 211.57714844 C207.13470435 215.38079271 209.83587183 219.16390281 212.5703125 222.92578125 C213.16328125 223.74175781 213.75625 224.55773437 214.3671875 225.3984375 C215.51297474 226.97198531 216.66129224 228.54369475 217.8125 230.11328125 C218.33070313 230.82484375 218.84890625 231.53640625 219.3828125 232.26953125 C219.84059082 232.89448486 220.29836914 233.51943848 220.77001953 234.16333008 C222.03032378 236.04528103 223.00503849 237.96808986 224 240 C216.92194185 240.40776938 209.84692624 240.68663385 202.75976562 240.87890625 C200.35334176 240.95907728 197.94769056 241.0680637 195.54394531 241.20703125 C176.24916712 242.29406101 176.24916712 242.29406101 171.06774902 238.63574219 C167.76749837 234.9921445 165.90970817 230.70809929 164.01748657 226.21725464 C162.36900012 222.62495737 160.09256454 219.54109744 157.78515625 216.34765625 C156.85681734 215.01637858 155.93128123 213.68314283 155.00830078 212.34814453 C154.28383759 211.30439667 154.28383759 211.30439667 153.54473877 210.23956299 C150.64357775 206.03345839 147.7902705 201.79498046 144.93359375 197.55859375 C144.32246735 196.65251373 143.71134094 195.74643372 143.08169556 194.81289673 C141.83061711 192.95725056 140.57983624 191.10140373 139.3293457 189.24536133 C137.43721908 186.43708305 135.54389155 183.6296174 133.65039062 180.82226562 C121.97619941 163.50701808 121.97619941 163.50701808 116.25987244 154.85704041 C114.31333611 151.92231237 112.30880377 149.04982561 110.22436523 146.21264648 C108 143 108 143 108 141 C107.34 141 106.68 141 106 141 C105.78754639 141.650896 105.57509277 142.30179199 105.35620117 142.97241211 C103.48498456 147.14972213 100.92099739 150.70058389 98.30078125 154.44140625 C97.11730686 156.15072383 95.93455491 157.86054177 94.75244141 159.57080078 C94.13548401 160.46132141 93.51852661 161.35184204 92.88287354 162.26934814 C89.77884695 166.77098662 86.72330349 171.30507524 83.66796875 175.83984375 C83.0543045 176.7498111 82.44064026 177.65977844 81.80838013 178.59732056 C80.56148819 180.44659562 79.3148964 182.29607311 78.06860352 184.14575195 C76.17213493 186.96030332 74.27461778 189.77414558 72.37695312 192.58789062 C66.79505928 200.86673017 61.21813204 209.14846944 55.68823242 217.4621582 C54.00616001 219.99073994 52.31838319 222.51542342 50.62890625 225.0390625 C50.11779297 225.80347656 49.60667969 226.56789063 49.08007812 227.35546875 C48.04186104 228.90811772 47.00275617 230.46017333 45.96289062 232.01171875 C45.20975586 233.13900391 45.20975586 233.13900391 44.44140625 234.2890625 C43.99482666 234.95631348 43.54824707 235.62356445 43.08813477 236.31103516 C41.94791274 238.01378369 41.94791274 238.01378369 41 240 C25.16 240 9.32 240 -7 240 C-5.61404709 237.22809419 -4.39413833 234.99827704 -2.63671875 232.5234375 C-2.16878906 231.86214844 -1.70085937 231.20085937 -1.21875 230.51953125 C-0.7134375 229.81183594 -0.208125 229.10414063 0.3125 228.375 C1.10720703 227.25544922 1.10720703 227.25544922 1.91796875 226.11328125 C6.29228791 219.9625367 10.71359452 213.84586106 15.1418457 207.73388672 C18.79843085 202.68164592 22.41274662 197.60166115 26 192.5 C30.66136749 185.87077288 35.38944431 179.29271463 40.14453125 172.73046875 C44.30240437 166.98486365 48.40011709 161.19909022 52.47827148 155.39672852 C55.58886562 150.9783464 58.73521145 146.58804994 61.90966797 142.21533203 C64.07822932 139.22675339 66.23656423 136.23090075 68.39208984 133.23291016 C69.47783928 131.72512632 70.56678928 130.21964278 71.65869141 128.71630859 C73.2436553 126.52808755 74.81122661 124.32839504 76.375 122.125 C77.09925171 121.13487915 77.09925171 121.13487915 77.83813477 120.12475586 C80.30379024 116.89552225 80.30379024 116.89552225 80.78466797 113.04101562 C79.89668458 110.73126418 78.7878864 109.06126256 77.296875 107.0859375 C76.73532715 106.33417236 76.1737793 105.58240723 75.59521484 104.80786133 C74.98629395 104.00501709 74.37737305 103.20217285 73.75 102.375 C72.46530818 100.65817858 71.18147367 98.94071534 69.8984375 97.22265625 C69.24584961 96.35141113 68.59326172 95.48016602 67.92089844 94.58251953 C65.02683774 90.69164839 62.20069309 86.75314511 59.375 82.8125 C55.31122431 77.16073713 51.19316148 71.55642142 47 66 C42.80682099 60.44355536 38.6897411 54.83858606 34.625 49.1875 C30.09588889 42.89174326 25.53753084 36.61916518 20.9375 30.375 C20.35983887 29.5900415 19.78217773 28.80508301 19.18701172 27.99633789 C16.32515347 24.1168675 13.44260644 20.25547036 10.51953125 16.421875 C9.9685376 15.69693848 9.41754395 14.97200195 8.84985352 14.22509766 C7.81504783 12.86672767 6.77547665 11.51196919 5.73022461 10.16162109 C5.26753174 9.55398926 4.80483887 8.94635742 4.328125 8.3203125 C3.9249707 7.79711426 3.52181641 7.27391602 3.10644531 6.73486328 C1.7410717 4.59401048 0.88491543 2.37410168 0 0 Z " fill="#FDFDFD" transform="translate(327,204)"/>
<path d="M0 0 C12.65768685 10.94221168 20.92046023 24.00949432 24.70703125 40.41796875 C24.70703125 44.04796875 24.70703125 47.67796875 24.70703125 51.41796875 C-18.52296875 51.41796875 -61.75296875 51.41796875 -106.29296875 51.41796875 C-106.29296875 39.75303041 -106.29296875 39.75303041 -104.16796875 33.48046875 C-103.94206055 32.7944458 -103.71615234 32.10842285 -103.48339844 31.40161133 C-97.70146095 14.51257983 -86.73688576 0.90439529 -70.80078125 -7.40234375 C-48.15742169 -17.65874513 -19.79586571 -16.14288123 0 0 Z " fill="#3A3A3A" transform="translate(245.29296875,250.58203125)"/>
<path d="M0 0 C0.66 0.33 1.32 0.66 2 1 C-2.62 5.62 -7.24 10.24 -12 15 C-12 10.39852874 -9.10228152 8.19311408 -6 5 C-4.05341967 3.24193983 -2.06456557 1.62215867 0 0 Z " fill="#525252" transform="translate(165,249)"/>
</svg>
