<?xml version="1.0" encoding="UTF-8"?>
<svg version="1.1" xmlns="http://www.w3.org/2000/svg" width="64" height="64">
<path d="M0 0 C0.66677261 -0.00478363 1.33354523 -0.00956726 2.02052307 -0.01449585 C3.42492036 -0.01788447 4.82939764 -0.00875426 6.23364258 0.01220703 C8.37046371 0.03895681 10.50201455 0.01245832 12.63867188 -0.01953125 C23.99050006 -0.04976459 23.99050006 -0.04976459 27.84765625 2.95703125 C30.69255884 6.63523553 31.34523224 9.07839399 30.94140625 13.6640625 C29.43857828 17.72169803 28.55981884 19.25178744 24.94140625 21.6640625 C25.74578125 22.3034375 26.55015625 22.9428125 27.37890625 23.6015625 C30.66745436 27.53177854 31.26343138 30.60366763 30.94140625 35.6640625 C29.41928197 39.34920549 27.505582 41.83381009 23.94140625 43.6640625 C18.25484123 44.20564012 15.77164361 43.83941854 10.94140625 40.6640625 C10.90402344 41.59347656 10.86664063 42.52289063 10.828125 43.48046875 C10.05877875 57.94719529 10.05877875 57.94719529 5.31640625 63.6015625 C1.51810844 65.30080099 -1.98165292 65.39762971 -6.05859375 64.6640625 C-8.99414953 63.34854373 -9.88858855 62.26806874 -12.05859375 59.6640625 C-13.58944805 55.45205094 -13.35791509 52.47223012 -11.80859375 48.2890625 C-10.05859375 45.6640625 -10.05859375 45.6640625 -7.05859375 43.6640625 C-7.86296875 42.7153125 -8.66734375 41.7665625 -9.49609375 40.7890625 C-11.75675084 38.12264645 -12.96596319 36.47921142 -13.37109375 32.9140625 C-12.90308157 28.04673585 -10.45016048 25.05562923 -7.05859375 21.6640625 C-7.86296875 20.8803125 -8.66734375 20.0965625 -9.49609375 19.2890625 C-13.0309817 15.66795777 -13.0309817 15.66795777 -13.11328125 12.67578125 C-13.05398438 11.90878906 -12.9946875 11.14179688 -12.93359375 10.3515625 C-12.88976563 9.59230469 -12.8459375 8.83304688 -12.80078125 8.05078125 C-10.78882369 1.58074931 -6.27157058 0.02865413 0 0 Z M9.94140625 22.6640625 C10.27140625 23.6540625 10.60140625 24.6440625 10.94140625 25.6640625 C11.93140625 24.6740625 12.92140625 23.6840625 13.94140625 22.6640625 C12.62140625 22.6640625 11.30140625 22.6640625 9.94140625 22.6640625 Z " fill="#B45AFB" transform="translate(23.05859375,-0.6640625)"/>
<path d="M0 0 C0.66677261 -0.00478363 1.33354523 -0.00956726 2.02052307 -0.01449585 C3.42492036 -0.01788447 4.82939764 -0.00875426 6.23364258 0.01220703 C8.37046371 0.03895681 10.50201455 0.01245832 12.63867188 -0.01953125 C23.99050006 -0.04976459 23.99050006 -0.04976459 27.84765625 2.95703125 C30.69255884 6.63523553 31.34523224 9.07839399 30.94140625 13.6640625 C29.43857828 17.72169803 28.55981884 19.25178744 24.94140625 21.6640625 C16.80799173 22.79506936 8.45310083 22.84259452 0.25390625 22.5390625 C-1.02871094 22.49523437 -2.31132812 22.45140625 -3.6328125 22.40625 C-7.84331951 21.4940535 -9.36350166 19.95417492 -12.05859375 16.6640625 C-13.25717086 14.26690829 -13.13881587 13.00606598 -12.93359375 10.3515625 C-12.88976563 9.59230469 -12.8459375 8.83304688 -12.80078125 8.05078125 C-10.78882369 1.58074931 -6.27157058 0.02865413 0 0 Z " fill="#FE7260" transform="translate(23.05859375,-0.6640625)"/>
<path d="M0 0 C3.8053125 0.1546875 3.8053125 0.1546875 7.6875 0.3125 C7.6875 7.2425 7.6875 14.1725 7.6875 21.3125 C5.150625 21.415625 2.61375 21.51875 0 21.625 C-0.78979248 21.67052002 -1.57958496 21.71604004 -2.39331055 21.76293945 C-6.52767496 21.84396442 -7.91629217 21.63333936 -11.26953125 18.91796875 C-13.89531958 15.56921001 -14.5094551 14.16441921 -14.1875 10 C-14.14367188 9.24074219 -14.09984375 8.48148438 -14.0546875 7.69921875 C-11.76273921 0.32879558 -6.69761629 -0.38601991 0 0 Z " fill="#FF4C11" transform="translate(24.3125,-0.3125)"/>
<path d="M0 0 C0.75732422 0.00644531 1.51464844 0.01289062 2.29492188 0.01953125 C3.08060547 0.03628906 3.86628906 0.05304687 4.67578125 0.0703125 C5.47306641 0.07933594 6.27035156 0.08835938 7.09179688 0.09765625 C9.05742025 0.12119665 11.022889 0.15706703 12.98828125 0.1953125 C13.36431841 7.89711056 13.52981014 13.97272037 8.36328125 20.1328125 C4.56498344 21.83205099 1.06522208 21.92887971 -3.01171875 21.1953125 C-5.94727453 19.87979373 -6.84171355 18.79931874 -9.01171875 16.1953125 C-10.54257305 11.98330094 -10.31104009 9.00348012 -8.76171875 4.8203125 C-6.29510663 1.12039432 -4.33059082 -0.06512167 0 0 Z " fill="#00CE7E" transform="translate(20.01171875,42.8046875)"/>
<path d="M0 0 C3.07072882 2.88961345 3.60529842 5.7951661 3.796875 9.9140625 C3.47485605 13.93929935 1.58814156 16.02801462 -1.0625 18.875 C-4.47525766 20.62749718 -7.66970157 20.71679454 -11.375 20.0625 C-17.03676471 17.07720588 -17.03676471 17.07720588 -18.375 13.0625 C-18.94376939 4.24657446 -18.94376939 4.24657446 -15.375 0.0625 C-10.1569201 -2.98137994 -5.19956729 -2.98493678 0 0 Z " fill="#01BBFE" transform="translate(50.375,22.9375)"/>
</svg>
