<?xml version="1.0" encoding="UTF-8"?>
<svg version="1.1" xmlns="http://www.w3.org/2000/svg" width="383" height="383">
<path d="M0 0 C1.1859375 -0.02449219 2.371875 -0.04898437 3.59375 -0.07421875 C16.35101732 2.41344838 25.30411912 13.91869686 34.06958008 22.72363281 C35.72712902 24.37411695 37.38551762 26.02375819 39.04467773 27.67262268 C43.531017 32.13652417 48.00461361 36.61299102 52.47529817 41.09256458 C56.68790564 45.31094218 60.90824457 49.52156812 65.127907 53.73288557 C73.99331274 62.581747 82.84607793 71.44316912 91.69477262 80.30873677 C99.77797328 88.40663753 107.87575212 96.48977447 115.98070506 104.56589904 C124.31996073 112.87571526 132.64991089 121.19475145 140.96969146 129.52406764 C145.63402558 134.19332512 150.30183859 138.8589594 154.97889137 143.51548004 C159.37572926 147.89393637 163.76019664 152.28441854 168.13555145 156.68433952 C169.74004585 158.29383328 171.34878225 159.89911141 172.96211052 161.49975014 C175.16991994 163.69156716 177.36163238 165.89835464 179.55012512 168.10943604 C180.18630998 168.73378516 180.82249484 169.35813429 181.47795802 170.00140309 C186.86871948 175.50518778 190.84395411 181.76752394 192.12890625 189.4453125 C192.09603516 191.11207031 192.09603516 191.11207031 192.0625 192.8125 C192.06378906 193.92882812 192.06507813 195.04515625 192.06640625 196.1953125 C190.75539453 204.27837786 186.18014325 209.59249173 180.49833679 215.19709778 C179.79340349 215.90827104 179.0884702 216.6194443 178.36217529 217.35216826 C176.00956123 219.72067247 173.64298671 222.0746971 171.27612305 224.42895508 C169.58164867 226.12885224 167.88802584 227.8295986 166.19519043 229.53112793 C162.07959742 233.66304701 157.95474224 237.78554036 153.82517632 241.90349147 C150.46842876 245.25118969 147.11562502 248.60279094 143.7655735 251.95718956 C143.28799903 252.43537697 142.81042455 252.91356437 142.31837812 253.40624231 C141.34809445 254.37780493 140.37781974 255.34937649 139.40755389 256.32095691 C130.31918412 265.42071989 121.21861714 274.50820489 112.11380104 283.59150829 C104.30693814 291.38049562 96.51063003 299.17991866 88.72192383 306.98706055 C79.66860342 316.06180002 70.60881286 325.12999867 61.53863937 334.18789595 C60.57104248 335.15421869 59.60345393 336.12054976 58.63587379 337.08688927 C58.15984765 337.56229831 57.68382151 338.03770734 57.19337034 338.52752272 C53.84413019 341.8733135 50.49954508 345.22371437 47.156744 348.57593727 C42.65550431 353.08873101 38.14459304 357.59162822 33.62602997 362.08707428 C31.96938612 363.73842911 30.31613678 365.39319736 28.66655159 367.05160332 C26.41436308 369.31472195 24.15021478 371.56515987 21.88261414 373.81282043 C21.23259845 374.47175901 20.58258276 375.13069758 19.91286963 375.80960399 C14.15191372 381.47270504 8.9780293 384.11170087 0.6875 384.1875 C-0.99279297 384.23390625 -0.99279297 384.23390625 -2.70703125 384.28125 C-11.50822859 382.90351365 -18.02714842 377.90325432 -24.12275696 371.69293213 C-24.82197728 371.0008062 -25.5211976 370.30868026 -26.24160641 369.59558082 C-28.56017498 367.29448566 -30.86060727 364.97610744 -33.16137695 362.65722656 C-34.82855447 360.99519183 -36.49680122 359.33422906 -38.16603088 357.67425537 C-42.68140043 353.17736082 -47.18094635 348.66493945 -51.67722726 344.1489687 C-55.91323852 339.89820521 -60.15960533 335.65781842 -64.40541019 331.41684267 C-72.81806967 323.012736 -81.21808681 314.59610381 -89.61157227 306.17285156 C-97.74349957 298.01208574 -105.88622283 289.8622841 -114.0402832 281.72363281 C-122.93493252 272.84576927 -131.82314245 263.96154607 -140.7006585 255.06654716 C-145.39444012 250.36363221 -150.09071459 245.66326986 -154.79369545 240.96955109 C-159.21470685 236.55621557 -163.62566813 232.1330715 -168.02915001 227.70224762 C-169.64420338 226.08032339 -171.26264099 224.46176079 -172.88473511 222.84687805 C-175.10328242 220.63705758 -177.30907353 218.41522085 -179.51216125 216.19000244 C-180.47227496 215.24224988 -180.47227496 215.24224988 -181.45178491 214.27535081 C-186.64563707 208.98521781 -190.87133174 203.29309736 -192.1640625 195.87890625 C-192.14472656 194.08259766 -192.14472656 194.08259766 -192.125 192.25 C-192.13789063 191.05503906 -192.15078125 189.86007813 -192.1640625 188.62890625 C-190.29750504 177.55033872 -182.99448176 170.48119325 -175.28393555 162.90380859 C-174.13928039 161.76056632 -172.99573009 160.61621693 -171.85319519 159.47085571 C-168.76963893 156.38587331 -165.67098611 153.31648021 -162.56925559 150.2497859 C-159.32247606 147.03440409 -156.08998531 143.80472041 -152.85591125 140.5765686 C-146.73910304 134.47525949 -140.6096695 128.38680118 -134.47552377 122.30292857 C-127.48860263 115.37202346 -120.51598656 108.42680214 -113.54449785 101.48037982 C-99.21212096 87.20017197 -84.86199705 72.93791366 -70.5 58.6875 C-62.23272343 65.71460079 -54.40452485 73.15253478 -46.62670898 80.71630859 C-44.83087905 82.45002222 -43.02181163 84.17012591 -41.19995117 85.87646484 C-38.55625095 88.35605033 -35.96105171 90.87853847 -33.37109375 93.4140625 C-32.55152695 94.16450836 -31.73196014 94.91495422 -30.88755798 95.68814087 C-25.50855095 101.0829587 -25.50855095 101.0829587 -25.4836731 105.75115967 C-26.04321289 108.93896484 -26.04321289 108.93896484 -26.8407135 111.87582397 C-28.26493894 117.94975469 -26.34063003 123.6432859 -23.3125 128.9375 C-19.66828459 134.26366099 -15.23715197 137.81892402 -9.5 140.6875 C-9.5 175.9975 -9.5 211.3075 -9.5 247.6875 C-12.965 249.6675 -12.965 249.6675 -16.5 251.6875 C-22.23306658 256.3285539 -26.10489275 263.29884375 -27.5 270.5625 C-28.05538451 279.15360406 -25.13037614 287.28646108 -19.60546875 293.77734375 C-13.29040685 299.50659286 -5.56647602 302.04473071 2.8203125 301.88671875 C12.15020927 301.19309669 18.43813251 296.69619419 24.5 289.6875 C28.79887118 282.92423738 29.53920353 275.53454704 28.5 267.6875 C26.77040414 261.42986104 23.30403278 256.05069212 18.5 251.6875 C17.65246658 251.36911667 16.80493317 251.05073334 15.93171692 250.72270203 C13.5 248.6875 13.5 248.6875 13.04527855 246.7232151 C12.88097097 244.00927561 12.88252464 241.33507808 12.93237305 238.61645508 C12.93127785 237.06498024 12.93127785 237.06498024 12.93016052 235.48216248 C12.9336495 232.05658893 12.97257449 228.63236783 13.01171875 225.20703125 C13.02104216 222.8347803 13.0281605 220.46251974 13.03315735 218.09025574 C13.052264 211.84121196 13.10139739 205.59274765 13.15667725 199.34393311 C13.20779011 192.96960287 13.23065442 186.59517915 13.25585938 180.22070312 C13.30951174 167.70938793 13.39391088 155.19847476 13.5 142.6875 C20.93834288 149.03227316 28.12908137 155.58882375 35.18212891 162.36035156 C36.72605296 163.82719325 38.28577813 165.27758248 39.86083984 166.7109375 C53.71835558 179.35024189 53.71835558 179.35024189 54.24267578 186.13623047 C54.14241011 190.08154113 53.28489718 193.82635667 52.5 197.6875 C53.3371128 206.24403351 58.0701218 212.21611296 64.5 217.6875 C71.29083582 221.99280114 78.62909979 222.69605657 86.5 221.6875 C94.54378451 219.74827093 100.44311466 215.67357822 104.78125 208.59765625 C108.77087472 200.94612598 109.84448318 193.43091899 107.3125 185.0625 C103.94260199 176.17400754 98.95496106 171.95797186 90.5 167.6875 C87.46324709 166.41430402 87.46324709 166.41430402 84.02978516 167.27319336 C77.85942781 168.21268484 72.37621104 168.37645406 66.85046387 165.13165283 C60.92408269 160.66646154 55.74839661 155.45446169 50.625 150.10424805 C47.87663054 147.25169235 45.04681645 144.50489201 42.1953125 141.75585938 C27.60533178 127.21943211 27.60533178 127.21943211 27.2706604 118.41453552 C27.39216532 116.30796179 27.63952785 114.28941091 27.98974609 112.2097168 C28.9179411 105.80250655 26.03705362 101.15776475 22.75 95.875 C18.10443926 91.35848262 12.78306118 88.29961638 6.5 86.6875 C4.6891254 86.97657516 2.87830033 87.26883924 1.07627869 87.60876465 C-4.31943053 88.39516748 -8.53853757 87.97965185 -13.16387939 84.93261719 C-19.83827703 79.42022888 -25.72793204 73.09447726 -31.60046387 66.7543335 C-34.04976534 64.12946841 -36.54941378 61.55349184 -39.04492188 58.97265625 C-43.91290058 53.92367271 -48.72384834 48.82356611 -53.5 43.6875 C-52.14503493 40.67263041 -50.6216793 38.54596837 -48.31054688 36.19165039 C-47.66226929 35.52738541 -47.0139917 34.86312042 -46.34606934 34.1787262 C-45.64405396 33.47134811 -44.94203857 32.76397003 -44.21875 32.03515625 C-43.12657166 30.9294352 -43.12657166 30.9294352 -42.0123291 29.80137634 C-40.46832355 28.24286868 -38.92149515 26.68715327 -37.37207031 25.1340332 C-35.02416567 22.77428754 -32.69558082 20.39655651 -30.3671875 18.01757812 C-28.86053305 16.50145247 -27.35275484 14.98644257 -25.84375 13.47265625 C-25.15792847 12.7673024 -24.47210693 12.06194855 -23.76550293 11.33522034 C-17.07014776 4.70028515 -9.67904177 -0.03156209 0 0 Z " fill="#F05033" transform="translate(191.5,-0.6875)"/>
</svg>
