<?xml version="1.0" encoding="UTF-8"?>
<svg version="1.1" xmlns="http://www.w3.org/2000/svg" width="64" height="64">
<path d="M0 0 C19.14 0 38.28 0 58 0 C56.890017 19.02828 55.71652361 38.01613198 54 57 C50.5305475 58.21726465 47.04835577 59.39312346 43.5625 60.5625 C42.58861328 60.90474609 41.61472656 61.24699219 40.61132812 61.59960938 C39.64775391 61.91865234 38.68417969 62.23769531 37.69140625 62.56640625 C36.37958374 63.01415405 36.37958374 63.01415405 35.04125977 63.47094727 C27.36826565 64.80572918 20.16512013 62.35418291 12.9375 59.9375 C12.07189453 59.65583984 11.20628906 59.37417969 10.31445312 59.08398438 C8.20697281 58.39701565 6.1024105 57.70229934 4 57 C3.4282295 49.5253877 2.85880409 42.05059942 2.29101562 34.57568359 C2.09754683 32.03234806 1.90353945 29.48905345 1.70898438 26.94580078 C1.42957521 23.29209827 1.15209757 19.63825345 0.875 15.984375 C0.78750488 14.84570984 0.70000977 13.70704468 0.60986328 12.53387451 C0.52978027 11.47307678 0.44969727 10.41227905 0.3671875 9.31933594 C0.29612793 8.38667908 0.22506836 7.45402222 0.15185547 6.49310303 C0.02023124 4.33214844 0 2.16495951 0 0 Z " fill="#FE7816" transform="translate(3,0)"/>
<path d="M0 0 C9.57 0 19.14 0 29 0 C27.90429474 19.02330826 26.71615423 38.02021709 25 57 C21.39809458 58.17372973 17.79312849 59.33776256 14.1875 60.5 C13.16333984 60.83386719 12.13917969 61.16773438 11.08398438 61.51171875 C10.10107422 61.82753906 9.11816406 62.14335938 8.10546875 62.46875 C7.19949951 62.76201172 6.29353027 63.05527344 5.36010742 63.35742188 C3 64 3 64 0 64 C0 61.03 0 58.06 0 55 C1.37332284 54.37132332 2.74875833 53.74726109 4.125 53.125 C4.89070313 52.77695312 5.65640625 52.42890625 6.4453125 52.0703125 C9.23963999 50.89960037 12.12581321 49.95806226 15 49 C15.66 41.41 16.32 33.82 17 26 C8.09 26 -0.82 26 -10 26 C-10 23.03 -10 20.06 -10 17 C-0.76 17 8.48 17 18 17 C18 14.36 18 11.72 18 9 C12.06 9 6.12 9 0 9 C0 6.03 0 3.06 0 0 Z " fill="#FE4C01" transform="translate(32,0)"/>
<path d="M0 0 C11.88 0 23.76 0 36 0 C36 2.64 36 5.28 36 8 C26.76 8 17.52 8 8 8 C8 10.97 8 13.94 8 17 C16.91 17 25.82 17 35 17 C35 22.86089095 34.99172374 28.34724607 34.5 34.125 C34.36078125 35.79949219 34.36078125 35.79949219 34.21875 37.5078125 C34.1465625 38.33023438 34.074375 39.15265625 34 40 C23.27364091 44.81454531 16.63475043 46.06254877 5.40625 42.0078125 C3 41 3 41 2 40 C1.85884839 37.32941149 1.95752893 34.67567762 2 32 C4.64 32 7.28 32 10 32 C10 32.99 10 33.98 10 35 C15.52967941 35.71033431 20.49983036 36.30267176 26 35 C26.33 31.7 26.66 28.4 27 25 C18.42 25 9.84 25 1 25 C0.67 16.75 0.34 8.5 0 0 Z " fill="#E6DEDD" transform="translate(14,9)"/>
<path d="M0 0 C11.88 0 23.76 0 36 0 C36 2.64 36 5.28 36 8 C26.76 8 17.52 8 8 8 C8.33 10.97 8.66 13.94 9 17 C11.97 17.33 14.94 17.66 18 18 C18 19.98 18 21.96 18 24 C12.72 24 7.44 24 2 24 C1.67 21.525 1.34 19.05 1 16.5 C0.89558594 15.73751953 0.79117187 14.97503906 0.68359375 14.18945312 C0.60238281 13.55974609 0.52117188 12.93003906 0.4375 12.28125 C0.35371094 11.65283203 0.26992187 11.02441406 0.18359375 10.37695312 C-0.08282342 6.92770103 0 3.4595257 0 0 Z " fill="#ECEBEF" transform="translate(14,9)"/>
<path d="M0 0 C11.88 0 23.76 0 36 0 C36 2.64 36 5.28 36 8 C30.06 8 24.12 8 18 8 C18 5.69 18 3.38 18 1 C12.06 1 6.12 1 0 1 C0 0.67 0 0.34 0 0 Z " fill="#E5D8D5" transform="translate(14,9)"/>
<path d="M0 0 C2.97 0 5.94 0 9 0 C8.67 3.3 8.34 6.6 8 10 C5.36 10.66 2.72 11.32 0 12 C0 8.04 0 4.08 0 0 Z " fill="#FE4F06" transform="translate(32,34)"/>
<path d="M0 0 C3.3 0 6.6 0 10 0 C10 2.97 10 5.94 10 9 C6.7 9 3.4 9 0 9 C0 6.03 0 3.06 0 0 Z " fill="#FE7A1A" transform="translate(22,17)"/>
</svg>
