<?xml version="1.0" encoding="UTF-8"?>
<svg version="1.1" xmlns="http://www.w3.org/2000/svg" width="3000" height="3000">
<path d="M0 0 C0.66 0.33 1.32 0.66 2 1 C1.58862793 1.82685303 1.17725586 2.65370605 0.75341797 3.50561523 C-14.36122481 33.99679854 -27.77448013 64.86059793 -39 97 C-39.4223291 98.20124512 -39.8446582 99.40249023 -40.27978516 100.64013672 C-60.13597551 157.46255774 -72.5891005 216.67408984 -78.74285889 276.51428223 C-78.98850643 278.88889455 -79.24386009 281.26229571 -79.50048828 283.63574219 C-84.98627181 335.50862482 -84.47552336 390.15583708 -79 442 C-78.8212791 443.73990783 -78.64256844 445.47981671 -78.46386719 447.21972656 C-70.51140264 523.55304255 -52.82399329 597.45798185 -28 670 C-27.60844727 671.14807129 -27.21689453 672.29614258 -26.81347656 673.47900391 C-14.14215215 710.38295547 1.89756095 746.18242067 19.1003418 781.16815186 C19.99573041 782.99130644 20.8879187 784.81599501 21.77929688 786.64111328 C29.15599919 801.73144133 36.88022407 816.53614228 45.30517578 831.06787109 C47.0915116 834.15831954 48.85761976 837.25973582 50.62109375 840.36328125 C65.2532917 866.04580709 81.25620731 890.66232391 98 915 C98.61004883 915.88864746 99.22009766 916.77729492 99.84863281 917.69287109 C106.95531518 928.01386026 114.48448993 937.98913133 122.1171875 947.92578125 C125.00763903 951.69099327 127.85630415 955.48362299 130.67993164 959.29907227 C135.86641603 966.30113288 141.27534178 973.07689489 146.85107422 979.77294922 C150.57127916 984.24358619 154.19260384 988.77411794 157.75 993.375 C161.80914297 998.60843983 166.11500976 1003.52361988 170.625 1008.37890625 C172.90062029 1010.89032272 175.01812311 1013.4714524 177.125 1016.125 C182.32336444 1022.5676538 188.03403093 1028.50647839 193.7421875 1034.49609375 C196.89743878 1037.81014944 199.98545174 1041.17869957 203.06030273 1044.56738281 C208.64306092 1050.68202912 214.43211751 1056.57867513 220.29296875 1062.42578125 C221.33439883 1063.46788807 222.3756807 1064.51014302 223.41682434 1065.55253601 C225.57566601 1067.71283465 227.73626106 1069.87135892 229.89819336 1072.02856445 C232.64813328 1074.77277938 235.39351793 1077.521501 238.13761425 1080.27155781 C240.27809533 1082.41567458 242.42097958 1084.55737691 244.56456947 1086.69838524 C245.57744705 1087.71060334 246.58960359 1088.72354357 247.60097313 1089.73726845 C252.69843522 1094.84400961 257.8180362 1099.86055521 263.30647278 1104.54801941 C266.11076494 1106.9523373 268.79811386 1109.48199222 271.5 1112 C282.93621295 1122.59714298 294.83576979 1132.65486085 306.9296875 1142.4921875 C309.29704567 1144.4258312 311.65522777 1146.36882418 314.0078125 1148.3203125 C321.43413317 1154.47571106 328.89263949 1160.54749077 336.57421875 1166.3828125 C339.13863265 1168.33179749 341.67673923 1170.31160644 344.20703125 1172.3046875 C352.90089805 1179.14497234 361.7077231 1185.73045512 370.7890625 1192.046875 C373.50128411 1193.93612044 376.18208178 1195.85777641 378.8359375 1197.828125 C400.64305891 1213.98244468 423.70214374 1228.69373948 446.91552734 1242.73876953 C448.81911541 1243.89055402 450.71691469 1245.05122435 452.61328125 1246.21484375 C472.12332172 1258.12324748 492.09108563 1269.25155983 512.43017578 1279.67236328 C514.81782003 1280.90588118 517.1909048 1282.1622782 519.55859375 1283.43359375 C555.54337943 1302.74414691 593.00602836 1319.09578368 631 1334 C631.70711121 1334.27759155 632.41422241 1334.55518311 633.14276123 1334.84118652 C661.0130186 1345.75238124 689.45952999 1355.01433665 718 1364 C718.85418518 1364.26917236 719.70837036 1364.53834473 720.58843994 1364.81567383 C797.89878599 1389.0780784 881.27984425 1399.56057685 962 1404 C962.68881256 1404.04203552 963.37762512 1404.08407104 964.08731079 1404.12738037 C983.80977313 1405.31681696 1003.56195357 1405.24412015 1023.3125 1405.25 C1024.21965885 1405.25058914 1025.1268177 1405.25117828 1026.06146622 1405.25178528 C1054.9468753 1405.26500261 1083.66428618 1404.77456534 1112.45617676 1402.22460938 C1114.97512635 1402.00219624 1117.49473093 1401.78925889 1120.01464844 1401.578125 C1208.32917197 1394.07307758 1296.61094231 1374.77602956 1485 1290 C1486.52898926 1289.09048584 1486.52898926 1289.09048584 1488.08886719 1288.16259766 C1515.86391912 1271.54226974 1542.79074544 1253.32645258 1568 1233 C1568.94101563 1232.24203125 1569.88203125 1231.4840625 1570.8515625 1230.703125 C1580.96550732 1222.48372316 1590.9062476 1214.09493145 1600.50390625 1205.27734375 C1602.72374551 1203.2520444 1604.97393516 1201.27402229 1607.25 1199.3125 C1610.39167839 1196.58588075 1613.31661983 1193.70475047 1616.23046875 1190.73828125 C1618.03010481 1188.97042684 1619.89601912 1187.32745458 1621.8125 1185.6875 C1628.83552511 1179.61721086 1635.25892385 1172.97900452 1641.2890625 1165.9296875 C1643.11799863 1163.86691479 1645.03580458 1161.9340928 1647 1160 C1650.88025687 1156.16417355 1654.455071 1152.14484006 1658 1148 C1658.90572194 1146.95787415 1659.81201803 1145.91624715 1660.71875 1144.875 C1667.30725732 1137.282838 1673.63304722 1129.52623205 1679.78222656 1121.57470703 C1681.57756977 1119.25314254 1683.38346651 1116.93981405 1685.1875 1114.625 C1686.12537819 1113.41696018 1687.06305076 1112.20876045 1688 1111 C1689.14211911 1114.42635732 1688.92172046 1114.84855044 1687.55078125 1118.0078125 C1687.20362061 1118.81653809 1686.85645996 1119.62526367 1686.4987793 1120.45849609 C1686.10730713 1121.33844238 1685.71583496 1122.21838867 1685.3125 1123.125 C1684.90749268 1124.05006348 1684.50248535 1124.97512695 1684.08520508 1125.92822266 C1672.20553387 1152.79341997 1658.79205594 1178.84687802 1643.74707031 1204.07080078 C1642.6172354 1205.96512153 1641.49131182 1207.86178301 1640.37011719 1209.76123047 C1632.87655725 1222.44986697 1624.92012125 1234.80267053 1616.75 1247.0625 C1616.29004639 1247.75342743 1615.83009277 1248.44435486 1615.35620117 1249.15621948 C1607.22263797 1261.35456542 1598.83966031 1273.36280994 1590 1285.0625 C1589.49782959 1285.72894531 1588.99565918 1286.39539062 1588.47827148 1287.08203125 C1586.98810917 1289.05666707 1585.49461721 1291.02873485 1584 1293 C1583.57219238 1293.5657373 1583.14438477 1294.13147461 1582.70361328 1294.71435547 C1572.68676111 1307.94168624 1562.16523993 1320.76497309 1551.38574219 1333.37597656 C1549.94270908 1335.06714221 1548.50625183 1336.76374619 1547.0703125 1338.4609375 C1540.81037698 1345.83901013 1534.38357359 1353.02291382 1527.77026367 1360.08618164 C1526.43635787 1361.52825689 1525.11585331 1362.9827453 1523.80200195 1364.44311523 C1516.02078906 1373.05594202 1507.87375004 1381.27904327 1499.65600586 1389.47436523 C1497.302707 1391.82227056 1494.9548461 1394.17551968 1492.60742188 1396.52929688 C1491.08886242 1398.04719597 1489.56999304 1399.56478506 1488.05078125 1401.08203125 C1487.36099686 1401.77383987 1486.67121246 1402.4656485 1485.96052551 1403.17842102 C1482.033258 1407.08706221 1478.00780996 1410.82272485 1473.80456543 1414.43354797 C1470.85290688 1416.99573355 1468.03028217 1419.69347842 1465.1875 1422.375 C1460.21681045 1427.02639178 1455.13778808 1431.4515005 1449.8203125 1435.70703125 C1447.20341767 1437.83461749 1444.6554843 1440.01989766 1442.11401367 1442.23583984 C1434.38861018 1448.9623529 1426.34880284 1455.19745936 1418.16894531 1461.35888672 C1416.02788126 1462.97890389 1413.89876422 1464.61331182 1411.7734375 1466.25390625 C1396.8978064 1477.73200602 1381.73957422 1488.73541295 1366 1499 C1365.35272949 1499.42458496 1364.70545898 1499.84916992 1364.03857422 1500.28662109 C1344.77102495 1512.92115632 1325.17101664 1524.86107619 1305 1536 C1304.01499512 1536.54736816 1303.02999023 1537.09473633 1302.01513672 1537.65869141 C1264.38949203 1558.51314464 1225.32126901 1576.04843755 1185 1591 C1183.9579541 1591.39074707 1182.9159082 1591.78149414 1181.84228516 1592.18408203 C1092.33846097 1625.62672332 997.5690123 1643.067442 887 1650 C885.97335236 1650.05640656 885.97335236 1650.05640656 884.92596436 1650.11395264 C875.62023498 1650.61679804 866.31806405 1650.88206226 857 1651 C855.70147095 1651.01643555 855.70147095 1651.01643555 854.37670898 1651.03320312 C772.56883634 1651.99639858 691.24761531 1645.63932781 610.51177979 1632.4095459 C608.10690303 1632.01743055 605.70093765 1631.63296133 603.29443359 1631.25097656 C584.77526509 1628.29582487 566.95191197 1624.07826258 549.08496094 1618.31103516 C544.63212018 1616.87556024 540.16402995 1615.49056542 535.6953125 1614.10546875 C484.59581221 1598.22992717 434.64038562 1579.50668477 386.27880859 1556.55566406 C383.16497154 1555.07827242 380.04586334 1553.61258168 376.92578125 1552.1484375 C350.76488205 1539.80250874 325.00007899 1526.55700802 300 1512 C298.25596035 1510.99268603 296.51191355 1509.98538438 294.76766968 1508.97842407 C269.88030669 1494.59690541 245.83712932 1479.04909223 222 1463 C220.61941406 1462.0726001 220.61941406 1462.0726001 219.2109375 1461.12646484 C209.64532171 1454.6909873 200.27005704 1448.07331513 191.09375 1441.09375 C187.40768319 1438.29320315 183.67354226 1435.56262172 179.93212891 1432.83666992 C172.32965452 1427.29087777 164.90155797 1421.5977281 157.63891602 1415.61352539 C153.63626455 1412.31618696 149.57738168 1409.12270081 145.4375 1406 C139.9163299 1401.79241684 134.67188675 1397.32882234 129.45385742 1392.75268555 C125.77663131 1389.52921436 122.05772918 1386.38254945 118.25 1383.3125 C113.52127203 1379.48314377 109.02109667 1375.44623418 104.54296875 1371.328125 C102.42932946 1369.39305738 100.29340152 1367.49791703 98.125 1365.625 C90.41621205 1358.91755976 82.86612835 1351.99161312 75.71946716 1344.68702698 C73.96747708 1342.96809067 72.14992775 1341.37285801 70.28540039 1339.77709961 C66.10350512 1336.13719011 62.15919665 1332.30403648 58.24609375 1328.37890625 C57.54154556 1327.67531479 56.83699738 1326.97172333 56.11109924 1326.24681091 C54.63346633 1324.76985352 53.15707543 1323.29165258 51.68188477 1321.81225586 C49.44333519 1319.56834915 47.19949527 1317.32983296 44.95507812 1315.09179688 C43.51009596 1313.64615382 42.06542408 1312.20020055 40.62109375 1310.75390625 C39.96048447 1310.0953212 39.29987518 1309.43673615 38.61924744 1308.75819397 C34.74554106 1304.86523822 31.05664099 1300.86248007 27.47694397 1296.6971283 C25.73944314 1294.70059905 23.90365409 1292.83801085 22 1291 C18.80738688 1287.8501997 15.82838721 1284.58780511 12.90625 1281.1875 C10.69054352 1278.64488601 8.40901408 1276.16889802 6.125 1273.6875 C2.05459944 1269.22477168 -1.80176909 1264.63742 -5.59375 1259.9375 C-8.29778883 1256.63646559 -11.08114565 1253.41237815 -13.875 1250.1875 C-18.40856194 1244.94080157 -22.75323275 1239.57810849 -27.00219727 1234.09912109 C-29.85578426 1230.42707928 -32.79454089 1226.85232479 -35.8125 1223.3125 C-41.28890026 1216.79091925 -46.27613049 1209.93644107 -51.29296875 1203.05859375 C-54.35955658 1198.85755506 -57.47884194 1194.6994095 -60.61743164 1190.55200195 C-72.18903674 1175.24975099 -83.16602619 1159.59021304 -93.46289062 1143.40283203 C-95.17479975 1140.72675046 -96.90695672 1138.06437791 -98.640625 1135.40234375 C-108.9309398 1119.54813922 -118.59873904 1103.39194219 -128 1087 C-128.61617187 1085.9275 -129.23234375 1084.855 -129.8671875 1083.75 C-138.7885256 1068.16687668 -147.15868744 1052.32588101 -155.30273438 1036.32714844 C-156.80010263 1033.39185866 -158.31144536 1030.46439927 -159.828125 1027.5390625 C-173.90173152 1000.17183248 -185.74062613 971.62106514 -197 943 C-197.39171387 942.00871094 -197.78342773 941.01742187 -198.18701172 939.99609375 C-211.90321949 905.05754033 -223.25079392 869.2285077 -233 833 C-233.19295654 832.28662476 -233.38591309 831.57324951 -233.5847168 830.83825684 C-243.50268308 794.11139834 -250.68967972 756.65625001 -256 719 C-256.09841187 718.30320129 -256.19682373 717.60640259 -256.29821777 716.88848877 C-258.54644999 700.86428685 -260.29595845 684.80668167 -261.6875 668.6875 C-261.77890762 667.63340439 -261.77890762 667.63340439 -261.87216187 666.55801392 C-262.28732712 661.70794383 -262.65581549 656.85558684 -263 652 C-263.04912537 651.33946625 -263.09825073 650.6789325 -263.14886475 649.99838257 C-264.41187923 632.513443 -264.24424546 614.95800929 -264.25 597.4375 C-264.25058914 596.61593414 -264.25117828 595.79436829 -264.25178528 594.94790649 C-264.26460048 569.60004534 -263.86828226 544.42086045 -261.22784424 519.18688965 C-260.99843521 516.98498088 -260.7792357 514.78224303 -260.56201172 512.57910156 C-252.66948393 433.44674713 -232.06637797 355.86732775 -179 242 C-178.48888672 241.0615625 -177.97777344 240.123125 -177.45117188 239.15625 C-162.26230133 211.32493112 -145.78895869 184.2332617 -125.49169922 159.81835938 C-123.22244346 157.05217003 -121.04338567 154.22054586 -118.875 151.375 C-111.21525332 141.34320273 -103.37840224 131.45529357 -95.4831543 121.6081543 C-90.73505738 115.68128303 -86.04200303 109.71215367 -81.35888672 103.73388672 C-79.07546697 100.82033173 -76.78749197 97.91035807 -74.5 95 C-73.58331177 93.83335027 -72.6666451 92.66668361 -71.75 91.5 C-69.91666667 89.16666667 -68.08333333 86.83333333 -66.25 84.5 C-65.79633057 83.92258057 -65.34266113 83.34516113 -64.87524414 82.75024414 C-63.95784991 81.5826959 -63.04036933 80.41521551 -62.12280273 79.24780273 C-59.84155755 76.3451721 -57.56178786 73.44140726 -55.28515625 70.53515625 C-50.05509493 63.86231939 -44.786497 57.22245764 -39.48291016 50.60791016 C-34.73497767 44.6810536 -30.04193285 38.71206408 -25.35888672 32.73388672 C-23.53300148 30.40412801 -21.70412681 28.07672582 -19.875 25.74951172 C-18.96461482 24.59116296 -18.05445535 23.43263677 -17.14453125 22.27392578 C-14.74433569 19.21764228 -12.34105434 16.16384625 -9.93359375 13.11328125 C-9.43214844 12.47712891 -8.93070313 11.84097656 -8.4140625 11.18554688 C-7.45273119 9.96608031 -6.49053565 8.74729439 -5.52734375 7.52929688 C-3.58750636 5.06697352 -1.74001939 2.61002909 0 0 Z " fill="#0767AC" transform="translate(762,308)"/>
<path d="M0 0 C0.33 0.66 0.66 1.32 1 2 C0.13891602 3.99267578 0.13891602 3.99267578 -1.24609375 6.4453125 C-1.74971436 7.34918701 -2.25333496 8.25306152 -2.7722168 9.18432617 C-3.32176025 10.15474854 -3.87130371 11.1251709 -4.4375 12.125 C-5.55933815 14.14339516 -6.67912173 16.16293359 -7.796875 18.18359375 C-8.34794922 19.17858887 -8.89902344 20.17358398 -9.46679688 21.19873047 C-12.49238739 26.72669632 -15.29188132 32.35897869 -18.0390625 38.02929688 C-19.02104646 40.04316235 -20.02545536 42.0448103 -21.03125 44.046875 C-56.61907671 115.87626577 -72.02684404 197.36445707 -74 277 C-74.03504639 278.30493408 -74.03504639 278.30493408 -74.07080078 279.63623047 C-75.93230126 359.24275076 -60.19780877 439.36126676 21 629 C21.54543457 629.94101562 22.09086914 630.88203125 22.65283203 631.8515625 C45.93763502 671.98316307 72.84505881 709.85497744 102.92578125 745.17407227 C105.74189007 748.48642248 108.48067653 751.84713621 111.1875 755.25 C117.06690711 762.47327159 123.56358982 769.12722252 129.98193359 775.86865234 C132.44323216 778.46811236 134.87309326 781.09545802 137.30151367 783.72558594 C142.88256911 789.76150101 148.57314211 795.67581686 154.375 801.5 C155.33792969 802.46981812 155.33792969 802.46981812 156.3203125 803.45922852 C160.15600918 807.2825424 164.12036646 810.89328499 168.21875 814.43261719 C170.35895791 816.31585935 172.34305447 818.31477842 174.3125 820.375 C178.34483427 824.46257172 182.64511624 828.04109299 187.125 831.625 C190.12558628 834.10374519 192.97536588 836.71407375 195.8125 839.375 C200.58302983 843.82822038 205.56507045 847.89918527 210.73120117 851.88330078 C214.63149652 854.89810928 218.39909653 858.02333439 222.125 861.25 C229.94276421 867.96588269 238.22735147 874.06286109 246.52148438 880.17285156 C248.77523131 881.83430173 251.02085771 883.50614275 253.265625 885.1796875 C305.14832203 923.55298242 363.25129957 955.77521884 423 980 C424.01912476 980.41481628 424.01912476 980.41481628 425.05883789 980.8380127 C448.05548368 990.18608201 471.32198704 998.54691245 495 1006 C495.70858154 1006.22322937 496.41716309 1006.44645874 497.1472168 1006.67645264 C554.8961816 1024.80389317 614.64625036 1035.71730829 675 1040 C676.31427979 1040.09643799 677.62855957 1040.19287598 678.98266602 1040.29223633 C693.20249267 1041.25474638 707.44131838 1041.19958052 721.6875 1041.1875 C723.00146759 1041.18689575 724.31543518 1041.1862915 725.66921997 1041.18566895 C744.86574794 1041.16712277 763.88441866 1040.88568126 783 1039 C784.39269514 1038.86930329 785.7854383 1038.73911752 787.17822266 1038.609375 C854.5994143 1032.25113123 920.85983492 1016.05173647 983 989 C984.38832031 988.40106934 984.38832031 988.40106934 985.8046875 987.79003906 C1014.80372987 975.23902711 1042.5290869 960.24032871 1069 943 C1070.65902344 941.92298828 1070.65902344 941.92298828 1072.3515625 940.82421875 C1095.83413366 925.36537573 1118.52590665 908.13070977 1138.97265625 888.81640625 C1141.14580174 886.76690338 1143.37908344 884.80940129 1145.6484375 882.8671875 C1150.66774274 878.49757264 1155.35256986 873.7975488 1160.0456543 869.0847168 C1161.5599258 867.56508332 1163.0794743 866.05087483 1164.59960938 864.53710938 C1169.94402029 859.19673527 1175.10382696 853.75797377 1180 848 C1181.04497129 846.80822393 1182.09183191 845.61810168 1183.140625 844.4296875 C1196.05018274 829.70549211 1208.13045981 814.30431028 1219 798 C1219.99 798.495 1219.99 798.495 1221 799 C1209.52404287 834.47114023 1192.84415518 868.50773214 1173.58740234 900.37207031 C1172.11423708 902.81088158 1170.65839791 905.25911421 1169.20703125 907.7109375 C1152.9786144 934.92703475 1134.19748702 960.85595845 1113.6015625 984.9296875 C1111.25742299 987.67734045 1109.00116684 990.48800228 1106.75 993.3125 C1103.07508104 997.81254147 1099.20862457 1002.0869625 1095.23046875 1006.3203125 C1094.57843979 1007.01466904 1093.92641083 1007.70902557 1093.25462341 1008.42442322 C1086.50803026 1015.57385949 1079.59724487 1022.55456324 1072.63598633 1029.49438477 C1070.53542896 1031.58950092 1068.44038126 1033.6900231 1066.34570312 1035.79101562 C1064.98209189 1037.15396713 1063.61817107 1038.51660897 1062.25390625 1039.87890625 C1061.64229141 1040.49254532 1061.03067657 1041.10618439 1060.40052795 1041.73841858 C1056.09472783 1046.02127828 1051.60483683 1050.04217311 1047 1054 C1045.88228079 1054.97334809 1044.76500133 1055.94720175 1043.6484375 1056.921875 C1036.16365252 1063.40454612 1028.52717454 1069.64227387 1020.68945312 1075.69287109 C1019.06336787 1076.95097231 1017.44493345 1078.2182913 1015.828125 1079.48828125 C963.98705656 1119.91657716 904.95623805 1151.26143401 843 1173 C841.84661133 1173.40814941 840.69322266 1173.81629883 839.50488281 1174.23681641 C780.89402275 1194.84307626 719.59932051 1206.64603006 657.75 1211.6875 C656.63096283 1211.77890762 656.63096283 1211.77890762 655.48931885 1211.87216187 C650.328684 1212.28759976 645.16583032 1212.65567751 640 1213 C639.29183136 1213.0494577 638.58366272 1213.09891541 637.85403442 1213.14987183 C621.66305795 1214.24973206 605.44480296 1214.18742848 589.22485352 1214.18530273 C586.06008094 1214.18522219 582.89545532 1214.19206511 579.73071289 1214.20581055 C557.08182838 1214.30246966 534.59288654 1213.60642606 512 1212 C510.93526459 1211.92429779 509.87052917 1211.84859558 508.77352905 1211.77059937 C502.71772753 1211.32768675 496.67073208 1210.81299755 490.625 1210.25 C489.73518433 1210.16862793 488.84536865 1210.08725586 487.92858887 1210.00341797 C466.97194409 1208.06983338 446.12562996 1205.34512514 425.29937744 1202.33203125 C423.20967598 1202.03027732 421.11938706 1201.73310355 419.02880859 1201.4375 C406.36399176 1199.62089089 394.32864524 1197.03163429 382.17480469 1193.03564453 C379.11096545 1192.03619774 376.03993733 1191.06351864 372.96560669 1190.09701538 C314.5470033 1171.71588788 257.8150369 1148.25634946 204.71875 1117.56005859 C202.09547951 1116.05478754 199.45791572 1114.57921545 196.8125 1113.11328125 C182.41067745 1105.0941469 168.70760425 1096.13913233 155 1087 C153.95529541 1086.30648438 152.91059082 1085.61296875 151.83422852 1084.8984375 C122.32912367 1065.29156585 94.31979728 1043.46297188 67.51855469 1020.31152344 C66.2772147 1019.2394208 65.03348042 1018.17009096 63.7890625 1017.1015625 C57.9858139 1012.08187489 52.37602972 1006.84978697 46.75634766 1001.62695312 C45.05591158 1000.05179244 43.34735581 998.48594281 41.63671875 996.921875 C33.56971432 989.51205571 25.75368822 981.86006065 18 974.125 C17.50518127 973.63276947 17.01036255 973.14053894 16.50054932 972.63339233 C7.5263105 963.69625872 7.5263105 963.69625872 3.546875 959.03125 C-0.72502519 954.04440338 -5.47157595 949.5306897 -10.15740967 944.93936157 C-19.15285202 936.10336398 -27.59074091 927.22686466 -35 917 C-36.6222412 914.93532939 -38.24730481 912.87287366 -39.875 910.8125 C-44.57959385 904.74819147 -48.89646776 898.42589987 -53.18310547 892.06176758 C-55.97763112 887.91860262 -58.83238167 883.83907591 -61.79296875 879.8125 C-66.61930571 873.21197763 -71.16221847 866.43357756 -75.6875 859.625 C-76.12508636 858.96737671 -76.56267273 858.30975342 -77.01351929 857.63220215 C-84.58903985 846.23577615 -91.9877799 834.75381655 -99 823 C-99.56960449 822.04867187 -100.13920898 821.09734375 -100.72607422 820.1171875 C-111.26577978 802.42625315 -120.82454998 784.28647654 -130.05340576 765.88671875 C-130.93588652 764.12778876 -131.8215779 762.3704706 -132.70751953 760.61328125 C-166.97029688 692.32102309 -187.73406615 616.85289039 -196.74285889 541.13677979 C-196.98659066 539.11142832 -197.24316765 537.08763473 -197.50048828 535.06396484 C-200.17321848 513.36427012 -200.31230774 491.60109794 -200.36791611 469.76819229 C-200.37484639 467.48803992 -200.38649446 465.20795331 -200.39907837 462.92782593 C-200.84144222 370.00190858 -178.54496171 275.96582542 -125 179 C-124.48614746 178.14003418 -123.97229492 177.28006836 -123.44287109 176.39404297 C-116.02195268 164.01519322 -108.0666645 152.09795832 -99.68017578 140.35498047 C-97.56201938 137.38611435 -95.46159597 134.4049729 -93.36181641 131.4230957 C-91.88543198 129.32730861 -90.40603655 127.23367945 -88.92578125 125.140625 C-86.96116134 122.36195056 -85.00045993 119.5805758 -83.04296875 116.796875 C-77.93322386 109.53521719 -72.78240412 102.30793831 -67.5625 95.125 C-63.05907629 88.92462426 -58.67891669 82.65286363 -54.375 76.3125 C-50.11338264 70.03472212 -45.75074853 63.85904445 -41.22949219 57.76611328 C-37.43536003 52.63680665 -33.77095972 47.42291633 -30.125 42.1875 C-24.01977873 33.42362072 -17.79420782 24.75362275 -11.52392578 16.10742188 C-7.6554809 10.75778775 -3.82982423 5.37731529 0 0 Z " fill="#0767AC" transform="translate(1279,121)"/>
<path d="M0 0 C0.79725494 -0.00067474 1.59450989 -0.00134949 2.41592407 -0.00204468 C67.94424086 0.08492651 130.8310979 17.78914542 178.5 64.25 C217.05260108 103.15096796 234.57562113 158.44495075 234.875 212.3125 C234.41767476 286.26717761 202.59083607 363.23129535 175.53515625 431.265625 C174.87618484 432.93016158 174.21724892 434.59471222 173.55834961 436.25927734 C172.29727027 439.44316504 171.01846908 442.61912128 169.72875977 445.79150391 C169.15457154 447.23318383 168.58089502 448.67506769 168.0078125 450.1171875 C167.73771866 450.76762024 167.46762482 451.41805298 167.18934631 452.0881958 C165.72082391 455.83023687 165.08346762 458.41447978 166.5 462.25 C168.97723372 463.48861686 170.65007339 463.38780896 173.42114258 463.40771484 C174.44593216 463.41797699 175.47072174 463.42823914 176.52656555 463.43881226 C178.19370857 463.44976425 178.19370857 463.44976425 179.89453125 463.4609375 C182.23503302 463.4890071 184.57552772 463.51767157 186.91601562 463.546875 C190.61596472 463.58814659 194.31578193 463.62502337 198.01586914 463.65136719 C201.5798694 463.67896006 205.1432639 463.72483546 208.70703125 463.7734375 C210.36506523 463.7783168 210.36506523 463.7783168 212.05659485 463.78329468 C213.09084091 463.79986115 214.12508698 463.81642761 215.19067383 463.83349609 C216.55063225 463.84562637 216.55063225 463.84562637 217.93806458 463.85800171 C221.33907566 464.37838584 224.05187565 465.80187565 226.5 468.25 C226.82458698 474.79500461 226.03552632 480.32203652 224.34448242 486.62182617 C224.11521561 487.51083115 223.88594879 488.39983612 223.6497345 489.31578064 C222.8957251 492.22776273 222.12602552 495.13532558 221.35546875 498.04296875 C220.82380243 500.07819429 220.29291567 502.11362362 219.76277161 504.14924622 C218.65235172 508.4033373 217.53448118 512.65537542 216.41088867 516.90600586 C214.97306255 522.3467236 213.55096053 527.79139796 212.13402843 533.23758984 C211.04027564 537.43659082 209.93973915 541.63378957 208.83699989 545.83043861 C208.31020091 547.83739114 207.78514745 549.84480271 207.26189232 551.85268211 C206.52914139 554.65904237 205.78765304 557.46294873 205.04370117 560.26635742 C204.72325333 561.50319275 204.72325333 561.50319275 204.39633179 562.76501465 C201.45619028 573.74210332 201.45619028 573.74210332 196.5 577.5625 C192.97717946 579.54408655 190.41473068 580.37392825 186.43652058 580.3886652 C185.60613406 580.39413964 184.77574753 580.39961409 183.92019778 580.40525442 C182.5513563 580.40672158 182.5513563 580.40672158 181.15486145 580.40821838 C180.1847334 580.41315636 179.21460535 580.41809434 178.21507949 580.42318195 C174.94652937 580.43860208 171.677999 580.44693158 168.40942383 580.45532227 C166.06950202 580.46490122 163.72958195 580.47491131 161.3896637 580.48532104 C155.00146151 580.51247237 148.61325195 580.53345157 142.22502351 580.55332303 C136.16822385 580.57258833 130.11144482 580.59719397 124.05466267 580.62124526 C111.98054643 580.66902556 99.90641812 580.71220362 87.83227539 580.75268555 C76.2616255 580.79148615 64.69098969 580.83291193 53.12036133 580.87768555 C52.4160253 580.88040665 51.71168927 580.88312776 50.98600973 580.88593133 C48.1502146 580.89688877 45.31441951 580.90785774 42.47862447 580.91883991 C16.08834649 581.02100123 -10.3019349 581.11084044 -36.69230461 581.18619728 C-48.27902022 581.21960714 -59.86566165 581.25711051 -71.45229238 581.31300241 C-77.57952095 581.34245558 -83.70674373 581.36595421 -89.83401972 581.38298529 C-93.00979547 581.39205713 -96.18544258 581.40526694 -99.361166 581.4260273 C-159.84039267 581.8156087 -222.17425068 572.0772331 -267.6953125 529.0234375 C-305.54784829 491.59265698 -320.41380446 439.19650207 -320.74169922 386.95605469 C-320.93905716 315.67605742 -304.11543614 244.01909963 -274.5 179.25 C-273.9131543 177.94289063 -273.9131543 177.94289063 -273.31445312 176.609375 C-261.14003437 149.54610802 -245.4426414 124.10662629 -226.5 101.25 C-226.01096191 100.65799805 -225.52192383 100.06599609 -225.01806641 99.45605469 C-213.42593679 85.52181909 -200.90003349 72.30785065 -186.5 61.25 C-185.22577099 60.23667159 -183.95239811 59.22226607 -182.6796875 58.20703125 C-172.75734256 50.36545939 -162.50901122 43.4711587 -151.5 37.25 C-150.20497559 36.51716797 -150.20497559 36.51716797 -148.88378906 35.76953125 C-103.28666597 10.29408295 -51.90468518 0.04013968 0 0 Z M-47.5 124.25 C-48.33692383 124.44867676 -49.17384766 124.64735352 -50.03613281 124.85205078 C-62.3863622 127.84434774 -73.43174065 132.02723428 -84.5 138.25 C-85.93085937 139.04083984 -85.93085937 139.04083984 -87.390625 139.84765625 C-132.13145154 165.5804936 -153.49212699 216.64985428 -166.58789062 264.13183594 C-179.69196369 313.56288077 -193.0156914 376.15295396 -166.02734375 423.29296875 C-162.30599516 429.3759142 -157.61093881 434.32323916 -152.5 439.25 C-151.86835937 439.91257812 -151.23671875 440.57515625 -150.5859375 441.2578125 C-132.65528296 458.87250837 -103.71922382 461.38680219 -80.03369141 461.41113281 C-78.26061615 461.41858017 -78.26061615 461.41858017 -76.45172119 461.42617798 C-72.58499551 461.44065281 -68.71831069 461.4475729 -64.8515625 461.453125 C-63.51067455 461.45586586 -62.16978684 461.45872265 -60.82889938 461.46169281 C-54.53809473 461.47530881 -48.24730278 461.48500953 -41.95648444 461.4888947 C-34.72101831 461.4933902 -27.48573968 461.51103146 -20.25033057 461.5398953 C-14.63305232 461.56152077 -9.0158269 461.5715991 -3.39850748 461.57293582 C-0.05272583 461.57398131 3.29273706 461.58129484 6.63850021 461.59775543 C10.36249925 461.61478637 14.08603655 461.61294386 17.81005859 461.60644531 C18.9104245 461.6156601 20.01079041 461.62487488 21.14450073 461.6343689 C27.90123079 461.59738438 32.61429823 461.02368269 37.68237305 456.15234375 C40.1457231 452.21892461 41.31481534 448.25637596 42.58203125 443.8125 C42.87414993 442.82080811 43.16626862 441.82911621 43.46723938 440.80737305 C44.49468422 437.29280675 45.49946003 433.77231895 46.5 430.25 C46.78335835 429.25528687 46.78335835 429.25528687 47.0724411 428.24047852 C50.23524103 417.13756353 53.34635869 406.02033195 56.44809723 394.90023041 C58.47558059 387.63315182 60.50722736 380.36723501 62.53885651 373.10131454 C63.05787072 371.24499653 63.5767659 369.38864522 64.09554291 367.53226089 C67.55886601 355.14093991 71.05108408 342.75825678 74.57786751 330.38484955 C75.27217144 327.94784233 75.965344 325.51051646 76.6580658 323.07305908 C76.88250524 322.28335346 77.10694468 321.49364784 77.33818531 320.68001175 C77.78413402 319.11076796 78.23003644 317.54151101 78.67589092 315.97224045 C79.74216548 312.22139449 80.81154329 308.47149131 81.88827515 304.72363281 C94.8518984 259.58508401 107.5604997 208.46005501 83.72167969 164.60839844 C72.90256419 145.6473721 55.24333813 132.66882166 34.5 126.25 C23.55494061 123.28267279 12.53953477 121.11496021 1.171875 121.046875 C0.38950974 121.03981537 -0.39285553 121.03275574 -1.19892883 121.02548218 C-24.53140029 120.68437636 -24.53140029 120.68437636 -47.5 124.25 Z " fill="#0767AC" transform="translate(836.5,2133.75)"/>
<path d="M0 0 C1.51787109 0.24943359 1.51787109 0.24943359 3.06640625 0.50390625 C38.32960644 6.52227796 74.31217503 19.9559598 95.875 50.125 C96.93206234 51.74002745 97.97437386 53.36482861 99 55 C99.50917969 55.76441406 100.01835938 56.52882813 100.54296875 57.31640625 C131.58482237 105.75446575 119.99503428 174.64770018 108.55126953 227.4909668 C106.94921494 234.78251466 105.27936367 242.05606715 103.5244751 249.31237793 C103.09516188 251.08893823 102.67071597 252.86668254 102.25140381 254.64562988 C101.66309877 257.12303146 101.0504449 259.59305663 100.4296875 262.0625 C100.17360718 263.15990509 100.17360718 263.15990509 99.91235352 264.27947998 C98.65224722 269.12499766 96.87355625 271.8432717 93 275 C90.0591968 275.98026773 88.18040993 276.12437437 85.11743641 276.12304783 C84.10476194 276.12503888 83.09208748 276.12702993 82.0487259 276.12908131 C80.93298037 276.12616847 79.81723484 276.12325563 78.66767883 276.12025452 C76.89361397 276.12153615 76.89361397 276.12153615 75.08370942 276.12284368 C71.79541055 276.12420885 68.50717084 276.12107275 65.2188791 276.11606562 C61.67493144 276.11175566 58.13098568 276.11320793 54.58703613 276.1139679 C48.44508237 276.11449278 42.30313922 276.11134965 36.16118813 276.10573006 C27.28090854 276.09761031 18.40063409 276.09499935 9.52035119 276.09374207 C-4.88658193 276.0915523 -19.2935094 276.08489423 -33.70043945 276.07543945 C-47.69718396 276.0662634 -61.69392693 276.05918351 -75.69067383 276.05493164 C-76.98435416 276.05453756 -76.98435416 276.05453756 -78.30416944 276.05413551 C-82.63075412 276.05283049 -86.95733881 276.05156678 -91.28392351 276.05032361 C-127.18928633 276.03995333 -163.09464273 276.02233704 -199 276 C-199.07526343 280.05264618 -199.12911541 284.1050108 -199.16479492 288.15820312 C-199.17969923 289.53132226 -199.20002997 290.90439539 -199.22631836 292.27734375 C-199.50075163 306.99988147 -197.13508116 318.06031032 -188.8125 330.1875 C-184.9773843 334.0226157 -180.7617831 336.4565286 -176 339 C-175.34644531 339.37125 -174.69289063 339.7425 -174.01953125 340.125 C-161.17718544 346.68715674 -144.39925464 348.15782449 -130.16876221 348.13803101 C-129.32747198 348.14085229 -128.48618175 348.14367357 -127.61939788 348.14658034 C-124.82600826 348.15485297 -122.03265864 348.15625819 -119.23925781 348.15771484 C-117.22636302 348.16238817 -115.21346927 348.16753259 -113.20057678 348.17311096 C-108.87908275 348.18435239 -104.55759545 348.19280524 -100.23609161 348.19923019 C-93.40376745 348.2099416 -86.57149222 348.23019181 -79.73919678 348.25234985 C-60.3155744 348.31417837 -40.8919561 348.36835648 -21.46826172 348.40136719 C-10.73084814 348.41969511 0.00648227 348.4486001 10.74383473 348.4893719 C16.42300199 348.51045708 22.10206442 348.52590148 27.78127289 348.52817917 C33.11654583 348.53032182 38.45159981 348.54615201 43.78680611 348.57256889 C45.74557095 348.57977549 47.70436227 348.58185629 49.66313744 348.57846642 C52.33458445 348.57458108 55.00532887 348.58899532 57.67669678 348.60800171 C58.45363789 348.60247201 59.23057901 348.59694232 60.0310638 348.59124506 C65.76999943 348.66185217 68.98006765 349.98006765 73 354 C73.39070266 360.01338974 72.53035529 365.47497255 71.31933594 371.35009766 C71.14044327 372.24871017 70.9615506 373.14732269 70.77723694 374.07316589 C70.18774879 377.0218343 69.58670729 379.96799296 68.984375 382.9140625 C68.56767414 384.97327739 68.15127667 387.0325537 67.73516846 389.09188843 C66.86289597 393.3983223 65.98443123 397.70343891 65.10205078 402.0078125 C63.97354143 407.51719819 62.86442862 413.03028951 61.76040268 418.54462624 C60.90656451 422.79477214 60.0405086 427.04235987 59.1709671 431.28931808 C58.75690912 433.32098414 58.34709086 435.35351915 57.94164276 437.38692093 C57.37319205 440.23027778 56.78787075 443.0696616 56.19824219 445.90869141 C55.95331779 447.16190941 55.95331779 447.16190941 55.70344543 448.44044495 C54.46263789 454.28706239 52.7779736 459.02948172 47.69239521 462.63686848 C44.76855004 464.11718069 42.99829141 464.39131776 39.74656677 464.42939758 C38.7044422 464.44858812 37.66231762 464.46777866 36.58861351 464.48755074 C35.45263033 464.49335089 34.31664715 464.49915104 33.14624023 464.50512695 C31.93793863 464.5226193 30.72963703 464.54011166 29.48472023 464.55813408 C26.14945143 464.60278659 22.81458299 464.63392491 19.47914052 464.65856338 C16.63560604 464.68178849 13.79223621 464.71564891 10.94881028 464.74940497 C0.96608731 464.86723994 -9.01678586 464.93943207 -19 465 C-19.76650218 465.00474807 -20.53300436 465.00949614 -21.32273388 465.01438808 C-43.14068141 465.14828022 -64.95825663 465.18685833 -86.77656996 465.18511307 C-93.22273877 465.18546186 -99.66885446 465.19719156 -106.11500639 465.2110464 C-112.49031115 465.22423523 -118.86559234 465.22948268 -125.24091059 465.22884732 C-128.9804729 465.22859781 -132.71996861 465.23114066 -136.45951653 465.24202538 C-158.41604221 465.30166225 -180.34079985 464.75265682 -202.0625 461.25 C-203.12355957 461.08081055 -204.18461914 460.91162109 -205.27783203 460.73730469 C-243.99563259 454.27955866 -283.39648501 439.63226973 -307.12744141 406.58764648 C-336.97469948 362.62281057 -331.77924301 303.57942696 -322.5703125 254 C-309.63305477 187.04670834 -292.34866666 115.83558749 -244 65 C-243.47841309 64.44586426 -242.95682617 63.89172852 -242.41943359 63.32080078 C-207.279197 26.20560908 -159.87727998 7.50590691 -110 0 C-108.9176709 -0.16516113 -107.8353418 -0.33032227 -106.72021484 -0.50048828 C-72.23129112 -5.47896107 -34.39736689 -5.80141513 0 0 Z M-156 135 C-156.72832031 135.71800781 -157.45664063 136.43601562 -158.20703125 137.17578125 C-167.02484123 146.41100235 -175.07014891 159.4891991 -178 172 C-177.92798159 175.20316784 -177.92798159 175.20316784 -177 178 C-173.45432794 180.36378137 -171.96154021 180.25506285 -167.75724792 180.26742554 C-166.44918686 180.27595551 -165.14112579 180.28448547 -163.79342651 180.29327393 C-162.34039295 180.29257487 -160.88735947 180.29165179 -159.43432617 180.29052734 C-157.90668915 180.29651061 -156.37905517 180.30331569 -154.85142517 180.31088257 C-150.69842372 180.32857224 -146.54550465 180.33323924 -142.39246917 180.33451414 C-138.92584241 180.3364123 -135.45923488 180.34376902 -131.99261552 180.35085833 C-123.81269408 180.36715181 -115.63281666 180.37202648 -107.45288086 180.37060547 C-99.01577374 180.36940435 -90.57892257 180.39049799 -82.14188021 180.4220928 C-74.89846156 180.44825085 -67.6551265 180.45897294 -60.41166097 180.45769465 C-56.08543204 180.4571848 -51.7594304 180.4628805 -47.43324852 180.48405075 C-43.36281988 180.50342486 -39.2928355 180.50356351 -35.22239113 180.48901749 C-33.7300616 180.48692711 -32.23770434 180.491644 -30.74542236 180.5037384 C-28.7049055 180.51920217 -26.66423703 180.50747877 -24.623703 180.49447632 C-23.48273257 180.49556585 -22.34176214 180.49665539 -21.16621685 180.49777794 C-17.27076857 179.88535361 -15.08439241 178.4073262 -12 176 C-7.10265747 169.23700317 -8.4093835 157.20872387 -9.49609375 149.46484375 C-11.88146042 137.0798044 -16.25820282 127.06929698 -26.625 119.4375 C-63.89959059 94.49600881 -125.21900253 103.85951642 -156 135 Z M66.9375 245.1875 C65.77710099 247.94283865 65.77710099 247.94283865 66.4375 250.6875 C67.8901891 253.23266027 67.8901891 253.23266027 70.875 254.5 C73.94891338 255.29846026 73.94891338 255.29846026 76.3125 253.875 C78.21058957 251.76601158 78.91651974 250.83832886 79 248 C78.15254366 245.14298293 78.15254366 245.14298293 76 243 C71.81314302 242.25234697 69.92801075 242.01574617 66.9375 245.1875 Z " fill="#0767AB" transform="translate(1886,2253)"/>
<path d="M0 0 C0 3.26148457 -0.55215988 4.40132294 -2.0546875 7.2265625 C-2.49973633 8.08064697 -2.94478516 8.93473145 -3.40332031 9.81469727 C-4.13180176 11.20579712 -4.13180176 11.20579712 -4.875 12.625 C-20.56885681 43.33713337 -30.97983952 76.23332082 -36.75 110.1875 C-36.94867676 111.34886475 -37.14735352 112.51022949 -37.35205078 113.70678711 C-40.29476561 131.90396068 -41.38303147 150.01854407 -41.3125 168.4375 C-41.30976578 169.9339505 -41.30976578 169.9339505 -41.30697632 171.46063232 C-41.25495737 188.47438626 -40.46776919 205.1433876 -38 222 C-37.75056641 223.70833008 -37.75056641 223.70833008 -37.49609375 225.45117188 C-31.54810973 264.59771853 -20.15091035 302.86732919 -4 339 C-3.26160889 340.66772461 -3.26160889 340.66772461 -2.50830078 342.36914062 C4.79685568 358.78696188 12.86705715 374.52915004 22 390 C22.77567921 391.33929999 23.55050854 392.67909281 24.32421875 394.01953125 C36.79285224 415.42568122 51.26403111 435.87780996 67 455 C67.71414063 455.886875 68.42828125 456.77375 69.1640625 457.6875 C73.58454738 463.15614109 78.13847233 468.45922658 82.875 473.65625 C84.82494724 475.80692711 86.73026129 477.98824971 88.625 480.1875 C91.48961075 483.49488431 94.53555617 486.55008605 97.71484375 489.5546875 C99 491 99 491 99 493 C99.57202148 493.24532471 100.14404297 493.49064941 100.73339844 493.7434082 C103.38736797 495.21475473 105.14499183 496.93552401 107.265625 499.10546875 C108.07386719 499.92466797 108.88210938 500.74386719 109.71484375 501.58789062 C110.55144531 502.44576172 111.38804687 503.30363281 112.25 504.1875 C117.98101402 510.03997193 123.7517431 515.70072775 130 521 C131.00962772 521.87701379 132.0187795 522.75457593 133.02734375 523.6328125 C141.75649778 531.10824911 150.78831927 538.13010092 160 545 C160.72880371 545.54446777 161.45760742 546.08893555 162.20849609 546.64990234 C205.81171932 579.07528271 254.62349535 603.62611912 306 621 C307.02303223 621.35400879 308.04606445 621.70801758 309.10009766 622.07275391 C386.2805296 648.72507937 475.58248963 657.86429908 556 644 C557.10956055 643.80986328 558.21912109 643.61972656 559.36230469 643.42382812 C587.07229874 638.49437453 614.82566169 629.64080365 640 617 C640.74813965 616.63793457 641.4962793 616.27586914 642.26708984 615.90283203 C667.28054591 603.7852022 690.05167986 587.28764407 710 568 C711.10964111 566.93120605 711.10964111 566.93120605 712.24169922 565.84082031 C721.77198103 556.61746879 730.886012 547.37798552 738.75292969 536.68359375 C740.56958981 534.23103146 742.44061326 531.8214738 744.30834961 529.40771484 C746.21376972 526.9447342 748.10673586 524.47233191 750 522 C750.33 522.66 750.66 523.32 751 524 C749.8034668 526.52758789 749.8034668 526.52758789 747.94921875 529.72265625 C747.4550647 530.58167038 747.4550647 530.58167038 746.95092773 531.45803833 C745.8709264 533.33083414 744.77951634 535.19668867 743.6875 537.0625 C742.9412138 538.34966897 742.19552857 539.63718655 741.45043945 540.92504883 C739.97564048 543.47074863 738.4960062 546.01353209 737.01171875 548.55371094 C735.36353829 551.37722008 733.72500604 554.20576575 732.09375 557.0390625 C720.17757213 577.65102008 706.77712581 597.33286922 692 616 C691.26265625 616.93199219 690.5253125 617.86398437 689.765625 618.82421875 C684.96362375 624.79266357 679.9086021 630.4719963 674.69921875 636.08203125 C672.2052426 638.77812414 669.75374381 641.50622684 667.3125 644.25 C661.5838432 650.62083719 655.61023265 656.58680607 649.109375 662.16796875 C646.82370454 664.15311587 644.60298622 666.2003983 642.375 668.25 C594.56566494 711.25657081 533.64458487 738.39944723 471 751 C469.98728027 751.20560547 468.97456055 751.41121094 467.93115234 751.62304688 C439.59519322 757.25327257 410.77938118 759.23269076 381.9375 759.25 C380.91521301 759.25067474 379.89292603 759.25134949 378.83966064 759.25204468 C346.6156212 759.21863733 314.81987919 756.2321835 282.98980713 751.30737305 C281.13762978 751.02126019 279.28442701 750.74180732 277.43115234 750.46289062 C207.3699094 739.62193351 138.61550009 703.37075443 82 662 C80.97567871 661.25387451 80.97567871 661.25387451 79.93066406 660.49267578 C71.70762733 654.48085959 63.749113 648.2498266 56.03515625 641.59765625 C53.10710351 639.09166517 50.12831844 636.66491319 47.125 634.25 C43.45211975 631.26279493 40.04551374 628.17922973 36.76782227 624.7668457 C35.07030715 623.07026832 33.31505468 621.52336398 31.484375 619.97265625 C26.57073158 615.70119755 21.97279847 611.12345357 17.3815918 606.51196289 C15.93974779 605.06475615 14.49262884 603.62297974 13.04492188 602.18164062 C7.81634888 596.95715368 2.79685524 591.62283377 -2 586 C-3.02125207 584.84311919 -4.04465792 583.68813573 -5.0703125 582.53515625 C-12.55624324 574.05263898 -19.56637096 565.2957242 -26.33203125 556.22998047 C-28.0230505 553.96918277 -29.72962966 551.72074178 -31.4375 549.47265625 C-45.16299894 531.27825623 -57.02586313 511.95878833 -68 492 C-68.4650293 491.15646973 -68.93005859 490.31293945 -69.40917969 489.44384766 C-119.77625018 397.43318459 -136.56570736 285.42722716 -107 184 C-101.70779562 166.56395064 -95.61144282 149.56947333 -88 133 C-87.64615234 132.21157715 -87.29230469 131.4231543 -86.92773438 130.61083984 C-75.64726313 105.47724874 -60.92499852 82.76343369 -44.5078125 60.72265625 C-41.10813464 56.15815226 -37.76382807 51.55564014 -34.4375 46.9375 C-33.90519775 46.19886719 -33.37289551 45.46023437 -32.82446289 44.69921875 C-31.75234085 43.2109644 -30.68048162 41.72252068 -29.60888672 40.23388672 C-26.37744494 35.74713523 -23.13799081 31.26616203 -19.89892578 26.78491211 C-17.04809879 22.83978014 -14.20231005 18.89113287 -11.36328125 14.9375 C-10.76902344 14.11121094 -10.17476562 13.28492188 -9.5625 12.43359375 C-8.41907768 10.84352208 -7.27708747 9.25241933 -6.13671875 7.66015625 C-5.62367187 6.94730469 -5.110625 6.23445313 -4.58203125 5.5 C-4.13061768 4.8709375 -3.6792041 4.241875 -3.21411133 3.59375 C-2 2 -2 2 0 0 Z " fill="#0767AC" transform="translate(1694,30)"/>
<path d="M0 0 C1.53986572 -0.0076664 1.53986572 -0.0076664 3.11083984 -0.01548767 C6.50103601 -0.02937725 9.89102878 -0.02842755 13.28125 -0.02612305 C15.63867264 -0.03000989 17.99609459 -0.03434454 20.35351562 -0.03910828 C25.29299185 -0.04656881 30.2323966 -0.04628006 35.171875 -0.04101562 C41.50389765 -0.0352167 47.8356282 -0.05216327 54.16760254 -0.0753603 C59.03517367 -0.09008498 63.90267421 -0.09097113 68.77026367 -0.08785057 C71.10506774 -0.08836427 73.43987571 -0.09361104 75.7746582 -0.10366249 C79.03746598 -0.11598679 82.29970152 -0.10925926 85.5625 -0.09765625 C87.01052002 -0.10912186 87.01052002 -0.10912186 88.48779297 -0.12081909 C96.9518978 -0.05422718 96.9518978 -0.05422718 100.78125 3.2746582 C103.10556894 6.74795315 102.80845831 9.05649981 102.09213257 13.09414673 C101.88997509 14.25252674 101.68781761 15.41090675 101.47953415 16.60438919 C100.30070381 22.80046922 99.08340462 28.98610958 97.80712891 35.1628418 C97.51075252 36.60926075 97.2146698 38.0557399 96.91885376 39.50227356 C96.28445003 42.60164972 95.6481281 45.70062337 95.0103035 48.79929733 C93.98655824 53.77360715 92.96806419 58.748984 91.95028687 63.72451782 C89.41259578 76.12644457 86.86882545 88.52712337 84.32263184 100.92730713 C81.83773136 113.02905657 79.3563196 125.13151187 76.8828125 137.2355957 C76.70887876 138.08661204 76.53494501 138.93762838 76.35574055 139.8144331 C70.24077156 169.74538606 64.38750754 199.71875224 58.76950264 229.74693108 C57.59358801 236.01822749 56.39368467 242.28415305 55.16534424 248.54534912 C55.02910523 249.24159893 54.89286621 249.93784874 54.75249875 250.65519702 C54.09382213 254.02104396 53.43192746 257.38614365 52.76378441 260.75013161 C48.60805185 281.94769559 44.34246984 306.90775907 56.09375 326.45825195 C63.07406282 336.49245163 72.26624067 340.20968753 83.78125 343.2746582 C89.05349604 344.18477669 94.13746365 344.43326199 99.46704102 344.45166016 C100.30698608 344.45823135 101.14693115 344.46480255 102.0123291 344.47157288 C104.76993925 344.49115842 107.52749554 344.50293053 110.28515625 344.51293945 C111.23108076 344.51701498 112.17700527 344.52109051 113.15159416 344.52528954 C118.15110933 344.54607958 123.15059756 344.56041604 128.15014648 344.56982422 C133.30728163 344.58092074 138.46398916 344.61537803 143.62097263 344.65499592 C147.59556377 344.68113677 151.57005206 344.68951342 155.5447216 344.6931057 C157.44610445 344.69797207 159.34748268 344.70958751 161.2487812 344.72814369 C163.90781978 344.75249887 166.56573749 344.75157782 169.22485352 344.74462891 C170.0057988 344.75743896 170.78674408 344.77024902 171.59135437 344.78344727 C176.72227311 344.73465248 179.96510108 344.00866671 183.78125 340.2746582 C185.23995983 337.03707735 186.01759839 333.73399228 186.78125 330.2746582 C187.09356032 328.96257228 187.09356032 328.96257228 187.41217995 327.62397957 C188.07598345 324.77030554 188.69601895 321.90968542 189.30786133 319.04443359 C189.54359014 317.95636917 189.77931894 316.86830475 190.02219105 315.74726868 C190.806359 312.12309421 191.58481273 308.49771706 192.36328125 304.87231445 C192.92684752 302.26208543 193.49073403 299.6519275 194.05502319 297.04185486 C195.26897014 291.42380721 196.48000647 285.80513863 197.6890564 280.18603516 C199.44816018 272.01062484 201.21184366 263.83620769 202.97664082 255.66202474 C205.85618958 242.32406465 208.73233499 228.98537317 211.60644531 215.64624023 C215.74097309 196.45761232 219.88148431 177.27027825 224.0234375 158.08325195 C224.36215697 156.51416597 224.70087602 154.94507989 225.03959465 153.37599373 C225.20669844 152.60189956 225.37380224 151.82780539 225.54596978 151.03025383 C226.21625702 147.92519422 226.88653794 144.82013324 227.55681336 141.71507108 C227.8886241 140.17795599 228.22043814 138.6408416 228.55225551 137.10372794 C231.24004742 124.65266212 233.92620489 112.20124436 236.61104298 99.74954128 C238.06123974 93.02436247 239.51263418 86.29944644 240.96705627 79.57518005 C241.51892131 77.02318987 242.07075589 74.47119311 242.62255859 71.91918945 C242.88919658 70.68609574 243.15583456 69.45300203 243.43055248 68.18254185 C244.97794796 61.0184841 246.51252524 53.85184052 248.03472805 46.68238831 C248.95675607 42.34323565 249.88463696 38.00534638 250.81340981 33.66763306 C251.23633375 31.68452042 251.65637368 29.70079012 252.07326317 27.71640015 C252.63698824 25.03367928 253.21052939 22.35323624 253.78637695 19.6730957 C254.02538066 18.51549995 254.02538066 18.51549995 254.26921272 17.33451843 C255.75557461 10.50566131 257.72109246 5.26549366 263.78125 1.2746582 C266.60080577 0.3845802 269.15352176 0.14603241 272.10093689 0.13421631 C272.95745346 0.12850616 273.81397003 0.12279602 274.69644165 0.11691284 C276.09375015 0.11523605 276.09375015 0.11523605 277.51928711 0.11352539 C278.50670395 0.10856049 279.49412079 0.10359558 280.51145935 0.09848022 C283.7771779 0.08387737 287.04284792 0.07706054 290.30859375 0.0715332 C292.57776389 0.06578125 294.84693401 0.06002352 297.11610413 0.05426025 C301.87322211 0.04375633 306.63032322 0.03790933 311.38745117 0.03442383 C317.48519699 0.0289332 323.58272017 0.00489033 329.68039608 -0.02354813 C334.36695511 -0.04216162 339.0534603 -0.04737937 343.74005318 -0.04891205 C345.98834008 -0.05194081 348.23662598 -0.05997684 350.48487663 -0.07309723 C353.62803042 -0.09013429 356.77063725 -0.0882833 359.91381836 -0.08178711 C361.30809052 -0.09560928 361.30809052 -0.09560928 362.73052979 -0.10971069 C367.55254608 -0.07846036 370.90974393 0.06449826 374.78125 3.2746582 C378.62923675 9.04663834 375.92294355 16.89915816 374.63456726 23.40379333 C374.15448577 25.67001512 373.66740754 27.93476229 373.17456055 30.19824219 C372.90664766 31.45381896 372.63873478 32.70939573 372.36270332 34.00302029 C371.62667556 37.45180324 370.88271865 40.8988327 370.13740373 44.34561872 C369.33732487 48.05279479 368.54490377 51.76160776 367.75163269 55.47024536 C366.38273928 61.8653115 365.00939109 68.25940705 363.63299561 74.65286255 C361.44204385 84.83059505 359.2604665 95.01032518 357.08056641 105.19042969 C356.3386468 108.6548055 355.5966921 112.1191738 354.85473633 115.58354187 C354.57822688 116.8747055 354.57822688 116.8747055 354.29613137 118.19195324 C352.9808261 124.33335429 351.66433694 130.47450087 350.34741211 136.61555481 C343.96929985 166.36088639 337.64453929 196.11734715 331.34191895 225.87875366 C329.65616935 233.83891361 327.96843288 241.79865161 326.28027344 249.75830078 C325.99734566 251.09235261 325.7144191 252.42640469 325.43149376 253.76045704 C325.00552213 255.76899535 324.57954928 257.7775334 324.15357149 259.78607041 C322.57595399 267.22476472 320.99856131 274.66350669 319.42138672 282.10229492 C319.27621967 282.78697354 319.13105261 283.47165215 318.98148656 284.1770786 C316.7274988 294.80829139 314.4752295 305.43986762 312.22350073 316.07155907 C308.9084523 331.72372934 305.59045088 347.37526973 302.26836777 363.02594852 C300.42082581 371.73045417 298.57579881 380.43548471 296.73419267 389.14124817 C295.48333723 395.0532545 294.22940121 400.96460215 292.97306365 406.8754459 C292.24736233 410.29020459 291.52302653 413.70523789 290.80237007 417.12106514 C290.01593003 420.84513753 289.22429716 424.56807012 288.43139648 428.29077148 C288.20557829 429.3662301 287.97976009 430.44168871 287.74709892 431.54973698 C283.67024244 450.59366421 283.67024244 450.59366421 277.78125 455.2746582 C274.34508786 456.99273927 270.39035353 456.41870176 266.60868835 456.4151001 C265.64582737 456.41807122 264.68296639 456.42104234 263.6909278 456.4241035 C260.4432759 456.43282 257.19566074 456.43430131 253.94799805 456.43579102 C251.62712525 456.44041759 249.30625322 456.44544203 246.98538208 456.45083618 C240.65991233 456.46398906 234.33445322 456.47041228 228.00897193 456.47484684 C224.05188145 456.4777766 220.09479387 456.48188152 216.13770485 456.48635101 C205.16508841 456.49847127 194.1924745 456.50884616 183.21985149 456.5122261 C182.51694545 456.51244567 181.81403941 456.51266524 181.08983319 456.51289146 C180.38528146 456.51310973 179.68072974 456.51332801 178.95482796 456.5135529 C177.52725836 456.51399636 176.09968875 456.51444292 174.67211914 456.51489258 C173.96400173 456.51511401 173.25588432 456.51533544 172.52630881 456.51556358 C161.09807456 456.51949638 149.66990467 456.5368988 138.24169519 456.5602521 C126.48600893 456.58407842 114.73035476 456.59643334 102.97464401 456.59759402 C96.38382319 456.5985054 89.79307606 456.60444495 83.20227623 456.62241364 C76.98475982 456.63903189 70.7674004 456.64098379 64.54986954 456.63227463 C62.28336602 456.6315112 60.01685361 456.63575367 57.75037193 456.64573288 C39.94248173 456.71945526 22.11127015 455.78452132 4.96875 450.5246582 C3.68013062 450.14059814 3.68013062 450.14059814 2.36547852 449.7487793 C-10.62709723 445.74865252 -22.28986284 440.46014122 -33.21875 432.2746582 C-34.21519531 431.53602539 -35.21164062 430.79739258 -36.23828125 430.03637695 C-60.94709302 410.65629481 -72.09241209 380.77287612 -76.46875 350.5246582 C-78.41247039 333.78299104 -78.55256708 317.14535478 -77.46875 300.3371582 C-77.406875 299.20342773 -77.345 298.06969727 -77.28125 296.90161133 C-75.73825359 272.84372571 -71.26736167 249.17445967 -66.322258 225.62189102 C-65.66375757 222.47774807 -65.01262815 219.33209358 -64.3611927 216.18648052 C-61.92970836 204.44936274 -59.46677266 192.71889077 -56.99990845 180.98916626 C-56.31190712 177.71763219 -55.62418822 174.44603896 -54.9365865 171.17442089 C-50.16599024 148.47648341 -45.38376913 125.7810044 -40.59375 103.0871582 C-40.42694764 102.2968252 -40.26014528 101.5064922 -40.08828831 100.69220972 C-37.9694632 90.65319768 -35.84841346 80.61465923 -33.72403717 70.57682037 C-33.12269013 67.73529176 -32.52192088 64.89364208 -31.92171478 62.05187225 C-31.63572532 60.69821065 -31.34970732 59.34455507 -31.06365967 57.99090576 C-30.92433596 57.33156811 -30.78501225 56.67223047 -30.64146662 55.99291289 C-29.69956852 51.54051494 -28.74658899 47.09057542 -27.79022217 42.64126587 C-26.71169339 37.62102998 -25.67130819 32.59461367 -24.65167236 27.56210327 C-24.14137573 25.11293662 -23.63071024 22.66384678 -23.11962891 20.21484375 C-22.90067648 19.09626637 -22.68172405 17.977689 -22.4561367 16.82521534 C-21.14571889 10.65363297 -19.96023504 6.56120947 -15.21875 2.2746582 C-10.63637817 -0.58761944 -5.23466558 -0.01343398 0 0 Z " fill="#0767AC" transform="translate(1187.21875,2255.725341796875)"/>
<path d="M0 0 C1.17073059 -0.00426498 2.34146118 -0.00852997 3.54766846 -0.01292419 C4.82832687 -0.01247101 6.10898529 -0.01201782 7.42845154 -0.0115509 C8.79361564 -0.01454371 10.1587789 -0.01794652 11.52394104 -0.02172852 C15.22833745 -0.03055797 18.93271076 -0.03290612 22.63711667 -0.0335443 C25.72878543 -0.03449414 28.82044882 -0.03817309 31.91211551 -0.0417164 C39.20353368 -0.04985609 46.4949395 -0.05230098 53.78636169 -0.05158997 C61.31290866 -0.05098851 68.83938411 -0.06155486 76.36591297 -0.07733363 C82.82628771 -0.09039562 89.28663902 -0.09577447 95.74702686 -0.09513456 C99.60638662 -0.09487928 103.46568275 -0.09774719 107.32502937 -0.10831261 C110.95214027 -0.11797168 114.57912639 -0.11808795 118.20624161 -0.11079597 C120.17491507 -0.10924682 122.14358847 -0.11761117 124.11224365 -0.12623596 C125.28015442 -0.12204147 126.44806519 -0.11784698 127.65136719 -0.11352539 C128.66844033 -0.11407016 129.68551348 -0.11461493 130.73340702 -0.1151762 C133.26219177 0.13371277 133.26219177 0.13371277 136.26219177 2.13371277 C136.70308429 5.4719399 136.62624016 7.45987388 135.01560974 10.44108582 C134.43440369 11.1685199 133.85319763 11.89595398 133.25437927 12.64543152 C132.60445007 13.47591003 131.95452087 14.30638855 131.28489685 15.16203308 C130.22178284 16.47832703 130.22178284 16.47832703 129.13719177 17.82121277 C127.65787571 19.70418793 126.18003934 21.58832642 124.70359802 23.47355652 C123.95610291 24.42085632 123.20860779 25.36815613 122.4384613 26.34416199 C119.22787363 30.4595058 116.14826906 34.66563466 113.07469177 38.88371277 C107.15809652 46.9586833 101.10960128 54.92400659 95.0087738 62.86027527 C86.08319142 74.47825446 77.2209595 86.13512477 68.56248474 97.95378113 C62.76470454 105.84973498 56.81715077 113.62916967 50.86766052 121.41105652 C48.14620102 124.97106878 45.44346282 128.54336316 42.76219177 132.13371277 C39.42284248 136.60526049 36.04241921 141.04388921 32.65281677 145.47746277 C26.78922543 153.14862738 20.96832836 160.8445657 15.26219177 168.63371277 C8.9060531 177.31014352 2.3999892 185.86682154 -4.13233948 194.41105652 C-6.85379898 197.97106878 -9.55653718 201.54336316 -12.23780823 205.13371277 C-15.57715752 209.60526049 -18.95758079 214.04388921 -22.34718323 218.47746277 C-28.21077519 226.14862819 -34.03163423 233.84459262 -39.73780823 241.63371277 C-45.37506666 249.32814682 -51.12422489 256.93120262 -56.91749573 264.50871277 C-60.8841252 269.6976176 -64.828627 274.90140346 -68.73780823 280.13371277 C-73.32195561 286.26944186 -77.96096993 292.36167903 -82.61280823 298.44621277 C-88.301641 305.89125718 -93.90016184 313.39519589 -99.43727112 320.95353699 C-105.23526135 328.84947879 -111.18277883 336.62907758 -117.13233948 344.41105652 C-119.85379898 347.97106878 -122.55653718 351.54336316 -125.23780823 355.13371277 C-128.57784963 359.60618726 -131.95892146 364.04577285 -135.34938049 368.48014832 C-143.11320352 378.63803743 -150.78764069 388.854146 -158.31202698 399.19084167 C-159.51879526 400.8352701 -160.75061802 402.46126727 -161.98780823 404.08293152 C-170.26218536 415.15704402 -173.12657717 428.65815185 -176.43426895 441.83781433 C-177.16723944 444.75743043 -177.91031409 447.67431761 -178.65586853 450.59074402 C-180.50217356 457.82138503 -182.33160529 465.05627187 -184.16133118 472.29112244 C-185.71616892 478.43639956 -187.27752445 484.57994767 -188.84768295 490.72132874 C-189.57815716 493.58968048 -190.29897411 496.46034707 -191.01945496 499.33122253 C-191.46757545 501.08842451 -191.91614918 502.84551099 -192.36524963 504.60246277 C-192.56167557 505.39627853 -192.7581015 506.1900943 -192.96047974 507.00796509 C-194.68851131 513.69550258 -196.93000947 518.06825364 -202.73780823 522.13371277 C-205.68097691 523.114769 -207.59107525 523.26382132 -210.65855408 523.27415466 C-212.18107033 523.28271988 -212.18107033 523.28271988 -213.73434448 523.29145813 C-215.40354195 523.29313492 -215.40354195 523.29313492 -217.10646057 523.29484558 C-218.27904922 523.29981049 -219.45163788 523.30477539 -220.65975952 523.30989075 C-223.87676303 523.32199832 -227.09373021 523.32945714 -230.31075239 523.33390141 C-232.3210945 523.3368339 -234.33143093 523.34093902 -236.34177017 523.34540558 C-242.63313755 523.35907665 -248.92449192 523.36874545 -255.21587312 523.37260747 C-262.47578002 523.37708869 -269.73549868 523.39464098 -276.99534833 523.42360806 C-282.60903254 523.44522869 -288.22266379 523.45531193 -293.83638918 523.45664859 C-297.18838211 523.45769627 -300.54019801 523.46359606 -303.89214706 523.4814682 C-307.63169953 523.49848679 -311.37079155 523.49665849 -315.11036682 523.49015808 C-316.77349159 523.50398026 -316.77349159 523.50398026 -318.47021484 523.51808167 C-328.07692409 523.46566291 -328.07692409 523.46566291 -331.73780823 520.13371277 C-333.31653991 517.90868407 -333.75817154 516.71527385 -333.66275024 513.9901123 C-331.7645775 504.76007236 -329.37905521 495.662768 -326.98390198 486.55168152 C-326.51790228 484.76584869 -326.05233879 482.97990198 -325.58718872 481.19384766 C-324.36949193 476.52154811 -323.1474392 471.85040097 -321.92396545 467.17961121 C-319.96180448 459.6880147 -318.00389924 452.19531477 -316.05063057 444.70139503 C-315.36995051 442.09400368 -314.68590122 439.48751252 -314.00158691 436.881073 C-313.58336459 435.27936814 -313.16527191 433.67762942 -312.74732971 432.07585144 C-312.55770157 431.35729477 -312.36807343 430.6387381 -312.17269897 429.89840698 C-307.15642836 410.6015536 -313.4300077 393.86967545 -318.79762268 375.36393738 C-319.29272086 373.64890009 -319.78752927 371.93377913 -320.28207397 370.21858215 C-321.33706961 366.5608994 -322.39355348 362.90365113 -323.45108986 359.24670219 C-325.12373639 353.46067084 -326.78967688 347.67272192 -328.4541626 341.88433838 C-328.73635204 340.90312372 -329.01854149 339.92190905 -329.30928212 338.91096061 C-329.88563365 336.90689067 -330.46197476 334.90281772 -331.03830564 332.89874184 C-334.90716068 319.44698731 -338.78091155 305.99667546 -342.67066956 292.5509491 C-345.30508304 283.44437808 -347.92965344 274.33503385 -350.54293031 265.22237402 C-351.92321562 260.41075842 -353.3085384 255.60072238 -354.70600319 250.79406548 C-356.01725117 246.28374639 -357.31555152 241.76990323 -358.60401726 237.25302505 C-359.07848992 235.59844814 -359.55771886 233.94522653 -360.04207611 232.29351616 C-360.70323071 230.03631827 -361.34701131 227.77484026 -361.98678589 225.51150513 C-362.3512296 224.2482286 -362.71567331 222.98495207 -363.09116077 221.68339443 C-363.91522794 217.15979182 -364.07078025 213.18854986 -361.49667072 209.22044277 C-359.10010424 207.73970126 -357.40891864 207.75341414 -354.5960083 207.74603271 C-353.5319577 207.73612808 -352.4679071 207.72622345 -351.37161255 207.71601868 C-349.62061501 207.72277115 -349.62061501 207.72277115 -347.83424377 207.72966003 C-346.60473999 207.72279678 -345.37523621 207.71593353 -344.10847473 207.7088623 C-340.73420416 207.69367809 -337.36048515 207.69210592 -333.98622108 207.69780469 C-331.16825479 207.70089306 -328.35033861 207.69480771 -325.53237945 207.68876594 C-318.88181927 207.67470993 -312.2313875 207.67628962 -305.58082581 207.68766785 C-298.72509347 207.69913812 -291.86975281 207.68509458 -285.01407212 207.65827137 C-279.12519125 207.63609539 -273.23643315 207.62948159 -267.3475135 207.63534778 C-263.83170533 207.63871555 -260.31614797 207.63631527 -256.80037498 207.61909676 C-252.87661347 207.60072003 -248.95333092 207.61483439 -245.02955627 207.63200378 C-243.28766777 207.61750183 -243.28766777 207.61750183 -241.5105896 207.60270691 C-235.4985587 207.65783286 -231.27619544 207.73718862 -226.73780823 212.13371277 C-224.29826818 216.06452481 -223.12741278 219.92463578 -222.11207581 224.41447449 C-221.6919799 226.24569351 -221.6919799 226.24569351 -221.26339722 228.11390686 C-220.96954422 229.43036738 -220.67586224 230.74686608 -220.38233948 232.06340027 C-220.07341964 233.42261372 -219.7638132 234.78167128 -219.45355225 236.14057922 C-218.64283512 239.6998568 -217.84140422 243.26116183 -217.04194641 246.82298279 C-216.22290205 250.46429846 -215.39501344 254.10360125 -214.56788635 257.74308777 C-212.94924061 264.87136489 -211.34040851 272.0018091 -209.73780823 279.13371277 C-208.41780823 279.46371277 -207.09780823 279.79371277 -205.73780823 280.13371277 C-198.89440848 270.14056527 -192.05862115 260.14229302 -185.23780823 250.13371277 C-180.57777566 243.29582216 -175.91250347 236.46158789 -171.23780823 229.63371277 C-164.0563674 219.14378193 -156.89693776 208.63887787 -149.73780823 198.13371277 C-142.05152968 186.85501964 -134.36196196 175.5786717 -126.65138245 164.3165741 C-122.50619611 158.2606073 -118.37068901 152.19808274 -114.23780823 146.13371277 C-109.57777283 139.2958241 -104.91250347 132.46158789 -100.23780823 125.63371277 C-93.0563674 115.14378193 -85.89693776 104.63887787 -78.73780823 94.13371277 C-71.05152968 82.85501964 -63.36196196 71.5786717 -55.65138245 60.3165741 C-52.14537867 55.19442982 -48.64547816 50.06816562 -45.1499176 44.93888855 C-43.8810721 43.07741833 -42.61154708 41.2164111 -41.34132385 39.35588074 C-38.26243008 34.8452216 -35.19273924 30.3289193 -32.14405823 25.79777527 C-31.56978088 24.94828308 -30.99550354 24.09879089 -30.40382385 23.22355652 C-29.33563099 21.64318209 -28.27145598 20.06008008 -27.2124176 18.47355652 C-19.99943321 7.83082193 -13.63234048 0.02245386 0 0 Z " fill="#0767AC" transform="translate(2716.737808227539,2189.8662872314453)"/>
<path d="M0 0 C0.98491456 -0.00782324 1.96982912 -0.01564648 2.98458958 -0.02370679 C4.06432513 -0.01701463 5.14406069 -0.01032246 6.2565155 -0.00342751 C7.40555076 -0.00810748 8.55458601 -0.01278745 9.73844051 -0.01760924 C12.9289544 -0.0275162 16.11912684 -0.02393501 19.3096323 -0.01465058 C22.75103144 -0.00787153 26.1923839 -0.01833645 29.6337738 -0.02659035 C36.38041372 -0.03994893 43.12695363 -0.03703854 49.8735975 -0.02835242 C55.36533006 -0.02157565 60.8570346 -0.02065917 66.34877014 -0.02392387 C67.5215994 -0.02461342 67.5215994 -0.02461342 68.71812218 -0.0253169 C70.30674943 -0.02627612 71.89537667 -0.02724876 73.4840039 -0.02823468 C88.39613948 -0.0367971 103.30821982 -0.02694577 118.22034633 -0.01083358 C130.9807216 0.0025284 143.74101482 0.00027733 156.50138855 -0.01358986 C171.33557071 -0.02970333 186.16970416 -0.03592889 201.00389385 -0.02675307 C202.59154955 -0.02579751 204.17920525 -0.0248544 205.76686096 -0.02392387 C206.54787408 -0.02346105 207.32888721 -0.02299822 208.13356739 -0.02252137 C213.60251009 -0.01994556 219.07142163 -0.02427274 224.5403595 -0.03136253 C231.22980793 -0.03984387 237.91915101 -0.03736174 244.60858762 -0.0215203 C248.01364025 -0.01371901 251.41837586 -0.01206097 254.82344818 -0.02046776 C284.35545034 -0.08660087 315.2402224 1.58324133 337.46818542 23.55330467 C348.90857198 35.69926573 353.04010634 49.72818766 356.69084167 65.56502342 C357.25367889 67.95665612 357.81968523 70.34752501 358.38575745 72.73839378 C358.75713515 74.31268895 359.12582768 75.88762007 359.49177551 77.46318626 C360.37770019 81.26868635 361.29501961 85.05993537 362.29582214 88.83699608 C362.48232834 89.54826149 362.66883453 90.2595269 362.86099243 90.99234581 C363.36943879 92.91615802 363.88897138 94.83703074 364.40934753 96.75765038 C365.35582476 101.52281771 366.19669647 106.39343595 363.81584167 110.81502342 C360.98984429 113.43168767 358.29413556 113.50246115 354.62173748 113.50222206 C353.22845322 113.50580849 353.22845322 113.50580849 351.8070218 113.50946736 C350.27378029 113.50581863 350.27378029 113.50581863 348.70956421 113.50209618 C347.082732 113.5042114 347.082732 113.5042114 345.42303449 113.50636935 C341.77034734 113.51003414 338.11769872 113.50668076 334.4650116 113.50349998 C331.85364756 113.50489419 329.24228375 113.50679313 326.63092041 113.509161 C321.72864605 113.51325291 316.82637658 113.51549066 311.9241005 113.51557699 C302.29052395 113.51577964 292.65699778 113.52823468 283.0234375 113.545187 C281.50719761 113.5477928 279.99095771 113.55039161 278.4747178 113.55298352 C276.17673523 113.55692199 273.87875269 113.5608685 271.58077019 113.56484474 C262.91523285 113.57979359 254.24969397 113.59341682 245.58415222 113.60555077 C244.79191906 113.60666433 243.9996859 113.60777789 243.18344567 113.60892519 C230.34516108 113.62650041 217.50690801 113.62936929 204.6686134 113.62770036 C191.49023067 113.62642153 178.31196533 113.64415145 165.13362771 113.67871833 C157.00379403 113.69937674 148.87424136 113.70469951 140.74439273 113.69039002 C134.51443452 113.68093458 128.28479553 113.69753186 122.05489159 113.72387695 C119.49828865 113.73053513 116.94164712 113.72862087 114.38505936 113.71757889 C110.89888517 113.7037694 107.41415481 113.720532 103.92807007 113.7450161 C102.91260123 113.73366072 101.89713239 113.72230534 100.85089177 113.71060586 C96.36202213 113.77205272 93.13217528 113.87626422 89.53116608 116.73026371 C86.70937041 119.83911593 85.99841403 121.81951415 85.13737488 125.91292381 C84.91158107 126.93557256 84.91158107 126.93557256 84.68122578 127.97888088 C84.33767015 129.55012586 84.00521897 131.12382387 83.68156815 132.69928932 C83.07537391 135.63394659 82.43371635 138.55952218 81.78761292 141.4856472 C80.30354306 148.23804886 78.85876032 154.99860424 77.42024684 161.76082206 C76.8256894 164.55393961 76.22923962 167.34665192 75.63286835 170.13938266 C73.85740084 178.45446058 72.08802247 186.77082676 70.32061768 195.08762169 C69.48194172 199.03411772 68.64240475 202.98043002 67.80262554 206.92669141 C56.83664112 258.46092359 46.14049297 310.04412167 35.71549034 361.69072342 C35.09089341 364.78396366 34.46546256 367.87703427 33.83984375 370.97006798 C31.91063934 380.51344055 29.99044664 390.0583831 28.09740067 399.60900307 C27.1996306 404.1303002 26.29429536 408.65006412 25.38770294 413.16959953 C24.96038834 415.30937255 24.53646453 417.44982602 24.11623383 419.59100151 C23.53496111 422.55128951 22.94181309 425.50897667 22.34611511 428.46639061 C22.18060402 429.32527634 22.01509293 430.18416206 21.84456635 431.06907463 C20.15497936 439.33845952 18.05798922 448.00704658 11.12834167 453.37752342 C8.32326607 454.28749141 5.76661234 454.50612571 2.82884216 454.51796532 C1.97666107 454.52367546 1.12447998 454.5293856 0.24647522 454.53526878 C-1.14376358 454.53694557 -1.14376358 454.53694557 -2.56208801 454.53865623 C-3.54468597 454.54362114 -4.52728394 454.54858604 -5.53965759 454.5537014 C-8.79095663 454.56830821 -12.04220686 454.57512289 -15.29353333 454.58064842 C-17.55551657 454.58640147 -19.81749981 454.59215919 -22.07948303 454.59792137 C-26.82401252 454.60842741 -31.56852509 454.61427256 -36.31306458 454.6177578 C-42.3836115 454.62323901 -48.45393373 454.64726095 -54.52441025 454.67572975 C-59.19822334 454.69438217 -63.87198261 454.69956315 -68.54582977 454.70109367 C-70.78326393 454.70411527 -73.02069725 454.7121271 -75.25809479 454.72527885 C-78.39345229 454.74239206 -81.52826485 454.74044595 -84.66365051 454.73396873 C-85.58237946 454.74318352 -86.5011084 454.7523983 -87.44767761 454.76189232 C-92.86424658 454.72695649 -99.77223542 454.47694633 -103.87165833 450.37752342 C-105.11168842 438.2693188 -102.21592169 426.80307882 -99.62556458 415.07283592 C-99.15430377 412.88684562 -98.68438478 410.7005657 -98.21566772 408.51402855 C-97.1866689 403.72699218 -96.14868263 398.94202266 -95.10389709 394.15840721 C-93.39138354 386.31625728 -91.6991072 378.46981976 -90.00984192 370.62264061 C-89.40512886 367.81474796 -88.80024166 365.00689286 -88.19526672 362.19905663 C-88.041728 361.48641104 -87.88818928 360.77376546 -87.72999787 360.03952456 C-86.60076102 354.79970666 -85.46853329 349.56053966 -84.3351593 344.32161522 C-78.75387752 318.51860864 -73.22866827 292.70378817 -67.71931458 266.88533592 C-67.49967678 265.85610402 -67.28003899 264.82687211 -67.05374551 263.76645136 C-65.03748712 254.31804722 -63.02157383 244.86956949 -61.00617313 235.42098236 C-57.97116822 221.19256316 -54.9332686 206.96476473 -51.89338684 192.7373867 C-43.42192785 153.08702333 -34.96198513 113.43423244 -26.52394629 73.77674198 C-25.87213257 70.71334449 -25.22025788 67.64995997 -24.56837845 64.58657646 C-23.54566368 59.78032032 -22.523214 54.97400786 -21.50098085 50.16764927 C-21.12943036 48.42076777 -20.75782309 46.67389835 -20.38614988 44.92704296 C-20.03930601 43.29678456 -19.692735 41.66646808 -19.34645462 40.0360899 C-19.01417067 38.47503885 -18.68027989 36.91432884 -18.34466934 35.3539896 C-17.47651178 31.3033799 -16.6484746 27.24907928 -15.87144852 23.17992973 C-15.7032687 22.32278224 -15.53508888 21.46563475 -15.36181271 20.58251309 C-15.04302542 18.9530103 -14.73458688 17.32143286 -14.43879211 15.6875999 C-13.31333893 10.01308248 -11.46699871 5.70793604 -7.04331028 1.73580992 C-4.46510498 0.12323962 -3.02138427 0.00173054 0 0 Z " fill="#0767AC" transform="translate(2116.8716583251953,2257.622476577759)"/>
<path d="M0 0 C1.70342812 -0.01029488 1.70342812 -0.01029488 3.44126892 -0.02079773 C7.18802453 -0.0390722 10.93436182 -0.03522813 14.68115234 -0.02954102 C17.28616472 -0.03410148 19.89117589 -0.03940665 22.4961853 -0.04542542 C27.95176185 -0.0554433 33.40721976 -0.05216548 38.86279297 -0.04199219 C45.16707597 -0.03049598 51.4709343 -0.04461596 57.77516139 -0.07138866 C63.84713068 -0.09620792 69.91890385 -0.09872607 75.99091721 -0.0922718 C78.57216474 -0.09211818 81.1534203 -0.09819645 83.73463821 -0.11056328 C87.3377395 -0.12539762 90.93989752 -0.11485181 94.54296875 -0.09765625 C95.61319778 -0.10732422 96.68342682 -0.11699219 97.78608704 -0.12695312 C104.91200794 -0.05553924 104.91200794 -0.05553924 108.27328491 2.06040955 C111.94421852 8.34571606 110.14454848 14.1864465 108.64550781 20.89233398 C108.41852172 21.94876634 108.19153563 23.00519869 107.95767117 24.09364414 C107.19359001 27.6369499 106.41388444 31.17663329 105.63427734 34.71655273 C105.08352445 37.25556411 104.53375935 39.79478992 103.98490906 42.33421326 C102.79942853 47.81200128 101.60603089 53.28801534 100.40725708 58.76290894 C98.66140874 66.7366137 96.92772955 74.71292571 95.19728386 82.68998563 C92.54902991 94.89731377 89.89388382 107.10312791 87.2340306 119.30793345 C83.22343997 137.71183314 79.23810741 156.12112382 75.26298809 174.53271437 C74.45744311 178.26352069 73.65159821 181.99426221 72.84576416 185.7250061 C72.52605667 187.2051728 72.20634943 188.68533955 71.88664246 190.16550636 C71.72912821 190.89475358 71.57161396 191.6240008 71.40932655 192.37534642 C70.93525124 194.57020705 70.46119294 196.76507136 69.98713684 198.95993614 C64.55472391 224.11144237 59.11705091 249.26176448 53.64208984 274.40405273 C53.42784001 275.38814857 53.42784001 275.38814857 53.20926189 276.39212513 C51.31441926 285.09489316 49.41404289 293.79642858 47.50605583 302.49632454 C46.96067667 304.98513554 46.41641853 307.47419254 45.87344551 309.96352959 C41.34142174 330.73016822 36.76018457 351.54598396 30.39208984 371.84155273 C30.01640869 373.04255615 29.64072754 374.24355957 29.25366211 375.48095703 C23.52211182 393.42376579 16.49022286 410.77499572 7.64208984 427.40405273 C7.17802734 428.3334668 6.71396484 429.26288086 6.23583984 430.22045898 C-9.05239672 460.04140878 -34.40888061 483.76635561 -66.35791016 494.40405273 C-71.94872522 496.07541745 -77.61456476 497.37564985 -83.35791016 498.40405273 C-84.21765442 498.57149994 -85.07739868 498.73894714 -85.9631958 498.91146851 C-98.19002392 500.99461601 -110.46459396 500.71301699 -122.83056641 500.70483398 C-125.28722709 500.70872684 -127.7438871 500.71306272 -130.20054626 500.71781921 C-135.32162675 500.72524231 -140.44263821 500.72501615 -145.5637207 500.71972656 C-152.12752735 500.71390034 -158.6910547 500.73095768 -165.2548151 500.75407124 C-170.31538036 500.76878334 -175.37587765 500.76968434 -180.43646049 500.76656151 C-182.85778805 500.76707478 -185.27911939 500.77231362 -187.7004261 500.78237343 C-191.07480445 500.79468755 -194.44862881 500.78797886 -197.82299805 500.77636719 C-198.82095901 500.78401093 -199.81891998 500.79165466 -200.84712219 500.79953003 C-206.33760624 500.75769703 -210.2713594 500.49060349 -214.35791016 496.40405273 C-214.93564113 489.64008335 -213.98663647 483.37670023 -212.40185547 476.8269043 C-212.0896254 475.47854744 -212.0896254 475.47854744 -211.77108765 474.10295105 C-211.08728408 471.16410238 -210.38733465 468.22939636 -209.68603516 465.29467773 C-209.20174804 463.23840781 -208.7180954 461.18198837 -208.23504639 459.12542725 C-207.22343707 454.83029733 -206.20370393 450.53719964 -205.17822266 446.24536133 C-203.86655618 440.75256687 -202.57610823 435.25504141 -201.29176712 429.75580215 C-200.29851091 425.5140374 -199.29369513 421.27507572 -198.28542328 417.0368576 C-197.80495842 415.01078029 -197.32815781 412.98383031 -196.85514069 410.95600128 C-196.19238065 408.12225185 -195.5140297 405.29267668 -194.83154297 402.46362305 C-194.64020782 401.63128647 -194.44887268 400.79894989 -194.2517395 399.94139099 C-192.83196913 394.15897914 -190.83124102 389.57081468 -186.23657227 385.5456543 C-181.92994878 383.83776087 -177.8877464 384.06214182 -173.29931641 384.13842773 C-171.28303849 384.13565336 -169.26676191 384.1317085 -167.25048828 384.12670898 C-164.09747813 384.13500702 -160.94548818 384.15372778 -157.79272461 384.19458008 C-141.60498549 384.37068635 -130.52347223 383.13508232 -118.10791016 371.90405273 C-101.80985253 354.2166525 -91.97709033 331.11198207 -86.51757812 307.96801758 C-86.25805296 306.87603247 -85.99852779 305.78404736 -85.73113823 304.65897179 C-83.1953711 293.88798935 -80.88914418 283.07239223 -78.63894653 272.23869324 C-77.89704602 268.66806803 -77.15016349 265.09851363 -76.40209961 261.5291748 C-75.45981857 257.03273193 -74.51819642 252.53615331 -73.5779388 248.03928685 C-64.18744451 203.13261544 -54.57309501 158.28462319 -44.48291016 113.52905273 C-44.24219032 112.46100655 -44.00147049 111.39296036 -43.75345612 110.29254913 C-41.68243694 101.10667121 -39.60933029 91.9212762 -37.5173645 82.74014282 C-35.30359079 73.02127974 -33.10738374 63.29924261 -30.95919228 53.56563759 C-29.87879417 48.67396133 -28.79062773 43.78402683 -27.701931 38.89419174 C-27.18110602 36.54490281 -26.66398886 34.19478839 -26.15082169 31.84381485 C-25.43756304 28.577681 -24.7113468 25.31466965 -23.98242188 22.05200195 C-23.67268999 20.60913881 -23.67268999 20.60913881 -23.3567009 19.13712692 C-20.31813849 5.70539154 -20.31813849 5.70539154 -14.81777954 1.42930603 C-9.84873247 -0.04315762 -5.15799865 -0.0217782 0 0 Z " fill="#0767AC" transform="translate(361.35791015625,2396.595947265625)"/>
<path d="M0 0 C1.10475174 -0.00525696 2.20950348 -0.01051392 3.34773254 -0.01593018 C6.99230162 -0.02911292 10.63643249 -0.02039843 14.28100586 -0.01025391 C16.81636133 -0.01227498 19.35171623 -0.0151867 21.8870697 -0.01895142 C27.19723591 -0.02337233 32.50724556 -0.01723747 37.81738281 -0.00292969 C43.95004059 0.01340385 50.08239924 0.00810026 56.2150498 -0.0084089 C62.12467371 -0.02367865 68.03420493 -0.0220432 73.94384575 -0.0132637 C76.45448282 -0.0112618 78.96512753 -0.01372061 81.47575569 -0.02070236 C84.98274129 -0.02831536 88.48915107 -0.01671429 91.99609375 0 C93.03467529 -0.00607269 94.07325684 -0.01214539 95.14331055 -0.0184021 C104.02688706 0.06009082 104.02688706 0.06009082 107.93334961 3.38818359 C110.75600199 9.03348836 108.47117952 16.6827497 107.17675781 22.5546875 C106.98971786 23.43379288 106.80267792 24.31289825 106.60997009 25.21864319 C105.99355545 28.10266742 105.36467817 30.9837811 104.73413086 33.86474609 C104.29748219 35.87913283 103.86105891 37.89356843 103.42485046 39.90805054 C102.51027407 44.12053845 101.58874504 48.33143825 100.66308594 52.54150391 C99.4797794 57.92893317 98.32042388 63.32121086 97.1670351 68.71511269 C96.27393655 72.87337953 95.36489427 77.02804184 94.45137596 81.18186569 C94.01712931 83.16849211 93.58857982 85.15637295 93.16591835 87.14549637 C92.57290023 89.92777861 91.95772551 92.70427531 91.33691406 95.48046875 C91.08335648 96.70563454 91.08335648 96.70563454 90.82467651 97.95555115 C89.58820839 103.3373244 87.93610535 106.52677176 83.93334961 110.38818359 C80.51368173 112.04845342 77.77715102 112.63874695 73.9931488 112.64215088 C73.02442841 112.64779053 72.05570801 112.65343018 71.05763245 112.65924072 C69.48102089 112.65316803 69.48102089 112.65316803 67.87255859 112.64697266 C66.75659302 112.65047729 65.64062744 112.65398193 64.49084473 112.65759277 C60.80364759 112.66639228 57.11664244 112.66056748 53.42944336 112.65380859 C50.86784325 112.65515566 48.3062434 112.65709653 45.74464417 112.65960693 C40.37726165 112.66255571 35.00994793 112.65845891 29.64257812 112.64892578 C23.44010998 112.63803653 17.23777328 112.641572 11.0353083 112.65257859 C5.06322666 112.66275147 -0.90881418 112.66167072 -6.88090324 112.65581512 C-9.42027746 112.6544794 -11.95965503 112.65612365 -14.49902534 112.66077423 C-18.04452583 112.66584276 -21.58977238 112.65812459 -25.13525391 112.64697266 C-26.18835251 112.65102112 -27.24145111 112.65506958 -28.32646179 112.65924072 C-29.29236237 112.65360107 -30.25826294 112.64796143 -31.25343323 112.64215088 C-32.09130151 112.64139683 -32.92916979 112.64064278 -33.79242802 112.63986588 C-36.37711372 112.35382542 -37.91198775 111.84589955 -40.06665039 110.38818359 C-42.01028825 107.52769551 -42.2827497 105.5836778 -41.80952454 102.20097351 C-41.69923227 101.4108959 -41.58894001 100.62081829 -41.47530556 99.80679893 C-40.82698062 95.96970405 -40.04123836 92.17826216 -39.18066406 88.38354492 C-38.9918718 87.53355423 -38.80307953 86.68356354 -38.60856628 85.80781555 C-37.98925647 83.02738955 -37.36252784 80.2487107 -36.73461914 77.47021484 C-36.29715814 75.52448526 -35.85976607 73.57874017 -35.42243958 71.63298035 C-34.50731781 67.5681988 -33.58787271 63.50442108 -32.66601562 59.44116211 C-31.48736128 54.24210343 -30.32494497 49.03955745 -29.16639233 43.83598804 C-28.26978615 39.82170895 -27.36188737 35.81004552 -26.45086098 31.79901695 C-26.01737852 29.88185535 -25.58801872 27.96375661 -25.16292381 26.04471779 C-24.56741707 23.36184306 -23.95609295 20.68303923 -23.34082031 18.00463867 C-23.16975769 17.21748474 -22.99869507 16.43033081 -22.82244873 15.61932373 C-21.44322542 9.73156147 -19.5832987 5.20876579 -14.50831604 1.53744507 C-9.63372833 -0.09030627 -5.10759356 -0.02992294 0 0 Z " fill="#0767AC" transform="translate(394.066650390625,2254.61181640625)"/>
<path d="" fill="#008080" transform="translate(0,0)"/>
</svg>
