<?xml version="1.0" encoding="UTF-8"?>
<svg version="1.1" xmlns="http://www.w3.org/2000/svg" width="64" height="64">
<path d="M0 0 C21.12 0 42.24 0 64 0 C64 21.12 64 42.24 64 64 C42.88 64 21.76 64 0 64 C0 42.88 0 21.76 0 0 Z " fill="#FDDD00" transform="translate(0,0)"/>
<path d="M0 0 C4.30649943 0.76901776 5.76057998 2.30449088 8.5 5.625 C7.84 6.285 7.18 6.945 6.5 7.625 C3.77130593 7.59212417 1.2033382 7.06102229 -1.5 6.625 C-1.5 7.945 -1.5 9.265 -1.5 10.625 C-0.80132812 10.95113281 -0.10265625 11.27726562 0.6171875 11.61328125 C1.52726562 12.05027344 2.43734375 12.48726562 3.375 12.9375 C4.27992187 13.36675781 5.18484375 13.79601563 6.1171875 14.23828125 C8.5 15.625 8.5 15.625 10.5 18.625 C10.8276963 22.47543147 10.86769714 25.46807048 8.5 28.625 C4.55204658 30.88097338 0.97875386 31.09644777 -3.5 30.625 C-6.9375 28.625 -6.9375 28.625 -9.5 26.625 C-9.1875 24.6875 -9.1875 24.6875 -8.5 22.625 C-7.51 22.295 -6.52 21.965 -5.5 21.625 C-4.88125 22.12 -4.2625 22.615 -3.625 23.125 C-1.55388789 24.93996211 -1.55388789 24.93996211 1.25 24.3125 C1.9925 24.085625 2.735 23.85875 3.5 23.625 C3.5 22.635 3.5 21.645 3.5 20.625 C2.88511719 20.31046875 2.27023438 19.9959375 1.63671875 19.671875 C0.82847656 19.24390625 0.02023438 18.8159375 -0.8125 18.375 C-1.61300781 17.95734375 -2.41351563 17.5396875 -3.23828125 17.109375 C-5.67308009 15.51140685 -6.97944493 14.0953024 -8.5 11.625 C-9 8.6875 -9 8.6875 -8.5 5.625 C-5.89210172 1.98974785 -4.4297642 0.79102932 0 0 Z " fill="#090800" transform="translate(48.5,28.375)"/>
<path d="M0 0 C1.98 0 3.96 0 6 0 C6.11614929 4.0830942 6.18723457 8.16576377 6.25 12.25 C6.30027344 13.98830078 6.30027344 13.98830078 6.3515625 15.76171875 C6.36445312 16.87675781 6.37734375 17.99179687 6.390625 19.140625 C6.41157227 20.16704102 6.43251953 21.19345703 6.45410156 22.25097656 C5.8827286 25.70993333 4.68762541 26.82965814 2 29 C-1.10048928 30.55024464 -3.57894218 30.28992015 -7 30 C-9.9375 28 -9.9375 28 -12 26 C-11.505 24.515 -11.505 24.515 -11 23 C-9 22.25 -9 22.25 -7 22 C-6.67 22.33 -6.34 22.66 -6 23 C-4.35 23 -2.7 23 -1 23 C-0.67 15.41 -0.34 7.82 0 0 Z " fill="#0E0C00" transform="translate(29,29)"/>
</svg>
