<?xml version="1.0" encoding="UTF-8"?>
<svg version="1.1" xmlns="http://www.w3.org/2000/svg" width="993" height="1024">
<path d="M0 0 C1.62301025 0.24943359 1.62301025 0.24943359 3.27880859 0.50390625 C58.01888078 9.02130691 110.27903993 31.26677777 152 68 C152.69996094 68.60070312 153.39992188 69.20140625 154.12109375 69.8203125 C171.48022869 84.76143904 171.48022869 84.76143904 178.078125 92.71484375 C179.65366423 94.58819833 181.26519214 96.39109546 182.921875 98.19140625 C200.4680718 117.45972007 210.80271551 139.28200573 215 165 C215.17660156 166.0813623 215.35320313 167.16272461 215.53515625 168.27685547 C217.28709897 180.41687995 217.39892769 192.50040751 217.375 204.75 C217.37368576 206.397724 217.37368576 206.397724 217.37234497 208.07873535 C217.15518949 291.09073901 191.75298753 375.96208645 160 452 C159.52643066 453.13808105 159.05286133 454.27616211 158.56494141 455.44873047 C151.44371198 472.48387429 143.88296101 489.30482507 136 506 C135.44022461 507.18803223 134.88044922 508.37606445 134.30371094 509.60009766 C127.18085453 524.68853396 119.77897618 539.57200381 111.61083984 554.12841797 C110.12104328 556.78422081 108.63943817 559.44445596 107.16067505 562.10641479 C104.36127188 567.14443838 101.55592505 572.17918791 98.73828125 577.20703125 C98.23337158 578.1091333 97.72846191 579.01123535 97.20825195 579.94067383 C96 582 96 582 95 583 C103.59574303 583.24492619 111.75905259 582.55214911 120.25 581.25 C121.46002686 581.07243164 122.67005371 580.89486328 123.91674805 580.71191406 C130.88709944 579.67508511 137.8289616 578.51865848 144.76708984 577.28637695 C165.7512569 573.59051235 185.66440479 573.58099097 203.8046875 586.25390625 C212.2588701 592.97814045 217.60090493 601.80271479 221 612 C221.31718243 616.4738783 221.32438803 620.95373965 221.375 625.4375 C221.41238281 626.65888672 221.44976563 627.88027344 221.48828125 629.13867188 C221.65435753 646.47519044 212.54786345 659.94471578 200.8671875 672.09765625 C164.58713252 709.04775926 116.33053793 725.73862933 66 732 C65.14897705 732.10747559 64.2979541 732.21495117 63.42114258 732.32568359 C55.12470968 733.22877281 46.80666038 733.15147786 38.47192383 733.13037109 C35.9115627 733.12494503 33.35137189 733.13037942 30.79101562 733.13671875 C29.16145795 733.13605905 27.53190037 733.13478015 25.90234375 733.1328125 C25.13784409 733.13483673 24.37334442 733.13686096 23.5856781 733.13894653 C18.23000868 733.11500434 18.23000868 733.11500434 16 732 C15.93268677 733.26046143 15.93268677 733.26046143 15.86401367 734.54638672 C5.74364018 922.1072812 5.74364018 922.1072812 -54.0859375 976.8671875 C-90.35284582 1009.05891345 -145.33089182 1023.50064747 -193 1021 C-216.22341203 1019.15069592 -238.65070982 1010.81271859 -256 995 C-256.4738916 994.56848633 -256.9477832 994.13697266 -257.43603516 993.69238281 C-276.61061826 976.00129072 -286.85054685 953.3108676 -295.015625 928.9375 C-295.89765826 926.30540076 -296.8048029 923.6836313 -297.71875 921.0625 C-309.79476395 885.66482501 -311.29889632 847.08591432 -313 810 C-313.08677002 808.14930908 -313.08677002 808.14930908 -313.17529297 806.26123047 C-313.86347752 791.16813836 -314.13748237 776.1077854 -314 761 C-315.15371094 761.44730469 -316.30742187 761.89460937 -317.49609375 762.35546875 C-327.19824156 765.99680358 -336.82862982 768.85422337 -347 770.875 C-348.01247803 771.07762451 -349.02495605 771.28024902 -350.06811523 771.48901367 C-389.82222577 778.99902379 -436.14291103 773.2173585 -471 752 C-474.49966966 749.50425703 -477.77028858 746.83328475 -481 744 C-481.71414063 743.39414062 -482.42828125 742.78828125 -483.1640625 742.1640625 C-484.78599304 740.7876832 -486.3947856 739.39583861 -488 738 C-488.51046875 738.42410156 -489.0209375 738.84820313 -489.546875 739.28515625 C-509.26443935 755.19205657 -531.84240377 761.906962 -557 760 C-587.9391541 756.13647545 -613.8818467 736.04230173 -632.6875 712.0625 C-634.04432291 710.2919613 -635.38657316 708.51204606 -636.71777344 706.72216797 C-637.93554634 705.08656819 -639.17426026 703.46662131 -640.4140625 701.84765625 C-688.50162301 637.96340579 -712.89685717 550.80849128 -765.375 328.875 C-765.54861557 327.86960678 -765.54861557 327.86960678 -765.72573853 326.84390259 C-769.66360103 303.85366634 -771.53621863 281.00821453 -771.375 257.6875 C-771.37067963 256.49242828 -771.36635925 255.29735657 -771.36190796 254.06607056 C-771.2850958 235.8934051 -770.82682521 217.98412408 -768 200 C-767.82839355 198.89640137 -767.65678711 197.79280273 -767.47998047 196.65576172 C-764.90748457 180.74950693 -760.9754004 165.31846466 -756 150 C-755.76200684 149.26668457 -755.52401367 148.53336914 -755.27880859 147.77783203 C-738.94855234 98.69232646 -704.45076107 58.33297013 -658.5390625 34.640625 C-654.42353993 32.60463517 -650.23865917 30.76324292 -646 29 C-645.2982666 28.70432129 -644.5965332 28.40864258 -643.87353516 28.10400391 C-615.08060497 16.18319869 -583.08862905 10.57206234 -552 10 C-551.13761719 9.97953613 -550.27523437 9.95907227 -549.38671875 9.93798828 C-495.65689691 8.8013959 -438.46435496 17.68147044 -387.77026367 36.09375 C-384.06098278 37.37689706 -381.76622168 38.14467788 -377.85546875 37.40625 C-376.91316406 36.9421875 -375.97085937 36.478125 -375 36 C-373.88367188 35.45085938 -372.76734375 34.90171875 -371.6171875 34.3359375 C-370.36937778 33.68308211 -369.12200576 33.02938969 -367.875 32.375 C-313.32681634 4.5931713 -250.48743187 2.65486499 -190.96875 11.76635742 C-179.04422156 13.53681501 -169.80688924 11.86200621 -158.25 8.75 C-143.28864148 4.88477548 -128.28800758 2.19578261 -113 0 C-111.93023926 -0.16516113 -110.86047852 -0.33032227 -109.75830078 -0.50048828 C-74.38064266 -5.83832498 -35.30702931 -5.83568274 0 0 Z " fill="#FDFDFD" transform="translate(772,3)"/>
<path d="M0 0 C2.33358353 0.76838094 4.67699941 1.49719152 7.02392578 2.22363281 C39.65147406 12.64683537 72.14290976 31.0529636 97.06298828 54.61816406 C99.03923322 56.47361984 101.05383491 58.24672478 103.10595703 60.01660156 C114.15127791 69.64773124 124.37985046 80.20664194 133.36376953 91.77832031 C134.2877405 92.90457879 135.21504705 94.02810603 136.14501953 95.14941406 C143.92374272 104.5817817 150.80302019 114.46654924 157.36376953 124.77832031 C157.76160645 125.4014209 158.15944336 126.02452148 158.56933594 126.66650391 C188.36376953 173.7409341 188.36376953 173.7409341 188.36376953 187.77832031 C187.79795166 187.77165848 187.23213379 187.76499664 186.64916992 187.75813293 C180.67779311 187.69096616 174.70652618 187.64618837 168.73486328 187.61352539 C166.51606883 187.59858131 164.29730317 187.57821864 162.07861328 187.55200195 C134.77599998 187.23782477 108.10046767 191.09551724 87.42529297 210.49951172 C82.80271893 215.0796624 79.40522099 220.05419451 76.36376953 225.77832031 C75.65800781 227.10476563 75.65800781 227.10476563 74.93798828 228.45800781 C71.56885209 235.31554164 69.78563967 242.2942876 68.36376953 249.77832031 C68.17814453 250.69871094 67.99251953 251.61910156 67.80126953 252.56738281 C58.97938736 317.3136966 101.46186278 387.08678314 132.04345703 441.30175781 C133.33893911 443.60576468 134.63319655 445.91046053 135.92626953 448.21582031 C136.5635498 449.35124268 137.20083008 450.48666504 137.85742188 451.65649414 C141.93108576 458.98961342 145.65327975 466.41724331 149.17626953 474.02832031 C155.76288898 488.17878103 164.35576766 500.10934924 174.11376953 512.21972656 C175.95162183 514.51129865 177.75186369 516.83150633 179.55126953 519.15332031 C180.10169922 519.86230469 180.65212891 520.57128906 181.21923828 521.30175781 C181.59693359 521.78902344 181.97462891 522.27628906 182.36376953 522.77832031 C181.36376953 524.77832031 181.36376953 524.77832031 179.57861328 525.48925781 C178.82708984 525.70839844 178.07556641 525.92753906 177.30126953 526.15332031 C163.71268521 530.50423927 154.18107435 538.12802742 147.36376953 550.77832031 C146.76435547 551.87273437 146.76435547 551.87273437 146.15283203 552.98925781 C140.90319222 563.60695037 140.2028227 574.65734293 139.92626953 586.27832031 C139.08592295 619.53776688 133.82442224 652.65973703 129.64303589 685.62014771 C128.40302557 695.416135 127.21570659 705.21795539 126.03994751 715.02182007 C124.38559975 728.78983551 122.6334536 742.54122577 120.73876953 756.27832031 C120.64021667 756.99918823 120.54166382 757.72005615 120.44012451 758.46276855 C119.00098892 768.95054121 117.25923921 779.36387085 115.36376953 789.77832031 C115.10805176 791.22537354 115.10805176 791.22537354 114.84716797 792.70166016 C110.94983685 814.63819019 104.73830876 836.97571124 89.36376953 853.77832031 C88.77337891 854.46023438 88.18298828 855.14214844 87.57470703 855.84472656 C77.77616658 866.49803331 64.58280196 872.52234386 51.36376953 877.77832031 C50.40857422 878.16761719 49.45337891 878.55691406 48.46923828 878.95800781 C41.29232202 881.73408636 33.88569278 883.60020392 26.39599609 885.30810547 C24.50182429 885.74637732 22.61592361 886.2199803 20.73095703 886.69628906 C-0.87587176 891.58190959 -24.17696613 890.94309663 -43.63623047 879.75878906 C-48.46741235 876.56945415 -52.57844361 872.89198031 -56.63623047 868.77832031 C-57.33361328 868.09125 -58.03099609 867.40417969 -58.74951172 866.69628906 C-99.26370687 824.29405375 -90.73709015 742.54050104 -90.90966797 688.44628906 C-90.91546675 686.76027167 -90.9212772 685.07425431 -90.92709923 683.388237 C-90.97960169 667.67479328 -91.00985467 651.96133092 -91.01708984 636.24780273 C-91.02085144 628.40658977 -91.03892513 620.56553629 -91.07218421 612.72439176 C-91.09217277 607.81716197 -91.09488773 602.91034922 -91.08390403 598.00309598 C-91.08127847 594.95737003 -91.09538163 591.91188374 -91.11398506 588.86622047 C-91.11925434 587.47034204 -91.11790192 586.07441803 -91.10894966 584.67855835 C-91.00375868 566.82548644 -96.88031478 552.03138891 -109.19091797 539.03222656 C-119.41518102 529.60826525 -132.11239399 524.58650876 -145.94873047 524.71582031 C-147.20298828 524.72484375 -148.45724609 524.73386719 -149.74951172 524.74316406 C-150.70212891 524.75476563 -151.65474609 524.76636719 -152.63623047 524.77832031 C-151.26844672 516.06336331 -148.50798242 507.87743435 -145.57373047 499.59082031 C-145.3190097 498.8653299 -145.06428894 498.13983948 -144.80184937 497.3923645 C-140.39846266 484.91714355 -135.31443575 472.80390151 -129.94873047 460.71582031 C-121.57218064 441.80899346 -113.84078254 423.20179755 -109.19873047 402.96582031 C-108.96323486 401.94133789 -108.72773926 400.91685547 -108.48510742 399.86132812 C-104.77663243 382.3614023 -104.22734244 364.60575323 -104.26123047 346.77832031 C-104.26144196 345.74083649 -104.26165344 344.70335266 -104.26187134 343.63442993 C-104.31979371 314.9145408 -107.55530486 286.85649783 -113.63623047 258.77832031 C-113.82797852 257.87823242 -114.01972656 256.97814453 -114.21728516 256.05078125 C-117.96256097 238.93596663 -124.56365761 222.91713797 -137.63623047 210.77832031 C-138.40966797 209.97974609 -138.40966797 209.97974609 -139.19873047 209.16503906 C-147.24514865 201.34405932 -158.88461098 196.58480922 -169.63623047 193.77832031 C-170.37873047 193.57464844 -171.12123047 193.37097656 -171.88623047 193.16113281 C-207.55953498 185.02316022 -246.31463415 200.10108244 -277.61523438 215.87963867 C-279.63623047 216.77832031 -279.63623047 216.77832031 -281.63623047 216.77832031 C-279.76542115 148.77440163 -254.32786376 76.11228181 -204.44873047 28.71582031 C-182.49729342 9.3154111 -156.15153585 -3.04915932 -127.63623047 -9.22167969 C-126.88728516 -9.38684082 -126.13833984 -9.55200195 -125.36669922 -9.72216797 C-85.40066243 -18.06568213 -38.31890222 -12.69729508 0 0 Z " fill="#336791" transform="translate(600.63623046875,79.2216796875)"/>
<path d="M0 0 C1.34044876 -0.00110275 1.34044876 -0.00110275 2.70797729 -0.00222778 C49.38102141 0.09686355 95.515893 9.49303979 139.625 24.4375 C138.24822312 27.5746334 136.69994493 29.50376682 134.1875 31.8125 C88.3463727 76.74506442 69.79245752 147.41145994 61.875 209 C61.75938721 209.88953369 61.64377441 210.77906738 61.5246582 211.69555664 C59.80200767 226.07190594 59.45579653 240.53420599 59.49462891 254.99926758 C59.5000535 257.39866282 59.49460375 259.79787549 59.48828125 262.19726562 C59.4889413 263.7656254 59.49022093 265.33398507 59.4921875 266.90234375 C59.48915115 267.94647682 59.48915115 267.94647682 59.48605347 269.01170349 C59.50409283 272.91376756 59.72862652 276.7348003 60.12280273 280.61767578 C60.74996973 287.1106061 60.78698088 293.57067398 60.79296875 300.08984375 C60.79629715 301.38402725 60.79962555 302.67821075 60.80305481 304.01161194 C60.80900678 306.7472517 60.81089941 309.4828601 60.81030273 312.21850586 C60.81022243 314.9591343 60.81701548 317.69959217 60.83081055 320.44018555 C60.94184538 342.86496393 60.4984297 365.24420441 57 387.4375 C52.79303508 416.45187123 55.56239911 446.54149524 67.625 473.4375 C68.10308105 474.50363525 68.10308105 474.50363525 68.59082031 475.59130859 C77.06193464 494.09178311 89.39702079 512.86081611 105.625 525.4375 C102.01196902 530.583332 98.11973362 535.06951406 93.6171875 539.453125 C91.14305378 541.91755624 88.88171319 544.52580595 86.60546875 547.171875 C84.15893769 549.97066793 81.64404117 552.70421706 79.125 555.4375 C73.92072055 561.09599652 68.84056067 566.84214848 63.84765625 572.6875 C62.81515817 573.89587948 61.78260454 575.1042115 60.75 576.3125 C60.23018555 576.9211792 59.71037109 577.5298584 59.17480469 578.15698242 C56.14581344 581.69412058 53.07335977 585.18159531 49.9375 588.625 C46.16600216 592.78175837 42.61380515 597.08361865 39.078125 601.44140625 C13.3147273 632.90721204 13.3147273 632.90721204 -3.82421875 635.859375 C-15.12874783 636.71752903 -24.77203068 630.2073021 -33.125 623.25 C-51.71753046 606.98465261 -64.2538779 584.16984001 -75.375 562.4375 C-75.85646484 561.5005127 -76.33792969 560.56352539 -76.83398438 559.59814453 C-91.82851359 530.1245856 -102.95800712 498.93419668 -113.60748291 467.68536377 C-114.36664314 465.46197514 -115.13058018 463.240285 -115.89599609 461.01904297 C-121.78681416 443.90628302 -127.14945022 426.76750248 -131.65039062 409.2265625 C-132.71319997 405.13574917 -133.85356846 401.06801187 -135 397 C-137.10025033 389.49365958 -139.10658403 381.96501389 -141.0703125 374.421875 C-141.94252151 371.07290908 -142.83498055 367.73027259 -143.7421875 364.390625 C-148.55317659 346.54218498 -152.51205763 328.5103611 -156.375 310.4375 C-156.52753235 309.72636047 -156.6800647 309.01522095 -156.83721924 308.28253174 C-161.00431504 288.81850198 -164.51010588 269.26402154 -167.75 249.625 C-168.0130896 248.04484604 -168.0130896 248.04484604 -168.28149414 246.43276978 C-178.30665399 185.95240916 -177.13601613 113.38370081 -140.625 61.3125 C-128.9946714 45.29243563 -114.6976826 32.07224892 -97.375 22.4375 C-96.51261719 21.94902588 -96.51261719 21.94902588 -95.6328125 21.45068359 C-77.38991856 11.23884531 -57.00672596 5.34110897 -36.375 2.4375 C-35.14426758 2.26307373 -33.91353516 2.08864746 -32.64550781 1.90893555 C-21.75928954 0.4522461 -10.9767363 -0.00399056 0 0 Z " fill="#336791" transform="translate(230.375,68.5625)"/>
<path d="M0 0 C1.62301025 0.24943359 1.62301025 0.24943359 3.27880859 0.50390625 C58.01888078 9.02130691 110.27903993 31.26677777 152 68 C152.69996094 68.60070312 153.39992188 69.20140625 154.12109375 69.8203125 C171.48022869 84.76143904 171.48022869 84.76143904 178.078125 92.71484375 C179.65366423 94.58819833 181.26519214 96.39109546 182.921875 98.19140625 C200.4680718 117.45972007 210.80271551 139.28200573 215 165 C215.17660156 166.0813623 215.35320313 167.16272461 215.53515625 168.27685547 C217.28709897 180.41687995 217.39892769 192.50040751 217.375 204.75 C217.37368576 206.397724 217.37368576 206.397724 217.37234497 208.07873535 C217.15518949 291.09073901 191.75298753 375.96208645 160 452 C159.52643066 453.13808105 159.05286133 454.27616211 158.56494141 455.44873047 C151.44371198 472.48387429 143.88296101 489.30482507 136 506 C135.44022461 507.18803223 134.88044922 508.37606445 134.30371094 509.60009766 C127.18085453 524.68853396 119.77897618 539.57200381 111.61083984 554.12841797 C110.12104328 556.78422081 108.63943817 559.44445596 107.16067505 562.10641479 C104.36127188 567.14443838 101.55592505 572.17918791 98.73828125 577.20703125 C98.23337158 578.1091333 97.72846191 579.01123535 97.20825195 579.94067383 C96 582 96 582 95 583 C103.59574303 583.24492619 111.75905259 582.55214911 120.25 581.25 C121.46002686 581.07243164 122.67005371 580.89486328 123.91674805 580.71191406 C130.88709944 579.67508511 137.8289616 578.51865848 144.76708984 577.28637695 C165.7512569 573.59051235 185.66440479 573.58099097 203.8046875 586.25390625 C212.2588701 592.97814045 217.60090493 601.80271479 221 612 C221.31718243 616.4738783 221.32438803 620.95373965 221.375 625.4375 C221.41238281 626.65888672 221.44976563 627.88027344 221.48828125 629.13867188 C221.65435753 646.47519044 212.54786345 659.94471578 200.8671875 672.09765625 C164.58713252 709.04775926 116.33053793 725.73862933 66 732 C65.14897705 732.10747559 64.2979541 732.21495117 63.42114258 732.32568359 C55.12470968 733.22877281 46.80666038 733.15147786 38.47192383 733.13037109 C35.9115627 733.12494503 33.35137189 733.13037942 30.79101562 733.13671875 C29.16145795 733.13605905 27.53190037 733.13478015 25.90234375 733.1328125 C25.13784409 733.13483673 24.37334442 733.13686096 23.5856781 733.13894653 C18.23000868 733.11500434 18.23000868 733.11500434 16 732 C15.93268677 733.26046143 15.93268677 733.26046143 15.86401367 734.54638672 C5.74364018 922.1072812 5.74364018 922.1072812 -54.0859375 976.8671875 C-90.35284582 1009.05891345 -145.33089182 1023.50064747 -193 1021 C-216.22341203 1019.15069592 -238.65070982 1010.81271859 -256 995 C-256.4738916 994.56848633 -256.9477832 994.13697266 -257.43603516 993.69238281 C-276.61061826 976.00129072 -286.85054685 953.3108676 -295.015625 928.9375 C-295.89765826 926.30540076 -296.8048029 923.6836313 -297.71875 921.0625 C-309.79476395 885.66482501 -311.29889632 847.08591432 -313 810 C-313.08677002 808.14930908 -313.08677002 808.14930908 -313.17529297 806.26123047 C-313.86347752 791.16813836 -314.13748237 776.1077854 -314 761 C-315.15371094 761.44730469 -316.30742187 761.89460937 -317.49609375 762.35546875 C-327.19824156 765.99680358 -336.82862982 768.85422337 -347 770.875 C-348.01247803 771.07762451 -349.02495605 771.28024902 -350.06811523 771.48901367 C-389.82222577 778.99902379 -436.14291103 773.2173585 -471 752 C-474.49966966 749.50425703 -477.77028858 746.83328475 -481 744 C-481.71414063 743.39414062 -482.42828125 742.78828125 -483.1640625 742.1640625 C-484.78599304 740.7876832 -486.3947856 739.39583861 -488 738 C-488.51046875 738.42410156 -489.0209375 738.84820313 -489.546875 739.28515625 C-509.26443935 755.19205657 -531.84240377 761.906962 -557 760 C-587.9391541 756.13647545 -613.8818467 736.04230173 -632.6875 712.0625 C-634.04432291 710.2919613 -635.38657316 708.51204606 -636.71777344 706.72216797 C-637.93554634 705.08656819 -639.17426026 703.46662131 -640.4140625 701.84765625 C-688.50162301 637.96340579 -712.89685717 550.80849128 -765.375 328.875 C-765.54861557 327.86960678 -765.54861557 327.86960678 -765.72573853 326.84390259 C-769.66360103 303.85366634 -771.53621863 281.00821453 -771.375 257.6875 C-771.37067963 256.49242828 -771.36635925 255.29735657 -771.36190796 254.06607056 C-771.2850958 235.8934051 -770.82682521 217.98412408 -768 200 C-767.82839355 198.89640137 -767.65678711 197.79280273 -767.47998047 196.65576172 C-764.90748457 180.74950693 -760.9754004 165.31846466 -756 150 C-755.76200684 149.26668457 -755.52401367 148.53336914 -755.27880859 147.77783203 C-738.94855234 98.69232646 -704.45076107 58.33297013 -658.5390625 34.640625 C-654.42353993 32.60463517 -650.23865917 30.76324292 -646 29 C-645.2982666 28.70432129 -644.5965332 28.40864258 -643.87353516 28.10400391 C-615.08060497 16.18319869 -583.08862905 10.57206234 -552 10 C-551.13761719 9.97953613 -550.27523437 9.95907227 -549.38671875 9.93798828 C-495.65689691 8.8013959 -438.46435496 17.68147044 -387.77026367 36.09375 C-384.06098278 37.37689706 -381.76622168 38.14467788 -377.85546875 37.40625 C-376.91316406 36.9421875 -375.97085937 36.478125 -375 36 C-373.88367188 35.45085938 -372.76734375 34.90171875 -371.6171875 34.3359375 C-370.36937778 33.68308211 -369.12200576 33.02938969 -367.875 32.375 C-313.32681634 4.5931713 -250.48743187 2.65486499 -190.96875 11.76635742 C-179.04422156 13.53681501 -169.80688924 11.86200621 -158.25 8.75 C-143.28864148 4.88477548 -128.28800758 2.19578261 -113 0 C-111.93023926 -0.16516113 -110.86047852 -0.33032227 -109.75830078 -0.50048828 C-74.38064266 -5.83832498 -35.30702931 -5.83568274 0 0 Z M-172.2421875 41.27734375 C-177.72675874 43.12263673 -181.4045842 43.13369765 -187 42 C-189.41452964 41.62094481 -191.82999818 41.2478485 -194.24609375 40.87890625 C-197.65345236 40.3374016 -201.05939585 39.78706641 -204.46459961 39.23217773 C-221.39613814 36.48093076 -238.07675664 34.5811455 -255.25 34.625 C-256.47058105 34.62581573 -256.47058105 34.62581573 -257.71582031 34.62664795 C-281.38449079 34.69856996 -304.42967282 37.61334747 -327 45 C-327.73347656 45.23976563 -328.46695312 45.47953125 -329.22265625 45.7265625 C-339.61267314 49.20903593 -349.32451034 53.88778242 -359 59 C-360.09183594 59.57363281 -361.18367188 60.14726563 -362.30859375 60.73828125 C-367.37088647 63.2846344 -367.37088647 63.2846344 -371.734375 66.79296875 C-375.54074554 68.82084547 -379.09558753 67.18660742 -383 66 C-387.47742061 64.61830159 -391.92696245 63.1607142 -396.375 61.6875 C-406.71427574 58.31921486 -417.03260265 55.17791658 -427.59570312 52.59912109 C-430.12991503 51.96762678 -432.64994712 51.29208313 -435.171875 50.61328125 C-472.88348348 40.72660044 -512.06629854 36.15908502 -551 37 C-552.22009766 37.02102783 -552.22009766 37.02102783 -553.46484375 37.04248047 C-587.28835419 37.75324314 -621.24503088 45.87762304 -651 62 C-652.06863281 62.57621094 -653.13726563 63.15242188 -654.23828125 63.74609375 C-665.57890547 70.11508245 -675.57994978 78.06892949 -685 87 C-686.43666016 88.33998047 -686.43666016 88.33998047 -687.90234375 89.70703125 C-722.91631274 123.02668453 -739.57062994 174.65985235 -741.7890625 221.93359375 C-742 225 -742 225 -742.50212097 227.39431763 C-742.98297219 229.91088386 -743.1455818 232.19945059 -743.17700195 234.75732422 C-743.18964584 235.67911469 -743.20228973 236.60090515 -743.21531677 237.55062866 C-743.22289505 238.54196808 -743.23047333 239.5333075 -743.23828125 240.5546875 C-743.2480751 241.59557526 -743.25786896 242.63646301 -743.26795959 243.70889282 C-743.44065799 266.87412023 -742.96530125 289.1373258 -739 312 C-738.65986853 314.08318732 -738.32613519 316.16734223 -737.99264526 318.25160217 C-731.47013836 358.91534721 -722.76172996 399.23351914 -712.8125 439.1875 C-712.60821381 440.01099945 -712.40392761 440.8344989 -712.19345093 441.68295288 C-709.78167399 451.37691135 -707.18398882 460.98941372 -704.3190918 470.55908203 C-702.85189226 475.46715706 -701.45923898 480.39572671 -700.0625 485.32421875 C-664.59749261 620.6916524 -664.59749261 620.6916524 -577 722 C-562.86411476 729.28036713 -546.04854887 732.2808314 -530.5 727.4375 C-528.64415916 726.67781444 -526.80979961 725.86365081 -525 725 C-523.97132813 724.53722656 -522.94265625 724.07445312 -521.8828125 723.59765625 C-505.49829275 715.56256203 -493.8095159 701.99903268 -482.50390625 688.0390625 C-478.53791952 683.22543118 -474.42872969 678.53827622 -470.33203125 673.8359375 C-467.65766167 670.7646458 -465.00997371 667.67185751 -462.37109375 664.57006836 C-457.18782666 658.4809137 -451.8784686 652.53440189 -446.44921875 646.6640625 C-444.43126221 644.46909223 -442.45196555 642.2533379 -440.5 640 C-437.63676072 636.70045759 -434.70433847 633.46787101 -431.75 630.25 C-431.28730713 629.74533203 -430.82461426 629.24066406 -430.34790039 628.72070312 C-427.88340832 626.03662798 -425.40777192 623.36374299 -422.91796875 620.703125 C-422.4187793 620.16655273 -421.91958984 619.62998047 -421.40527344 619.07714844 C-420.01166742 617.5796942 -418.61338429 616.08659671 -417.21484375 614.59375 C-415.3502877 612.41021346 -414.09629993 610.62616479 -413 608 C-411.97003906 608.51949219 -410.94007813 609.03898438 -409.87890625 609.57421875 C-392.34716131 618.23099834 -374.7341983 623.62981484 -355 623 C-368.57110997 642.40396526 -380.2440493 655.15965307 -403.75 661.5 C-404.82620605 661.79769287 -405.90241211 662.09538574 -407.01123047 662.40209961 C-414.33527796 664.38968829 -421.69215261 666.04129852 -429.125 667.5625 C-443.09665219 670.47010771 -458.40339667 674.52120254 -467.75 686.18359375 C-472.08279636 692.89204267 -472.98860988 699.20957068 -471.64453125 707.08203125 C-468.54461832 717.29718058 -459.35428154 724.09718835 -450.5078125 729.1875 C-429.99161666 739.78829607 -407.50306532 743.40753178 -384.5625 743.375 C-383.87467438 743.37412384 -383.18684875 743.37324768 -382.47817993 743.37234497 C-349.6460547 743.23572763 -320.44995113 733.88781174 -295 713 C-293.67011213 711.99542247 -292.3374001 710.99455455 -291 710 C-291.00444122 710.79241592 -291.00888245 711.58483185 -291.01345825 712.40126038 C-299.04021813 848.39275089 -299.04021813 848.39275089 -246.90625 967.1484375 C-228.8741626 985.26535327 -204.06914262 994.00394243 -178.875 994.375 C-137.23357953 994.31407357 -93.2715391 980.25850054 -62.59375 951.65234375 C-50.56031332 939.34706739 -42.72876081 924.04633366 -37 908 C-36.56945312 906.81535156 -36.13890625 905.63070312 -35.6953125 904.41015625 C-21.74145956 863.11195175 -19.34054607 816.11156426 -14.21592712 773.10115051 C-13.35008456 765.8520704 -12.45243164 758.60793439 -11.51953125 751.3671875 C-9.23371615 733.59667246 -7.12348148 715.89150835 -6 698 C-4.41421143 698.42659912 -4.41421143 698.42659912 -2.79638672 698.86181641 C8.31400883 701.68410188 18.76300688 702.57281537 30.20361328 702.41162109 C32.86660523 702.37511508 35.52818942 702.3706041 38.19140625 702.37109375 C54.70778732 702.3050928 71.04084031 700.93864309 87.25 697.6875 C88.90201416 697.36048096 88.90201416 697.36048096 90.58740234 697.02685547 C125.73687539 689.85044023 164.65457326 670.80288827 186.796875 641.6328125 C191.53946434 634.23995264 192.91251893 627.78299467 192 619 C190.30757762 613.13421788 187.1036859 609.37035861 182 606 C168.47417546 599.08370209 151.77045907 603.97923421 137.68408203 606.52148438 C133.5093647 607.26574906 129.32233387 607.91270894 125.12695312 608.52807617 C123.08552562 608.83617106 121.04685587 609.16330936 119.01196289 609.51196289 C109.95385765 610.98064107 101.12106491 611.34094264 91.9597168 611.31567383 C89.5683855 611.31250779 87.17828966 611.33610109 84.78710938 611.36132812 C71.8668358 611.41462595 59.45732483 610.51494941 48 604 C47.34 604 46.68 604 46 604 C46.69222656 602.91847656 47.38445313 601.83695313 48.09765625 600.72265625 C94.62230622 527.72792062 132.89817944 449.19700543 161.13427734 356.89404297 C161.94442938 354.18576824 162.77426953 351.48460781 163.61328125 348.78515625 C169.38960728 330.11609997 173.86332243 311.21766248 177.6875 292.0625 C177.83202606 291.33868134 177.97655212 290.61486267 178.12545776 289.86911011 C187.81059653 241.13748965 199.70659948 175.83005938 172.09765625 130.98828125 C167.85019896 124.93743427 162.94983744 119.4787453 158 114 C157.02843334 112.90513644 156.05707433 111.81008858 155.0859375 110.71484375 C118.10234755 69.41264201 68.70069716 43.25739723 15 31 C13.67452148 30.68724121 13.67452148 30.68724121 12.32226562 30.36816406 C-45.65953263 16.90567136 -116.69041443 20.83815268 -172.2421875 41.27734375 Z " fill="#010101" transform="translate(772,3)"/>
<path d="M0 0 C0.71973999 0.10242004 1.43947998 0.20484009 2.18103027 0.31036377 C12.42440048 1.80552874 22.37711669 4.08779844 32.375 6.75 C33.37571533 7.00813477 34.37643066 7.26626953 35.4074707 7.53222656 C73.91130452 17.65846964 107.82424956 37.22779656 136.375 64.75 C136.93106934 65.28415527 137.48713867 65.81831055 138.06005859 66.36865234 C160.73718258 88.26492844 170.70024054 108.52673324 171.6640625 140.19921875 C172.46042275 187.12634503 163.29970018 233.79917812 150.375 278.75 C150.15457031 279.52021484 149.93414063 280.29042969 149.70703125 281.08398438 C137.36242547 324.06565722 121.98182371 366.07959516 103.375 406.75 C102.86759277 407.86487793 102.36018555 408.97975586 101.83740234 410.12841797 C91.10394919 433.66634911 79.77136293 456.68967515 66.87402344 479.11914062 C65.06766148 482.28939413 63.31586064 485.48722301 61.56884766 488.69042969 C57.3696665 496.3743301 52.94460027 503.90536431 48.375 511.375 C47.81039062 512.30715332 47.24578125 513.23930664 46.6640625 514.19970703 C46.13554688 515.05419434 45.60703125 515.90868164 45.0625 516.7890625 C44.59199219 517.55428223 44.12148438 518.31950195 43.63671875 519.10791016 C43.22035156 519.6497998 42.80398438 520.19168945 42.375 520.75 C40.375 520.75 40.375 520.75 38.6875 519.125 C36.88370555 515.86099099 37.49300556 514.3464822 38.375 510.75 C39.50813875 508.40460059 40.68331677 506.15197497 41.9375 503.875 C63.87152275 461.64150906 59.69092278 415.94660535 53.96044922 370.47216797 C50.49796896 342.81845561 51.16821351 316.5636972 55.02520752 289.00238037 C55.60361378 284.84515452 56.16083103 280.68504227 56.72020054 276.52521992 C57.15494665 273.29381239 57.59391437 270.06313408 58.04197693 266.83354187 C61.35653552 242.75464414 63.42349656 218.72784435 54.375 195.75 C53.7982914 194.16757186 53.22410101 192.58422386 52.65234375 191 C37.28689077 149.60003088 12.03638912 112.20132176 -17.625 79.75 C-18.46804688 78.80253906 -19.31109375 77.85507813 -20.1796875 76.87890625 C-47.3057932 46.51378829 -81.18956201 24.36713485 -117.625 6.75 C-117.625 6.09 -117.625 5.43 -117.625 4.75 C-108.74075649 2.47240303 -99.84865373 1.17687129 -90.75 0.125 C-89.70021973 0.00213623 -88.65043945 -0.12072754 -87.56884766 -0.24731445 C-58.66117959 -3.46149272 -28.82415778 -4.15279034 0 0 Z " fill="#336791" transform="translate(759.625,58.25)"/>
<path d="M0 0 C23.64556324 20.50677166 24.57716157 67.68124167 26.82348633 96.77661133 C27.19814418 103.61839225 27.24391364 110.4622117 27.25 117.3125 C27.25100708 118.10413544 27.25201416 118.89577087 27.25305176 119.71139526 C27.24166055 133.01247549 26.38594964 145.89270341 24 159 C23.86078125 159.81629883 23.7215625 160.63259766 23.578125 161.47363281 C19.58632774 184.56507114 9.93564 205.61122727 0.70556641 226.99951172 C-4.59330871 239.31934455 -9.46083594 251.73629756 -13.9375 264.375 C-14.17106201 265.03358002 -14.40462402 265.69216003 -14.64526367 266.37069702 C-17.29239079 273.85943467 -19.81694626 281.36209782 -22 289 C-49.17394955 289.9310871 -72.16807255 279.11673372 -92 261 C-92.72703125 260.35546875 -93.4540625 259.7109375 -94.203125 259.046875 C-113.52824886 240.97866976 -126.83735216 212.0799438 -128.1640625 185.74316406 C-128.64785754 170.83824514 -127.95660268 156.39510696 -125.80078125 141.65625 C-122.93797241 121.95958179 -122.81718475 102.23747285 -122.8125 82.375 C-122.81100449 80.68692734 -122.81100449 80.68692734 -122.80947876 78.9647522 C-122.81095757 64.2060579 -123.15732383 49.57185656 -124.44921875 34.8671875 C-125.06256819 24.59107069 -125.06256819 24.59107069 -122.5078125 20.765625 C-119.80620344 18.74662891 -117.05774418 17.43437227 -114 16 C-112.46098553 15.15384998 -110.92756119 14.29748965 -109.3984375 13.43359375 C-90.81042123 3.08176726 -71.80743077 -3.71210917 -51 -8 C-50.1867627 -8.18030762 -49.37352539 -8.36061523 -48.53564453 -8.54638672 C-31.93544111 -11.51607456 -13.99630369 -9.56709366 0 0 Z " fill="#336791" transform="translate(442,308)"/>
<path d="M0 0 C1.02403427 -0.00551376 1.02403427 -0.00551376 2.0687561 -0.01113892 C11.14052106 -0.0365912 19.88240706 0.64769663 28.8125 2.3125 C29.01213492 10.38057379 28.42481565 18.18377864 27.4375 26.1875 C27.29957031 27.34080811 27.16164063 28.49411621 27.01953125 29.68237305 C25.00930135 46.2585503 25.00930135 46.2585503 23.43652344 54.21435547 C17.33906246 85.12689701 20.80162064 116.97208364 24.23849487 147.96673584 C25.93661255 163.35124666 27.41118414 178.57313097 27.3125 194.0625 C27.31040527 194.7586441 27.30831055 195.45478821 27.30615234 196.17202759 C27.17741877 215.9216054 23.32387694 234.05739128 15.8125 252.3125 C15.1525 252.3125 14.4925 252.3125 13.8125 252.3125 C13.36934448 251.35718384 13.36934448 251.35718384 12.91723633 250.38256836 C7.05596107 237.80887928 0.94996723 225.49435111 -5.97509766 213.47216797 C-13.39785341 200.54848336 -20.32631425 187.35910342 -27.22662354 174.15100098 C-28.11718471 172.44703835 -29.01038405 170.74445524 -29.90380859 169.04199219 C-49.8169145 130.91786066 -75.9844797 78.9134101 -66.015625 34.765625 C-62.01189844 22.90552933 -55.9430024 14.65810087 -45.1875 8.3125 C-30.55761266 1.17971089 -15.95248685 0.04132118 0 0 Z " fill="#346891" transform="translate(763.1875,293.6875)"/>
<path d="M0 0 C9.09500056 3.09296894 14.25436879 9.98048396 19 18 C21.06774972 24.20324916 21.36825922 32.47490468 18.9765625 38.63671875 C17.47120194 40.95297795 15.85015384 42.94849471 14 45 C13.30003906 45.81984375 12.60007812 46.6396875 11.87890625 47.484375 C9.64005508 50.04527929 7.33365702 52.52551885 5 55 C4.39671875 55.67933594 3.7934375 56.35867188 3.171875 57.05859375 C-6.96881218 68.0149449 -20.28715026 74.64645561 -34 80 C-34.84175781 80.33773437 -35.68351562 80.67546875 -36.55078125 81.0234375 C-47.64799683 85.12149517 -59.68027325 85.40820918 -71.375 85.375 C-72.06743805 85.37478851 -72.7598761 85.37457703 -73.47329712 85.37435913 C-91.77040424 85.31898095 -114.41322862 84.42771858 -129 72 C-121.48321955 68.54261482 -113.84292799 66.72354328 -105.76876831 65.10769653 C-76.2534649 59.14872041 -51.71496722 51.40765317 -32.8671875 26.703125 C-11.17011946 -1.61567799 -11.17011946 -1.61567799 0 0 Z " fill="#346891" transform="translate(461,632)"/>
<path d="M0 0 C31.47165596 19.15865771 74.9344146 12.24173951 109.18188477 5.83911133 C110.37225342 5.6202124 111.56262207 5.40131348 112.7890625 5.17578125 C113.85463379 4.97380127 114.92020508 4.77182129 116.01806641 4.5637207 C118.6875 4.25 118.6875 4.25 121.6875 5.25 C82.72371048 38.11179312 33.01922776 48.78573772 -17.1171875 44.9375 C-24.15906328 44.14404921 -30.06580741 42.59523363 -36.3125 39.25 C-37.22241767 16.27457872 -37.22241767 16.27457872 -29.5625 6.3125 C-22.00043065 -1.60876765 -9.43842901 -6.32488853 0 0 Z " fill="#356892" transform="translate(805.3125,631.75)"/>
<path d="M0 0 C0.77770752 0.00499512 1.55541504 0.00999023 2.35668945 0.01513672 C11.97321966 0.29777519 22.42369977 2.42011343 30 8.6875 C33.44533724 12.4689677 33.44533724 12.4689677 33.875 16.25 C33.3462348 21.74915807 30.23482959 25.05238905 26.3125 28.6875 C19.66981725 34.02687158 13.27915971 35.14127148 4.80859375 34.90625 C-4.24784584 33.77283277 -10.77209105 28.37457298 -16.4375 21.5 C-19.32139915 17.08402942 -20.10682122 13.75895241 -19.4375 8.5 C-15.23062342 1.09589723 -7.83055247 -0.06675955 0 0 Z " fill="#FCFDFD" transform="translate(411.4375,314.5)"/>
<path d="M0 0 C0.80759766 -0.02449219 1.61519531 -0.04898437 2.44726562 -0.07421875 C8.34794712 -0.10274743 12.57574662 1.20944665 17.5625 4.375 C18.5625 5.375 18.5625 5.375 19 8.375 C18.90192486 13.68195469 15.91703469 17.47437826 12.5625 21.375 C5.31582293 28.0142558 -1.04004821 29.95800564 -10.84765625 29.82421875 C-17.625447 28.97607301 -22.16017135 25.54123945 -27 20.9375 C-28.88729252 17.57319595 -29.50659459 15.24429692 -29.4375 11.375 C-22.81247003 2.18544231 -10.62053415 0.01687138 0 0 Z " fill="#FBFCFD" transform="translate(746.4375,307.625)"/>
</svg>
