<?xml version="1.0" encoding="UTF-8"?>
<svg version="1.1" xmlns="http://www.w3.org/2000/svg" width="4096" height="4096">
<path d="M0 0 C1.19641113 0.5259375 1.19641113 0.5259375 2.41699219 1.0625 C27.59177431 12.18851506 52.66424757 27.89415256 72.69921875 46.83984375 C74.6235109 48.64652212 76.58325274 50.3645735 78.5859375 52.08203125 C83.42196324 56.29887489 87.97310102 60.78702101 92.50854492 65.32324219 C93.92668284 66.73919947 95.35296665 68.14698289 96.77929688 69.5546875 C102.96161475 75.72411659 108.5799263 82.15612777 114 89 C115.02507823 90.25445885 116.0521327 91.50730806 117.08203125 92.7578125 C155.89524501 140.4221884 181.99368264 196.90370168 201 255 C201.37576172 256.1334082 201.75152344 257.26681641 202.13867188 258.43457031 C229.52216881 341.46304151 240.52777966 430.43715131 183 1037 C184.01271973 1037.30067383 185.02543945 1037.60134766 186.06884766 1037.91113281 C223.25948701 1048.96401163 260.26590884 1060.5087286 297 1073 C297.91606018 1073.31108704 298.83212036 1073.62217407 299.77593994 1073.94268799 C353.34665986 1092.14676937 406.17666792 1112.26717574 458 1135 C459.11294434 1135.48774902 460.22588867 1135.97549805 461.37255859 1136.47802734 C489.2123193 1148.70685585 516.70444625 1161.60754959 544 1175 C544.61180115 1175.29988831 545.22360229 1175.59977661 545.85394287 1175.90875244 C560.50725569 1183.09491951 574.94856256 1190.57678749 589.22851562 1198.47753906 C592.09598079 1200.05272518 594.97536323 1201.60377068 597.859375 1203.1484375 C612.10085676 1210.77970893 626.1036803 1218.75781177 640 1227 C640.86044922 1227.50885742 641.72089844 1228.01771484 642.60742188 1228.54199219 C660.9710267 1239.41536788 679.17498338 1250.58748712 696.84814453 1262.55517578 C699.44938971 1264.30173455 702.06617433 1266.02387036 704.68359375 1267.74609375 C715.15604269 1274.65083251 725.46437338 1281.65102039 735.421875 1289.28125 C738.84497563 1291.90304228 742.34744031 1294.3965418 745.875 1296.875 C759.46491765 1306.48267414 772.38159237 1317.02025187 785.24707031 1327.56738281 C786.84381594 1328.87235542 788.44881934 1330.1672074 790.0546875 1331.4609375 C795.69923529 1336.01815031 801.11715188 1340.76129482 806.45703125 1345.671875 C808.57067054 1347.60694262 810.70659848 1349.50208297 812.875 1351.375 C824.2144601 1361.2669017 834.92761074 1371.76802075 845.54980469 1382.41943359 C847.88883481 1384.76386677 850.23322197 1387.10284871 852.578125 1389.44140625 C854.09146687 1390.95540834 855.60449881 1392.4697203 857.1171875 1393.984375 C857.80585907 1394.67102234 858.49453064 1395.35766968 859.20407104 1396.06512451 C863.66785754 1400.55028713 867.87874348 1405.19969119 872 1410 C873.02217331 1411.16777444 874.0454212 1412.33461026 875.0703125 1413.5 C940.89584106 1488.77187083 988.24118052 1579.40691181 986.79785156 1693.96679688 C981.53397991 1771.23646007 947.02658187 1844.3733962 900 1905 C899.56977539 1905.55494141 899.13955078 1906.10988281 898.69628906 1906.68164062 C892.58361116 1914.55133382 886.38276221 1922.34703636 880 1930 C879.5663916 1930.51997559 879.1327832 1931.03995117 878.68603516 1931.57568359 C871.07382309 1940.66901693 863.08276733 1949.35622181 854.92333984 1957.95898438 C853.01360257 1959.98556518 851.12328851 1962.02854191 849.23828125 1964.078125 C841.88867192 1972.04899011 834.30443366 1979.61484704 826.3125 1986.94140625 C823.65900296 1989.37502081 821.08668798 1991.86894153 818.5625 1994.4375 C815.54040754 1997.50508632 812.38588364 2000.35358248 809.12109375 2003.16015625 C806.77508942 2005.19508819 804.4826355 2007.28290967 802.1875 2009.375 C797.89040173 2013.25350727 793.46241246 2016.92865968 788.9609375 2020.56640625 C786.30230944 2022.75153195 783.6995161 2024.9839975 781.10546875 2027.24438477 C774.09165569 2033.34683752 766.83569265 2039.04670539 759.41796875 2044.6484375 C755.68277745 2047.46991933 751.99238112 2050.34437075 748.31103516 2053.2355957 C703.84802913 2088.12529652 655.31652243 2118.93929826 605.93994141 2146.36230469 C602.86336389 2148.07611319 599.79652272 2149.80650464 596.73046875 2151.5390625 C580.82604856 2160.4929435 564.68641843 2168.91291972 548.43304443 2177.21084595 C543.54864839 2179.70847984 538.70430683 2182.27302875 533.875 2184.875 C524.37900475 2189.94588529 514.65547192 2194.53016899 504.91149902 2199.1015625 C502.85660586 2200.06739772 500.80368579 2201.03734479 498.75097656 2202.0078125 C459.11137934 2220.73200551 418.87214509 2238.13966068 378 2254 C377.20734741 2254.30812622 376.41469482 2254.61625244 375.59802246 2254.93371582 C349.40369466 2265.11017937 323.05650516 2274.82175813 296.53491211 2284.11120605 C294.07375894 2284.97413855 291.61389593 2285.84065708 289.15429688 2286.70800781 C264.20178276 2295.49345171 239.01319029 2303.46892747 213.7305479 2311.24195194 C211.7406246 2311.85385518 209.75103546 2312.46683381 207.76152039 2313.08006287 C205.29751213 2313.83876131 202.83262617 2314.59461642 200.36677551 2315.3473053 C199.27636459 2315.68298019 198.18595367 2316.01865509 197.0625 2316.36450195 C196.10472656 2316.65758743 195.14695312 2316.95067291 194.16015625 2317.25263977 C192.04663492 2317.80768255 192.04663492 2317.80768255 191 2319 C191.56458649 2321.81844074 192.19866915 2324.58586045 192.88671875 2327.375 C193.32905391 2329.2155908 193.77109592 2331.05625206 194.21289062 2332.89697266 C194.57217651 2334.38139862 194.57217651 2334.38139862 194.9387207 2335.89581299 C221.5780062 2446.33332691 239.74976737 2559.18485153 248 2689 C248.07831055 2690.38282166 248.07831055 2690.38282166 248.15820312 2691.7935791 C251.23600095 2746.66909946 251.53549713 2802.14102619 248 2857 C247.93683594 2857.9852063 247.87367188 2858.9704126 247.80859375 2859.98547363 C242.27484257 2945.04994412 229.04076807 3030.73018778 180 3160 C179.52594727 3161.0317334 179.05189453 3162.0634668 178.56347656 3163.12646484 C162.40428329 3198.12725589 142.39836856 3231.66177973 117.51318359 3261.19433594 C116.11085602 3262.86771682 114.73425774 3264.55873464 113.36328125 3266.2578125 C106.7007866 3274.39894477 99.34993876 3281.86101478 91.9375 3289.3125 C91.43052582 3289.82474121 90.92355164 3290.33698242 90.4012146 3290.86474609 C83.60549161 3297.71499969 76.57552017 3304.00355194 69 3310 C67.72174414 3311.04808661 66.44543077 3312.09855095 65.171875 3313.15234375 C56.78945246 3320.00557292 48.15415194 3326.22034833 39 3332 C38.13568359 3332.54986572 38.13568359 3332.54986572 37.25390625 3333.11083984 C-43.47656503 3384.11657128 -139.51751956 3391.302355 -232 3378 C-233.17256348 3377.83161621 -234.34512695 3377.66323242 -235.55322266 3377.48974609 C-294.59143592 3368.73681696 -353.10886073 3350.1432506 -408 3327 C-408.60700745 3326.74474548 -409.21401489 3326.48949097 -409.8394165 3326.22650146 C-447.81847046 3310.24495141 -485.30427764 3292.65861252 -521.27050781 3272.52734375 C-524.29829738 3270.83308154 -527.33263981 3269.15087581 -530.3671875 3267.46875 C-540.98826562 3261.56744948 -551.56332995 3255.61536386 -561.92480469 3249.26806641 C-564.39572659 3247.75818778 -566.87359005 3246.25999752 -569.3515625 3244.76171875 C-571.31784842 3243.57054372 -573.28399403 3242.37913703 -575.25 3241.1875 C-576.12994629 3240.65511719 -577.00989258 3240.12273438 -577.91650391 3239.57421875 C-593.6818958 3229.98895091 -609.16453637 3219.99476094 -624.4987793 3209.73608398 C-627.19467159 3207.93270266 -629.89303951 3206.13307459 -632.59179688 3204.33398438 C-646.14789999 3195.28772553 -659.70617898 3186.23074068 -672.875 3176.625 C-674.39702519 3175.51937949 -675.91916388 3174.41391522 -677.44140625 3173.30859375 C-678.19695801 3172.75929199 -678.95250977 3172.20999023 -679.73095703 3171.64404297 C-681.94895185 3170.03698711 -684.17413413 3168.44051093 -686.40234375 3166.84765625 C-696.39468964 3159.69490177 -706.20383477 3152.32673211 -715.95703125 3144.8515625 C-719.7315598 3141.96058598 -723.53004827 3139.10521077 -727.34765625 3136.27148438 C-734.76715304 3130.76217612 -741.96723912 3125.02649122 -749.11328125 3119.16796875 C-752.80712152 3116.14422958 -756.55008006 3113.18772318 -760.3125 3110.25 C-766.2802033 3105.58561703 -772.15355204 3100.81574084 -778 3096 C-779.79157706 3094.54155659 -781.58324502 3093.08322483 -783.375 3091.625 C-789.08880109 3086.95007184 -794.72154284 3082.18304475 -800.34716797 3077.40283203 C-801.97028067 3076.02522412 -803.5959304 3074.65068243 -805.22265625 3073.27734375 C-826.38848876 3055.4081194 -826.38848876 3055.4081194 -834.1875 3048.3125 C-837.59821516 3045.21031992 -841.0973376 3042.26761726 -844.6875 3039.375 C-848.47047411 3036.31461645 -851.96241355 3033.15704685 -855.34375 3029.6640625 C-857.68807218 3027.3086822 -860.2002977 3025.17055227 -862.71484375 3023 C-867.02824768 3019.22484989 -871.22322922 3015.31746347 -875.43994141 3011.43505859 C-877.44340078 3009.5921268 -879.45120372 3007.75396997 -881.45922852 3005.91601562 C-883.45113495 3004.09221228 -885.44103251 3002.26622587 -887.43066406 3000.43994141 C-888.51289803 2999.44693955 -889.59560939 2998.45445783 -890.67871094 2997.46240234 C-896.35189744 2992.26439756 -901.99905416 2987.06685725 -907.39453125 2981.578125 C-910.45934885 2978.56550624 -913.73568476 2975.79251968 -917 2973 C-917.680625 2972.41476563 -918.36125 2971.82953125 -919.0625 2971.2265625 C-920.70601037 2969.81499916 -922.35266531 2968.40709838 -924 2967 C-924.4846875 2967.49628906 -924.969375 2967.99257812 -925.46875 2968.50390625 C-928.84008203 2971.9206216 -932.22584268 2975.25459813 -935.875 2978.375 C-939.90438446 2981.83553018 -943.60854878 2985.57094199 -947.3125 2989.375 C-950.0879485 2992.08590318 -952.97290598 2994.61698461 -955.90332031 2997.15722656 C-959.30511598 3000.14706746 -962.58538761 3003.26289919 -965.875 3006.375 C-971.84631462 3011.99839063 -977.87613857 3017.54268131 -984 3023 C-985.70884196 3024.54110287 -987.41716901 3026.08277686 -989.125 3027.625 C-997.35115634 3035.02344711 -1005.74303082 3042.22257039 -1014.14892578 3049.41503906 C-1015.95341852 3050.96011515 -1017.75631496 3052.50702979 -1019.55859375 3054.0546875 C-1022.4689498 3056.55378878 -1025.38210894 3059.04958337 -1028.29736328 3061.54296875 C-1029.41625113 3062.50045694 -1030.53443713 3063.45876601 -1031.65185547 3064.41796875 C-1038.23746697 3070.06786555 -1044.91811515 3075.55046118 -1051.76953125 3080.87524414 C-1055.76277634 3083.99136985 -1059.65276396 3087.20579318 -1063.5 3090.5 C-1069.55847108 3095.67820387 -1075.77941491 3100.61925079 -1082.07519531 3105.50488281 C-1084.10283937 3107.07988183 -1086.12592233 3108.66060866 -1088.1484375 3110.2421875 C-1105.89347411 3124.10375745 -1123.80826027 3137.72958407 -1142 3151 C-1143.09078857 3151.79736572 -1143.09078857 3151.79736572 -1144.20361328 3152.61083984 C-1197.65689832 3191.64193664 -1253.53749054 3227.93720146 -1311.62841797 3259.703125 C-1313.27703745 3260.60465544 -1314.92440957 3261.50846916 -1316.57080078 3262.4140625 C-1367.31374282 3290.30944492 -1419.50006891 3315.29241279 -1474 3335 C-1474.69377747 3335.25203186 -1475.38755493 3335.50406372 -1476.10235596 3335.76373291 C-1539.67536617 3358.85563938 -1605.29054136 3376.28658625 -1673 3381 C-1673.74217773 3381.05639648 -1674.48435547 3381.11279297 -1675.24902344 3381.17089844 C-1769.26237796 3388.1855814 -1865.28233724 3365.89743911 -1938 3304 C-1941.38196334 3301.05055986 -1944.69789567 3298.03816062 -1948 3295 C-1949.70760347 3293.47834722 -1951.41594542 3291.95752278 -1953.125 3290.4375 C-1960.24051346 3284.02351603 -1966.77237313 3277.27156432 -1973 3270 C-1973.89380698 3268.98113501 -1974.78840063 3267.96295982 -1975.68359375 3266.9453125 C-2000.69730973 3238.36235398 -2020.01078123 3205.83966289 -2037 3172 C-2037.42909668 3171.15115234 -2037.85819336 3170.30230469 -2038.30029297 3169.42773438 C-2077.97610218 3090.44209827 -2095.02960287 2999.08167585 -2103.25 2909 C-2103.3272229 2908.15744659 -2103.4044458 2907.31489319 -2103.48400879 2906.44680786 C-2104.06816795 2899.96972426 -2104.55306586 2893.48790553 -2105 2887 C-2105.08720306 2885.75602448 -2105.17440613 2884.51204895 -2105.26425171 2883.2303772 C-2107.08905098 2856.66696335 -2107.36314555 2830.14064565 -2107.31805801 2803.52192688 C-2107.31241429 2800.1360774 -2107.30959557 2796.75023293 -2107.30697632 2793.36437988 C-2107.27011914 2760.57069847 -2106.84314549 2727.92894224 -2104.25323486 2695.22229004 C-2103.98649732 2691.82818493 -2103.73235585 2688.43328774 -2103.47998047 2685.03808594 C-2095.80249633 2582.70204009 -2079.29227815 2481.04365414 -2044 2328 C-2050.10791954 2325.63109477 -2056.2689362 2323.62748661 -2062.5390625 2321.734375 C-2064.64386267 2321.09330853 -2066.74859609 2320.45202287 -2068.85327148 2319.81054688 C-2069.95581268 2319.47531006 -2071.05835388 2319.14007324 -2072.19430542 2318.79467773 C-2163.95778984 2290.85186127 -2253.8597564 2257.80213761 -2449.23242188 2162.58300781 C-2453.20491274 2160.31081032 -2457.20984926 2158.09836064 -2461.21264648 2155.88012695 C-2474.99840333 2148.22894144 -2488.55207115 2140.22923379 -2502 2132 C-2502.98822754 2131.39575195 -2503.97645508 2130.79150391 -2504.99462891 2130.16894531 C-2535.13957523 2111.67553997 -2564.48517028 2091.79087624 -2592.81835938 2070.62744141 C-2594.93147034 2069.05112117 -2597.05084509 2067.48361049 -2599.171875 2065.91796875 C-2608.07685023 2059.32216793 -2616.71335591 2052.4424251 -2625.27539062 2045.40869141 C-2627.53888507 2043.55982915 -2629.83083305 2041.74809255 -2632.125 2039.9375 C-2637.94361477 2035.29623036 -2643.55721937 2030.41898728 -2649.18994141 2025.55566406 C-2650.94605242 2024.04636553 -2652.71125915 2022.54859789 -2654.48046875 2021.0546875 C-2662.58458233 2014.19797741 -2670.38693609 2007.06992394 -2678.10449219 1999.78222656 C-2679.99042445 1998.00900329 -2681.88748942 1996.2486173 -2683.7890625 1994.4921875 C-2705.19127596 1974.7065389 -2705.19127596 1974.7065389 -2714.49609375 1963.72265625 C-2716.09105998 1961.89569493 -2717.77017842 1960.19940713 -2719.5 1958.5 C-2723.21204116 1954.83712494 -2726.60791175 1950.95850906 -2730 1947 C-2730.8837913 1945.98018849 -2731.76793245 1944.96068012 -2732.65234375 1943.94140625 C-2766.94593629 1904.31657771 -2797.76668511 1860.31386775 -2818.8125 1812.125 C-2819.10825928 1811.44968231 -2819.40401855 1810.77436462 -2819.70874023 1810.07858276 C-2831.58964704 1782.78620463 -2839.96350966 1754.48067123 -2845.25 1725.1875 C-2845.40138428 1724.35395996 -2845.55276855 1723.52041992 -2845.70874023 1722.66162109 C-2848.46743857 1706.33399442 -2849.38207163 1689.97305602 -2849.3125 1673.4375 C-2849.31067719 1672.52790527 -2849.30885437 1671.61831055 -2849.30697632 1670.68115234 C-2849.25533913 1655.27947905 -2848.45194885 1640.23056025 -2846 1625 C-2845.75056641 1623.41856201 -2845.75056641 1623.41856201 -2845.49609375 1621.80517578 C-2839.82100406 1586.95066663 -2828.27195683 1553.74389281 -2813 1522 C-2812.59700684 1521.14631836 -2812.19401367 1520.29263672 -2811.77880859 1519.41308594 C-2802.28852157 1499.32669402 -2790.70447879 1480.21440266 -2778 1462 C-2777.61070312 1461.43877441 -2777.22140625 1460.87754883 -2776.8203125 1460.29931641 C-2767.3588555 1446.70620192 -2757.33915983 1433.51545782 -2746.53125 1420.96484375 C-2744.21141634 1418.24763118 -2741.97556534 1415.48191319 -2739.75 1412.6875 C-2734.17794027 1405.84635905 -2728.07421631 1399.50997196 -2722.00244141 1393.11572266 C-2719.32225128 1390.28390997 -2716.66388292 1387.4320333 -2714.00463867 1384.58056641 C-2706.604772 1376.65326738 -2699.2320374 1368.85565714 -2691 1361.78125 C-2688.91662922 1359.9257479 -2686.95718793 1357.98776899 -2685 1356 C-2681.8288397 1352.78565269 -2678.54417247 1349.78249037 -2675.12109375 1346.83984375 C-2672.77508942 1344.80491181 -2670.4826355 1342.71709033 -2668.1875 1340.625 C-2663.87225424 1336.73075382 -2659.42908245 1333.03345276 -2654.91015625 1329.37890625 C-2652.33125 1327.2707802 -2649.79117656 1325.12739 -2647.26098633 1322.96166992 C-2640.99577119 1317.60337295 -2634.57396732 1312.49269568 -2627.99951172 1307.51806641 C-2625.66132472 1305.74287144 -2623.33256285 1303.95564639 -2621.00390625 1302.16796875 C-2611.78759485 1295.10134901 -2602.55819766 1288.07713791 -2593.03710938 1281.42431641 C-2591.52088982 1280.36419837 -2590.00692164 1279.3008589 -2588.49414062 1278.23583984 C-2575.17896248 1268.86197328 -2561.72609065 1259.76061617 -2548 1251 C-2547.2383252 1250.51112305 -2546.47665039 1250.02224609 -2545.69189453 1249.51855469 C-2516.90141305 1231.04779426 -2487.30139294 1213.81038582 -2457.13964844 1197.68310547 C-2453.84033628 1195.91440733 -2450.54866529 1194.13204019 -2447.2578125 1192.34765625 C-2423.74791943 1179.62810827 -2399.90179515 1167.68421113 -2375.59016418 1156.56347656 C-2371.7468109 1154.80489189 -2367.91088974 1153.0311286 -2364.07946777 1151.2467041 C-2311.51726704 1126.77847294 -2257.59247014 1105.48047106 -2203 1086 C-2202.14935974 1085.69618408 -2201.29871948 1085.39236816 -2200.42230225 1085.0793457 C-2160.1191066 1070.69964672 -2119.48185795 1057.42999936 -2078.5 1045.125 C-2077.50987349 1044.8272851 -2077.50987349 1044.8272851 -2076.49974442 1044.52355576 C-2072.09547324 1043.19941836 -2067.68902248 1041.88275985 -2063.28125 1040.5703125 C-2062.17087875 1040.23772934 -2061.06050751 1039.90514618 -2059.91648865 1039.56248474 C-2053.97815313 1037.80418583 -2048.0637507 1036.26209149 -2042 1035 C-2042.15905319 1034.33588104 -2042.31810638 1033.67176208 -2042.48197937 1032.98751831 C-2065.18095547 938.10677391 -2083.91406205 842.67443825 -2106.5625 588.6875 C-2106.58334656 587.75479279 -2106.60419312 586.82208557 -2106.62567139 585.8611145 C-2106.95567028 570.90439991 -2107.2073642 555.96042082 -2107 541 C-2106.99139954 540.30481262 -2106.98279907 539.60962524 -2106.97393799 538.89337158 C-2105.82555457 446.97038576 -2096.57476506 354.55275116 -2037 180 C-2036.55865723 179.05398926 -2036.11731445 178.10797852 -2035.66259766 177.13330078 C-2013.72856324 130.63578551 -1982.3120991 85.52868452 -1943 52 C-1942.02546875 51.1656543 -1942.02546875 51.1656543 -1941.03125 50.31445312 C-1931.10772083 41.87748438 -1920.94389038 34.06629832 -1910 27 C-1909.31389648 26.55591797 -1908.62779297 26.11183594 -1907.92089844 25.65429688 C-1855.75254477 -7.80856034 -1793.37356292 -25.95465268 -1731.3359375 -26.203125 C-1730.15764877 -26.21018463 -1728.97936005 -26.21724426 -1727.7653656 -26.22451782 C-1702.35995244 -26.34200457 -1677.21784029 -26.36665617 -1652 -23 C-1651.25842651 -22.90289734 -1650.51685303 -22.80579468 -1649.75280762 -22.70574951 C-1565.64721533 -11.64130276 -1484.99849089 15.59532215 -1333.83154297 88.42822266 C-1330.77173291 90.12671008 -1327.7010406 91.80438288 -1324.62890625 93.48046875 C-1309.1983197 101.93081988 -1294.13702705 110.86837311 -1279.15039062 120.07519531 C-1275.51998642 122.2932755 -1271.86707577 124.47095109 -1268.20776367 126.64086914 C-1217.75782479 156.58378975 -1169.06570499 190.71841688 -1122.71337891 226.67675781 C-1120.07075801 228.71765341 -1117.41361701 230.73941467 -1114.75805664 232.76342773 C-1103.01220438 241.71942784 -1091.40229934 250.81950236 -1079.96289062 260.1640625 C-1075.66518865 263.66866198 -1071.31938807 267.10159823 -1066.9375 270.5 C-1061.25790759 274.91701084 -1055.80913765 279.56365988 -1050.39648438 284.30249023 C-1046.79351361 287.45508965 -1043.15687801 290.5466407 -1039.4375 293.5625 C-1033.47961428 298.3939317 -1027.66480357 303.3834961 -1021.85888672 308.39550781 C-1019.96089714 310.03375151 -1018.06052614 311.669206 -1016.16015625 313.3046875 C-1009.49545596 319.0505552 -1002.9033846 324.85702163 -996.4140625 330.80078125 C-993.65043564 333.31845426 -990.84033532 335.77734586 -988.01953125 338.23046875 C-984.83715774 341.01889274 -981.69950574 343.85645829 -978.55859375 346.69140625 C-976.90747667 348.1811928 -975.25399856 349.66836877 -973.59765625 351.15234375 C-966.66625514 357.36476646 -959.82354076 363.66970482 -953 370 C-952.36803711 370.58539551 -951.73607422 371.17079102 -951.08496094 371.77392578 C-936.71427044 385.09266747 -936.71427044 385.09266747 -930 392 C-925.95301519 390.64923065 -923.59638638 388.94508187 -920.63671875 385.89453125 C-919.83169922 385.07533203 -919.02667969 384.25613281 -918.19726562 383.41210938 C-917.36904297 382.55423828 -916.54082031 381.69636719 -915.6875 380.8125 C-910.59028064 375.57849654 -905.50522877 370.45008421 -899.9543457 365.69604492 C-896.45187245 362.65648443 -893.1130751 359.44194603 -889.75 356.25 C-880.97835521 347.96146186 -872.17865315 339.71517332 -863.05859375 331.80859375 C-860.5104335 329.5698875 -858.00589407 327.28589788 -855.5 325 C-848.32792855 318.46566404 -840.99688077 312.13204997 -833.62573242 305.82470703 C-829.23599344 302.06638078 -824.86414164 298.28800236 -820.5 294.5 C-818.61624655 292.86728394 -816.73223745 291.23486338 -814.84814453 289.60253906 C-813.63215486 288.54814591 -812.4169628 287.49283208 -811.20263672 286.43652344 C-804.35486773 280.48276348 -797.42338766 274.70163134 -790.24975586 269.14404297 C-786.0591734 265.88021832 -782.0107294 262.48170681 -778 259 C-771.79364546 253.62242296 -765.41579526 248.51260253 -758.921875 243.48779297 C-756.86157297 241.89283863 -754.80545125 240.29260647 -752.75 238.69140625 C-749.71424941 236.32682841 -746.67625792 233.96517426 -743.63671875 231.60546875 C-740.59179971 229.24046448 -737.5530368 226.86790521 -734.51953125 224.48828125 C-719.44620881 212.67941356 -704.00169362 201.39828338 -688.4609375 190.21484375 C-685.4805697 188.06989196 -682.50706358 185.91593592 -679.5390625 183.75390625 C-668.8301488 175.96134808 -657.98517095 168.39779702 -647 161 C-646.46056763 160.63672607 -645.92113525 160.27345215 -645.36535645 159.89916992 C-620.27343978 143.01048214 -594.94706717 126.5536914 -569 111 C-567.64575928 110.18668213 -567.64575928 110.18668213 -566.26416016 109.35693359 C-551.67295377 100.61061211 -536.89504905 92.21714899 -522 84 C-521.02869141 83.46407227 -520.05738281 82.92814453 -519.05664062 82.37597656 C-492.834553 67.95116533 -466.31067358 54.25516734 -439 42 C-438.37907471 41.72047485 -437.75814941 41.44094971 -437.1184082 41.1529541 C-368.8685587 10.43487272 -297.58958077 -13.9133719 -183 -29 C-182.21077148 -29.05784668 -181.42154297 -29.11569336 -180.60839844 -29.17529297 C-119.01981001 -33.57447786 -56.56389291 -25.18553416 0 0 Z M-447 231 C-448.07620605 231.60521484 -449.15241211 232.21042969 -450.26123047 232.83398438 C-466.36822473 241.90644016 -482.30238566 251.23208895 -498 261 C-498.83998535 261.52142578 -499.6799707 262.04285156 -500.54541016 262.58007812 C-527.22396503 279.19763053 -553.36622372 296.81706694 -579 315 C-580.16789062 315.82685303 -580.16789062 315.82685303 -581.359375 316.67041016 C-592.06852886 324.27199705 -602.5406784 332.16570807 -612.96484375 340.15234375 C-617.34838736 343.50933513 -621.76105002 346.82491848 -626.1875 350.125 C-640.39579316 360.74610432 -654.28099513 371.75631331 -668 383 C-668.9384375 383.76570312 -669.876875 384.53140625 -670.84375 385.3203125 C-673.56612153 387.54248926 -676.28338047 389.77079506 -679 392 C-679.62487305 392.51143555 -680.24974609 393.02287109 -680.89355469 393.54980469 C-690.11672733 401.09999751 -699.26018373 408.72795178 -708.28076172 416.51904297 C-710.0588704 418.05071114 -711.84298135 419.57511114 -713.62890625 421.09765625 C-718.8709995 425.56906044 -724.0908377 430.04977886 -729.1875 434.6875 C-732.59821516 437.78968008 -736.0973376 440.73238274 -739.6875 443.625 C-743.47047411 446.68538355 -746.96241355 449.84295315 -750.34375 453.3359375 C-752.68807218 455.6913178 -755.2002977 457.82944773 -757.71484375 460 C-762.03138236 463.77789362 -766.2290633 467.68839781 -770.44873047 471.57373047 C-772.89807994 473.82571341 -775.35636141 476.06792651 -777.8125 478.3125 C-791.80893136 491.1068719 -791.80893136 491.1068719 -805.34765625 504.37890625 C-807.77113662 506.75655247 -810.34994331 508.87995465 -813 511 C-808.68515134 516.15384701 -804.16947951 521.09601887 -799.60107422 526.02368164 C-795.76888753 530.15934344 -791.98151885 534.33221809 -788.21875 538.53125 C-785.78351777 541.24087459 -783.33004724 543.93332171 -780.875 546.625 C-777.46198509 550.37458341 -774.09278969 554.15523412 -770.76953125 557.984375 C-768.74885044 560.28607764 -766.68687382 562.54764379 -764.625 564.8125 C-761.53363199 568.23229328 -758.57540968 571.71958524 -755.6875 575.3125 C-752.27579516 579.53396375 -748.70702372 583.54094067 -745 587.5 C-740.50043288 592.3054867 -736.26896964 597.25160717 -732.14453125 602.38671875 C-730.00125044 604.99847623 -727.7761967 607.50365302 -725.5 610 C-721.65808061 614.22013944 -718.03884779 618.58027184 -714.44921875 623.015625 C-711.68188865 626.38761893 -708.84838234 629.6965215 -706 633 C-701.75450605 637.93018683 -697.57937057 642.9068475 -693.4765625 647.95703125 C-690.334068 651.81823506 -687.1669665 655.65886272 -684 659.5 C-678.65339872 665.98921887 -673.31415107 672.48415647 -668 679 C-667.51708496 679.59103516 -667.03416992 680.18207031 -666.53662109 680.79101562 C-660.34158485 688.37521871 -654.19251147 695.9884984 -648.16674805 703.70800781 C-644.64668956 708.20624925 -641.0514178 712.6394647 -637.4375 717.0625 C-632.74133616 722.8167903 -628.15394646 728.63378377 -623.6484375 734.5390625 C-620.52477347 738.63271905 -617.35390994 742.68938243 -614.1875 746.75 C-608.00208719 754.69193981 -601.87021474 762.67327642 -595.76855469 770.6796875 C-593.82862645 773.22483906 -591.88698581 775.76867953 -589.9453125 778.3125 C-578.77694834 792.94982576 -567.74462278 807.67667877 -556.83496094 822.5078125 C-555.04084993 824.94451888 -553.24365822 827.37891774 -551.4453125 829.8125 C-544.10298032 839.75188382 -536.82827432 849.737113 -529.60888672 859.76611328 C-527.45108682 862.76214805 -525.28917359 865.75520151 -523.12695312 868.74804688 C-521.50212904 870.99705308 -519.87801745 873.2465727 -518.25390625 875.49609375 C-516.07670977 878.51092519 -513.89677083 881.52374694 -511.71484375 884.53515625 C-511.16570313 885.29376953 -510.6165625 886.05238281 -510.05078125 886.83398438 C-509.03987474 888.23040607 -508.0282665 889.62632033 -507.015625 891.02148438 C-506.53480469 891.68599609 -506.05398438 892.35050781 -505.55859375 893.03515625 C-505.01195068 893.75405029 -504.46530762 894.47294434 -503.90209961 895.21362305 C-502.32427254 897.52497465 -501.0786782 899.74083938 -499.80297852 902.21801758 C-496.72835803 907.80588435 -493.59250704 913.43520267 -487.52908325 916.07626343 C-481.35310227 917.71931538 -475.04939542 918.08277999 -468.68688965 918.38809204 C-464.94999339 918.56791389 -461.23014548 918.84241896 -457.50097656 919.14135742 C-453.50200692 919.45981933 -449.50371184 919.77480395 -445.50180054 920.05378723 C-430.75097392 921.08803062 -416.09260091 922.80175108 -401.41274643 924.55528259 C-398.50562194 924.90102956 -395.59779191 925.24061342 -392.68992329 925.58003616 C-335.62651283 932.24163718 -278.74700226 940.03272767 -222 949 C-221.2576989 949.1172921 -220.5153978 949.2345842 -219.75060272 949.3554306 C-157.77141205 959.16120456 -96.06686804 970.51165188 -34.6875 983.5625 C-34.01399757 983.70566399 -33.34049515 983.84882797 -32.64658356 983.99633026 C-17.36577656 987.24808748 -2.11468639 990.61118434 13.09211731 994.19447327 C14.10481186 994.43185715 15.11750641 994.66924103 16.16088867 994.91381836 C17.05071945 995.12421249 17.94055023 995.33460663 18.85734558 995.55137634 C20.96140587 996.06831122 20.96140587 996.06831122 23 996 C51.07443645 890.36572244 67.94434696 780.20089815 76.85284424 653.56262207 C76.95177647 651.83978155 77.05251407 650.11704384 77.15496826 648.39440918 C80.22027263 596.83582298 80.69171921 544.53679295 77 493 C76.93683594 492.11296387 76.87367188 491.22592773 76.80859375 490.31201172 C70.3042634 400.28761591 55.21925381 302.86203617 -20.0078125 188.1484375 C-21.8186982 186.19552155 -23.49905208 184.18305841 -25.1875 182.125 C-50.81762626 152.90076408 -90.12703626 138.99120076 -128 136 C-135.47413604 135.61522737 -142.95529958 135.61008126 -150.4375 135.625 C-151.4671286 135.62554382 -152.4967572 135.62608765 -153.55758667 135.62664795 C-247.55442858 135.85366495 -338.65598274 174.73924703 -447 231 Z M-1845 187 C-1885.98202248 231.67473839 -1907.41772101 290.83486194 -1921 349 C-1921.15190796 349.64759277 -1921.30381592 350.29518555 -1921.46032715 350.96240234 C-1938.16369101 422.45085174 -1942.96000647 496.75057426 -1942 570 C-1941.99139954 570.66787537 -1941.98279907 571.33575073 -1941.97393799 572.02386475 C-1940.54770956 677.61117528 -1926.57591996 782.55442042 -1906 886 C-1905.79266235 887.04786682 -1905.58532471 888.09573364 -1905.3717041 889.175354 C-1900.38718908 914.36019312 -1894.87064459 939.41728371 -1889.03271866 964.41682816 C-1888.56421964 966.43011019 -1888.10018574 968.44437483 -1887.63729858 970.45895386 C-1886.77560462 974.20435259 -1885.89127403 977.94418953 -1885.00390625 981.68359375 C-1884.74491547 982.81647827 -1884.48592468 983.94936279 -1884.21908569 985.11657715 C-1883.97091095 986.14472534 -1883.72273621 987.17287354 -1883.46704102 988.23217773 C-1883.1492141 989.58387306 -1883.1492141 989.58387306 -1882.82496643 990.96287537 C-1882.55272751 991.6351265 -1882.28048859 992.30737762 -1882 993 C-1878.40219176 994.19926941 -1876.80225388 993.72265477 -1873.12231445 992.91113281 C-1871.89956818 992.64581757 -1870.6768219 992.38050232 -1869.41702271 992.10714722 C-1868.06576555 991.80585135 -1866.71451871 991.50450918 -1865.36328125 991.203125 C-1863.95312902 990.89487014 -1862.54279549 990.58744362 -1861.1322937 990.28079224 C-1858.1095097 989.62255755 -1855.08768301 988.9601505 -1852.0664978 988.2946167 C-1844.02090948 986.52393128 -1835.96726426 984.79035063 -1827.9140625 983.0546875 C-1827.10177122 982.87943668 -1826.28947994 982.70418587 -1825.45257378 982.52362442 C-1756.4530518 967.64442429 -1686.79289939 955.50512343 -1617 945 C-1616.32850166 944.89884636 -1615.65700333 944.79769272 -1614.96515656 944.69347382 C-1548.64545869 934.71186564 -1482.09370179 926.49774991 -1415.3984375 919.47265625 C-1414.2302951 919.34646408 -1413.06215271 919.22027191 -1411.85861206 919.09025574 C-1406.14168482 918.48398516 -1400.43010198 917.94037208 -1394.69503403 917.54476261 C-1391.85394375 917.34681355 -1389.0148066 917.12588465 -1386.17547989 916.90423393 C-1384.1713755 916.75814114 -1382.16482022 916.64698319 -1380.15841675 916.53688049 C-1373.16005204 915.98482971 -1368.81083549 915.24638524 -1364.13121033 909.7976532 C-1362.25113004 907.05653386 -1360.67987778 904.21611382 -1359.18945312 901.24804688 C-1357.18068987 897.45151731 -1354.59466375 894.08415623 -1352.0625 890.625 C-1351.05814953 889.20006041 -1350.05686432 887.77295557 -1349.05859375 886.34375 C-1339.83192651 873.20767895 -1330.29759122 860.2912924 -1320.75732422 847.38232422 C-1319.0224021 845.0303695 -1317.29344856 842.67415161 -1315.56640625 840.31640625 C-1308.74711233 831.01463732 -1301.83151905 821.79387477 -1294.82519531 812.63208008 C-1290.81038699 807.38175881 -1286.82613726 802.11085792 -1282.875 796.8125 C-1277.45234206 789.55027553 -1271.89401173 782.39748114 -1266.31640625 775.25390625 C-1263.46357996 771.59971511 -1260.63243069 767.9296033 -1257.8125 764.25 C-1253.05001204 758.04787107 -1248.22260538 751.89873801 -1243.38232422 745.75732422 C-1242.02343381 744.02979098 -1240.66916291 742.29874535 -1239.31640625 740.56640625 C-1233.90157399 733.63853372 -1228.40488486 726.78460737 -1222.84521484 719.97241211 C-1219.26638183 715.58001447 -1215.73878488 711.15169047 -1212.25 706.6875 C-1207.58535415 700.72006252 -1202.81754512 694.84494273 -1198 689 C-1196.49928825 687.16724924 -1194.99929362 685.33391105 -1193.5 683.5 C-1192.75492188 682.58992188 -1192.00984375 681.67984375 -1191.2421875 680.7421875 C-1189.7659514 678.93675589 -1188.29193264 677.12950859 -1186.8203125 675.3203125 C-1182.30151153 669.77231843 -1177.71789511 664.28611801 -1173.08422852 658.83422852 C-1170.20479732 655.4408462 -1167.36810273 652.01750083 -1164.5625 648.5625 C-1160.14737176 643.13999847 -1155.59987523 637.83872545 -1151.0390625 632.5390625 C-1148.17402866 629.20834697 -1145.33346751 625.85757711 -1142.5 622.5 C-1136.70225729 615.63600576 -1130.86135348 608.80972776 -1125 602 C-1124.46052734 601.37270996 -1123.92105469 600.74541992 -1123.36523438 600.09912109 C-1117.06844342 592.78307872 -1110.7192129 585.53251022 -1104.19921875 578.4140625 C-1101.68401069 575.6531414 -1099.22721129 572.84613252 -1096.77734375 570.02734375 C-1093.94567053 566.79736924 -1091.05797493 563.61809344 -1088.1796875 560.4296875 C-1086.30854906 558.3439382 -1084.46075169 556.24182372 -1082.625 554.125 C-1079.21317487 550.20771929 -1075.70280912 546.38327362 -1072.18579102 542.56079102 C-1069.29061297 539.41287108 -1066.41646674 536.24796197 -1063.5625 533.0625 C-1061.02371326 530.22989346 -1058.46647642 527.41690546 -1055.87890625 524.62890625 C-1055.07054321 523.75770142 -1055.07054321 523.75770142 -1054.24584961 522.86889648 C-1053.18980303 521.73268008 -1052.13210284 520.59799768 -1051.07250977 519.46508789 C-1048.54320706 516.7443558 -1046.19849445 513.99152567 -1044 511 C-1049.66464777 505.66451992 -1055.33155225 500.33144273 -1061 495 C-1061.72010254 494.32259766 -1062.44020508 493.64519531 -1063.18212891 492.94726562 C-1078.86872791 478.15544402 -1078.86872791 478.15544402 -1094.953125 463.80078125 C-1097.44074726 461.61224335 -1099.87353452 459.36760809 -1102.3125 457.125 C-1105.93523905 453.81663086 -1109.61692891 450.63987642 -1113.4375 447.5625 C-1117.43226701 444.34054709 -1121.24529425 440.99319898 -1125 437.5 C-1129.55244064 433.2692428 -1134.2461376 429.27724652 -1139.0859375 425.37890625 C-1142.43982609 422.64094626 -1145.72183603 419.82773261 -1149 417 C-1154.92088989 411.89996258 -1160.93123816 406.92354229 -1167 402 C-1168.7503227 400.56289294 -1170.50031602 399.12538463 -1172.25 397.6875 C-1182.5258269 389.28926754 -1192.89222322 381.02843828 -1203.45605469 372.99487305 C-1207.87435666 369.63331651 -1212.26450057 366.23905131 -1216.63525391 362.81591797 C-1225.83206353 355.61606112 -1235.17914551 348.64543323 -1244.60888672 341.75439453 C-1246.99822081 340.00130542 -1249.37744699 338.23533766 -1251.75390625 336.46484375 C-1260.39016916 330.03938598 -1269.11260049 323.78750186 -1278.02441406 317.74926758 C-1282.45646553 314.74610148 -1286.8507875 311.70138815 -1291.20532227 308.58691406 C-1302.23711214 300.69934895 -1313.59666222 293.33619847 -1325 286 C-1325.89847656 285.41992188 -1326.79695313 284.83984375 -1327.72265625 284.2421875 C-1360.63355878 263.01247423 -1394.36786841 243.28746101 -1429 225 C-1430.15612793 224.38769531 -1431.31225586 223.77539062 -1432.50341797 223.14453125 C-1505.82193937 184.37281343 -1585.70090469 152.57278126 -1845 187 Z M-929 630 C-934.53347973 635.4434231 -940.01478828 640.86671591 -945.05859375 646.7734375 C-947.64481607 649.73952748 -950.32252509 652.61637633 -953 655.5 C-956.80741335 659.60558779 -960.56314332 663.74129252 -964.2265625 667.9765625 C-966.45138092 670.51501171 -968.72503319 673.00641776 -971 675.5 C-976.01913521 681.00899075 -980.94120436 686.58723517 -985.78125 692.25390625 C-986.8124583 693.46097313 -987.84370948 694.66800337 -988.875 695.875 C-989.39473389 696.48359863 -989.91446777 697.09219727 -990.44995117 697.71923828 C-993.47905595 701.25642957 -996.55156303 704.74401054 -999.6875 708.1875 C-1003.53851005 712.42708043 -1007.14843955 716.82932112 -1010.75 721.28125 C-1012.93501569 723.92147729 -1015.19171391 726.4672972 -1017.5 729 C-1021.32170863 733.19729034 -1024.91474189 737.53710231 -1028.484375 741.94921875 C-1031.42925361 745.52056998 -1034.45729425 749.01203094 -1037.5 752.5 C-1042.79012321 758.57037062 -1047.93852492 764.73701589 -1053 771 C-1054.39451705 772.70940799 -1055.79039228 774.41770873 -1057.1875 776.125 C-1057.92613281 777.02863281 -1058.66476562 777.93226563 -1059.42578125 778.86328125 C-1061.37421232 781.24175388 -1063.33228932 783.61208449 -1065.29296875 785.98046875 C-1071.2256865 793.15213777 -1077.10535396 800.35066951 -1082.8203125 807.69726562 C-1086.4205308 812.30742888 -1090.13699498 816.81370282 -1093.875 821.3125 C-1099.13822049 827.65491389 -1104.20237889 834.11901105 -1109.1730957 840.69238281 C-1112.87086698 845.56735561 -1116.67815477 850.33521598 -1120.5625 855.0625 C-1125.33042438 860.87327437 -1129.9127909 866.79108202 -1134.38623047 872.83105469 C-1138.98665096 879.03102476 -1143.74206562 885.10544219 -1148.54467773 891.14990234 C-1149.11130127 891.87000488 -1149.6779248 892.59010742 -1150.26171875 893.33203125 C-1150.76662842 893.96858643 -1151.27153809 894.6051416 -1151.79174805 895.26098633 C-1153.18912135 897.09801467 -1153.18912135 897.09801467 -1154 900 C-1152.54589973 899.94695457 -1152.54589973 899.94695457 -1151.06242371 899.89283752 C-1141.70173808 899.5517377 -1132.34094497 899.21372033 -1122.98005199 898.87835789 C-1118.173253 898.70606056 -1113.36649119 898.53285515 -1108.55981445 898.35717773 C-1103.87836056 898.18611717 -1099.19680903 898.0179577 -1094.51519203 897.85142326 C-1092.77277567 897.78900544 -1091.03039005 897.72571937 -1089.28804588 897.66131783 C-1054.77992804 896.3883675 -1020.27334431 895.83760579 -985.74340057 895.83274293 C-982.80429409 895.83201371 -979.86519183 895.82984582 -976.92608643 895.82724571 C-966.51712767 895.81808053 -956.10818141 895.81389845 -945.69921875 895.81469727 C-937.29034497 895.81522637 -928.8815181 895.80824013 -920.47265625 895.79418945 C-867.97424061 895.70846169 -815.54652327 896.14201972 -763.07641196 897.92931843 C-760.92073963 898.00269804 -758.76504875 898.075513 -756.60935402 898.14823151 C-739.40486157 898.72932016 -722.20161475 899.33876742 -705 900 C-707.18287417 896.08451741 -709.31578206 892.35863064 -712.1015625 888.8359375 C-712.66907227 888.11301514 -713.23658203 887.39009277 -713.82128906 886.64526367 C-714.71412598 885.52148315 -714.71412598 885.52148315 -715.625 884.375 C-716.88309438 882.77496118 -718.14090534 881.17469947 -719.3984375 879.57421875 C-720.01299805 878.79481934 -720.62755859 878.01541992 -721.26074219 877.21240234 C-723.61251624 874.22085595 -725.93495819 871.20750696 -728.25 868.1875 C-729.04019531 867.15882813 -729.83039062 866.13015625 -730.64453125 865.0703125 C-731.83536148 863.51808604 -733.02617643 861.96584769 -734.21630859 860.41308594 C-740.29466757 852.48353566 -746.43315018 844.60433342 -752.61767578 836.75732422 C-753.97656619 835.02979098 -755.33083709 833.29874535 -756.68359375 831.56640625 C-762.12031323 824.61080698 -767.64297121 817.73358421 -773.22949219 810.89770508 C-776.60316898 806.75687305 -779.89623273 802.56701283 -783.125 798.3125 C-786.88146105 793.38479988 -790.79543215 788.6432876 -794.8269043 783.94238281 C-798.13979036 780.06291827 -801.31189639 776.09387247 -804.4375 772.0625 C-808.69226468 766.58261315 -813.11970754 761.28433699 -817.65991211 756.03930664 C-820.66239382 752.56898165 -823.60879807 749.06442404 -826.5 745.5 C-830.43146765 740.65688767 -834.47879398 735.92375819 -838.55200195 731.20019531 C-841.65439525 727.59434997 -844.6946578 723.94796208 -847.6875 720.25 C-851.24095569 715.87060596 -854.962648 711.68604235 -858.76171875 707.51953125 C-861.02847158 704.96795083 -863.17540087 702.34828468 -865.3125 699.6875 C-869.725387 694.23128595 -874.44471028 689.11384549 -879.2265625 683.984375 C-883.47534628 679.42622754 -887.5429245 674.72583485 -891.5625 669.96484375 C-897.73265689 662.67551258 -904.07905785 655.60362045 -910.66015625 648.68164062 C-914.34538316 644.80013532 -917.9120083 640.84744961 -921.38574219 636.77490234 C-923.71560674 634.21317892 -926.27315353 632.12827042 -929 630 Z M-1031 1060 C-1032.31589111 1060.02922546 -1033.63178223 1060.05845093 -1034.98754883 1060.08856201 C-1104.39776088 1061.64904539 -1173.81848204 1064.78054299 -1243.08349609 1069.54394531 C-1247.92332165 1069.87489869 -1252.76279454 1070.1448713 -1257.60791016 1070.38574219 C-1260.06804593 1070.52517773 -1262.52817005 1070.664819 -1264.98828125 1070.8046875 C-1266.12347702 1070.85094269 -1267.25867279 1070.89719788 -1268.42826843 1070.94485474 C-1274.63413975 1071.28310756 -1274.63413975 1071.28310756 -1279.9753418 1074.20336914 C-1280.97754761 1075.58770142 -1280.97754761 1075.58770142 -1282 1077 C-1283.07217773 1078.3758728 -1283.07217773 1078.3758728 -1284.16601562 1079.77954102 C-1291.87411779 1090.65875104 -1299.19226821 1101.78669931 -1306.5 1112.9375 C-1308.39214686 1115.81937403 -1310.2850881 1118.70072489 -1312.17819214 1121.58197021 C-1313.40486486 1123.44897899 -1314.63120838 1125.31620411 -1315.85720825 1127.18365479 C-1319.81793862 1133.21353692 -1323.80491356 1139.22514002 -1327.81332397 1145.22340393 C-1330.61685231 1149.4197881 -1333.39253856 1153.63205105 -1336.125 1157.875 C-1336.56545654 1158.55731689 -1337.00591309 1159.23963379 -1337.4597168 1159.94262695 C-1344.33690087 1170.60887381 -1351.16890402 1181.30420644 -1358 1192 C-1358.60779297 1192.95100586 -1359.21558594 1193.90201172 -1359.84179688 1194.88183594 C-1387.02693977 1237.43184137 -1413.30000242 1280.53989011 -1439 1324 C-1439.62422852 1325.05509766 -1440.24845703 1326.11019531 -1440.89160156 1327.19726562 C-1444.0834796 1332.59284634 -1447.27201574 1337.9903903 -1450.45849609 1343.38916016 C-1452.64214546 1347.08759954 -1454.82820982 1350.78460973 -1457.01416016 1354.48168945 C-1458.65999001 1357.265961 -1460.30473248 1360.05087222 -1461.94921875 1362.8359375 C-1463.82335384 1366.00988537 -1465.70064538 1369.18190811 -1467.58203125 1372.3515625 C-1474.5638838 1384.13527398 -1481.29267404 1396.05838965 -1488 1408 C-1488.55703613 1408.99032227 -1489.11407227 1409.98064453 -1489.68798828 1411.00097656 C-1503.43271255 1435.44221596 -1516.98968335 1459.98109341 -1530.23046875 1484.69921875 C-1532.0666711 1488.12436441 -1533.90796303 1491.54673905 -1535.75 1494.96875 C-1542.83836804 1508.14643299 -1549.83422038 1521.36854178 -1556.70703125 1534.66015625 C-1559.3838593 1539.83101919 -1562.09613065 1544.98266671 -1564.8125 1550.1328125 C-1569.66032572 1559.33078489 -1574.44420461 1568.56023242 -1579.1875 1577.8125 C-1579.60264862 1578.62195068 -1580.01779724 1579.43140137 -1580.44552612 1580.26538086 C-1587.72675596 1594.4723576 -1594.91599695 1608.72483251 -1602.0625 1623 C-1602.53110443 1623.93462067 -1602.99970886 1624.86924133 -1603.48251343 1625.83218384 C-1609.2022888 1637.24669696 -1614.81530153 1648.70613646 -1620.29396057 1660.23852539 C-1620.72087692 1661.13692139 -1621.14779327 1662.03531738 -1621.58764648 1662.9609375 C-1621.98877655 1663.82299805 -1622.38990662 1664.68505859 -1622.80319214 1665.57324219 C-1624 1668 -1624 1668 -1625.30935669 1670.12207031 C-1626.99006342 1672.90660613 -1628.13629138 1674.84280793 -1627.74746704 1678.14414978 C-1627.00093991 1680.54104036 -1626.07371643 1682.73089527 -1625 1685 C-1624.64265778 1685.78255157 -1624.28531555 1686.56510315 -1623.91714478 1687.37136841 C-1622.71395394 1689.91887195 -1621.45364941 1692.43057325 -1620.17578125 1694.94140625 C-1619.71068649 1695.86735092 -1619.24559174 1696.79329559 -1618.7664032 1697.74729919 C-1617.28743163 1700.68859236 -1615.80018189 1703.6256045 -1614.3125 1706.5625 C-1613.33342288 1708.50557655 -1612.35490276 1710.44893387 -1611.37695312 1712.39257812 C-1609.46334848 1716.19401448 -1607.54691406 1719.99400122 -1605.62792969 1723.79272461 C-1600.65918129 1733.63222133 -1595.74734833 1743.50010519 -1590.83033752 1753.36552429 C-1588.78521162 1757.46790703 -1586.73867451 1761.56958489 -1584.69189453 1765.67114258 C-1583.65015683 1767.75964975 -1582.6091371 1769.84851521 -1581.56884766 1771.93774414 C-1575.20396439 1784.71866243 -1568.73385467 1797.4301175 -1562.03741455 1810.04055786 C-1560.61680296 1812.72377279 -1559.21681055 1815.417451 -1557.8203125 1818.11328125 C-1552.58543944 1828.21409526 -1547.26142391 1838.25616903 -1541.78613281 1848.22875977 C-1537.77349196 1855.54878552 -1533.83974628 1862.90876053 -1529.92218018 1870.27990723 C-1524.15762079 1881.12495286 -1518.34635563 1891.93721666 -1512.32519531 1902.64257812 C-1510.80425943 1905.34820761 -1509.28865422 1908.05678858 -1507.7734375 1910.765625 C-1505.39811769 1915.01170105 -1503.02023636 1919.25632768 -1500.640625 1923.5 C-1498.24863801 1927.76720246 -1495.8634727 1932.03809878 -1493.484375 1936.3125 C-1486.64090593 1948.59604289 -1479.66606564 1960.79157142 -1472.5546875 1972.921875 C-1468.900106 1979.15865115 -1465.29225905 1985.42183714 -1461.6875 1991.6875 C-1449.65648155 2012.57477233 -1437.48102435 2033.37804529 -1425 2054 C-1424.37158203 2055.03914551 -1423.74316406 2056.07829102 -1423.09570312 2057.14892578 C-1409.39481696 2079.79326457 -1395.62607256 2102.39598796 -1381.43554688 2124.73779297 C-1378.9502521 2128.65424558 -1376.47592293 2132.57761894 -1374 2136.5 C-1372.99870432 2138.08463946 -1371.99740224 2139.66927488 -1370.99609375 2141.25390625 C-1369.00550502 2144.40529388 -1367.01885186 2147.55911301 -1365.03515625 2150.71484375 C-1358.34107871 2161.3557503 -1351.53906994 2171.92147083 -1344.66552734 2182.44726562 C-1343.06163878 2184.90552695 -1341.46182134 2187.36638322 -1339.86328125 2189.828125 C-1335.92148492 2195.89368856 -1331.96354589 2201.94863162 -1328 2208 C-1327.4864093 2208.7842334 -1326.9728186 2209.5684668 -1326.44366455 2210.37646484 C-1305.9380278 2241.94969166 -1305.9380278 2241.94969166 -1284.50830078 2272.89648438 C-1283.46484772 2274.35171123 -1282.44367369 2275.82307719 -1281.44091797 2277.30664062 C-1280.67932373 2278.40008789 -1280.67932373 2278.40008789 -1279.90234375 2279.515625 C-1279.46269287 2280.16305664 -1279.02304199 2280.81048828 -1278.57006836 2281.47753906 C-1275.03250112 2284.90784062 -1269.04158295 2284.26981754 -1264.34838867 2284.52490234 C-1263.58676579 2284.56905683 -1262.82514292 2284.61321131 -1262.04044056 2284.6587038 C-1259.49981325 2284.80483429 -1256.95891976 2284.94555573 -1254.41796875 2285.0859375 C-1252.60594845 2285.18830947 -1250.79393692 2285.29083688 -1248.98193359 2285.39350891 C-1243.05082656 2285.72752112 -1237.11921304 2286.0519543 -1231.1875 2286.375 C-1230.16825565 2286.430723 -1229.14901131 2286.486446 -1228.09888077 2286.54385757 C-1186.59737741 2288.81059845 -1145.09651565 2290.66981676 -1103.55196381 2291.92260742 C-1101.00182837 2291.99994455 -1098.45174693 2292.07888628 -1095.90167236 2292.15820312 C-1041.58415837 2293.83947892 -987.27613412 2294.18478877 -932.93699455 2294.18724871 C-930.52387849 2294.18749754 -928.11076301 2294.1882167 -925.69764709 2294.1890831 C-872.00981086 2294.20687922 -818.3621709 2293.62768269 -764.7016983 2291.78047562 C-761.91604805 2291.6846109 -759.13035813 2291.58995616 -756.34466553 2291.49533081 C-726.05176919 2290.46046465 -695.76266056 2289.27051074 -665.50195312 2287.51416016 C-664.32774244 2287.44617753 -664.32774244 2287.44617753 -663.12981033 2287.37682152 C-658.46130155 2287.10624049 -658.46130155 2287.10624049 -653.79296112 2286.83277512 C-644.12420367 2286.26691904 -634.47128702 2285.87280467 -624.78781128 2285.68434143 C-619.30158043 2285.57584208 -613.81933824 2285.37642019 -608.33587646 2285.17404175 C-605.82450859 2285.1010148 -603.31180629 2285.06329368 -600.79937744 2285.06497192 C-587.92018757 2285.37431419 -587.92018757 2285.37431419 -576.70541382 2280.01153564 C-572.41047648 2275.01129002 -569.3081824 2269.44194848 -566.33807373 2263.58322144 C-564.55872257 2260.1480908 -562.48450048 2257.05212477 -560.30078125 2253.859375 C-558.97022338 2251.8236553 -557.64077295 2249.7872113 -556.3125 2247.75 C-555.59392822 2246.64922119 -554.87535645 2245.54844238 -554.13500977 2244.41430664 C-542.99360959 2227.33749912 -531.97504445 2210.18418392 -521 2193 C-520.39220703 2192.04899414 -519.78441406 2191.09798828 -519.15820312 2190.11816406 C-510.01241544 2175.80323781 -500.97338104 2161.42359078 -492 2147 C-491.15888672 2145.64841797 -491.15888672 2145.64841797 -490.30078125 2144.26953125 C-482.41872876 2131.59459173 -474.63076556 2118.8638464 -466.88623047 2106.10449219 C-464.92875753 2102.88274408 -462.9666831 2099.66383173 -461.00390625 2096.4453125 C-451.37397681 2080.64049241 -441.87799555 2064.75957762 -432.45307922 2048.83171082 C-429.89755572 2044.51333222 -427.33571857 2040.19876759 -424.76953125 2035.88671875 C-417.59652968 2023.82558367 -410.49819361 2011.72574649 -403.50512695 1999.55932617 C-399.92430002 1993.32956493 -396.31860507 1987.1155758 -392.68408203 1980.91699219 C-385.55021913 1968.74734403 -378.61504556 1956.47533094 -371.75439453 1944.14990234 C-368.82325131 1938.88722354 -365.88032553 1933.63115222 -362.9375 1928.375 C-362.35597168 1927.33504883 -361.77444336 1926.29509766 -361.17529297 1925.22363281 C-358.39875938 1920.2626035 -355.61145282 1915.30842589 -352.79296875 1910.37109375 C-345.94906909 1898.37211738 -339.35187314 1886.26191829 -332.88037109 1874.05957031 C-328.88787581 1866.53208311 -324.85203324 1859.03102009 -320.75 1851.5625 C-315.1509537 1841.35308482 -309.76727948 1831.03704322 -304.40527344 1820.70166016 C-302.28549357 1816.62635022 -300.14345626 1812.56289231 -298 1808.5 C-292.87317447 1798.76974425 -287.77063688 1789.02707228 -282.69873047 1779.26806641 C-281.5530725 1777.06401674 -280.40623611 1774.86057925 -279.25830078 1772.65771484 C-269.38971937 1753.70293083 -259.76125912 1734.62909474 -250.19796753 1715.51887131 C-249.25690976 1713.63880447 -248.31516982 1711.75908068 -247.37329102 1709.87942505 C-245.58457392 1706.30904703 -243.79980742 1702.7367088 -242.015625 1699.1640625 C-241.48289978 1698.10059097 -240.95017456 1697.03711945 -240.40130615 1695.94142151 C-239.40074081 1693.93414658 -238.40822469 1691.92283333 -237.42492676 1689.90704346 C-236.45564626 1687.92958004 -235.46132225 1685.96423904 -234.44519043 1684.01043701 C-231.67154824 1678.73322442 -231.67154824 1678.73322442 -231.36914062 1672.96362305 C-231.90732422 1671.98562744 -232.44550781 1671.00763184 -233 1670 C-233.7599033 1668.406008 -234.51671294 1666.81053971 -235.27148438 1665.21411133 C-236.2080067 1663.33463614 -237.14904029 1661.45740444 -238.09375 1659.58203125 C-238.59990845 1658.57017258 -239.10606689 1657.5583139 -239.62756348 1656.51579285 C-240.70163738 1654.37066291 -241.7776529 1652.2265042 -242.85546875 1650.08325195 C-244.47064413 1646.87088488 -246.07961354 1643.65547356 -247.6875 1640.43945312 C-253.23920695 1629.35527841 -258.88718786 1618.330663 -264.69042969 1607.3762207 C-266.91807292 1603.16742431 -269.10351872 1598.93801654 -271.2734375 1594.69921875 C-271.61072372 1594.04058334 -271.94800995 1593.38194794 -272.29551697 1592.70335388 C-272.97474695 1591.37653502 -273.65385945 1590.04965602 -274.33285522 1588.72271729 C-279.95234881 1577.7483395 -285.65163793 1566.83408029 -291.61499023 1556.04150391 C-295.52127674 1548.94824708 -299.23850133 1541.76565337 -302.9375 1534.5625 C-307.74263919 1525.22081556 -312.74084346 1516.02759893 -317.96459961 1506.91430664 C-322.46875723 1499.02440067 -326.75020359 1491.02847211 -331 1483 C-336.74371207 1472.15702972 -342.64586487 1461.42437823 -348.7265625 1450.765625 C-352.35640903 1444.39739577 -355.89339085 1437.97870067 -359.4375 1431.5625 C-364.76290606 1421.93785266 -370.22345702 1412.40461276 -375.79833984 1402.92260742 C-379.98176914 1395.79168167 -384.04460414 1388.60031964 -388.0625 1381.375 C-393.39925915 1371.78980253 -398.89263717 1362.31334598 -404.50390625 1352.88671875 C-408.2440124 1346.60320999 -411.93595124 1340.29186699 -415.62802124 1333.98007202 C-421.69168299 1323.61667787 -427.7709409 1313.26523514 -434 1303 C-434.86431641 1301.57445801 -434.86431641 1301.57445801 -435.74609375 1300.12011719 C-439.31454556 1294.23570483 -442.88640833 1288.35337854 -446.4609375 1282.47265625 C-449.43001705 1277.5879734 -452.39327196 1272.69981749 -455.3515625 1267.80859375 C-464.43845164 1252.79054309 -473.6439472 1237.85240063 -483 1223 C-483.80195801 1221.72672852 -483.80195801 1221.72672852 -484.62011719 1220.42773438 C-487.59400298 1215.70899511 -490.57417316 1210.99425956 -493.55712891 1206.28125 C-495.01248433 1203.98026167 -496.46559118 1201.67786895 -497.91796875 1199.375 C-500.94156308 1194.58095885 -503.97002632 1189.79001116 -507 1185 C-507.53318848 1184.15630859 -508.06637695 1183.31261719 -508.61572266 1182.44335938 C-518.25823009 1167.19527263 -528.0862614 1152.07270569 -538 1137 C-538.53612915 1136.18484924 -539.0722583 1135.36969849 -539.62463379 1134.52984619 C-543.97648391 1127.914124 -548.33137405 1121.30040737 -552.6875 1114.6875 C-553.29248322 1113.76886169 -553.89746643 1112.85022339 -554.52078247 1111.90374756 C-555.11470795 1111.00206848 -555.70863342 1110.1003894 -556.32055664 1109.17138672 C-556.90879211 1108.27509048 -557.49702759 1107.37879425 -558.10308838 1106.45533752 C-559.29257515 1104.65898781 -560.49615008 1102.87188813 -561.71356201 1101.09434509 C-564.80643707 1096.54570116 -567.51145816 1092.07912717 -569.85229492 1087.09643555 C-573.30413376 1080.17517537 -576.63217674 1073.68835811 -584.1711731 1070.77420044 C-593.18356906 1068.7004468 -602.3296797 1068.58785941 -611.53595734 1068.47925186 C-615.62186254 1068.40821663 -619.70230574 1068.21858768 -623.78466797 1068.03979492 C-630.67789928 1067.75009934 -637.5706383 1067.5230838 -644.46728516 1067.33300781 C-654.81567815 1067.04005363 -665.14494521 1066.5139684 -675.48046875 1065.9296875 C-678.85170148 1065.74094728 -682.2229679 1065.55281237 -685.59423828 1065.36474609 C-686.42366692 1065.31833544 -687.25309555 1065.27192478 -688.10765839 1065.22410774 C-721.11967844 1063.38899388 -754.16175797 1062.08907092 -787.20861816 1061.08532715 C-789.80159077 1061.00606499 -792.39445675 1060.92404753 -794.98730469 1060.84082031 C-805.99021642 1060.49025093 -816.9937805 1060.22215619 -828 1060 C-829.07397034 1059.97808594 -830.14794067 1059.95617188 -831.25445557 1059.93359375 C-897.8359196 1058.5907508 -964.41984979 1058.51546195 -1031 1060 Z M-369 1094 C-367.6518016 1097.63777613 -366.0139723 1100.79160058 -363.9453125 1104.0703125 C-363.33679443 1105.03912354 -362.72827637 1106.00793457 -362.10131836 1107.00610352 C-361.12304077 1108.54995728 -361.12304077 1108.54995728 -360.125 1110.125 C-359.45025635 1111.19741943 -358.7755127 1112.26983887 -358.08032227 1113.37475586 C-355.0076071 1118.25490786 -351.92092903 1123.12617397 -348.83203125 1127.99609375 C-347.86700228 1129.51811174 -346.90215448 1131.04024463 -345.9375 1132.5625 C-345.45933838 1133.31692383 -344.98117676 1134.07134766 -344.48852539 1134.84863281 C-340.00281059 1141.94983105 -335.63983815 1149.1239323 -331.28540039 1156.30615234 C-327.35261658 1162.7902383 -323.37867836 1169.24698302 -319.375 1175.6875 C-313.69633245 1184.83116098 -308.13748599 1194.04289596 -302.62231445 1203.28588867 C-301.03734511 1205.93752211 -299.44779871 1208.58637906 -297.85719299 1211.2346344 C-292.81977965 1219.6222489 -287.80766335 1228.02466075 -282.8125 1236.4375 C-282.40269897 1237.12765198 -281.99289795 1237.81780396 -281.57067871 1238.52886963 C-260.28574538 1274.38740981 -239.40565411 1310.50413261 -219.08007812 1346.91601562 C-215.76287044 1352.85824285 -212.42337158 1358.78691659 -209.0612793 1364.70385742 C-203.5456265 1374.41409327 -198.16422395 1384.18675618 -192.87475586 1394.02197266 C-189.17572737 1400.88198913 -185.36648522 1407.67071513 -181.5 1414.4375 C-176.38114851 1423.41300988 -171.55259996 1432.51357478 -166.82226562 1441.69897461 C-161.81052188 1451.41874311 -156.61533274 1461.03336804 -151.3203125 1470.6015625 C-150.40883698 1472.25731981 -149.50845558 1473.91921584 -148.6171875 1475.5859375 C-148.17632813 1476.40320312 -147.73546875 1477.22046875 -147.28125 1478.0625 C-146.89001953 1478.79597656 -146.49878906 1479.52945312 -146.09570312 1480.28515625 C-145.10270102 1482.16236485 -145.10270102 1482.16236485 -143 1483 C-131.31963611 1455.8039948 -119.94697965 1428.49975483 -109 1401 C-108.46629791 1399.65929443 -108.46629791 1399.65929443 -107.92181396 1398.29150391 C-79.69187025 1327.29805114 -53.87836556 1255.48090245 -30.01754761 1182.90847778 C-29.30179586 1180.7325043 -28.58430757 1178.5571012 -27.86502075 1176.3822937 C-26.87131793 1173.37402357 -25.88559196 1170.36326336 -24.90234375 1167.3515625 C-24.60637299 1166.45922409 -24.31040222 1165.56688568 -24.00546265 1164.64750671 C-23.73932159 1163.82619766 -23.47318054 1163.00488861 -23.19897461 1162.15869141 C-22.84953041 1161.09251083 -22.84953041 1161.09251083 -22.49302673 1160.00479126 C-21.84079413 1157.69670976 -21.84079413 1157.69670976 -22 1154 C-82.46804411 1140.82924867 -143.01692502 1128.55950464 -204 1118 C-205.27234497 1117.77957031 -206.54468994 1117.55914063 -207.85559082 1117.33203125 C-240.74400925 1111.65104033 -273.71588199 1106.6374154 -306.75175858 1101.90289307 C-309.52885299 1101.50482298 -312.30579332 1101.10568978 -315.08273315 1100.70654297 C-341.97567164 1096.80441792 -341.97567164 1096.80441792 -369 1094 Z M-1500.46191406 1094.53808594 C-1501.57352402 1094.68330185 -1502.68513397 1094.82851776 -1503.83042908 1094.97813416 C-1505.04654373 1095.14519363 -1506.26265839 1095.31225311 -1507.515625 1095.484375 C-1508.80010025 1095.65534195 -1510.0845755 1095.8263089 -1511.40797424 1096.00245667 C-1514.94628882 1096.47466934 -1518.48304678 1096.95769573 -1522.01947403 1097.44382095 C-1524.26130881 1097.75155233 -1526.50345521 1098.05691336 -1528.74569702 1098.36166382 C-1602.49148783 1108.39640641 -1675.97183212 1120.29884559 -1804.46650314 1145.75639725 C-1806.48527981 1146.18437931 -1808.50436124 1146.61090139 -1810.52346802 1147.037323 C-1814.23590903 1147.82399287 -1817.94641971 1148.61908816 -1821.65625 1149.41796875 C-1822.75380112 1149.65070496 -1823.85135223 1149.88344116 -1824.98216248 1150.12322998 C-1825.98642776 1150.34190735 -1826.99069305 1150.56058472 -1828.02539062 1150.78588867 C-1828.8950647 1150.97318039 -1829.76473877 1151.16047211 -1830.6607666 1151.35343933 C-1832.97000682 1151.99170993 -1834.90298875 1152.85270206 -1837 1154 C-1820.60918768 1205.68229052 -1803.57255154 1257.05721051 -1785 1308 C-1784.27082539 1310.0037406 -1783.54165855 1312.00748402 -1782.8125 1314.01123047 C-1762.07735536 1370.9281448 -1739.96678298 1427.36303768 -1716 1483 C-1713.68660352 1480.88017595 -1712.29426357 1478.92889565 -1710.94140625 1476.10546875 C-1710.37244629 1474.93745728 -1710.37244629 1474.93745728 -1709.79199219 1473.74584961 C-1709.38625977 1472.90159424 -1708.98052734 1472.05733887 -1708.5625 1471.1875 C-1704.96148082 1463.83686295 -1701.20823532 1456.60195842 -1697.25 1449.4375 C-1692.71214829 1441.21558281 -1688.35102667 1432.91701869 -1684.0625 1424.5625 C-1679.25752431 1415.22073332 -1674.25915292 1406.02759262 -1669.03540039 1396.91430664 C-1664.53124124 1389.02439798 -1660.24984935 1381.02844625 -1656 1373 C-1649.73306178 1361.16997297 -1643.25786014 1349.47914276 -1636.61962891 1337.85253906 C-1634.3317861 1333.82312162 -1632.07936335 1329.77426223 -1629.82495117 1325.72607422 C-1623.53252772 1314.43126565 -1617.09340499 1303.23187401 -1610.5546875 1292.078125 C-1606.90010523 1285.84134754 -1603.29240096 1279.57808223 -1599.6875 1273.3125 C-1587.09997289 1251.46910086 -1574.32925171 1229.75079956 -1561.19200134 1208.23336792 C-1558.69200325 1204.13803654 -1556.20084757 1200.03743375 -1553.71484375 1195.93359375 C-1540.79497056 1174.60832363 -1527.81272854 1153.32349812 -1514.44433594 1132.27539062 C-1511.91544957 1128.29141143 -1509.39518453 1124.30198751 -1506.875 1120.3125 C-1506.38322266 1119.53422852 -1505.89144531 1118.75595703 -1505.38476562 1117.95410156 C-1500.56365744 1110.31907963 -1495.77720296 1102.66254899 -1491 1095 C-1494.36847852 1093.91626099 -1496.97191439 1094.07142579 -1500.46191406 1094.53808594 Z M-2008.58203125 1196.421875 C-2009.45087448 1196.67765823 -2010.31971771 1196.93344147 -2011.21488953 1197.19697571 C-2014.08221786 1198.04314246 -2016.94747775 1198.89605986 -2019.8125 1199.75 C-2021.29000732 1200.18866898 -2021.29000732 1200.18866898 -2022.79736328 1200.63619995 C-2054.73707575 1210.12338711 -2086.45995268 1220.25989499 -2118 1231 C-2119.24266632 1231.42282257 -2119.24266632 1231.42282257 -2120.51043701 1231.85418701 C-2201.6537277 1259.49395148 -2280.82628243 1292.59519005 -2395.27734375 1352.43945312 C-2398.10106701 1354.05792865 -2400.93859177 1355.64941228 -2403.78125 1357.234375 C-2416.75240326 1364.47330755 -2429.43935268 1372.07222574 -2442 1380 C-2443.80985088 1381.13418632 -2445.61974726 1382.26830004 -2447.4296875 1383.40234375 C-2480.02657768 1403.90604534 -2511.38170565 1426.37688632 -2541 1451 C-2541.88123535 1451.73259033 -2541.88123535 1451.73259033 -2542.78027344 1452.47998047 C-2549.22053214 1457.85047071 -2555.55229425 1463.32670869 -2561.75390625 1468.97265625 C-2563.72336836 1470.75030988 -2565.72659962 1472.47210137 -2567.75 1474.1875 C-2573.60713911 1479.27806058 -2578.97799839 1484.90192568 -2584.43212891 1490.41552734 C-2587.74639097 1493.7648828 -2591.08623191 1497.08647077 -2594.453125 1500.3828125 C-2600.92617985 1506.7464421 -2607.19991273 1513.06612976 -2612.77734375 1520.2421875 C-2614.71607701 1522.64771593 -2616.72250908 1524.92763477 -2618.79296875 1527.21875 C-2622.9196201 1531.83513363 -2626.684259 1536.65635701 -2630.375 1541.625 C-2631.0256543 1542.49890381 -2631.67630859 1543.37280762 -2632.34667969 1544.27319336 C-2658.51503481 1579.65097084 -2682.38504976 1621.99203906 -2684 1667 C-2684.03996094 1667.96035156 -2684.07992187 1668.92070313 -2684.12109375 1669.91015625 C-2685.06886244 1714.90129369 -2664.17247059 1758.79958992 -2639 1795 C-2638.43611572 1795.81283447 -2638.43611572 1795.81283447 -2637.86083984 1796.64208984 C-2626.4042962 1813.09768201 -2613.79932625 1828.65331312 -2600.29418945 1843.47045898 C-2598.874157 1845.03616679 -2597.46214827 1846.60924438 -2596.06323242 1848.19384766 C-2590.16002991 1854.86393146 -2583.95939246 1861.19445603 -2577.65209961 1867.47827148 C-2575.9329133 1869.19207233 -2574.21917417 1870.91119082 -2572.50585938 1872.63085938 C-2567.36784057 1877.77198665 -2562.22180983 1882.83687714 -2556.68823242 1887.55688477 C-2554.11684661 1889.75492692 -2551.6627842 1892.06935067 -2549.1875 1894.375 C-2544.61567543 1898.59398254 -2539.92745156 1902.61147468 -2535.078125 1906.51171875 C-2532.77859241 1908.37060486 -2530.50086452 1910.24614776 -2528.234375 1912.14453125 C-2518.21439539 1920.51902907 -2507.92302281 1928.44977988 -2497.41748047 1936.20458984 C-2495.22385986 1937.83374415 -2493.04845664 1939.48354327 -2490.87890625 1941.14453125 C-2479.73681616 1949.60724535 -2468.1372309 1957.36588314 -2456.5 1965.125 C-2455.27027969 1965.94576523 -2455.27027969 1965.94576523 -2454.01571655 1966.78311157 C-2438.15239584 1977.35727142 -2422.11469215 1987.65415388 -2405.75 1997.4375 C-2404.70336182 1998.06382324 -2403.65672363 1998.69014648 -2402.57836914 1999.33544922 C-2376.58345209 2014.82253148 -2349.92821555 2029.20730146 -2323 2043 C-2322.41883423 2043.29777344 -2321.83766846 2043.59554687 -2321.2388916 2043.90234375 C-2302.35949653 2053.56537302 -2283.28974726 2062.69774307 -2263.92475891 2071.3460083 C-2259.61320942 2073.27205961 -2255.31474959 2075.22442409 -2251.0234375 2077.1953125 C-2204.10246601 2098.65805295 -2155.67160674 2116.93591629 -2107 2134 C-2106.15324707 2134.29757202 -2105.30649414 2134.59514404 -2104.43408203 2134.9017334 C-2081.43078416 2142.98107265 -2058.30300311 2150.57905569 -2035 2157.75 C-2033.88194977 2158.09456238 -2032.76389954 2158.43912476 -2031.61196899 2158.79412842 C-2028.40937444 2159.77884586 -2025.20513673 2160.75796691 -2022 2161.734375 C-2020.59635445 2162.16464493 -2020.59635445 2162.16464493 -2019.16435242 2162.60360718 C-2012.49384675 2164.62199998 -2005.77336187 2166.36151579 -1999 2168 C-1998.81558853 2167.41974564 -1998.63117706 2166.83949127 -1998.44117737 2166.24165344 C-1992.37951613 2147.1885276 -1986.18039619 2128.18184168 -1979.9375 2109.1875 C-1979.68577782 2108.42157909 -1979.43405563 2107.65565819 -1979.17470551 2106.86652756 C-1948.59010939 2013.8252488 -1914.53560605 1922.14927764 -1825.9375 1713.1875 C-1825.16164551 1711.45113281 -1825.16164551 1711.45113281 -1824.37011719 1709.6796875 C-1822.02095148 1704.43631311 -1819.6398679 1699.21409541 -1817.16796875 1694.02734375 C-1816.73556885 1693.10735596 -1816.30316895 1692.18736816 -1815.85766602 1691.23950195 C-1815.06967705 1689.56816628 -1814.2680412 1687.90315327 -1813.44897461 1686.24682617 C-1811.17890543 1681.40411904 -1810.52074638 1678.33974479 -1812 1673 C-1813.09781375 1670.20963173 -1814.40162285 1667.55186069 -1815.75 1664.875 C-1816.58224181 1663.16803614 -1817.4114833 1661.45960733 -1818.23828125 1659.75 C-1818.91044678 1658.36167969 -1818.91044678 1658.36167969 -1819.59619141 1656.9453125 C-1824.62082227 1646.40320002 -1829.2689204 1635.67666684 -1834 1625 C-1834.33598206 1624.24189026 -1834.67196411 1623.48378052 -1835.01812744 1622.70269775 C-1873.8811345 1534.96463389 -1909.6437988 1445.95400836 -1991.03123474 1212.23899841 C-1992.94541351 1206.13344225 -1994.94206848 1200.05879694 -1997 1194 C-2001.08623858 1194 -2004.69952127 1195.2648425 -2008.58203125 1196.421875 Z M138 1196 C136.45524615 1200.60313663 134.91417619 1205.20749608 133.375 1209.8125 C133.13047089 1210.54381134 132.88594177 1211.27512268 132.63400269 1212.02859497 C129.66517202 1220.91432342 126.72660364 1229.80874954 123.85546875 1238.7265625 C108.66834478 1285.87108016 92.3722749 1332.61682615 75 1379 C74.24169669 1381.02897041 73.48339592 1383.05794177 72.72509766 1385.08691406 C43.16867798 1464.07397229 11.05752908 1542.23293098 -23.83926392 1619.01300049 C-26.41868603 1624.69612057 -28.96151901 1630.39485018 -31.48828125 1636.1015625 C-31.85448578 1636.92837524 -32.22069031 1637.75518799 -32.59799194 1638.60705566 C-34.00648937 1641.78894135 -35.41421112 1644.97115713 -36.81738281 1648.15539551 C-37.75778436 1650.28937454 -38.70080111 1652.42217878 -39.64453125 1654.5546875 C-39.9345401 1655.21400269 -40.22454895 1655.87331787 -40.52334595 1656.5526123 C-42.54213265 1661.10019041 -44.77303248 1665.48290595 -47.2565918 1669.79345703 C-49.15895053 1675.43993263 -45.95126525 1680.72231038 -43.4921875 1685.73828125 C-42.95653671 1686.85524132 -42.95653671 1686.85524132 -42.4100647 1687.99476624 C-41.64021944 1689.59875718 -40.8671086 1691.20118408 -40.09106445 1692.80218506 C-38.00991506 1697.09828992 -35.95561368 1701.40722182 -33.8984375 1705.71484375 C-33.27174164 1707.02494415 -33.27174164 1707.02494415 -32.63238525 1708.36151123 C-26.88775465 1720.38993611 -21.41466856 1732.54029204 -15.94238281 1744.69433594 C-14.26356675 1748.42026994 -12.573492 1752.14099923 -10.88088989 1755.86068726 C0.26497768 1780.36326441 10.96541886 1805.0432325 21.50840759 1829.81071472 C23.7784416 1835.14211731 26.05982722 1840.46810664 28.36328125 1845.78515625 C56.56205162 1910.89065202 82.02798544 1977.2345397 106 2044 C106.51968795 2045.44466364 107.0393816 2046.88932522 107.55908203 2048.33398438 C114.50558009 2067.6689208 121.13753934 2087.11120385 127.75 2106.5625 C128.35069809 2108.32708557 128.35069809 2108.32708557 128.96353149 2110.12731934 C134.48619321 2126.36321562 139.83277266 2142.64744575 145 2159 C151.59044842 2157.62375193 157.96164564 2155.88343565 164.3828125 2153.8671875 C165.86982918 2153.40421265 165.86982918 2153.40421265 167.3868866 2152.93188477 C170.63456568 2151.91807958 173.8800157 2150.89739597 177.125 2149.875 C178.24691742 2149.52230042 179.36883484 2149.16960083 180.52474976 2148.80621338 C266.31324455 2121.79716555 350.84709826 2089.70653338 456.01379395 2038.97845459 C457.91174958 2038.04347435 459.81069765 2037.11054314 461.70996094 2036.17822266 C475.69026985 2029.30505823 489.48700131 2022.17167049 503.10400391 2014.60400391 C506.19145701 2012.8939578 509.28847698 2011.20213282 512.38671875 2009.51171875 C527.85409904 2001.03981787 542.96585678 1992.09649819 557.97949219 1982.85107422 C560.50997988 1981.30030169 563.04954768 1979.76884042 565.6015625 1978.25390625 C587.368726 1965.2885828 608.5154651 1950.90153481 629 1936 C629.75345703 1935.45472656 630.50691406 1934.90945313 631.28320312 1934.34765625 C640.8542685 1927.41075818 650.26192185 1920.31869386 659.44140625 1912.87109375 C662.41648518 1910.45818299 665.43262985 1908.10364954 668.46240234 1905.76000977 C674.33642141 1901.20888846 679.90449689 1896.46213193 685.3515625 1891.3984375 C688.01276803 1888.98843721 690.75707667 1886.73962366 693.5625 1884.5 C698.16294402 1880.7908101 702.32438539 1876.81316126 706.41796875 1872.5546875 C708.47297554 1870.52144326 710.54691501 1868.6370334 712.734375 1866.75390625 C717.38306638 1862.72471405 721.72511106 1858.42196216 726.0625 1854.0625 C726.82626953 1853.30259766 727.59003906 1852.54269531 728.37695312 1851.75976562 C732.56434403 1847.56521067 736.58511673 1843.28491336 740.4519043 1838.79321289 C742.53961136 1836.37494947 744.70728309 1834.03403531 746.875 1831.6875 C751.79359089 1826.28074821 756.4625909 1820.72956277 761 1815 C761.46212891 1814.4210498 761.92425781 1813.84209961 762.40039062 1813.24560547 C776.61921788 1795.36025887 789.5757692 1776.35352963 800 1756 C800.62165039 1754.80141357 800.62165039 1754.80141357 801.25585938 1753.57861328 C812.4476309 1731.80037406 822.13159168 1706.78582069 823 1682 C823.0515625 1680.71480469 823.103125 1679.42960937 823.15625 1678.10546875 C824.69970232 1620.68391912 790.68871584 1565.1778385 753.02734375 1524.20703125 C751.24958586 1522.27170715 749.52423748 1520.30596984 747.8125 1518.3125 C736.7048849 1505.58502437 725.06149414 1492.85599086 712.1796875 1481.8984375 C709.86239766 1479.8801528 707.61799494 1477.79665531 705.37280273 1475.69897461 C699.9969632 1470.67825355 694.52894614 1465.86851297 688.7890625 1461.26171875 C686.31294332 1459.25377336 683.88561044 1457.19905535 681.46948242 1455.11962891 C673.9264261 1448.64029251 666.08338294 1442.5955495 658.14208984 1436.61425781 C656.07657999 1435.05770992 654.01634275 1433.49442211 651.95703125 1431.9296875 C601.80022517 1393.92255153 547.30130899 1361.78177336 491.49609375 1332.859375 C488.10168885 1331.09900853 484.71757118 1329.32241729 481.34765625 1327.515625 C433.68477997 1301.99030475 383.37004662 1280.53109275 333 1261 C332.24710693 1260.70756409 331.49421387 1260.41512817 330.71850586 1260.11383057 C274.87272865 1238.43531899 218.290555 1218.85873555 160.875 1201.75 C159.86797028 1201.44923553 158.86094055 1201.14847107 157.82339478 1200.83859253 C155.02720828 1200.0062209 152.22908382 1199.18087918 149.4296875 1198.359375 C148.61089615 1198.11669388 147.7921048 1197.87401276 146.94850159 1197.62397766 C143.87360312 1196.73175109 141.21933249 1196 138 1196 Z M-143 1866 C-143.45213867 1866.88445801 -143.90427734 1867.76891602 -144.37011719 1868.68017578 C-159.65921712 1898.5675286 -159.65921712 1898.5675286 -167.33129883 1912.46166992 C-171.57043712 1920.15693006 -175.66656051 1927.92391108 -179.75845337 1935.69802856 C-185.78043687 1947.1361343 -191.8858419 1958.50239277 -198.30834961 1969.72241211 C-202.32463065 1976.75295855 -206.18213613 1983.85997624 -210 1991 C-216.48277867 2003.1077261 -223.18689251 2015.07562615 -230 2027 C-231.26953594 2029.22525774 -232.53906701 2031.45051826 -233.80859375 2033.67578125 C-236.50052348 2038.39256418 -239.19663272 2043.10694161 -241.89453125 2047.8203125 C-244.60792019 2052.56077254 -247.31302067 2057.30585022 -250.01171875 2062.0546875 C-257.8473507 2075.83427787 -265.82122607 2089.52298838 -273.9296875 2103.14453125 C-277.81306588 2109.6722517 -281.65269255 2116.22496058 -285.48538208 2122.78253174 C-293.55386751 2136.58411098 -301.7301642 2150.31790237 -310 2164 C-311.01296143 2165.67594238 -311.01296143 2165.67594238 -312.04638672 2167.38574219 C-331.03980529 2198.79272042 -350.36339919 2229.99099165 -370 2261 C-367.25874862 2262.37062569 -365.55521287 2261.84037223 -362.51806641 2261.44604492 C-360.77128349 2261.22344749 -360.77128349 2261.22344749 -358.98921204 2260.99635315 C-357.70628769 2260.8261113 -356.42336334 2260.65586945 -355.1015625 2260.48046875 C-353.74514564 2260.30455125 -352.38867349 2260.12905967 -351.03215027 2259.95396423 C-347.33714688 2259.47483577 -343.64337655 2258.98677177 -339.94989395 2258.49607086 C-337.61850143 2258.18663748 -335.28686954 2257.87906863 -332.95516968 2257.57196045 C-261.59696516 2248.16334826 -190.49702489 2237.155259 -59.6875 2211.4375 C-58.63449203 2211.21418314 -58.63449203 2211.21418314 -57.56021118 2210.98635483 C-35.69716613 2206.34928367 -35.69716613 2206.34928367 -14 2201 C-16.31631139 2191.94478576 -19.20749465 2183.10306789 -22.1875 2174.25 C-22.71473655 2172.6786482 -23.24191579 2171.10727717 -23.76904297 2169.53588867 C-24.90754093 2166.14532863 -26.04889175 2162.75574313 -27.19189453 2159.36669922 C-28.41057898 2155.75252392 -29.62485093 2152.13691126 -30.83544922 2148.52001953 C-51.77804072 2085.97422638 -75.00116513 2024.16659441 -100.10595703 1963.17297363 C-100.9497561 1961.12211792 -101.79168565 1959.07050758 -102.6328125 1957.01855469 C-105.78590002 1949.32925294 -108.96692338 1941.65187476 -112.17120361 1933.98376465 C-113.07171743 1931.82834083 -113.97113845 1929.67246241 -114.87060547 1927.51660156 C-121.75578014 1911.023905 -128.67812607 1894.54706064 -135.875 1878.1875 C-136.61556641 1876.48859619 -136.61556641 1876.48859619 -137.37109375 1874.75537109 C-137.82355469 1873.73652832 -138.27601563 1872.71768555 -138.7421875 1871.66796875 C-139.1326123 1870.78391357 -139.52303711 1869.8998584 -139.92529297 1868.98901367 C-140.84014053 1866.84063204 -140.84014053 1866.84063204 -143 1866 Z M-1716 1872 C-1740.63855212 1929.66758657 -1763.4544336 1988.10969553 -1785 2047 C-1785.35860107 2047.97998962 -1785.71720215 2048.95997925 -1786.08666992 2049.96966553 C-1802.63167922 2095.23667226 -1818.35953624 2140.82690918 -1833.08551025 2186.72009277 C-1833.64770691 2188.47196828 -1834.21239315 2190.22304706 -1834.77972412 2191.9732666 C-1835.53844951 2194.32042419 -1836.2851385 2196.67101238 -1837.02734375 2199.0234375 C-1837.24693253 2199.69819122 -1837.4665213 2200.37294495 -1837.69276428 2201.06814575 C-1838.69774583 2204.3088874 -1839.10253626 2205.69239123 -1838 2209 C-1836.00293196 2209.83126935 -1836.00293196 2209.83126935 -1833.49853516 2210.26757812 C-1832.03882294 2210.57501953 -1832.03882294 2210.57501953 -1830.54962158 2210.88867188 C-1828.93564484 2211.20674805 -1828.93564484 2211.20674805 -1827.2890625 2211.53125 C-1826.16506042 2211.76328125 -1825.04105835 2211.9953125 -1823.88299561 2212.234375 C-1820.13307365 2213.00381217 -1816.37937161 2213.75259786 -1812.625 2214.5 C-1810.647759 2214.89908421 -1808.67086672 2215.29986696 -1806.69397163 2215.70066071 C-1797.80277685 2217.50180971 -1788.90305486 2219.25853568 -1780 2221 C-1778.14193726 2221.36375732 -1778.14193726 2221.36375732 -1776.24633789 2221.73486328 C-1694.51496761 2237.68970885 -1612.23338283 2250.12074758 -1529.61008835 2260.40904999 C-1526.88549105 2260.74869221 -1524.16113378 2261.09021217 -1521.4367981 2261.4319458 C-1517.18372577 2261.96441104 -1512.929755 2262.48900726 -1508.67490196 2263.00704575 C-1507.10798265 2263.19864826 -1505.54132578 2263.3924106 -1503.97495461 2263.58844376 C-1501.83543191 2263.85548596 -1499.69505353 2264.11400268 -1497.55419922 2264.37011719 C-1496.35415253 2264.51680847 -1495.15410583 2264.66349976 -1493.91769409 2264.81463623 C-1490.93627215 2265.18750236 -1490.93627215 2265.18750236 -1488 2264 C-1488.54188965 2263.1495813 -1488.54188965 2263.1495813 -1489.09472656 2262.28198242 C-1519.2843029 2214.8950274 -1548.93326204 2167.18819438 -1577.54689026 2118.83175659 C-1580.10242861 2114.51336555 -1582.6642614 2110.19877696 -1585.23046875 2105.88671875 C-1594.28364544 2090.66483317 -1603.19203812 2075.36497516 -1612 2060 C-1612.65500488 2058.85885742 -1613.31000977 2057.71771484 -1613.98486328 2056.54199219 C-1621.70274105 2043.09468704 -1629.36564723 2029.61849025 -1636.92211914 2016.07958984 C-1639.68808912 2011.12423824 -1642.46290038 2006.17464536 -1645.26953125 2001.2421875 C-1652.21790723 1989.03065251 -1658.96336129 1976.72478245 -1665.59765625 1964.33984375 C-1668.70279609 1958.54387468 -1671.84413492 1952.76846864 -1675 1947 C-1684.91809318 1928.8424381 -1694.74138736 1910.64351144 -1704.20654297 1892.24536133 C-1707.70978339 1885.4431404 -1711.3036065 1878.69929696 -1715 1872 C-1715.33 1872 -1715.66 1872 -1716 1872 Z M21.68408203 2360.94946289 C20.62935196 2361.18520523 19.57462189 2361.42094757 18.4879303 2361.66383362 C17.33949142 2361.93074509 16.19105255 2362.19765656 15.0078125 2362.47265625 C12.47861736 2363.04110619 9.9494008 2363.60946086 7.42016602 2364.17773438 C6.05999256 2364.4868882 4.69989671 2364.79638369 3.33987427 2365.10620117 C-3.94164943 2366.76219792 -11.23453832 2368.36721167 -18.52734375 2369.97265625 C-19.28708811 2370.14007954 -20.04683247 2370.30750282 -20.82959938 2370.47999954 C-97.71430852 2387.40287372 -175.4528542 2400.53417731 -259.86575317 2412.69371796 C-261.97432257 2412.99631508 -264.08275649 2413.29984069 -266.19116211 2413.60357666 C-333.77154953 2423.33050351 -401.60933591 2430.81579554 -469.56323242 2437.38671875 C-470.64641251 2437.49335846 -471.72959259 2437.59999817 -472.84559631 2437.70986938 C-474.95942635 2437.90429181 -477.07563658 2438.07428959 -479.19334412 2438.22055054 C-480.18028763 2438.2913382 -481.16723114 2438.36212585 -482.18408203 2438.43505859 C-483.0505838 2438.48874603 -483.91708557 2438.54243347 -484.80984497 2438.5977478 C-487.30700216 2438.86399093 -487.30700216 2438.86399093 -489.69921875 2441.3515625 C-490.68341797 2442.97191406 -490.68341797 2442.97191406 -491.6875 2444.625 C-492.50623054 2445.90465936 -493.32667168 2447.18322521 -494.1484375 2448.4609375 C-494.81504395 2449.53553223 -494.81504395 2449.53553223 -495.49511719 2450.63183594 C-498.44600042 2455.27550357 -501.65569632 2459.74506729 -504.8125 2464.25 C-506.19934097 2466.24731098 -507.58606013 2468.24470653 -508.97265625 2470.2421875 C-513.03287019 2476.06674719 -517.17406228 2481.82909827 -521.34692383 2487.57324219 C-524.93925099 2492.52041852 -528.48389584 2497.49839658 -532 2502.5 C-541.09268313 2515.42039495 -550.38038583 2528.19505925 -559.7734375 2540.8984375 C-563.14664048 2545.46569464 -566.48613696 2550.05462262 -569.79394531 2554.66943359 C-577.08818752 2564.84487894 -584.65560152 2574.79812023 -592.27001953 2584.73535156 C-594.42780742 2587.56002563 -596.56101872 2590.40168563 -598.6875 2593.25 C-603.83566707 2600.13701667 -609.0718633 2606.95625268 -614.30175781 2613.78125 C-615.98249869 2615.97713457 -617.65978862 2618.17560887 -619.3359375 2620.375 C-625.71163494 2628.73756024 -632.14396763 2637.05037139 -638.66162109 2645.30273438 C-640.01338381 2647.01697269 -641.36088403 2648.73447429 -642.70703125 2650.453125 C-647.9404551 2657.13319396 -653.21245722 2663.78028838 -658.52368164 2670.39868164 C-661.38714802 2673.97074869 -664.22717295 2677.55933745 -667.04345703 2681.16870117 C-673.36034753 2689.26344773 -679.87752326 2697.18472229 -686.42529297 2705.09326172 C-688.52491169 2707.63559075 -690.60646512 2710.19244908 -692.6875 2712.75 C-696.39778302 2717.29475188 -700.18624059 2721.76888865 -703.98730469 2726.23754883 C-706.69395462 2729.42861145 -709.34292608 2732.6539106 -711.9375 2735.9375 C-715.6702283 2740.64930458 -719.57393917 2745.19932733 -723.50097656 2749.7487793 C-726.62172605 2753.37076097 -729.68000378 2757.03269261 -732.6875 2760.75 C-736.23862066 2765.12651627 -739.95797398 2769.3083146 -743.75390625 2773.47265625 C-746.06187598 2776.06962393 -748.25555863 2778.73404013 -750.4375 2781.4375 C-754.34696941 2786.26804859 -758.45527831 2790.87113095 -762.66015625 2795.4453125 C-765.2279197 2798.24884722 -767.72896875 2801.10344875 -770.22265625 2803.97265625 C-772.29359487 2806.33489173 -774.39512848 2808.66795853 -776.5 2811 C-779.18983431 2813.98062721 -781.86310364 2816.97245233 -784.5 2820 C-792.17853104 2828.80565486 -800.09383604 2837.39927584 -808 2846 C-806.38307323 2850.08127903 -803.45723356 2852.80604354 -800.375 2855.8125 C-799.83520508 2856.34584961 -799.29541016 2856.87919922 -798.73925781 2857.42871094 C-795.22431582 2860.87658189 -791.60908407 2864.16747389 -787.859375 2867.359375 C-785.18986304 2869.71482673 -782.7219299 2872.25228689 -780.25 2874.8125 C-778.29801266 2876.71026547 -776.30483681 2878.49731452 -774.25 2880.28125 C-769.37138613 2884.51841649 -764.690373 2888.95150214 -760 2893.39453125 C-756.01621231 2897.15267472 -751.966461 2900.81134207 -747.83056641 2904.40136719 C-745.40915617 2906.51598364 -743.04879549 2908.69364771 -740.6875 2910.875 C-737.06476095 2914.18336914 -733.38307109 2917.36012358 -729.5625 2920.4375 C-725.56773566 2923.65945075 -721.75468333 2927.00677983 -718 2930.5 C-713.4666345 2934.71349123 -708.7904953 2938.68293481 -703.96875 2942.5625 C-700.47718923 2945.42925516 -697.08459846 2948.39760184 -693.6875 2951.375 C-688.29693405 2956.08789871 -682.79101612 2960.59363432 -677.12963867 2964.97607422 C-673.1654448 2968.05418048 -669.31136362 2971.23501462 -665.5 2974.5 C-659.44166531 2979.67835312 -653.22057551 2984.61925823 -646.92480469 2989.50488281 C-644.89716063 2991.07988183 -642.87407767 2992.66060866 -640.8515625 2994.2421875 C-624.17750721 3007.26756716 -607.39857927 3020.12730585 -590.18408203 3032.43212891 C-587.99923694 3034.00054777 -585.82442729 3035.58193334 -583.65234375 3037.16796875 C-571.94396945 3045.70709042 -560.01913638 3053.9052081 -548 3062 C-546.78449463 3062.81863525 -546.78449463 3062.81863525 -545.54443359 3063.65380859 C-520.14968769 3080.72639542 -494.34559645 3097.12393838 -467.81396484 3112.37841797 C-465.20986659 3113.87906178 -462.61365968 3115.39236493 -460.01953125 3116.91015625 C-411.51714898 3145.15094183 -360.76339914 3168.92247571 -308 3188 C-307.33397766 3188.24083313 -306.66795532 3188.48166626 -305.98175049 3188.72979736 C-267.29314366 3202.65955133 -226.91283197 3212.61633866 -186 3217 C-184.83537231 3217.14139404 -184.83537231 3217.14139404 -183.6472168 3217.28564453 C-173.90588154 3218.35138607 -164.09993684 3218.24381908 -154.3125 3218.25 C-152.87411774 3218.25101212 -152.87411774 3218.25101212 -151.40667725 3218.25204468 C-136.7380047 3218.23565664 -122.44326047 3217.8086401 -108 3215 C-106.66219482 3214.74259033 -106.66219482 3214.74259033 -105.29736328 3214.47998047 C-74.29915815 3208.27812251 -47.69489336 3194.97226989 -25 3173 C-24.50258301 3172.52836426 -24.00516602 3172.05672852 -23.49267578 3171.57080078 C37.72669042 3113.49794874 61.45606038 3019.39522915 86.4375 2810.06640625 C89.18662164 2701.06149227 78.02072889 2592.42619222 32 2361 C28.1834547 2360.01522461 25.51351655 2360.0728456 21.68408203 2360.94946289 Z M-1884 2367 C-1910.78539365 2472.81838536 -1930.02355907 2580.83582627 -1876.54199219 3122.46142578 C-1870.54617771 3132.37669068 -1864.19752982 3141.9132849 -1857 3151 C-1856.35417969 3151.84949219 -1855.70835937 3152.69898437 -1855.04296875 3153.57421875 C-1825.28059271 3191.64502098 -1784.83865218 3210.17678651 -1737.46240234 3216.05053711 C-1675.7275958 3222.61819995 -1612.26013429 3208.31513124 -1554 3189 C-1552.8356543 3188.61908203 -1551.67130859 3188.23816406 -1550.47167969 3187.84570312 C-1512.80783419 3175.47293945 -1476.57716345 3159.42461259 -1441 3142 C-1440.28440918 3141.65050293 -1439.56881836 3141.30100586 -1438.83154297 3140.94091797 C-1435.01652577 3139.07251547 -1431.22035594 3137.16955375 -1427.43554688 3135.24072266 C-1425.5892688 3134.30018685 -1423.74131322 3133.3629431 -1421.89257812 3132.42724609 C-1405.88008779 3124.31061657 -1390.21373344 3115.81401793 -1374.77734375 3106.63476562 C-1371.23796098 3104.55145805 -1367.66372553 3102.53393686 -1364.08496094 3100.51928711 C-1351.47047138 3093.41023354 -1339.22195792 3085.76003405 -1327 3078 C-1325.42001221 3077.00081543 -1325.42001221 3077.00081543 -1323.80810547 3075.98144531 C-1310.74946096 3067.71948998 -1297.83370187 3059.29563258 -1285.140625 3050.48193359 C-1283.06874057 3049.04758842 -1280.98932159 3047.62506816 -1278.90625 3046.20703125 C-1269.574078 3039.84818311 -1260.40260455 3033.28433118 -1251.26904297 3026.64404297 C-1249.05104815 3025.03698711 -1246.82586587 3023.44051093 -1244.59765625 3021.84765625 C-1232.88521995 3013.4638125 -1221.42211502 3004.77406483 -1210 2996 C-1208.75800729 2995.04922466 -1207.51584249 2994.09867404 -1206.2734375 2993.1484375 C-1193.69817053 2983.5195675 -1181.31091241 2973.67576264 -1169.04101562 2963.66162109 C-1167.00566882 2962.00461507 -1164.96474804 2960.35474644 -1162.921875 2958.70703125 C-1155.8382934 2952.98800436 -1148.83386731 2947.19806572 -1141.94580078 2941.24462891 C-1138.42697528 2938.20697575 -1134.86406136 2935.23720323 -1131.25 2932.3125 C-1126.86772795 2928.75670908 -1122.68040238 2925.03267469 -1118.51171875 2921.23046875 C-1116.00541256 2919.00480649 -1113.43075607 2916.90478439 -1110.8125 2914.8125 C-1104.73961819 2909.90416229 -1099.10480962 2904.56499401 -1093.42578125 2899.2109375 C-1090.99341837 2896.92034812 -1088.53567481 2894.67659232 -1086 2892.5 C-1081.42090963 2888.56078252 -1077.04894618 2884.39866331 -1072.64428711 2880.26708984 C-1068.98826009 2876.84187838 -1065.30465253 2873.45649901 -1061.5625 2870.125 C-1057.88842987 2866.84566467 -1054.40287995 2863.43082897 -1050.953125 2859.91796875 C-1048.30665435 2857.31913457 -1045.50511232 2854.92560216 -1042.6640625 2852.54296875 C-1040.76915089 2850.90611667 -1040.76915089 2850.90611667 -1039 2848 C-1039.56847656 2847.443125 -1040.13695312 2846.88625 -1040.72265625 2846.3125 C-1044.94193271 2842.14253061 -1049.00157944 2837.92269296 -1052.86328125 2833.421875 C-1055.80020889 2830.09299906 -1058.83850112 2826.86294427 -1061.875 2823.625 C-1067.32203341 2817.81239868 -1072.69576094 2811.94354471 -1078 2806 C-1079.49927453 2804.33268069 -1080.99928661 2802.66602434 -1082.5 2801 C-1083.23992188 2800.17757812 -1083.97984375 2799.35515625 -1084.7421875 2798.5078125 C-1086.26708244 2796.81407106 -1087.79315402 2795.12138831 -1089.3203125 2793.4296875 C-1094.88335704 2787.26319406 -1100.39138998 2781.05745646 -1105.78515625 2774.7421875 C-1106.81507479 2773.53643324 -1107.84502353 2772.33070477 -1108.875 2771.125 C-1109.39465332 2770.51648193 -1109.91430664 2769.90796387 -1110.44970703 2769.28100586 C-1113.47892533 2765.74376142 -1116.55148583 2762.25607423 -1119.6875 2758.8125 C-1123.53851005 2754.57291957 -1127.14843955 2750.17067888 -1130.75 2745.71875 C-1132.93501569 2743.07852271 -1135.19171391 2740.5327028 -1137.5 2738 C-1141.32170863 2733.80270966 -1144.91474189 2729.46289769 -1148.484375 2725.05078125 C-1151.42925155 2721.47943252 -1154.45723198 2717.98791208 -1157.5 2714.5 C-1162.01374732 2709.32223722 -1166.43052944 2704.08486915 -1170.75390625 2698.74609375 C-1173.31890573 2695.61010309 -1175.93665088 2692.522514 -1178.5625 2689.4375 C-1182.47660509 2684.83330475 -1186.30260768 2680.1723188 -1190.05859375 2675.4375 C-1192.08054699 2672.89887058 -1194.12972269 2670.3846667 -1196.1875 2667.875 C-1204.48726922 2657.74671019 -1212.77553843 2647.61460046 -1220.83325195 2637.29199219 C-1224.35331044 2632.79375075 -1227.9485822 2628.3605353 -1231.5625 2623.9375 C-1236.25866384 2618.1832097 -1240.84605354 2612.36621623 -1245.3515625 2606.4609375 C-1248.47522653 2602.36728095 -1251.64609006 2598.31061757 -1254.8125 2594.25 C-1261.0069192 2586.29649618 -1267.14737853 2578.30330787 -1273.2578125 2570.28515625 C-1275.11811644 2567.84507149 -1276.98084757 2565.40685139 -1278.84375 2562.96875 C-1292.14384095 2545.55173241 -1305.28708323 2528.02401538 -1318.26171875 2510.36328125 C-1320.01511196 2507.97945453 -1321.77253121 2505.59864983 -1323.53125 2503.21875 C-1330.87424583 2493.27933576 -1338.14945234 2483.29394744 -1345.36914062 2473.26464844 C-1347.05188534 2470.92795083 -1348.73652176 2468.59262933 -1350.421875 2466.2578125 C-1350.98414795 2465.47736572 -1351.5464209 2464.69691895 -1352.12573242 2463.89282227 C-1353.23910144 2462.35466808 -1354.35894407 2460.82117642 -1355.4855957 2459.29272461 C-1357.82866186 2456.10227969 -1360.08597723 2452.96692752 -1361.99609375 2449.49609375 C-1364.39446189 2445.39910408 -1366.18771086 2442.47445356 -1370.93847656 2441.23071289 C-1372.16018555 2441.1249292 -1373.38189453 2441.01914551 -1374.640625 2440.91015625 C-1375.3627417 2440.84155899 -1376.0848584 2440.77296173 -1376.82885742 2440.70228577 C-1378.54314992 2440.54277609 -1380.25840187 2440.39340873 -1381.97424316 2440.25152588 C-1385.38680972 2439.96784518 -1388.79618126 2439.65570076 -1392.20605469 2439.34130859 C-1397.93581319 2438.81531526 -1403.66655868 2438.30133738 -1409.39794922 2437.79345703 C-1477.11073137 2431.78171834 -1544.63992436 2424.15075903 -1612 2415 C-1613.28219421 2414.82615784 -1614.56438843 2414.65231567 -1615.88543701 2414.47320557 C-1700.08013677 2403.02065222 -1783.67910839 2387.96471367 -1884 2367 Z M-742.55697632 2454.79763794 C-748.91395188 2455.03838909 -755.27143844 2455.26486865 -761.62890625 2455.4921875 C-762.88492142 2455.5372493 -764.14093658 2455.5823111 -765.43501282 2455.6287384 C-781.04313443 2456.18525462 -796.65102463 2456.61591414 -812.26556396 2456.94140625 C-815.14148627 2457.00303178 -818.01726857 2457.06954547 -820.89306641 2457.13671875 C-914.08920669 2459.27965546 -1007.41105646 2458.52200848 -1100.58367062 2455.72880554 C-1118.05999892 2455.20519285 -1135.51325092 2454.85120583 -1153 2455 C-1152.0450323 2456.44489108 -1151.08841582 2457.88869252 -1150.13110352 2459.33203125 C-1149.59856461 2460.13616455 -1149.0660257 2460.94029785 -1148.51734924 2461.76879883 C-1146.79063185 2464.30786747 -1144.9253398 2466.66043506 -1142.9375 2469 C-1139.04185669 2473.68131927 -1135.31054348 2478.4642392 -1131.625 2483.3125 C-1126.26050575 2490.36415768 -1120.82570889 2497.35428499 -1115.33398438 2504.30712891 C-1113.99424511 2506.00730315 -1112.66032274 2507.71188048 -1111.328125 2509.41796875 C-1105.90981526 2516.35140207 -1100.40900728 2523.21034148 -1094.84521484 2530.02758789 C-1091.26638183 2534.41998553 -1087.73878488 2538.84830953 -1084.25 2543.3125 C-1079.58535415 2549.27993748 -1074.81754512 2555.15505727 -1070 2561 C-1068.49928825 2562.83275076 -1066.99929362 2564.66608895 -1065.5 2566.5 C-1064.75492188 2567.41007812 -1064.00984375 2568.32015625 -1063.2421875 2569.2578125 C-1061.7659514 2571.06324411 -1060.29193264 2572.87049141 -1058.8203125 2574.6796875 C-1054.30151153 2580.22768157 -1049.71789511 2585.71388199 -1045.08422852 2591.16577148 C-1042.20479732 2594.5591538 -1039.36810273 2597.98249917 -1036.5625 2601.4375 C-1032.14737176 2606.86000153 -1027.59987523 2612.16127455 -1023.0390625 2617.4609375 C-1020.17402803 2620.79165377 -1017.33353353 2624.14247789 -1014.5 2627.5 C-1003.5625472 2640.47993715 -1003.5625472 2640.47993715 -992.3125 2653.1875 C-989.33975977 2656.45804605 -986.51514086 2659.80235614 -983.75 2663.25 C-979.09341188 2669.00946426 -974.07165823 2674.37948699 -969.0078125 2679.77734375 C-966.15272777 2682.82329521 -963.38635585 2685.93539225 -960.65625 2689.09375 C-955.38357224 2695.16230365 -949.93699148 2701.07887988 -944.5 2707 C-930.55843567 2722.18643369 -930.55843567 2722.18643369 -925 2729 C-920.89634012 2727.41273533 -918.36805991 2724.44841236 -915.5 2721.25 C-914.97664063 2720.67507813 -914.45328125 2720.10015625 -913.9140625 2719.5078125 C-909.68409176 2714.83258168 -905.58429063 2710.0496237 -901.50854492 2705.23999023 C-898.04289229 2701.16611019 -894.46657895 2697.21770241 -890.8125 2693.3125 C-886.39829191 2688.5918088 -882.25902649 2683.72153119 -878.2109375 2678.6796875 C-875.8906505 2675.86746685 -873.46928866 2673.18202737 -871 2670.5 C-866.98394153 2666.13230508 -863.20614546 2661.63150764 -859.48046875 2657.015625 C-856.55031405 2653.45329519 -853.53230943 2649.97534874 -850.5 2646.5 C-845.98620624 2641.32227942 -841.56946877 2636.08486694 -837.24609375 2630.74609375 C-834.68109275 2627.61010122 -832.06328349 2624.52257156 -829.4375 2621.4375 C-825.61602879 2616.94053601 -821.87478292 2612.39343814 -818.20703125 2607.76953125 C-815.4312654 2604.28631357 -812.622946 2600.8302562 -809.8125 2597.375 C-809.25925049 2596.69421387 -808.70600098 2596.01342773 -808.13598633 2595.31201172 C-805.3036513 2591.82787729 -802.46728849 2588.34711343 -799.625 2584.87109375 C-793.81252355 2577.75435013 -788.09959064 2570.58357995 -782.52734375 2563.27734375 C-779.73985358 2559.64066974 -776.87153664 2556.07043638 -774 2552.5 C-769.49310005 2546.89185691 -765.07004462 2541.23077895 -760.69921875 2535.515625 C-758.07750916 2532.09159472 -755.42597493 2528.69119049 -752.7734375 2525.29101562 C-747.62595129 2518.69237638 -742.51732656 2512.0725546 -737.51953125 2505.359375 C-734.83615263 2501.766548 -732.1077612 2498.20838471 -729.38354492 2494.64648438 C-723.307519 2486.69887343 -717.26494462 2478.72821334 -711.3125 2470.6875 C-710.74893799 2469.93009521 -710.18537598 2469.17269043 -709.60473633 2468.39233398 C-709.07130615 2467.66860596 -708.53787598 2466.94487793 -707.98828125 2466.19921875 C-707.30052612 2465.26855591 -707.30052612 2465.26855591 -706.59887695 2464.3190918 C-704.27917023 2460.95447214 -702.14563648 2457.47742454 -700 2454 C-714.20444062 2453.85361836 -728.36351566 2454.25761516 -742.55697632 2454.79763794 Z " fill="#00D8FF" transform="translate(2975,372)"/>
<path d="M0 0 C0.71354645 0.00093658 1.4270929 0.00187317 2.16226196 0.00283813 C80.59611257 0.22367437 159.09676137 27.15912829 219.125 78.1875 C220.08277344 78.9609375 221.04054688 79.734375 222.02734375 80.53125 C230.47852457 87.43833895 238.21004035 95.05674891 245.9375 102.75 C246.74105927 103.54579468 246.74105927 103.54579468 247.56085205 104.35766602 C254.55381677 111.29734335 261.02299252 118.43549417 267.125 126.1875 C268.28616302 127.62393669 269.44760165 129.06015064 270.609375 130.49609375 C282.5421736 145.49414905 292.97563207 161.36927121 302.06884766 178.23974609 C303.13612266 180.20801239 304.22843494 182.1607674 305.32421875 184.11328125 C346.73542201 258.84727909 355.011433 353.39979833 332.125 435.1875 C326.05202127 455.87019182 318.84087229 475.91686938 309.125 495.1875 C308.67801758 496.08952148 308.23103516 496.99154297 307.77050781 497.92089844 C294.1288531 525.35152595 276.81281611 550.48284636 256.0859375 573.04296875 C254.30207266 574.99384883 252.58547206 576.98498048 250.875 579 C247.62359063 582.72888907 244.17612077 586.24490463 240.6875 589.75 C240.16188477 590.28020752 239.63626953 590.81041504 239.09472656 591.35668945 C234.93738504 595.49808046 230.57961576 599.36964077 226.125 603.1875 C225.49601807 603.72850342 224.86703613 604.26950684 224.21899414 604.8269043 C166.8489826 653.8117831 90.75973779 686.04541759 14.74609375 686.390625 C13.70376587 686.39763931 12.66143799 686.40465363 11.58752441 686.41188049 C8.24580504 686.42927039 4.90426295 686.43573201 1.5625 686.4375 C0.41983673 686.43817474 -0.72282654 686.43884949 -1.90011597 686.43954468 C-18.75483601 686.42372281 -35.22125764 686.01320533 -51.875 683.1875 C-52.93219238 683.01589355 -53.98938477 682.84428711 -55.07861328 682.66748047 C-103.86252589 674.59096054 -151.09754201 656.25931799 -191.875 628.1875 C-192.50615723 627.75308594 -193.13731445 627.31867187 -193.78759766 626.87109375 C-201.38646776 621.60474468 -208.75628673 616.09055608 -215.875 610.1875 C-217.34839844 608.97513672 -217.34839844 608.97513672 -218.8515625 607.73828125 C-236.75510736 592.88537896 -253.62505513 576.62274336 -267.875 558.1875 C-268.5565918 557.30674805 -268.5565918 557.30674805 -269.25195312 556.40820312 C-314.79199224 497.30815237 -340.43297389 426.83688633 -342.875 352.1875 C-342.89836426 351.48931152 -342.92172852 350.79112305 -342.94580078 350.07177734 C-344.43111728 297.41169072 -332.80253296 243.52303511 -309.875 196.1875 C-309.49939941 195.39150391 -309.12379883 194.59550781 -308.73681641 193.77539062 C-296.8901358 168.66944425 -281.83703699 145.35038441 -263.875 124.1875 C-263.06804687 123.19621094 -262.26109375 122.20492188 -261.4296875 121.18359375 C-254.97687805 113.3407849 -247.97158264 106.07065561 -240.8125 98.875 C-239.44798706 97.49671021 -239.44798706 97.49671021 -238.0559082 96.09057617 C-231.96794873 90.02997831 -225.58343855 84.54542841 -218.875 79.1875 C-217.83574606 78.31236213 -216.80062799 77.43223516 -215.7734375 76.54296875 C-156.94806326 26.00414103 -76.97885347 -0.13267328 0 0 Z " fill="#00D8FF" transform="translate(2043.875,1701.8125)"/>
</svg>
