<?xml version="1.0" encoding="UTF-8"?>
<svg version="1.1" xmlns="http://www.w3.org/2000/svg" width="1280" height="1280">
<path d="M0 0 C2.78314527 0.0001614 5.56562416 -0.01357254 8.34863281 -0.04101562 C27.91617366 -0.23083974 46.55054964 1.10536547 65.89135742 4.37060547 C67.00408524 4.55571182 68.11681305 4.74081818 69.26325989 4.93153381 C105.37506293 11.00324921 140.86184319 24.28820643 168.89135742 48.37060547 C169.64545898 48.99193359 170.39956055 49.61326172 171.17651367 50.25341797 C177.20414887 55.36088244 182.09529052 61.10833764 186.89135742 67.37060547 C187.49850586 68.15048828 188.1056543 68.93037109 188.73120117 69.73388672 C210.47020609 99.06429018 212.80472225 136.13512272 207.93041992 171.18701172 C206.47120831 180.5181333 203.90298271 189.43412577 200.89135742 198.37060547 C200.61775391 199.18754883 200.34415039 200.00449219 200.06225586 200.84619141 C188.58594378 234.57715312 169.57858402 264.44655378 145.44604492 290.56982422 C143.44213328 292.76677322 141.49637552 294.99084624 139.55932617 297.24560547 C136.02372993 301.2953403 132.26087024 305.02070246 128.32885742 308.68310547 C127.63848389 309.32828125 126.94811035 309.97345703 126.23681641 310.63818359 C119.75207436 316.62524042 112.91668684 322.03951585 105.89135742 327.37060547 C104.41136007 328.55707001 102.93209446 329.74444844 101.45385742 330.93310547 C85.89360031 342.98439517 68.65294503 352.97132571 50.89135742 361.37060547 C49.87380371 361.8554541 49.87380371 361.8554541 48.83569336 362.35009766 C19.77044496 376.08332504 -11.27329255 385.05217446 -42.73364258 391.30810547 C-43.4565448 391.45185608 -44.17944702 391.59560669 -44.92425537 391.74371338 C-59.5932853 394.63172713 -74.17562356 396.6528172 -89.10864258 397.49560547 C-89.8288559 397.53729858 -90.54906921 397.5789917 -91.29110718 397.62194824 C-141.24664447 400.47973926 -190.19660719 397.1002449 -229.35864258 362.87060547 C-239.16498912 353.78600603 -249.67722998 342.58888562 -251.44458008 328.73779297 C-251.54930902 322.0560866 -251.54930902 322.0560866 -249.42114258 318.74560547 C-246.63993499 317.09191447 -245.30193812 317.03017907 -242.10864258 317.37060547 C-240.08129883 318.65576172 -240.08129883 318.65576172 -238.17114258 320.43310547 C-237.47375977 321.07634766 -236.77637695 321.71958984 -236.05786133 322.38232422 C-234.37088597 324.1031067 -232.93936753 325.83300684 -231.48364258 327.74560547 C-215.87573469 346.44998838 -183.97929902 353.97599564 -161.10864258 356.37060547 C-154.84347921 356.77345169 -148.572162 356.80907593 -142.29614258 356.80810547 C-141.42513916 356.80950531 -140.55413574 356.81090515 -139.65673828 356.81234741 C-122.37248609 356.78970446 -106.0424297 354.698319 -89.10864258 351.37060547 C-87.02305674 350.99235921 -84.93713657 350.6159501 -82.85083008 350.24169922 C-33.13601108 340.97262648 15.42253887 319.66045379 55.89135742 289.37060547 C56.44227051 288.96245605 56.99318359 288.55430664 57.56079102 288.13378906 C64.49575461 282.98629075 71.06571804 277.56288422 77.39916992 271.67919922 C79.58844906 269.65119926 81.81435737 267.68849364 84.07885742 265.74560547 C90.91679272 259.7693612 96.88912661 253.35078877 102.55541992 246.25341797 C104.0723097 244.38140349 105.6282117 242.54010416 107.22729492 240.73779297 C119.42809631 226.87863023 128.8735474 210.41328022 135.89135742 193.37060547 C136.31819824 192.33540771 136.31819824 192.33540771 136.75366211 191.27929688 C145.37556898 169.86343269 149.39226307 143.63891494 140.44995117 121.60888672 C131.71182737 102.85537277 115.72300311 91.62036434 96.89135742 84.37060547 C4.66781969 51.40188406 -103.21441503 84.0537748 -187.98876953 123.87280273 C-194.40470295 126.95299301 -200.75780201 130.15882719 -207.10864258 133.37060547 C-208.11812958 133.88101379 -208.11812958 133.88101379 -209.14801025 134.4017334 C-233.1663382 146.52789761 -233.1663382 146.52789761 -256.54614258 159.82568359 C-259.00947341 161.31081674 -261.48068523 162.78224886 -263.95336914 164.2517395 C-284.72050391 176.60903984 -304.79432235 189.82845665 -324.10864258 204.37060547 C-324.93235352 204.98597168 -324.93235352 204.98597168 -325.77270508 205.61376953 C-350.10982782 223.82335841 -374.205633 244.71115575 -392.10864258 269.37060547 C-392.81891602 270.30904297 -393.52918945 271.24748047 -394.26098633 272.21435547 C-399.33653388 278.99474144 -403.82548026 286.06747909 -408.10864258 293.37060547 C-409.09864258 295.01222656 -409.09864258 295.01222656 -410.10864258 296.68701172 C-426.03796196 324.02049636 -431.77771823 358.54271288 -424.10864258 389.37060547 C-419.71318574 404.74935713 -411.92966454 418.82366993 -402.10864258 431.37060547 C-401.49504883 432.17626953 -400.88145508 432.98193359 -400.24926758 433.81201172 C-388.52754889 448.90009176 -374.77191012 462.20425138 -359.87817383 474.13232422 C-357.34052969 476.18319882 -354.85421423 478.27958769 -352.37646484 480.40161133 C-345.98797131 485.8710884 -339.4318294 491.06333913 -332.72924805 496.14111328 C-330.03454176 498.18548521 -327.35248467 500.24625286 -324.67114258 502.30810547 C-324.139646 502.71665771 -323.60814941 503.12520996 -323.06054688 503.54614258 C-314.1180931 510.43146896 -305.25520403 517.42005448 -296.45629883 524.48779297 C-294.88484718 525.74809196 -293.30927727 527.00327227 -291.72973633 528.25341797 C-282.3408607 535.69820859 -273.17514531 543.38048898 -264.35864258 551.49560547 C-263.81812256 551.9924585 -263.27760254 552.48931152 -262.72070312 553.0012207 C-258.64348603 556.78787607 -254.81741649 560.77074716 -251.10864258 564.92138672 C-249.20439985 566.60632979 -249.20439985 566.60632979 -246.76879883 566.33154297 C-243.43446885 565.12707135 -240.59066556 563.50150657 -237.54614258 561.68310547 C-233.31573398 559.19427456 -229.09792957 556.81211739 -224.67114258 554.68310547 C-217.78436812 551.30794916 -211.17011279 547.47274996 -204.50976562 543.67480469 C-197.05934548 539.44002943 -189.54235508 535.34598446 -181.98364258 531.30810547 C-172.93583566 526.4740145 -163.97899639 521.51450589 -155.1184082 516.34472656 C-150.65689643 513.7567353 -146.22519253 511.48169821 -141.48364258 509.43310547 C-134.21213299 505.93738688 -129.92704201 499.61982977 -125.10864258 493.37060547 C-102.91578981 466.27409275 -70.95358339 439.98313372 -35.01879883 436.03076172 C-24.18054571 435.64201519 -14.46400052 438.39777309 -6.48364258 445.80810547 C-5.69989258 446.65373047 -4.91614258 447.49935547 -4.10864258 448.37060547 C-3.42801758 449.09248047 -2.74739258 449.81435547 -2.04614258 450.55810547 C5.5485128 461.58260521 6.20319286 474.03854392 6.07885742 486.99560547 C6.07821289 488.27951172 6.07756836 489.56341797 6.0769043 490.88623047 C6.04921611 496.82996187 5.82581501 502.48981451 4.89135742 508.37060547 C5.31803711 508.00966797 5.7447168 507.64873047 6.18432617 507.27685547 C11.52852287 503.31002905 16.03777246 502.61451443 22.63354492 502.88232422 C30.04525614 503.99319221 36.13499322 507.5737866 40.89135742 513.37060547 C44.52615252 519.60951714 43.33079431 526.15777164 41.63366699 532.92433167 C40.86740836 535.80264555 40.06617543 538.66980276 39.24676514 541.53341675 C38.55975805 543.93743931 37.8896691 546.34563563 37.22387695 548.75561523 C36.2727531 552.19756652 35.3173125 555.63826806 34.35864258 559.078125 C28.06463397 581.72350329 22.09565232 604.42643478 17.26635742 627.43310547 C17.09787292 628.23247528 16.92938843 629.03184509 16.75579834 629.85543823 C14.60800617 640.11188539 12.7427445 650.08924257 12.76635742 660.62060547 C12.76249023 662.36083984 12.76249023 662.36083984 12.75854492 664.13623047 C12.87647833 667.00825576 13.23052131 669.58040857 13.89135742 672.37060547 C22.8177336 658.00049231 30.15515771 642.90194982 37.359375 627.61938477 C38.48316348 625.23623683 39.61084957 622.85513237 40.74169922 620.4753418 C45.20283131 611.06782925 49.50377774 601.59912725 53.7048645 592.07287598 C59.14407308 579.74189852 64.65265131 567.44809826 70.29638672 555.20922852 C73.29500966 548.69837469 76.20223952 542.15509921 79.05078125 535.57739258 C81.01176474 531.07467679 83.03292287 526.59985089 85.05541992 522.12451172 C95.08484132 499.87835759 104.93690338 477.54164821 114.44274902 455.0663147 C115.2353912 453.1937607 116.03347974 451.32351497 116.83178711 449.45336914 C121.75960956 437.71389661 125.24116071 425.813865 127.86987305 413.37255859 C129.17249605 407.7629464 130.72570251 404.40608366 134.89135742 400.37060547 C149.81997841 391.15987918 174.30931245 391.85115057 191.00073242 394.67919922 C195.92602708 395.85727645 198.698164 398.26919616 202.32885742 401.62060547 C204.4749612 405.39774812 203.75867027 408.28719616 202.89135742 412.37060547 C201.74539747 416.37188853 200.41371628 420.30396268 199.07885742 424.24560547 C186.73675694 461.7750489 187.25999218 496.90449703 204.89135742 532.62060547 C205.54902399 533.87536406 206.21115132 535.12792124 206.89135742 536.37060547 C210.09879943 533.4184255 212.1889831 530.45474292 214.32495117 526.66357422 C214.967146 525.53145508 215.60934082 524.39933594 216.27099609 523.23291016 C216.9571198 522.00807044 217.64306936 520.78313315 218.32885742 519.55810547 C219.04483962 518.28987955 219.76139955 517.02197964 220.47851562 515.75439453 C221.9313598 513.18418012 223.38057921 510.61197414 224.8269043 508.03808594 C226.66510961 504.76868826 228.5176425 501.50765833 230.37573242 498.24951172 C240.63499291 480.24100543 250.81971184 462.14352274 259.86401367 443.48730469 C260.60991524 441.95047802 261.36053917 440.41594053 262.11401367 438.8828125 C269.0165374 424.8279349 274.81152509 411.36852317 278.32885742 396.05810547 C284.19399049 370.86851921 284.19399049 370.86851921 289.11010742 366.31591797 C291.69343936 364.93432589 294.06015855 364.11201294 296.89135742 363.37060547 C297.81819336 363.07412109 298.7450293 362.77763672 299.69995117 362.47216797 C309.307221 359.56733465 318.72899944 359.14394762 328.70385742 359.05810547 C329.81567383 359.02910156 330.92749023 359.00009766 332.07299805 358.97021484 C340.98557679 358.90241875 348.5644257 360.4282919 356.01635742 365.49560547 C357.89135742 367.37060547 357.89135742 367.37060547 358.89135742 369.37060547 C358.86847544 376.26543828 357.12798643 382.20586288 354.64135742 388.55810547 C346.25054881 411.31768649 343.50423031 433.38218543 346.89135742 457.37060547 C346.99464355 458.12583496 347.09792969 458.88106445 347.2043457 459.65917969 C349.4635529 475.66917195 355.55674842 489.10579333 362.89135742 503.37060547 C364.23133833 505.99228 365.56298424 508.61803526 366.89135742 511.24560547 C367.46885742 512.37740234 368.04635742 513.50919922 368.64135742 514.67529297 C369.89135742 517.37060547 369.89135742 517.37060547 369.89135742 519.37060547 C370.6725293 518.96970703 371.45370117 518.56880859 372.25854492 518.15576172 C392.12487306 508.39958053 413.08941553 501.9970024 434.89135742 498.37060547 C435.83591797 498.20834473 436.78047852 498.04608398 437.75366211 497.87890625 C462.72428152 493.73140364 489.00538838 493.65278412 513.89135742 498.37060547 C514.88651367 498.55864746 515.88166992 498.74668945 516.90698242 498.94042969 C543.50434529 504.19056868 567.59305399 514.56237433 588.89135742 531.37060547 C589.78983398 532.05251953 590.68831055 532.73443359 591.61401367 533.43701172 C597.07134939 537.64319354 601.52807683 542.06040016 605.89135742 547.37060547 C606.6622168 548.23169922 607.43307617 549.09279297 608.22729492 549.97998047 C625.18281912 569.28319263 635.03860581 593.78373477 635.14135742 619.43310547 C635.16198242 620.69316406 635.18260742 621.95322266 635.20385742 623.25146484 C635.25026714 634.47681494 633.46018663 644.43547178 628.26635742 654.43310547 C627.91935791 655.10937988 627.5723584 655.7856543 627.21484375 656.48242188 C618.22660031 673.39083962 601.83194324 688.42658284 583.39135742 694.43310547 C579.50033974 695.38481861 575.89982545 695.86143829 571.89135742 695.37060547 C569.40016257 693.84374411 569.02347249 692.85943121 568.26635742 690.05810547 C569.70230826 683.88351686 577.24518253 680.47130477 582.20385742 677.18310547 C595.38418227 668.22191927 605.23332238 655.13351607 608.45385742 639.30810547 C610.60530406 620.1524541 604.98322578 601.68152911 593.62963867 586.30810547 C592.26632907 584.62416111 590.87897751 582.95909982 589.45776367 581.32373047 C587.89135742 579.37060547 587.89135742 579.37060547 586.89135742 576.37060547 C585.56924877 575.68194668 584.2335338 575.01928474 582.89135742 574.37060547 C581.33799396 573.01106633 579.82011801 571.61048999 578.32885742 570.18310547 C558.37861546 552.00428237 531.04520889 543.53363562 504.89135742 539.37060547 C503.99094727 539.22107422 503.09053711 539.07154297 502.1628418 538.91748047 C475.90849043 534.69640665 448.05129923 534.39256618 421.89135742 539.37060547 C421.07473633 539.5151416 420.25811523 539.65967773 419.41674805 539.80859375 C407.78906837 541.87711123 396.90912492 545.13842845 385.89135742 549.37060547 C385.89135742 552.79514255 386.15898544 554.72849225 387.13354492 557.89794922 C387.39441895 558.76613281 387.65529297 559.63431641 387.92407227 560.52880859 C388.20202637 561.44597656 388.47998047 562.36314453 388.76635742 563.30810547 C395.33505919 585.72662169 396.15739147 605.99228594 384.92651367 626.99951172 C375.09390872 643.28653297 361.57012924 655.81242787 345.89135742 666.37060547 C345.31611328 666.76344727 344.74086914 667.15628906 344.14819336 667.56103516 C326.14534887 679.67654668 300.01427855 692.49692981 277.89135742 689.37060547 C269.39293894 686.60935124 263.24210117 682.32748324 258.87182617 674.55810547 C252.76176392 660.27339372 257.20753791 640.63099689 262.62182617 626.76513672 C271.63882673 605.0500207 285.53211016 586.14333986 301.89135742 569.37060547 C302.46595703 568.78085937 303.04055664 568.19111328 303.63256836 567.58349609 C305.48279922 565.69310671 307.3408183 563.81087023 309.20385742 561.93310547 C309.77869873 561.35343018 310.35354004 560.77375488 310.94580078 560.17651367 C314.44333861 556.69317493 318.05410581 553.47639913 321.89135742 550.37060547 C321.29052328 546.68499588 320.25467135 543.71911552 318.59838867 540.37841797 C318.13601807 539.43466309 317.67364746 538.4909082 317.19726562 537.51855469 C316.70444092 536.52098145 316.21161621 535.5234082 315.70385742 534.49560547 C304.61711219 511.54709162 296.71476556 487.66085721 292.89135742 462.37060547 C290.37039248 465.51508057 288.55632796 468.77383857 286.73901367 472.36669922 C286.12744021 473.56697687 285.51569827 474.76716868 284.90380859 475.96728516 C284.58592377 476.59389038 284.26803894 477.22049561 283.94052124 477.86608887 C277.70621827 490.13685389 271.19916548 502.2019786 264.23510742 514.07714844 C262.96552063 516.24402676 261.70802128 518.41743087 260.45385742 520.59326172 C255.545191 529.0717757 250.43412854 537.42284137 245.26635742 545.74560547 C244.65687256 546.73214111 244.0473877 547.71867676 243.41943359 548.73510742 C240.33269683 553.67645749 237.13854923 558.46935006 233.68041992 563.15966797 C232.41505976 564.89494372 231.15179275 566.63174923 229.89135742 568.37060547 C229.4033667 569.03342529 228.91537598 569.69624512 228.41259766 570.37915039 C227.05128304 572.30007936 227.05128304 572.30007936 225.89135742 575.37060547 C226.53255732 578.75302061 226.53255732 578.75302061 228.32885742 582.05810547 C231.16495405 588.2266752 233.11183906 594.33327867 234.70385742 600.93310547 C234.91002686 601.77768311 235.11619629 602.62226074 235.32861328 603.49243164 C240.87904014 626.79491557 239.7838367 651.30051509 227.56713867 672.22607422 C209.94649238 700.5026059 177.30886027 716.42776105 145.79223633 723.93457031 C130.84077036 727.36422845 110.44203218 731.31086905 96.45385742 723.05810547 C91.34160717 719.48266664 88.19955406 715.55480777 86.89135742 709.37060547 C86.53111117 688.19613153 109.26135905 668.94913477 122.06103516 653.89990234 C124.85695553 650.60900548 127.6064023 647.28494537 130.32885742 643.93310547 C133.7361268 639.74234635 137.23281166 635.64181446 140.76635742 631.55810547 C149.02137523 621.98790816 156.86809321 612.08902883 164.15307617 601.75732422 C165.89135742 599.37060547 165.89135742 599.37060547 167.59838867 597.45263672 C169.31900888 595.59503743 169.31900888 595.59503743 170.89135742 592.37060547 C170.26199368 588.76606768 169.47035448 586.60640523 167.89135742 583.37060547 C167.61533691 582.80164551 167.33931641 582.23268555 167.05493164 581.64648438 C164.15924304 575.70870461 161.15620166 569.82457157 158.12963867 563.95263672 C148.4215332 544.28749999 142.86499658 522.93726759 138.4128418 501.5559082 C137.97230959 499.34301866 137.97230959 499.34301866 136.89135742 497.37060547 C136.61573975 498.08788818 136.34012207 498.8051709 136.05615234 499.54418945 C129.84109961 515.6679657 123.30720709 531.57960228 116.2355957 547.35107422 C114.93322547 550.27655824 113.65568343 553.21143179 112.38745117 556.15185547 C100.95886911 582.59216562 88.64646782 608.67311493 75.09204102 634.09082031 C73.35820658 637.38291993 71.71751474 640.7179346 70.07885742 644.05810547 C64.31440256 655.72096486 58.07544908 667.1449591 51.86639404 678.57550049 C50.91092186 680.33458609 49.95703117 682.09453042 49.00317383 683.85449219 C21.22573499 734.92581295 21.22573499 734.92581295 -4.10864258 743.37060547 C-12.72899741 744.33545252 -19.53999493 742.1740938 -26.85864258 737.68310547 C-42.02008524 722.10051162 -42.43398919 698.72895428 -42.27661133 678.30029297 C-42.16702025 672.29791944 -41.6827774 666.34451461 -41.10864258 660.37060547 C-41.41866211 661.10657959 -41.72868164 661.84255371 -42.0480957 662.60083008 C-77.19595503 745.69328573 -77.19595503 745.69328573 -99.10864258 756.37060547 C-109.18699832 759.98783711 -123.92856826 760.30330481 -134.02270508 756.46044922 C-152.49973341 746.80672093 -162.62240687 724.96830102 -168.73364258 705.95654297 C-182.71299142 660.17823928 -181.6741191 609.37242364 -164.10864258 564.37060547 C-179.7068345 572.6526494 -194.96815223 581.31944107 -209.98364258 590.62060547 C-214.94784566 593.68871615 -219.96845559 596.60792099 -225.10864258 599.37060547 C-224.81731445 599.99322266 -224.52598633 600.61583984 -224.22583008 601.25732422 C-218.23153941 614.77275319 -213.75042047 629.65856985 -212.10864258 644.37060547 C-211.94428711 645.70478516 -211.94428711 645.70478516 -211.77661133 647.06591797 C-206.81776562 696.65437503 -217.79584996 749.91147283 -249.55004883 789.25732422 C-250.40192995 790.29589209 -251.25480722 791.33364362 -252.10864258 792.37060547 C-252.54289551 792.90637207 -252.97714844 793.44213867 -253.42456055 793.99414062 C-262.86585457 805.62242055 -273.02273972 816.44183642 -285.10864258 825.37060547 C-285.71305176 825.81903809 -286.31746094 826.2674707 -286.94018555 826.72949219 C-310.10469753 843.81141897 -334.08441915 854.61757923 -362.10864258 861.37060547 C-363.3379248 861.67865112 -363.3379248 861.67865112 -364.59204102 861.99291992 C-374.03913714 864.05405423 -383.736871 863.80947808 -393.35864258 863.80810547 C-394.29184326 863.80950531 -395.22504395 863.81090515 -396.18652344 863.81234741 C-418.71969936 863.7845221 -440.30958073 862.00800655 -457.20629883 845.53857422 C-475.0874077 826.82990989 -479.64456113 801.35818572 -479.38598633 776.51904297 C-479.1538595 767.71208194 -477.6709877 759.76550328 -475.10864258 751.37060547 C-474.89433594 750.62665527 -474.6800293 749.88270508 -474.45922852 749.11621094 C-467.84998517 726.33981555 -455.56045378 708.21552504 -439.10864258 691.37060547 C-438.43816895 690.67966797 -437.76769531 689.98873047 -437.0769043 689.27685547 C-429.13418343 681.1168456 -421.24347269 673.20586897 -412.10864258 666.37060547 C-410.45955806 665.04129535 -408.81380895 663.70783856 -407.17114258 662.37060547 C-386.61093506 645.95431574 -364.20942226 631.60874433 -341.34741211 618.64208984 C-339.30355333 617.48130287 -337.26583396 616.31055755 -335.22973633 615.13623047 C-325.8458314 609.75776999 -316.2709802 604.77674817 -306.6237793 599.88671875 C-305.59397949 599.35933105 -304.56417969 598.83194336 -303.50317383 598.28857422 C-302.58383057 597.82217529 -301.6644873 597.35577637 -300.71728516 596.87524414 C-297.94025595 595.27348176 -295.5598726 593.43059051 -293.10864258 591.37060547 C-298.47887249 586.52849059 -304.0151761 582.06413706 -309.85864258 577.80810547 C-310.67502197 577.21022217 -311.49140137 576.61233887 -312.33251953 575.99633789 C-324.73749141 566.94949394 -337.3745915 558.23199132 -350.03564453 549.54907227 C-381.52663675 527.93267403 -412.49637026 505.72619638 -441.10864258 480.37060547 C-442.1527832 479.46568359 -442.1527832 479.46568359 -443.21801758 478.54248047 C-455.4709005 467.76981159 -467.07418117 456.24350018 -477.10864258 443.37060547 C-477.81762695 442.54044922 -478.52661133 441.71029297 -479.25708008 440.85498047 C-486.05501804 432.88827423 -491.68635779 424.30755675 -497.10864258 415.37060547 C-497.51115234 414.71382812 -497.91366211 414.05705078 -498.32836914 413.38037109 C-506.20737975 400.29499495 -510.74721354 385.94478026 -515.10864258 371.37060547 C-515.40182373 370.39655762 -515.40182373 370.39655762 -515.70092773 369.40283203 C-519.13399983 352.29092057 -516.21916412 332.75312413 -511.10864258 316.37060547 C-510.68037332 314.8787579 -510.25326723 313.38657588 -509.82739258 311.89404297 C-494.92760352 261.8828179 -456.51155817 213.97616798 -417.36254883 180.34326172 C-415.14875516 178.40571267 -412.98608873 176.41914797 -410.82983398 174.41796875 C-404.78500451 168.81192346 -398.55038213 163.52016844 -392.10864258 158.37060547 C-391.33391602 157.73896484 -390.55918945 157.10732422 -389.76098633 156.45654297 C-362.37812383 134.23939577 -332.83104562 114.63631795 -302.10864258 97.37060547 C-300.69713936 96.57380997 -299.28568028 95.77693629 -297.87426758 94.97998047 C-295.20925075 93.47725363 -292.54079248 91.98087233 -289.87036133 90.48779297 C-287.42365192 89.11673253 -284.98933907 87.72730286 -282.56567383 86.31591797 C-274.55141384 81.66130821 -266.41079512 77.43166091 -258.0925293 73.35302734 C-256.21469117 72.4231208 -254.34951932 71.47244416 -252.48754883 70.51123047 C-239.62165291 63.89827366 -226.36001857 58.16032837 -213.10864258 52.37060547 C-212.15199707 51.95101562 -211.19535156 51.53142578 -210.2097168 51.09912109 C-197.55986196 45.56037517 -184.78455005 40.40164219 -171.89477539 35.44824219 C-169.25908043 34.4287927 -166.63228942 33.38936322 -164.00708008 32.34326172 C-126.49762167 17.5179381 -87.18435406 7.95619708 -47.25363159 2.65979004 C-45.86413609 2.4724601 -44.47561435 2.27769618 -43.08840942 2.07409668 C-28.78778543 -0.02144117 -14.4240674 -0.0043144 0 0 Z M-80.10864258 516.80810547 C-90.02267236 530.98044328 -98.13352092 546.48297461 -105.1652832 562.25683594 C-106.00916002 564.14769656 -106.87760947 566.02754604 -107.74926758 567.90576172 C-121.82039429 600.15826532 -128.95949291 644.92542079 -117.90161133 679.10107422 C-115.51449405 685.41962382 -115.51449405 685.41962382 -111.10864258 690.37060547 C-107.9597162 690.67932374 -106.86984157 690.69045859 -104.10864258 689.37060547 C-81.40073579 668.70641029 -71.89098221 625.90980604 -61.18463135 598.15856934 C-60.47164266 596.31116464 -59.75742417 594.46423407 -59.04193115 592.61779785 C-54.39775374 580.62547699 -50.00948 568.58449616 -45.98364258 556.37060547 C-45.72784424 555.59789307 -45.4720459 554.82518066 -45.20849609 554.02905273 C-40.02087496 538.34040928 -35.06914299 522.69830322 -31.73364258 506.49560547 C-31.56541992 505.68027344 -31.39719727 504.86494141 -31.22387695 504.02490234 C-29.4034257 495.73157192 -29.4034257 495.73157192 -31.60864258 487.93310547 C-48.12558651 477.61001551 -71.4479215 504.87172116 -80.10864258 516.80810547 Z M329.01635742 585.93310547 C312.79349441 602.15596848 302.2781005 620.74319048 294.89135742 642.37060547 C294.51108398 643.41087891 294.13081055 644.45115234 293.73901367 645.52294922 C292.9182665 648.28020585 292.67976984 650.38821538 292.76635742 653.24560547 C292.7844043 654.02677734 292.80245117 654.80794922 292.82104492 655.61279297 C292.84424805 656.19287109 292.86745117 656.77294922 292.89135742 657.37060547 C306.07802341 655.24372386 318.33961798 646.55220584 326.89135742 636.37060547 C335.11329517 624.50104546 339.27453867 612.7985741 339.14135742 598.37060547 C339.1490918 597.53271484 339.15682617 596.69482422 339.16479492 595.83154297 C339.14695757 590.0700767 338.30993131 584.95483285 336.89135742 579.37060547 C334.16517465 579.37060547 330.84768535 584.11955311 329.01635742 585.93310547 Z M-273.11645508 626.64404297 C-274.33631104 627.37844604 -274.33631104 627.37844604 -275.58081055 628.12768555 C-276.8939624 628.92855591 -276.8939624 628.92855591 -278.23364258 629.74560547 C-279.13872559 630.29434326 -280.04380859 630.84308105 -280.97631836 631.40844727 C-283.69024043 633.05739745 -286.39969793 634.71349483 -289.10864258 636.37060547 C-289.81956055 636.80228027 -290.53047852 637.23395508 -291.26293945 637.67871094 C-312.86210587 650.80327934 -333.51937014 665.40534844 -353.10864258 681.37060547 C-353.96458008 682.05251953 -354.82051758 682.73443359 -355.70239258 683.43701172 C-380.74620368 703.55122207 -406.31582763 730.86740675 -410.10864258 764.37060547 C-410.33443909 767.78808531 -410.43844843 771.19620752 -410.48364258 774.62060547 C-410.49782227 775.44874756 -410.51200195 776.27688965 -410.52661133 777.13012695 C-410.46226768 785.18032132 -408.70289828 792.88912997 -403.00708008 798.86279297 C-395.43259124 804.87874501 -385.65730933 805.4023551 -376.34887695 804.64990234 C-364.90509752 803.22317134 -353.45003585 799.37547801 -343.10864258 794.37060547 C-342.2243457 793.94263672 -341.34004883 793.51466797 -340.42895508 793.07373047 C-327.51847351 786.41267041 -316.50599493 777.4119857 -306.10864258 767.37060547 C-305.31844727 766.63197266 -304.52825195 765.89333984 -303.71411133 765.13232422 C-285.20786377 747.40392244 -271.79628252 723.16306441 -265.61254883 698.38232422 C-265.15047895 696.53762663 -264.64717954 694.70338416 -264.13989258 692.87060547 C-259.63981545 673.87027981 -258.18662646 642.2146377 -267.10864258 624.37060547 C-269.72308414 624.37060547 -270.88096663 625.29123239 -273.11645508 626.64404297 Z M182.89135742 631.37060547 C181.56627509 633.05315187 180.28326174 634.76882841 179.01635742 636.49560547 C171.23828807 646.97977509 163.30839257 657.16025939 154.38354492 666.69873047 C151.73438502 669.53889563 149.17770732 672.44471874 146.63354492 675.37841797 C144.57635343 677.73081182 142.48538828 680.05095513 140.39135742 682.37060547 C137.52713018 685.54925903 134.66545918 688.72975116 131.82885742 691.93310547 C131.26038086 692.57376953 130.6919043 693.21443359 130.10620117 693.87451172 C128.78629681 695.17878698 128.78629681 695.17878698 128.89135742 696.37060547 C143.73285119 696.03329879 157.53688094 681.32234107 167.24682617 671.39013672 C177.32200103 660.28198897 184.18870776 646.53547283 183.89135742 631.37060547 C183.56135742 631.37060547 183.23135742 631.37060547 182.89135742 631.37060547 Z " fill="#CC6699" transform="translate(580.108642578125,207.62939453125)"/>
</svg>
