<?xml version="1.0" encoding="UTF-8"?>
<svg version="1.1" xmlns="http://www.w3.org/2000/svg" width="3000" height="1799">
<path d="M0 0 C0.86661255 0.06552063 1.7332251 0.13104126 2.62609863 0.19854736 C90.51088678 6.92871243 177.0751182 24.04405251 356 104 C357.2991333 104.75796875 357.2991333 104.75796875 358.62451172 105.53125 C389.01006594 123.34167216 418.26742579 143.28876635 446 165 C447.17444644 165.91540657 448.34892665 166.83076982 449.5234375 167.74609375 C460.64926023 176.43488899 471.53954832 185.38899199 482.28662109 194.54101562 C483.44511347 195.52750044 484.6043127 196.51315565 485.76416016 197.49804688 C492.80819907 203.48134093 499.75930527 209.53679744 506.5703125 215.78515625 C508.60515415 217.64006817 510.66321247 219.45428798 512.75 221.25 C521.51229959 228.87175233 529.9960066 236.87188408 538.12815094 245.16072845 C539.83704692 246.83988294 541.59141365 248.38492774 543.42224121 249.92834473 C549.50450798 255.22204796 555.1209997 260.99812954 560.80664062 266.70898438 C562.08524077 267.98950665 563.36407097 269.26979926 564.64311218 270.54988098 C567.38417738 273.29409317 570.12368458 276.03984773 572.86198425 278.78681946 C577.19708853 283.13551116 581.53606259 287.48032801 585.87561035 291.82458496 C595.86912902 301.83011761 605.85761712 311.84066735 615.84606171 321.85126495 C625.00508405 331.03049675 634.16517851 340.20865189 643.3293376 349.38275576 C647.63793965 353.69632286 651.94409556 358.01231233 656.24835968 362.33020782 C658.93162148 365.02095885 661.61698034 367.70960962 664.3028965 370.3977108 C665.54210377 371.63878098 666.78045092 372.88071072 668.01784325 374.12359047 C673.69114354 379.82124394 679.34330234 385.49634228 685.4805069 390.70192719 C687.42928994 392.36673388 689.22042221 394.15686586 691 396 C694.1498003 399.19261312 697.41219489 402.17161279 700.8125 405.09375 C703.35511399 407.30945648 705.83110198 409.59098592 708.3125 411.875 C712.78224272 415.9517983 717.3758563 419.81477437 722.0859375 423.609375 C724.12395564 425.28131482 726.12218287 426.96519291 728.1015625 428.703125 C737.20369429 436.69037788 746.73681584 443.98900913 756.49365234 451.15820312 C758.87199602 452.9059359 761.24278102 454.6635285 763.61328125 456.421875 C779.37285522 468.0354608 795.9734248 478.35133802 813 488 C813.65581055 488.37189453 814.31162109 488.74378906 814.98730469 489.12695312 C872.08117585 521.16280166 939.94055875 535.43575777 1005 537 C1005.8544873 537.02191406 1006.70897461 537.04382812 1007.58935547 537.06640625 C1109.75406748 539.29342995 1206.45047708 501.76522686 1306.36132812 423.40039062 C1308.00932146 421.99203398 1309.66739677 420.59643142 1311.328125 419.203125 C1325.42321193 407.33283093 1338.58271715 394.50397441 1351.625 381.5 C1352.39792389 380.73109436 1352.39792389 380.73109436 1353.1864624 379.94665527 C1358.46461559 374.68937602 1363.65939016 369.40104883 1368.50634766 363.73876953 C1370.72610237 361.15473993 1373.05314831 358.68017861 1375.375 356.1875 C1379.64839971 351.56219047 1383.68883729 346.79918099 1387.63671875 341.890625 C1389.79365421 339.25238989 1392.00303163 336.67639804 1394.24145508 334.10791016 C1400.47274174 326.94984692 1406.27517787 319.5270086 1411.99609375 311.95703125 C1415.57058906 307.22837791 1419.25989341 302.59886219 1423 298 C1424.52702282 301.93077268 1423.41902472 305.22332845 1422.33203125 309.11328125 C1422.14151184 309.82242172 1421.95099243 310.53156219 1421.75469971 311.26219177 C1421.11820688 313.61542161 1420.466233 315.96400527 1419.8125 318.3125 C1419.35668538 319.97232961 1418.90087491 321.63216036 1418.44506836 323.29199219 C1413.36849089 341.65186958 1407.7787154 359.85053871 1402 378 C1401.77203735 378.71889404 1401.54407471 379.43778809 1401.3092041 380.1784668 C1381.87756423 441.42292636 1356.38386981 501.47920902 1324 557 C1323.45456543 557.94101563 1322.90913086 558.88203125 1322.34716797 559.8515625 C1315.22735818 572.12262886 1307.88454067 584.20486908 1300 596 C1299.43555176 596.84530273 1298.87110352 597.69060547 1298.28955078 598.56152344 C1286.10349031 616.75055323 1273.39083821 634.41071197 1259.42382812 651.27636719 C1257.41159527 653.71230065 1255.4269225 656.17042475 1253.4375 658.625 C1239.16985181 675.99431084 1223.86631632 692.21395465 1208 708.125 C1207.46347809 708.66420074 1206.92695618 709.20340149 1206.37417603 709.75894165 C1200.42912236 715.72653645 1194.41481687 721.53314841 1188 727 C1186.39231627 728.45445517 1184.78760285 729.91220895 1183.1875 731.375 C1174.10322248 739.5605286 1164.47073895 747.10494524 1154.80957031 754.59375 C1153.65205824 755.49327369 1152.49746129 756.39656924 1151.34667969 757.3046875 C1130.31408984 773.87962397 1107.28884718 788.81350989 1084 802 C1083.18225098 802.4645459 1082.36450195 802.9290918 1081.52197266 803.40771484 C1006.384692 845.81815405 924.10120016 872.31708278 681.0012207 898.31567383 C676.89856936 898.31106692 672.7962163 898.31789606 668.69360352 898.33618164 C580.81747411 898.72369082 492.58381799 888.61995714 384 856 C383.35456238 855.79137329 382.70912476 855.58274658 382.04412842 855.36779785 C354.63678028 846.48885378 327.95371409 835.70496874 301.91845703 823.38134766 C298.88637348 821.94621894 295.84752188 820.5260384 292.80859375 819.10546875 C241.4470357 794.93766586 193.79282534 763.74089209 149 729 C148.37609375 728.51789062 147.7521875 728.03578125 147.109375 727.5390625 C139.61533223 721.74238839 132.29642298 715.77951047 125.09375 709.625 C122.2044868 707.16084036 119.26481542 704.76339 116.3125 702.375 C111.85808887 698.74931653 107.57051399 694.97570347 103.32421875 691.109375 C101.27957665 689.25373343 99.21215851 687.43243624 97.125 685.625 C93.20460599 682.21046328 89.37667777 678.69774575 85.55200195 675.17700195 C82.4940304 672.36347715 79.41515033 669.57687159 76.3125 666.8125 C65.29588954 656.90814348 54.53981322 646.71954883 44.1730957 636.13623047 C41.31241498 633.23262114 38.40803796 630.45400311 35.30908203 627.8046875 C30.88627796 623.95338591 26.72968705 619.87407084 22.58984375 615.72265625 C21.81870743 614.95247665 21.04757111 614.18229706 20.25306702 613.38877869 C18.63419847 611.77058627 17.01657449 610.15114788 15.40014648 608.53051758 C12.94431282 606.06932768 10.48318635 603.61352191 8.02148438 601.15820312 C6.43978347 599.57584133 4.85839283 597.99316933 3.27734375 596.41015625 C2.55111313 595.68594986 1.82488251 594.96174347 1.0766449 594.21559143 C-2.11955849 591.00487912 -5.23265473 587.77649348 -8.171875 584.328125 C-13.62046255 578.01739143 -19.63011753 572.22637259 -25.52734375 566.33984375 C-26.8435346 565.02297787 -28.1595771 563.7059637 -29.47547913 562.3888092 C-32.22316144 559.63965926 -34.9726269 556.89230881 -37.72338867 554.14624023 C-41.23122563 550.64409997 -44.73455307 547.13748849 -48.23654842 543.62950802 C-50.95007406 540.91235145 -53.66599845 538.19760257 -56.3826313 535.48355293 C-57.67461896 534.19222755 -58.96587755 532.90017228 -60.25636101 531.60734367 C-69.09727782 522.72154551 -69.09727782 522.72154551 -78.42506409 514.35475159 C-81.09977498 512.05397934 -83.53870387 509.52439557 -86 507 C-89.79598109 503.15729369 -93.63668759 499.46576357 -97.75390625 495.96484375 C-100.21717855 493.81001599 -102.59965602 491.58175845 -104.98486328 489.34130859 C-110.55940789 484.10633015 -116.20537134 479.07416346 -122.1796875 474.29296875 C-124.7967626 472.16523595 -127.34487509 469.97982044 -129.88647461 467.76367188 C-138.29530879 460.44240072 -147.07288094 453.67432442 -156 447 C-156.63550781 446.52175781 -157.27101563 446.04351563 -157.92578125 445.55078125 C-216.17192753 401.77420394 -281.03093371 374.53886766 -353.125 364.1875 C-353.80733704 364.08831268 -354.48967407 363.98912537 -355.19268799 363.88693237 C-375.55695853 360.96353204 -395.86872693 359.6115713 -416.4375 359.6875 C-417.9931517 359.69023422 -417.9931517 359.69023422 -419.58023071 359.69302368 C-496.67089019 359.9195374 -572.19370061 381.87753625 -638 422 C-638.8053418 422.48919922 -639.61068359 422.97839844 -640.44042969 423.48242188 C-663.18448441 437.3800604 -684.96795772 453.11399326 -705.140625 470.54296875 C-708.00691588 473.00594275 -710.9299762 475.38204168 -713.875 477.75 C-717.54364384 480.73375954 -720.94747233 483.81297979 -724.22096252 487.22190857 C-725.97992 488.97993068 -727.80386638 490.59319884 -729.69506836 492.20727539 C-734.04085253 495.98557739 -738.12658009 499.98205213 -742.19140625 504.05859375 C-742.94034653 504.8065773 -743.6892868 505.55456085 -744.46092224 506.32521057 C-746.03271225 507.89632464 -747.60325849 509.46868392 -749.17260742 511.04223633 C-751.55601304 513.43099846 -753.94471068 515.81437446 -756.33398438 518.19726562 C-757.87011237 519.7340545 -759.40593009 521.2711536 -760.94140625 522.80859375 C-761.64576309 523.51092636 -762.35011993 524.21325897 -763.07582092 524.93687439 C-767.0486203 528.92824338 -770.84921682 533.01793702 -774.52394104 537.28582764 C-776.43141886 539.50101406 -778.40268001 541.65503886 -780.375 543.8125 C-784.26924618 548.12774576 -787.96654724 552.57091755 -791.62109375 557.08984375 C-793.72973037 559.66937459 -795.87373798 562.21000343 -798.03979492 564.7409668 C-803.48679051 571.10895657 -808.66309071 577.63892203 -813.72216797 584.31787109 C-816.00836234 587.32740095 -818.31833697 590.31864961 -820.625 593.3125 C-821.4714519 594.41268523 -822.31781555 595.51293837 -823.1640625 596.61328125 C-823.76992188 597.40089844 -824.37578125 598.18851563 -825 599 C-826.27918557 595.16244329 -825.34472292 592.53719317 -824.33203125 588.765625 C-824.04652405 587.66717758 -824.04652405 587.66717758 -823.75524902 586.54653931 C-823.11790655 584.11152586 -822.46638985 581.68061908 -821.8125 579.25 C-821.47513321 577.9840097 -821.47513321 577.9840097 -821.13095093 576.69244385 C-799.3880096 495.24739551 -769.55764274 414.16205578 -716 323 C-715.40912598 322.02498535 -714.81825195 321.0499707 -714.20947266 320.04541016 C-707.16777614 308.43310325 -699.84364629 297.08612185 -692 286 C-691.58685547 285.41202637 -691.17371094 284.82405273 -690.74804688 284.21826172 C-680.50900079 269.65074408 -669.77505251 255.52136828 -658.45605469 241.77636719 C-657.16038703 240.19567002 -655.87987367 238.60257855 -654.6015625 237.0078125 C-650.08573209 231.38340279 -645.35550612 226.02367381 -640.42358398 220.76489258 C-637.82194646 217.99019713 -635.28291323 215.1802873 -632.80297852 212.29589844 C-629.083272 208.03740799 -625.16312209 204.01843688 -621.16015625 200.02734375 C-620.43436874 199.30059952 -619.70858124 198.57385529 -618.96080017 197.8250885 C-617.43676444 196.30037704 -615.91148431 194.7769085 -614.38500977 193.25463867 C-612.06867537 190.94366109 -609.75772922 188.62739229 -607.44726562 186.31054688 C-605.95604966 184.8199918 -604.46452347 183.329747 -602.97265625 181.83984375 C-602.29219742 181.15736069 -601.61173859 180.47487762 -600.91065979 179.77171326 C-596.43351354 175.31603092 -591.79005105 171.11557147 -587 167 C-585.8086363 165.95455859 -584.61834647 164.90789064 -583.4296875 163.859375 C-575.16559614 156.6140496 -566.73839249 149.66465777 -558 143 C-556.89229248 142.15332764 -556.89229248 142.15332764 -555.76220703 141.28955078 C-481.75305541 84.86913423 -397.96080696 46.86998556 -308 24 C-306.73188477 23.67547852 -305.46376953 23.35095703 -304.15722656 23.01660156 C-220.68592648 1.90658586 -134.60156427 -3.02818392 0 0 Z " fill="#05B6D4" transform="translate(826,901)"/>
<path d="M0 0 C4.10265134 0.00460691 8.2050044 -0.00222223 12.30761719 -0.02050781 C100.18374659 -0.40801699 188.41740271 9.69571669 297.0012207 42.31567383 C297.64665833 42.52430054 298.29209595 42.73292725 298.95709229 42.94787598 C326.36444042 51.82682005 353.04750661 62.61070509 379.08276367 74.93432617 C382.11484722 76.36945489 385.15369882 77.78963543 388.19262695 79.21020508 C420.52872426 94.42409437 451.33612745 112.409597 481.0012207 132.31567383 C481.74404297 132.81405762 482.48686523 133.31244141 483.25219727 133.82592773 C499.93187627 145.06590668 516.11037227 156.99088193 532.0012207 169.31567383 C532.62512695 169.7977832 533.2490332 170.27989258 533.8918457 170.77661133 C541.38588848 176.57328544 548.70479772 182.53616335 555.9074707 188.69067383 C558.79673391 191.15483347 561.73640528 193.55228383 564.6887207 195.94067383 C569.14025879 199.56401878 573.42504525 203.33531255 577.66918945 207.19848633 C579.7594596 209.09618552 581.87108185 210.96300797 584.0012207 212.81567383 C601.63143376 228.18921961 619.08535402 244.02767092 635.41137695 260.78833008 C637.41100783 262.7397044 639.42119103 264.5495302 641.54174805 266.3605957 C646.55686837 270.73538663 651.24383984 275.41463904 655.94262695 280.12426758 C656.86913559 281.04981949 657.79564423 281.9753714 658.75022888 282.92897034 C660.69904431 284.87632238 662.64606807 286.82544295 664.59179688 288.77587891 C667.06485932 291.25463777 669.54238603 293.72887814 672.02128696 296.20179653 C674.41418271 298.59017528 676.80322388 300.98239462 679.19262695 303.37426758 C680.07197403 304.25159042 680.95132111 305.12891327 681.85731506 306.03282166 C685.45384632 309.64293742 688.99990745 313.24805782 692.30981445 317.12426758 C697.50369833 323.16078963 703.239348 328.697397 708.87231445 334.31958008 C710.12124451 335.56918528 711.37002621 336.81893876 712.6186676 338.0688324 C715.22511501 340.67674687 717.83334364 343.2828629 720.44287109 345.88769531 C723.76910592 349.20823348 727.09083005 352.53324195 730.41122341 355.85962009 C732.98577893 358.43780809 735.56273486 361.01358627 738.14039803 363.58866692 C739.36539939 364.81300643 740.5896729 366.03807467 741.81316948 367.26391792 C750.37493014 375.84909599 750.37493014 375.84909599 759.4032135 383.93785095 C762.08365793 386.24896548 764.53213892 388.783293 767.0012207 391.31567383 C770.79720179 395.15838014 774.63790829 398.84991026 778.75512695 402.35083008 C781.21839925 404.50565784 783.60087672 406.73391538 785.98608398 408.97436523 C791.5606286 414.20934368 797.20659204 419.24151037 803.1809082 424.02270508 C805.7979833 426.15043788 808.3460958 428.33585339 810.88769531 430.55200195 C819.29652949 437.87327311 828.07410164 444.64134941 837.0012207 451.31567383 C837.63672852 451.79391602 838.27223633 452.2721582 838.92700195 452.76489258 C902.39485648 500.46599587 972.59012506 526.65893838 1051.0012207 536.31567383 C1052.03311523 536.44844727 1053.06500977 536.5812207 1054.12817383 536.71801758 C1146.93517754 548.26214522 1243.08011697 523.06065598 1322.0012207 474.31567383 C1322.95593262 473.73043945 1323.91064453 473.14520508 1324.89428711 472.54223633 C1336.44235702 465.43692514 1347.5562569 457.9706778 1358.26538086 449.65454102 C1360.91987398 447.60710919 1363.61906202 445.62242827 1366.3137207 443.62817383 C1372.01270348 439.35009646 1377.53353967 434.88455798 1383.0012207 430.31567383 C1383.52361328 429.87964844 1384.04600586 429.44362305 1384.58422852 428.99438477 C1390.98779266 423.64095948 1397.31682658 418.22206854 1403.48461914 412.59667969 C1405.00331156 411.2201621 1406.5301262 409.85242943 1408.07202148 408.50195312 C1415.85714174 401.65108206 1423.15060621 394.31776508 1430.47021484 386.97705078 C1432.69101378 384.7508752 1434.91713037 382.53011751 1437.14379883 380.30981445 C1438.57966655 378.87328612 1440.01522413 377.43644771 1441.45043945 375.99926758 C1442.10477463 375.34695663 1442.7591098 374.69464569 1443.43327332 374.02256775 C1447.27340308 370.16315927 1450.9323434 366.19415509 1454.48594666 362.06906128 C1456.56356136 359.66496576 1458.72025643 357.33698701 1460.8762207 355.00317383 C1465.32576301 350.11936688 1469.53138567 345.08593426 1473.67749023 339.9440918 C1475.16764603 338.11094182 1476.67484856 336.29269599 1478.18481445 334.47583008 C1485.07955099 326.17191471 1491.82954048 317.78119157 1498.3828125 309.20410156 C1501.08338713 305.68806399 1503.74206556 302.34430336 1507.0012207 299.31567383 C1505.52550812 308.75794839 1503.13068168 317.91974372 1500.6262207 327.12817383 C1500.30158844 328.32660919 1500.30158844 328.32660919 1499.97039795 329.54925537 C1494.86874044 348.31611652 1489.07143193 366.84221135 1483.0012207 385.31567383 C1482.76101196 386.04961365 1482.52080322 386.78355347 1482.27331543 387.53973389 C1470.81125642 422.53817119 1457.69005393 456.98401726 1442.0012207 490.31567383 C1441.44756836 491.49452148 1440.89391602 492.67336914 1440.32348633 493.88793945 C1427.17842116 521.79451305 1413.10997282 548.99277964 1397.0012207 575.31567383 C1396.36152344 576.36658203 1395.72182617 577.41749023 1395.06274414 578.50024414 C1386.53929133 592.47104913 1377.59470455 606.05693218 1368.0012207 619.31567383 C1367.40921875 620.13438965 1366.8172168 620.95310547 1366.20727539 621.79663086 C1356.13705955 635.67786031 1345.7487567 649.21863751 1334.59887695 662.24926758 C1332.27469329 664.97338369 1330.04198486 667.76237375 1327.8137207 670.56567383 C1316.50063836 684.36881069 1303.5925793 696.82106292 1291.0012207 709.44067383 C1290.32146179 710.12311157 1289.64170288 710.80554932 1288.94134521 711.50866699 C1275.32197503 725.16868466 1275.32197503 725.16868466 1268.0012207 731.31567383 C1266.80889626 732.36001937 1265.61880228 733.4069167 1264.4309082 734.45629883 C1256.78195167 741.1623209 1249.01595147 747.65146428 1240.93579102 753.83178711 C1239.61067199 754.84820223 1238.28990451 755.87030867 1236.97290039 756.8972168 C1213.99295201 774.8072863 1189.41140382 791.06887902 1164.0012207 805.31567383 C1163.13094238 805.80648437 1162.26066406 806.29729492 1161.36401367 806.80297852 C1127.56577627 825.78715341 1092.56517881 841.47730936 1056.0012207 854.31567383 C1054.85218262 854.72237305 1053.70314453 855.12907227 1052.51928711 855.5480957 C981.67355275 880.45533043 906.77667239 893.24057135 832.0012207 898.31567383 C831.24198303 898.36788086 830.48274536 898.42008789 829.70050049 898.47387695 C780.72502637 901.79416123 730.96690753 901.76765686 682.0012207 898.31567383 C680.48772002 898.21268522 678.97421088 898.10982094 677.46069336 898.00708008 C600.99088135 892.72813955 525.215876 878.33516051 452.83740234 852.95831299 C451.15452811 852.36932938 449.46957528 851.78629365 447.78442383 851.20385742 C421.12674407 841.9744683 395.39925081 830.5357546 370.0012207 818.31567383 C368.47561523 817.5828418 368.47561523 817.5828418 366.91918945 816.83520508 C352.60391885 809.91970899 338.74781675 802.29564727 325.0012207 794.31567383 C324.20135742 793.85676758 323.40149414 793.39786133 322.57739258 792.92504883 C305.79814502 783.2801728 289.83726331 772.35067309 273.80432129 761.53033447 C271.30436454 759.84623593 268.7971215 758.17309961 266.2902832 756.49926758 C256.21234229 749.73474621 246.57831468 742.51186221 237.07641602 734.96166992 C235.10767755 733.40011289 233.13087646 731.84963364 231.1496582 730.30395508 C220.13193738 721.70540673 209.35451169 712.83542562 198.71459961 703.7746582 C197.55610724 702.78817339 196.39690801 701.80251818 195.23706055 700.81762695 C188.19302163 694.8343329 181.24191543 688.77887639 174.4309082 682.53051758 C172.39606655 680.67560565 170.33800823 678.86138584 168.2512207 677.06567383 C159.4887902 669.44380763 151.00499303 661.44353809 142.87271118 653.15458679 C141.16577779 651.47736643 139.41362605 649.93445954 137.5847168 648.39306641 C131.4680022 643.06933049 125.82076585 637.25803369 120.1027832 631.51489258 C118.81433094 630.22451823 117.52564866 628.93437352 116.23675537 627.6444397 C113.47440937 624.87894652 110.71362136 622.11191086 107.95404053 619.34365845 C103.58533081 614.96136229 99.21275217 610.58294009 94.83959961 606.20507812 C84.7686759 596.12213998 74.70278248 586.03418494 64.63693237 575.94618225 C55.40699629 566.69603724 46.1759884 557.44696852 36.94091606 548.20195103 C32.59886264 543.85493227 28.25925535 539.50549096 23.92153931 535.15414429 C21.21751831 532.44263456 18.51140069 529.73322464 15.80472565 527.02436447 C14.55584312 525.77361888 13.30782079 524.52201365 12.06075287 523.26945877 C3.58950923 514.74959872 3.58950923 514.74959872 -5.36044312 506.73869324 C-7.16079527 505.17495065 -8.82954797 503.51796031 -10.4987793 501.81567383 C-13.46613253 498.801538 -16.57223222 496.0165005 -19.77612305 493.25708008 C-22.32854813 491.02763322 -24.81765443 488.73566001 -27.3112793 486.44067383 C-31.78102201 482.36387553 -36.37463559 478.50089946 -41.0847168 474.70629883 C-43.12273494 473.03435901 -45.12096216 471.35048091 -47.1003418 469.61254883 C-56.20653927 461.62172825 -65.74424967 454.32082557 -75.50561523 447.14868164 C-77.84533048 445.42849147 -80.17636 443.69711182 -82.5065918 441.96411133 C-98.8880712 429.86623163 -116.05027926 419.01456234 -133.99926758 409.39770508 C-135.83396012 408.40486535 -137.64986672 407.37751367 -139.46362305 406.34692383 C-193.97666357 375.87457128 -260.9740433 362.77165355 -322.9987793 361.31567383 C-323.88178711 361.29375977 -324.76479492 361.2718457 -325.67456055 361.24926758 C-420.08533725 359.26862191 -513.1860765 390.20560083 -588.9987793 446.31567383 C-589.69181152 446.82614258 -590.38484375 447.33661133 -591.09887695 447.86254883 C-599.20310437 453.84402017 -607.19357113 459.94724527 -614.9987793 466.31567383 C-615.88952148 467.03239258 -616.78026367 467.74911133 -617.69799805 468.48754883 C-623.16930331 472.91343035 -628.47551915 477.47209758 -633.6784668 482.21020508 C-635.70032114 484.04485068 -637.74556452 485.84336169 -639.8112793 487.62817383 C-649.79617809 496.34790368 -659.34998807 505.50078011 -668.70336914 514.88989258 C-670.39053888 516.5824873 -672.08308125 518.2695798 -673.77612305 519.95629883 C-678.86651921 525.04358128 -683.87439171 530.14299863 -688.54907227 535.62084961 C-690.74996636 538.19387198 -693.06601456 540.65061859 -695.3737793 543.12817383 C-699.6675331 547.77605925 -703.7340977 552.5598373 -707.7019043 557.49145508 C-709.72465445 559.97861216 -711.79168383 562.41974658 -713.88232422 564.84985352 C-719.85407501 571.80213655 -725.42665349 579.0193745 -730.9597168 586.32348633 C-734.55076993 591.0599035 -738.24844779 595.70423901 -741.9987793 600.31567383 C-743.54847808 596.35782797 -742.39291076 593.01294388 -741.2956543 589.09692383 C-741.10244598 588.37971664 -740.90923767 587.66250946 -740.71017456 586.92356873 C-740.06708772 584.55119737 -739.40876541 582.18339542 -738.7487793 579.81567383 C-738.28952631 578.14586244 -737.83038084 576.47602148 -737.37133789 574.80615234 C-716.71122524 500.09945243 -690.10017076 426.31066998 -642.9987793 341.31567383 C-642.45334473 340.3746582 -641.90791016 339.43364258 -641.34594727 338.46411133 C-634.22613748 326.19304497 -626.88331997 314.11080474 -618.9987793 302.31567383 C-618.43433105 301.47037109 -617.86988281 300.62506836 -617.28833008 299.75415039 C-605.10226961 281.5651206 -592.3896175 263.90496185 -578.42260742 247.03930664 C-576.41037457 244.60337318 -574.4257018 242.14524908 -572.4362793 239.69067383 C-558.16863111 222.32136299 -542.86509562 206.10171918 -526.9987793 190.19067383 C-526.46225739 189.65147308 -525.92573547 189.11227234 -525.37295532 188.55673218 C-519.42790166 182.58913738 -513.41359617 176.78252541 -506.9987793 171.31567383 C-505.39109557 169.86121866 -503.78638215 168.40346488 -502.1862793 166.94067383 C-493.10200178 158.75514523 -483.46951825 151.21072859 -473.80834961 143.72192383 C-472.65083753 142.82240014 -471.49624058 141.91910459 -470.34545898 141.01098633 C-449.31286914 124.43604985 -426.28762648 109.50216394 -402.9987793 96.31567383 C-402.18103027 95.85112793 -401.36328125 95.38658203 -400.52075195 94.90795898 C-325.3834713 52.49751978 -243.09997946 25.99859105 0 0 Z " fill="#05B6D4" transform="translate(1492.998779296875,-0.315673828125)"/>
</svg>
