<?xml version="1.0" encoding="UTF-8"?>
<svg version="1.1" xmlns="http://www.w3.org/2000/svg" width="512" height="512">
<path d="M0 0 C0.20860442 11.8913455 0.36848176 23.7822553 0.46630955 35.67505836 C0.51326504 41.1976042 0.57694111 46.71889768 0.67895508 52.24072266 C0.77680578 57.57060399 0.83056998 62.89928166 0.85389519 68.22999191 C0.87051483 70.26271901 0.90297161 72.29538074 0.95157051 74.32759476 C1.31712653 90.24809519 1.31712653 90.24809519 -1.88539124 94.50775146 C-4.22134345 96.09929966 -6.33684588 97.0793829 -9 98 C-9.9082251 98.54527344 -10.8164502 99.09054688 -11.75219727 99.65234375 C-12.51588623 100.07644531 -13.2795752 100.50054687 -14.06640625 100.9375 C-15.39345581 101.6797583 -15.39345581 101.6797583 -16.74731445 102.43701172 C-17.67632568 102.95279785 -18.60533691 103.46858398 -19.5625 104 C-27.68945637 108.55256711 -35.77434541 113.16736632 -43.8125 117.875 C-52.69047098 123.07304796 -61.58670159 128.23785666 -70.5 133.375 C-71.08141754 133.71013611 -71.66283508 134.04527222 -72.26187134 134.39056396 C-75.5074513 136.26118027 -78.75350445 138.13097323 -82 140 C-82 141.65 -82 143.3 -82 145 C-81.36835938 145.35078613 -80.73671875 145.70157227 -80.0859375 146.06298828 C-66.33962119 153.70615803 -52.67951656 161.47342812 -39.109375 169.42578125 C-24.46358508 178.0070766 -9.73469509 186.44749658 5 194.875 C5.88453857 195.38111816 6.76907715 195.88723633 7.68041992 196.40869141 C8.48713135 196.86937012 9.29384277 197.33004883 10.125 197.8046875 C10.82882813 198.20671387 11.53265625 198.60874023 12.2578125 199.02294922 C15.948058 201.09250674 18.8060337 201.83345766 23 201 C27.17135067 199.11445934 31.02872768 196.74942297 34.9375 194.375 C36.09480166 193.68728281 37.25302168 193.00110894 38.41210938 192.31640625 C40.79204069 190.90801866 43.16714474 189.49199047 45.53857422 188.06933594 C50.66427259 184.99815229 55.83425453 182.0031397 61 179 C62.97537641 177.8465528 64.95063585 176.69290524 66.92578125 175.5390625 C84.55683662 165.25499796 102.26681775 155.10671376 120 145 C120 143.35 120 141.7 120 140 C119.34854004 139.62415771 118.69708008 139.24831543 118.02587891 138.86108398 C117.10210449 138.32813721 116.17833008 137.79519043 115.2265625 137.24609375 C114.18741699 136.64659912 113.14827148 136.04710449 112.07763672 135.42944336 C109.74328358 134.08267577 107.40896765 132.73584393 105.07470703 131.38891602 C99.16021511 127.97622702 93.24511559 124.56460594 87.328125 121.15625 C76.45800939 114.89353088 65.59497795 108.61866615 54.75 102.3125 C53.75597168 101.7362085 52.76194336 101.15991699 51.73779297 100.56616211 C50.80854004 100.02483643 49.87928711 99.48351074 48.921875 98.92578125 C48.11331055 98.45567627 47.30474609 97.98557129 46.47167969 97.5012207 C45.65602539 97.00581787 44.84037109 96.51041504 44 96 C42.97307037 95.49258774 41.94614075 94.98517548 40.88809204 94.46238708 C37.57854517 91.64066764 37.57854517 91.64066764 37.2784729 88.02630615 C37.26110232 86.38443614 37.27698825 84.74201417 37.31884766 83.10058594 C37.31753342 81.75371704 37.31753342 81.75371704 37.31619263 80.37963867 C37.32037068 77.41366372 37.36703266 74.44995445 37.4140625 71.484375 C37.42525387 69.42744177 37.43379433 67.37049254 37.43978882 65.3135376 C37.46269164 59.901121 37.52162815 54.48967139 37.5880127 49.07763672 C37.64940345 43.55449506 37.67679702 38.03119705 37.70703125 32.5078125 C37.77136936 21.67145027 37.87376705 10.83580556 38 0 C41.79130874 1.47877618 45.23693832 3.17501183 48.76953125 5.203125 C49.89311035 5.84644775 51.01668945 6.48977051 52.17431641 7.15258789 C53.38711721 7.85159872 54.59984319 8.55073939 55.8125 9.25 C57.07459978 9.9747148 58.33680831 10.69924024 59.59912109 11.42358398 C68.4413426 16.50292933 77.25618634 21.62905104 86.05786133 26.77832031 C93.35570845 31.04722567 100.67347993 35.28051543 108 39.5 C121.3502215 47.19106102 134.65733215 54.95483011 147.95898438 62.72949219 C159.28852891 69.35021812 170.62976603 75.94935227 182 82.5 C193.33389361 89.02971123 204.63831875 95.60857262 215.93115234 102.20898438 C219.21873751 104.12765779 222.5094638 106.04086162 225.80078125 107.953125 C226.91114746 108.59886475 228.02151367 109.24460449 229.16552734 109.90991211 C231.30969496 111.1567035 233.45452812 112.40235119 235.60009766 113.64672852 C237.03361572 114.48095337 237.03361572 114.48095337 238.49609375 115.33203125 C239.34357178 115.82421143 240.1910498 116.3163916 241.06420898 116.82348633 C243 118 243 118 244 119 C244.11047524 122.08421714 244.15497693 125.14651917 244.15821838 128.23158264 C244.16315636 129.21248963 244.16809434 130.19339662 244.17318195 131.20402807 C244.1886394 134.5176087 244.19693977 137.83116984 244.20532227 141.14477539 C244.21489432 143.50942661 244.22490399 145.8740761 244.23532104 148.23872375 C244.25962706 154.01046805 244.27934284 159.7822151 244.29707379 165.55398304 C244.31794256 172.26750722 244.34441184 178.98100569 244.37124526 185.69450825 C244.41895238 197.66782673 244.46220807 209.64115701 244.50268555 221.61450195 C244.54202462 233.24830037 244.58344701 244.88208828 244.62768555 256.51586914 C244.63040982 257.23248536 244.63313409 257.94910157 244.63594092 258.68743343 C244.64962013 262.28234003 244.66334046 265.87724647 244.67708123 269.47215283 C244.791095 299.31474672 244.89781967 329.1573631 245 359 C241.39220679 359 240.0278402 358.06212075 236.93359375 356.24609375 C235.38949829 355.34697266 235.38949829 355.34697266 233.81420898 354.4296875 C232.14273804 353.44355469 232.14273804 353.44355469 230.4375 352.4375 C229.26739498 351.75324485 228.09689687 351.06966152 226.92602539 350.38671875 C224.49090439 348.96583319 222.05751079 347.54204803 219.625 346.11669922 C216.21849197 344.1237831 212.79890832 342.15430333 209.375 340.19140625 C208.29420166 339.57144775 207.21340332 338.95148926 206.09985352 338.31274414 C204.10882599 337.17143484 202.11720998 336.03115096 200.12475586 334.89233398 C198.07824348 333.71531893 196.06312957 332.48283812 194.07373047 331.21166992 C190.74867399 329.22207609 187.3738954 328.10639178 183.69580078 326.9074707 C176.41334116 324.14887917 169.06426725 321.01678019 165 314 C160.1724464 300.02026871 162.29222071 283.09302149 162.87811279 268.58465576 C163.08157135 262.91399981 163.14742253 257.24191911 163.22265625 251.56835938 C163.31428709 245.20338811 163.42088273 238.84105708 163.62451172 232.4785614 C163.65500107 231.51767609 163.68549042 230.55679077 163.71690369 229.56678772 C163.77650778 227.76919208 163.84067829 225.97174001 163.91017151 224.17449951 C164.18852381 219.95685372 164.18852381 219.95685372 163 216 C159.30398418 216.58078497 156.56292492 217.59059581 153.32421875 219.44921875 C151.97783325 220.21564697 151.97783325 220.21564697 150.60424805 220.99755859 C149.64172119 221.55523926 148.67919434 222.11291992 147.6875 222.6875 C146.67276611 223.26838379 145.65803223 223.84926758 144.61254883 224.44775391 C135.437452 229.71223469 126.30421294 235.04965729 117.17578125 240.39453125 C109.68059115 244.77860075 102.15181855 249.10405996 94.6237793 253.43139648 C89.24106115 256.53162375 83.8755923 259.65676282 78.5390625 262.8359375 C77.52086426 263.44236084 76.50266602 264.04878418 75.45361328 264.67358398 C73.52509044 265.82530969 71.59887089 266.98090344 69.67529297 268.14086914 C68.82338379 268.64996826 67.97147461 269.15906738 67.09375 269.68359375 C66.34802734 270.13275146 65.60230469 270.58190918 64.83398438 271.04467773 C63 272 63 272 61 272 C60.11843983 275.03355698 59.87633156 277.7303654 59.87974548 280.88482666 C59.87837082 281.86636719 59.87699615 282.84790771 59.87557983 283.85919189 C59.87917511 284.92949646 59.88277039 285.99980103 59.88647461 287.10253906 C59.88625557 288.8005365 59.88625557 288.8005365 59.8860321 290.53283691 C59.88672916 294.27711905 59.89451196 298.02135154 59.90234375 301.765625 C59.90420866 304.36065646 59.90563222 306.95568828 59.90663147 309.55072021 C59.91006042 315.68464195 59.91794317 321.81854318 59.92798096 327.95245719 C59.93916194 334.93669512 59.94465755 341.9209339 59.94967639 348.90517855 C59.96012631 363.27012861 59.97771339 377.63506367 60 392 C63.23623169 392.99757655 63.23623169 392.99757655 66.47924805 391.98706055 C67.39746338 391.45894775 68.31567871 390.93083496 69.26171875 390.38671875 C70.289021 389.80349854 71.31632324 389.22027832 72.37475586 388.61938477 C73.46796143 387.98186279 74.56116699 387.34434082 75.6875 386.6875 C76.81873291 386.04031006 77.94996582 385.39312012 79.11547852 384.72631836 C82.41858513 382.83140917 85.71123147 380.91966482 89 379 C89.79728516 378.53561523 90.59457031 378.07123047 91.41601562 377.59277344 C94.75818575 375.64187878 98.09050217 373.67506448 101.41796875 371.69921875 C108.45534595 367.53325828 115.56183671 363.48440764 122.66064453 359.42431641 C127.2921942 356.76529905 131.90750096 354.11381592 136.37890625 351.19140625 C136.97864258 350.80098145 137.57837891 350.41055664 138.19628906 350.00830078 C139.66985334 349.0320088 141.12692361 348.03093703 142.58203125 347.02734375 C145 346 145 346 147.31787109 346.74926758 C150.08153361 348.03802081 152.69524926 349.45257245 155.33203125 350.984375 C156.36529541 351.5825 157.39855957 352.180625 158.46313477 352.796875 C159.56842529 353.44140625 160.67371582 354.0859375 161.8125 354.75 C162.97894095 355.42733196 164.14552859 356.10441135 165.31225586 356.78125 C167.71000514 358.1731061 170.10648786 359.5671074 172.50195312 360.96289062 C175.72254966 362.83932281 178.94688026 364.70926043 182.171875 366.578125 C196.53259693 374.91294756 210.78307213 383.42269531 225 392 C222.65110132 394.46409125 220.5237355 396.48500806 217.515625 398.0859375 C216.84096191 398.45154785 216.16629883 398.8171582 215.47119141 399.19384766 C214.73819824 399.58362793 214.00520508 399.9734082 213.25 400.375 C205.96570064 404.33454021 198.77435503 408.42679103 191.625 412.625 C182.78293571 417.80872067 173.90577794 422.92688176 165 428 C155.27856294 433.53951839 145.59104683 439.13375194 135.93310547 444.78344727 C125.40915375 450.93766742 114.84619863 457.02369996 104.28222656 463.10888672 C98.85340058 466.23680148 93.42680719 469.36858448 88 472.5 C85.83334417 473.75001879 83.6666775 475.00001878 81.5 476.25 C80.4275 476.86875 79.355 477.4875 78.25 478.125 C68.5 483.75 68.5 483.75 65.24438477 485.62817383 C63.09635954 486.86746267 60.94840925 488.10688141 58.80053711 489.34643555 C53.71344451 492.28202567 48.62558153 495.21625672 43.5350647 498.14590454 C41.12456252 499.53328095 38.71448624 500.92139624 36.30444336 502.30957031 C34.59856032 503.29173815 32.89206014 504.27283385 31.18554688 505.25390625 C30.15623047 505.846875 29.12691406 506.43984375 28.06640625 507.05078125 C26.7043103 507.83449097 26.7043103 507.83449097 25.31469727 508.6340332 C23.50873799 509.69977966 21.74478871 510.83680752 20 512 C15.99220955 511.66875361 13.10049668 510.12710793 9.66796875 508.11328125 C8.63478516 507.51193359 7.60160156 506.91058594 6.53710938 506.29101562 C5.43173828 505.63810547 4.32636719 504.98519531 3.1875 504.3125 C2.02057199 503.63019245 0.8532478 502.94856206 -0.31445312 502.26757812 C-2.71404049 500.86665869 -5.11123378 499.46177647 -7.50634766 498.05322266 C-11.69131767 495.59217781 -15.88560462 493.14719727 -20.08007812 490.70239258 C-22.0416316 489.55875442 -24.00256034 488.41404413 -25.96289062 487.26831055 C-33.22853731 483.0230868 -40.51763539 478.81976608 -47.8125 474.625 C-57.88761552 468.8281931 -67.89712895 462.92726625 -77.88720703 456.98535156 C-86.69768022 451.75274196 -95.55826841 446.61197711 -104.44140625 441.50390625 C-112.6354266 436.79184854 -120.80428935 432.03824958 -128.96386719 427.2668457 C-135.18373851 423.63314751 -141.41997779 420.02931487 -147.66650391 416.44165039 C-161.55050925 408.4654458 -175.30071564 400.28886661 -189 392 C-186.5849251 389.32186248 -183.98947088 387.6956489 -180.86328125 385.91796875 C-179.82349121 385.32298584 -178.78370117 384.72800293 -177.71240234 384.11499023 C-176.59043457 383.47891846 -175.4684668 382.84284668 -174.3125 382.1875 C-172.53876625 381.1745345 -170.76605798 380.15978917 -168.99334717 379.14503479 C-167.78081764 378.45114574 -166.56796428 377.75782228 -165.35479736 377.06504822 C-159.5072671 373.72493995 -153.68932612 370.33503666 -147.875 366.9375 C-146.90747803 366.37562988 -145.93995605 365.81375977 -144.94311523 365.23486328 C-139.72200166 362.19877816 -134.53360677 359.1178286 -129.375 355.9765625 C-128.28719238 355.32179932 -127.19938477 354.66703613 -126.07861328 353.99243164 C-123.9905252 352.73451849 -121.9102869 351.46345304 -119.83935547 350.17749023 C-118.89979004 349.61489502 -117.96022461 349.0522998 -116.9921875 348.47265625 C-116.17089355 347.97000244 -115.34959961 347.46734863 -114.50341797 346.94946289 C-111.21002879 345.70039028 -109.37519694 346.06909891 -106 347 C-103.31298828 348.26831055 -103.31298828 348.26831055 -100.5703125 349.88671875 C-99.54035156 350.48806641 -98.51039063 351.08941406 -97.44921875 351.70898438 C-96.35222656 352.36189453 -95.25523437 353.01480469 -94.125 353.6875 C-92.96276591 354.37003764 -91.79999622 355.05166402 -90.63671875 355.73242188 C-88.24746496 357.13241182 -85.86124379 358.53736044 -83.47753906 359.94677734 C-77.36433493 363.56000829 -71.22247106 367.12438635 -65.08520508 370.6965332 C-60.2823829 373.49423578 -55.48571576 376.30117724 -50.70584106 379.13787842 C-48.32396779 380.54895162 -45.93697453 381.95120976 -43.54907227 383.35205078 C-41.84917479 384.35339626 -40.15594574 385.3660348 -38.46289062 386.37890625 C-37.42970703 386.98347656 -36.39652344 387.58804687 -35.33203125 388.2109375 C-34.42171143 388.75024902 -33.5113916 389.28956055 -32.57348633 389.84521484 C-29.7945624 391.09218479 -28.01002015 391.31975901 -25 391 C-23.40096258 389.40096258 -23.86397843 387.71868155 -23.85282898 385.50285339 C-23.84209602 384.04539955 -23.84209602 384.04539955 -23.83114624 382.5585022 C-23.82845734 381.48369598 -23.82576843 380.40888977 -23.82299805 379.30151367 C-23.81314125 377.61381111 -23.81314125 377.61381111 -23.80308533 375.89201355 C-23.78329623 372.1506647 -23.77167764 368.40935608 -23.76171875 364.66796875 C-23.75764322 363.3941012 -23.7535677 362.12023365 -23.74936867 360.80776405 C-23.73064108 354.76253502 -23.71608042 348.71733054 -23.7077567 342.67208022 C-23.69798418 335.68941467 -23.67166795 328.70706612 -23.63125581 321.72451228 C-23.59747613 315.68088508 -23.58561321 309.63741196 -23.58155251 303.59368324 C-23.57666825 301.02079429 -23.56500247 298.44790918 -23.54651451 295.87508202 C-23.52227672 292.27868528 -23.52306033 288.6831226 -23.5300293 285.08666992 C-23.51721924 284.0179364 -23.50440918 282.94920288 -23.49121094 281.8480835 C-23.4252502 276.25204798 -23.4252502 276.25204798 -25.87760925 271.40664673 C-28.27915116 269.81498833 -30.65643287 268.27756283 -33.1640625 266.85546875 C-34.19015625 266.26894531 -35.21625 265.68242187 -36.2734375 265.078125 C-37.93246094 264.14226562 -37.93246094 264.14226562 -39.625 263.1875 C-40.7920553 262.52281732 -41.95871523 261.85744001 -43.125 261.19140625 C-45.5469809 259.80899197 -47.97063154 258.42957485 -50.39550781 257.05224609 C-55.94639611 253.89605912 -61.47189527 250.69586303 -67 247.5 C-73.62611629 243.6748256 -80.25409263 239.85293954 -86.88671875 236.0390625 C-89.15373718 234.73453373 -91.42066572 233.42984874 -93.6875 232.125 C-94.77240723 231.50093262 -95.85731445 230.87686523 -96.97509766 230.23388672 C-104.1309551 226.10750028 -111.22016013 221.88913514 -118.2421875 217.5390625 C-121.45963857 215.71981032 -121.45963857 215.71981032 -125 215 C-125.99 215.66 -126.98 216.32 -128 217 C-128.2257908 220.03170855 -128.25996673 222.85431709 -128.16259766 225.88085938 C-128.12711193 227.78950907 -128.09168376 229.69815984 -128.05630493 231.60681152 C-128.0320406 232.62248703 -128.00777626 233.63816254 -127.98277664 234.68461609 C-127.86585746 240.05997736 -127.83551121 245.43615249 -127.7890625 250.8125 C-127.72369173 257.656562 -127.63341437 264.49770515 -127.45507812 271.33984375 C-127.31325878 276.86736378 -127.2552057 282.39036337 -127.25172043 287.91963196 C-127.23505794 290.02190006 -127.18790517 292.12416515 -127.1090889 294.22502136 C-126.5290441 310.24885649 -126.5290441 310.24885649 -130.65758705 314.84554482 C-134.72307694 318.05703348 -139.17274135 320.1877176 -143.95062637 322.13188362 C-146.79226178 323.33560275 -149.37253978 324.8952105 -151.99609375 326.51171875 C-153.80962264 327.57078045 -155.62342643 328.62937156 -157.4375 329.6875 C-158.42830566 330.26564453 -159.41911133 330.84378906 -160.43994141 331.43945312 C-165.9408532 334.6456694 -171.44841189 337.84009437 -176.96484375 341.01953125 C-177.83323128 341.52005257 -177.83323128 341.52005257 -178.71916199 342.03068542 C-181.51029878 343.6389171 -184.30235 345.24553753 -187.09545898 346.8503418 C-188.11325439 347.435979 -189.1310498 348.02161621 -190.1796875 348.625 C-191.15518555 349.18445313 -192.13068359 349.74390625 -193.13574219 350.3203125 C-195.06559816 351.45203847 -196.97777676 352.61439356 -198.87207031 353.8046875 C-199.76249023 354.36414063 -200.65291016 354.92359375 -201.5703125 355.5 C-202.7461792 356.25796875 -202.7461792 356.25796875 -203.94580078 357.03125 C-206 358 -206 358 -209 357 C-209.169077 326.81642514 -209.27167302 296.63317937 -209.28166701 266.44914231 C-209.28290589 262.88438883 -209.28471065 259.31963585 -209.28686523 255.75488281 C-209.28728466 255.04521498 -209.28770408 254.33554715 -209.28813621 253.60437423 C-209.2962735 242.11846586 -209.35023515 230.63320778 -209.42118094 219.14753526 C-209.49297527 207.35905767 -209.51541151 195.57122835 -209.49218339 183.78255129 C-209.48055036 177.16195104 -209.49321771 170.54281577 -209.55968666 163.92247009 C-209.62154025 157.69016808 -209.62248523 151.46081798 -209.5768013 145.228405 C-209.57076038 142.94188059 -209.58693754 140.65517243 -209.62704659 138.36899185 C-209.90415651 121.55092013 -209.90415651 121.55092013 -206.7528131 117.32919502 C-203.28444813 114.20868802 -199.33353826 112.66652884 -195 111 C-192.8447179 109.7929818 -190.70505458 108.5571877 -188.58984375 107.28125 C-186.37362432 106.0186745 -184.15613108 104.75833285 -181.9375 103.5 C-180.72349065 102.80900622 -179.50962696 102.11775646 -178.29589844 101.42626953 C-175.7842896 99.99569043 -173.27207439 98.56618629 -170.75927734 97.13769531 C-164.75278027 93.72276508 -158.75050494 90.30044649 -152.75 86.875 C-152.16907593 86.54349945 -151.58815186 86.2119989 -150.98962402 85.87045288 C-141.86787604 80.66334676 -132.78867042 75.38610015 -123.72558594 70.07763672 C-116.07463681 65.60502893 -108.36816881 61.23717482 -100.64331055 56.89379883 C-93.72308356 52.9947884 -86.85291091 49.01600083 -80 45 C-72.20412934 40.43139792 -64.37627518 35.92855226 -56.5 31.5 C-48.54356329 27.02501613 -40.63063805 22.48220026 -32.75 17.875 C-31.75919434 17.2960498 -30.76838867 16.71709961 -29.74755859 16.12060547 C-25.87362678 13.855324 -22.00082877 11.58816155 -18.13183594 9.31445312 C-15.46498685 7.74769093 -12.79523874 6.18597578 -10.125 4.625 C-9.32803711 4.15433105 -8.53107422 3.68366211 -7.70996094 3.19873047 C-2.22677036 -0 -2.22677036 -0 0 0 Z " fill="#7F7F7F" transform="translate(238,0)"/>
<path d="M0 0 C0.33 78.87 0.66 157.74 1 239 C-2.60779321 239 -3.9721598 238.06212075 -7.06640625 236.24609375 C-8.09580322 235.64667969 -9.1252002 235.04726563 -10.18579102 234.4296875 C-11.30010498 233.77226562 -12.41441895 233.11484375 -13.5625 232.4375 C-14.73260502 231.75324485 -15.90310313 231.06966152 -17.07397461 230.38671875 C-19.50909561 228.96583319 -21.94248921 227.54204803 -24.375 226.11669922 C-27.78150803 224.1237831 -31.20109168 222.15430333 -34.625 220.19140625 C-35.70579834 219.57144775 -36.78659668 218.95148926 -37.90014648 218.31274414 C-39.89117401 217.17143484 -41.88279002 216.03115096 -43.87524414 214.89233398 C-45.92175652 213.71531893 -47.93687043 212.48283812 -49.92626953 211.21166992 C-53.25132601 209.22207609 -56.6261046 208.10639178 -60.30419922 206.9074707 C-67.58665884 204.14887917 -74.93573275 201.01678019 -79 194 C-83.8275536 180.02026871 -81.70777929 163.09302149 -81.12188721 148.58465576 C-80.91842865 142.91399981 -80.85257747 137.24191911 -80.77734375 131.56835938 C-80.68571291 125.20338811 -80.57911727 118.84105708 -80.37548828 112.4785614 C-80.32975426 111.03723343 -80.32975426 111.03723343 -80.28309631 109.56678772 C-80.22349222 107.76919208 -80.15932171 105.97174001 -80.08982849 104.17449951 C-79.81147619 99.95685372 -79.81147619 99.95685372 -81 96 C-84.69601582 96.58078497 -87.43707508 97.59059581 -90.67578125 99.44921875 C-92.02216675 100.21564697 -92.02216675 100.21564697 -93.39575195 100.99755859 C-94.35827881 101.55523926 -95.32080566 102.11291992 -96.3125 102.6875 C-97.32723389 103.26838379 -98.34196777 103.84926758 -99.38745117 104.44775391 C-108.562548 109.71223469 -117.69578706 115.04965729 -126.82421875 120.39453125 C-134.31940885 124.77860075 -141.84818145 129.10405996 -149.3762207 133.43139648 C-154.75893885 136.53162375 -160.1244077 139.65676282 -165.4609375 142.8359375 C-166.47913574 143.44236084 -167.49733398 144.04878418 -168.54638672 144.67358398 C-170.47490956 145.82530969 -172.40112911 146.98090344 -174.32470703 148.14086914 C-175.6025708 148.90451782 -175.6025708 148.90451782 -176.90625 149.68359375 C-177.65197266 150.13275146 -178.39769531 150.58190918 -179.16601562 151.04467773 C-181 152 -181 152 -183 152 C-183.88156017 155.03355698 -184.12366844 157.7303654 -184.12025452 160.88482666 C-184.12162918 161.86636719 -184.12300385 162.84790771 -184.12442017 163.85919189 C-184.12082489 164.92949646 -184.11722961 165.99980103 -184.11352539 167.10253906 C-184.11367142 168.23453735 -184.11381744 169.36653564 -184.1139679 170.53283691 C-184.11327084 174.27711905 -184.10548804 178.02135154 -184.09765625 181.765625 C-184.09579134 184.36065646 -184.09436778 186.95568828 -184.09336853 189.55072021 C-184.08993958 195.68464195 -184.08205683 201.81854318 -184.07201904 207.95245719 C-184.06083806 214.93669512 -184.05534245 221.9209339 -184.05032361 228.90517855 C-184.03987369 243.27012861 -184.02228661 257.63506367 -184 272 C-180.76376831 272.99757655 -180.76376831 272.99757655 -177.52075195 271.98706055 C-176.60253662 271.45894775 -175.68432129 270.93083496 -174.73828125 270.38671875 C-173.710979 269.80349854 -172.68367676 269.22027832 -171.62524414 268.61938477 C-170.53203857 267.98186279 -169.43883301 267.34434082 -168.3125 266.6875 C-167.18126709 266.04031006 -166.05003418 265.39312012 -164.88452148 264.72631836 C-161.58141487 262.83140917 -158.28876853 260.91966482 -155 259 C-154.20271484 258.53561523 -153.40542969 258.07123047 -152.58398438 257.59277344 C-149.24181425 255.64187878 -145.90949783 253.67506448 -142.58203125 251.69921875 C-135.54465405 247.53325828 -128.43816329 243.48440764 -121.33935547 239.42431641 C-116.7078058 236.76529905 -112.09249904 234.11381592 -107.62109375 231.19140625 C-107.02135742 230.80098145 -106.42162109 230.41055664 -105.80371094 230.00830078 C-104.33014666 229.0320088 -102.87307639 228.03093703 -101.41796875 227.02734375 C-99 226 -99 226 -96.68212891 226.74926758 C-93.91846639 228.03802081 -91.30475074 229.45257245 -88.66796875 230.984375 C-87.63470459 231.5825 -86.60144043 232.180625 -85.53686523 232.796875 C-84.43157471 233.44140625 -83.32628418 234.0859375 -82.1875 234.75 C-81.02105905 235.42733196 -79.85447141 236.10441135 -78.68774414 236.78125 C-76.28999486 238.1731061 -73.89351214 239.5671074 -71.49804688 240.96289062 C-68.27745034 242.83932281 -65.05311974 244.70926043 -61.828125 246.578125 C-47.46740307 254.91294756 -33.21692787 263.42269531 -19 272 C-21.34889868 274.46409125 -23.4762645 276.48500806 -26.484375 278.0859375 C-27.49636963 278.63435303 -27.49636963 278.63435303 -28.52880859 279.19384766 C-29.26180176 279.58362793 -29.99479492 279.9734082 -30.75 280.375 C-38.03429936 284.33454021 -45.22564497 288.42679103 -52.375 292.625 C-61.21706429 297.80872067 -70.09422206 302.92688176 -79 308 C-88.72143706 313.53951839 -98.40895317 319.13375194 -108.06689453 324.78344727 C-118.59084625 330.93766742 -129.15380137 337.02369996 -139.71777344 343.10888672 C-145.14659942 346.23680148 -150.57319281 349.36858448 -156 352.5 C-158.16665583 353.75001879 -160.3333225 355.00001878 -162.5 356.25 C-163.5725 356.86875 -164.645 357.4875 -165.75 358.125 C-169 360 -172.25 361.875 -175.5 363.75 C-176.57419189 364.36979736 -177.64838379 364.98959473 -178.75512695 365.62817383 C-180.90445415 366.86802723 -183.05402781 368.1074535 -185.20385742 369.34643555 C-190.27834489 372.27163763 -195.35021617 375.20111723 -200.4133606 378.14590454 C-202.80315668 379.5354863 -205.19436836 380.92262172 -207.58569336 382.30957031 C-209.27140589 383.28863253 -210.95506587 384.27122606 -212.63867188 385.25390625 C-213.66154297 385.846875 -214.68441406 386.43984375 -215.73828125 387.05078125 C-216.63587158 387.57325439 -217.53346191 388.09572754 -218.45825195 388.6340332 C-220.92396993 389.9591405 -223.39568383 390.98255665 -226 392 C-226.20597005 358.85238248 -226.36457127 325.70493082 -226.45958797 292.55681943 C-226.47084442 288.64399837 -226.48249331 284.73117856 -226.49438477 280.81835938 C-226.49674556 280.03938278 -226.49910635 279.26040619 -226.50153869 278.45782425 C-226.54070791 265.84225535 -226.61167261 253.22705531 -226.69437516 240.61170529 C-226.77851953 227.6685373 -226.82852473 214.72556256 -226.84679645 201.78213227 C-226.85915008 193.79416329 -226.89817346 185.80723681 -226.9712482 177.81958874 C-227.02441815 171.69600128 -227.03010201 165.5732096 -227.01796913 159.44942284 C-227.02044934 156.93628833 -227.03840851 154.42311511 -227.07284927 151.91021538 C-227.11753771 148.48204776 -227.10690728 145.05836453 -227.08229065 141.63009644 C-227.12161401 140.13300575 -227.12161401 140.13300575 -227.16173178 138.60567081 C-227.03339413 132.00873207 -227.03339413 132.00873207 -224.03042495 129.07742906 C-221.74466642 127.53350359 -219.46294045 126.23688498 -217 125 C-216.000896 124.39414063 -215.00179199 123.78828125 -213.97241211 123.1640625 C-212.63835327 122.40222656 -212.63835327 122.40222656 -211.27734375 121.625 C-209.7469043 120.74714844 -209.7469043 120.74714844 -208.18554688 119.8515625 C-207.11369141 119.24054688 -206.04183594 118.62953125 -204.9375 118 C-202.6129802 116.66718751 -200.28876911 115.33384757 -197.96484375 114 C-197.37947845 113.66444092 -196.79411316 113.32888184 -196.19100952 112.9831543 C-190.44265452 109.68614696 -184.71983777 106.3461504 -179 103 C-169.59035746 97.50010161 -160.15529125 92.04550624 -150.7109375 86.60546875 C-143.4604851 82.42650872 -136.22511731 78.22259494 -129 74 C-120.68248208 69.1389704 -112.34794347 64.30858897 -104 59.5 C-91.63977482 52.37913592 -79.31532673 45.19816622 -67 38 C-63.04214526 35.68667962 -59.08389244 33.37404411 -55.125 31.0625 C-54.146521 30.49112305 -53.16804199 29.91974609 -52.15991211 29.33105469 C-43.50349224 24.2820062 -34.81959256 19.28115002 -26.13134766 14.28710938 C-19.42762318 10.42599337 -12.75885519 6.51589688 -6.18530273 2.4362793 C-2.21132765 0 -2.21132765 0 0 0 Z " fill="#000000" transform="translate(482,120)"/>
<path d="M0 0 C3.88461437 1.55384575 7.17185557 3.13764688 10.76953125 5.203125 C11.89311035 5.84644775 13.01668945 6.48977051 14.17431641 7.15258789 C15.38711721 7.85159872 16.59984319 8.55073939 17.8125 9.25 C19.07459978 9.9747148 20.33680831 10.69924024 21.59912109 11.42358398 C30.4413426 16.50292933 39.25618634 21.62905104 48.05786133 26.77832031 C55.355708 31.04722541 62.6734445 35.28057749 70 39.5 C79.33867741 44.87906155 88.65640369 50.29259477 97.9609375 55.73046875 C105.29283764 60.01222146 112.64270807 64.26204691 120 68.5 C133.35015665 76.19117469 146.65733128 83.9548296 159.95898438 91.72949219 C171.43357269 98.43497837 182.92116539 105.11641727 194.4375 111.75 C201.95219756 116.07929488 209.46055762 120.41825009 216.9375 124.8125 C217.62320068 125.21500977 218.30890137 125.61751953 219.01538086 126.03222656 C221.72460018 127.6292253 224.38243515 129.25495677 227 131 C227.36618346 132.92193663 227.36618346 132.92193663 227.35352612 135.32222939 C227.35601587 136.23537773 227.35850561 137.14852607 227.36107081 138.08934557 C227.34844134 139.0990574 227.33581187 140.10876922 227.32279968 141.14907837 C227.3212794 142.21659438 227.31975913 143.2841104 227.31819278 144.38397539 C227.30937654 147.98486807 227.27896776 151.58526276 227.2487793 155.18603516 C227.23807831 157.75772098 227.22869953 160.32941261 227.22055054 162.90110779 C227.20086971 168.45001915 227.17014964 173.9987821 227.13199425 179.54759598 C227.0768435 187.57029507 227.03824417 195.5930061 227.003723 203.61581735 C226.94726764 216.6313222 226.87737117 229.64671896 226.79907227 242.66210938 C226.72302738 255.30758735 226.65328153 267.9530741 226.59204102 280.59863281 C226.58826585 281.37771321 226.58449068 282.15679361 226.58060112 282.95948251 C226.56170176 286.86778334 226.5429266 290.77608476 226.52421319 294.68438649 C226.36873239 327.12303932 226.19145924 359.56153927 226 392 C224.07026821 391.04048854 222.1411445 390.07975405 220.21228027 389.11849976 C218.60076206 388.31618203 218.60076206 388.31618203 216.95668793 387.49765587 C213.86635144 385.93230278 210.87222979 384.2661372 207.90625 382.4765625 C206.87113281 381.85652344 205.83601562 381.23648437 204.76953125 380.59765625 C203.69058594 379.94667969 202.61164063 379.29570312 201.5 378.625 C199.11661198 377.19711137 196.73063086 375.77360358 194.34375 374.3515625 C193.73716553 373.99000061 193.13058105 373.62843872 192.50561523 373.25592041 C186.05186531 369.41922041 179.52935585 365.70603285 173 362 C162.60040704 356.09266204 152.28728178 350.05347013 142.01049805 343.93408203 C133.23576297 338.71515121 124.40858931 333.59285631 115.55810547 328.50366211 C107.36286485 323.79080957 99.19301566 319.03602199 91.03173828 314.26464844 C83.76740363 310.02146787 76.4804438 305.81877139 69.1875 301.625 C52.34934753 291.93466362 35.6495165 282.01063806 19 272 C21.4150749 269.32186248 24.01052912 267.6956489 27.13671875 265.91796875 C28.17650879 265.32298584 29.21629883 264.72800293 30.28759766 264.11499023 C31.40956543 263.47891846 32.5315332 262.84284668 33.6875 262.1875 C35.46123375 261.1745345 37.23394202 260.15978917 39.00665283 259.14503479 C40.21918236 258.45114574 41.43203572 257.75782228 42.64520264 257.06504822 C48.4927329 253.72493995 54.31067388 250.33503666 60.125 246.9375 C61.09252197 246.37562988 62.06004395 245.81375977 63.05688477 245.23486328 C68.27799834 242.19877816 73.46639323 239.1178286 78.625 235.9765625 C79.71280762 235.32179932 80.80061523 234.66703613 81.92138672 233.99243164 C84.0094748 232.73451849 86.0897131 231.46345304 88.16064453 230.17749023 C89.56999268 229.33359741 89.56999268 229.33359741 91.0078125 228.47265625 C91.82910645 227.97000244 92.65040039 227.46734863 93.49658203 226.94946289 C96.78997121 225.70039028 98.62480306 226.06909891 102 227 C104.68701172 228.26831055 104.68701172 228.26831055 107.4296875 229.88671875 C108.45964844 230.48806641 109.48960937 231.08941406 110.55078125 231.70898438 C111.64777344 232.36189453 112.74476563 233.01480469 113.875 233.6875 C115.03723409 234.37003764 116.20000378 235.05166402 117.36328125 235.73242188 C119.75253504 237.13241182 122.13875621 238.53736044 124.52246094 239.94677734 C130.63566507 243.56000829 136.77752894 247.12438635 142.91479492 250.6965332 C147.7176171 253.49423578 152.51428424 256.30117724 157.29415894 259.13787842 C159.67603221 260.54895162 162.06302547 261.95120976 164.45092773 263.35205078 C166.15082521 264.35339626 167.84405426 265.3660348 169.53710938 266.37890625 C170.57029297 266.98347656 171.60347656 267.58804687 172.66796875 268.2109375 C173.57828857 268.75024902 174.4886084 269.28956055 175.42651367 269.84521484 C178.2054376 271.09218479 179.98997985 271.31975901 183 271 C184.59903742 269.40096258 184.13602157 267.71868155 184.14717102 265.50285339 C184.15790398 264.04539955 184.15790398 264.04539955 184.16885376 262.5585022 C184.17154266 261.48369598 184.17423157 260.40888977 184.17700195 259.30151367 C184.18685875 257.61381111 184.18685875 257.61381111 184.19691467 255.89201355 C184.21670377 252.1506647 184.22832236 248.40935608 184.23828125 244.66796875 C184.24235678 243.3941012 184.2464323 242.12023365 184.25063133 240.80776405 C184.26935892 234.76253502 184.28391958 228.71733054 184.2922433 222.67208022 C184.30201582 215.68941467 184.32833205 208.70706612 184.36874419 201.72451228 C184.40252387 195.68088508 184.41438679 189.63741196 184.41844749 183.59368324 C184.42333175 181.02079429 184.43499753 178.44790918 184.45348549 175.87508202 C184.47772328 172.27868528 184.47693967 168.6831226 184.4699707 165.08666992 C184.48278076 164.0179364 184.49559082 162.94920288 184.50878906 161.8480835 C184.5747498 156.25204798 184.5747498 156.25204798 182.12239075 151.40664673 C179.72084884 149.81498833 177.34356713 148.27756283 174.8359375 146.85546875 C173.29679687 145.97568359 173.29679687 145.97568359 171.7265625 145.078125 C170.06753906 144.14226562 170.06753906 144.14226562 168.375 143.1875 C167.2079447 142.52281732 166.04128477 141.85744001 164.875 141.19140625 C162.4530191 139.80899197 160.02936846 138.42957485 157.60449219 137.05224609 C152.05360389 133.89605912 146.52810473 130.69586303 141 127.5 C134.37388371 123.6748256 127.74590737 119.85293954 121.11328125 116.0390625 C118.84626282 114.73453373 116.57933428 113.42984874 114.3125 112.125 C113.22759277 111.50093262 112.14268555 110.87686523 111.02490234 110.23388672 C103.8690449 106.10750028 96.77983987 101.88913514 89.7578125 97.5390625 C86.54036143 95.71981032 86.54036143 95.71981032 83 95 C82.01 95.66 81.02 96.32 80 97 C79.7742092 100.03170855 79.74003327 102.85431709 79.83740234 105.88085938 C79.87288807 107.78950907 79.90831624 109.69815984 79.94369507 111.60681152 C79.9679594 112.62248703 79.99222374 113.63816254 80.01722336 114.68461609 C80.13414254 120.05997736 80.16448879 125.43615249 80.2109375 130.8125 C80.27630827 137.656562 80.36658563 144.49770515 80.54492188 151.33984375 C80.68674122 156.86736378 80.7447943 162.39036337 80.74827957 167.91963196 C80.76494206 170.02190006 80.81209483 172.12416515 80.8909111 174.22502136 C81.4709559 190.24885649 81.4709559 190.24885649 77.34241295 194.84554482 C73.27692306 198.05703348 68.82725865 200.1877176 64.04937363 202.13188362 C61.20773822 203.33560275 58.62746022 204.8952105 56.00390625 206.51171875 C54.19037736 207.57078045 52.37657357 208.62937156 50.5625 209.6875 C49.57169434 210.26564453 48.58088867 210.84378906 47.56005859 211.43945312 C42.0591468 214.6456694 36.55158811 217.84009437 31.03515625 221.01953125 C30.45623123 221.35321213 29.87730621 221.68689301 29.28083801 222.03068542 C26.48970122 223.6389171 23.69765 225.24553753 20.90454102 226.8503418 C19.88674561 227.435979 18.8689502 228.02161621 17.8203125 228.625 C16.84481445 229.18445313 15.86931641 229.74390625 14.86425781 230.3203125 C12.93440184 231.45203847 11.02222324 232.61439356 9.12792969 233.8046875 C8.23750977 234.36414063 7.34708984 234.92359375 6.4296875 235.5 C5.2538208 236.25796875 5.2538208 236.25796875 4.05419922 237.03125 C2 238 2 238 -1 237 C-0.67 158.79 -0.34 80.58 0 0 Z " fill="#4C4C4C" transform="translate(30,120)"/>
</svg>
