<svg xmlns="http://www.w3.org/2000/svg" xmlns:xlink="http://www.w3.org/1999/xlink" width="500" zoomAndPan="magnify" viewBox="0 0 375 374.999991" height="500" preserveAspectRatio="xMidYMid meet" version="1.0"><defs><clipPath id="8465d70a35"><path d="M 168 219 L 218 219 L 218 268.585938 L 168 268.585938 Z M 168 219 " clip-rule="nonzero"/></clipPath><clipPath id="b99e76620c"><path d="M 168 243 L 194 243 L 194 268.585938 L 168 268.585938 Z M 168 243 " clip-rule="nonzero"/></clipPath><clipPath id="0b88f303cc"><path d="M 106.585938 198 L 164 198 L 164 267 L 106.585938 267 Z M 106.585938 198 " clip-rule="nonzero"/></clipPath><clipPath id="7a3cb8321b"><path d="M 152 106.585938 L 159 106.585938 L 159 119 L 152 119 Z M 152 106.585938 " clip-rule="nonzero"/></clipPath></defs><path fill="#7ed957" d="M 375 187.5 C 375 190.570312 374.925781 193.636719 374.773438 196.699219 C 374.625 199.765625 374.398438 202.824219 374.097656 205.878906 C 373.796875 208.933594 373.421875 211.976562 372.96875 215.011719 C 372.519531 218.046875 371.996094 221.070312 371.398438 224.078125 C 370.796875 227.089844 370.125 230.082031 369.378906 233.058594 C 368.636719 236.035156 367.816406 238.992188 366.925781 241.929688 C 366.035156 244.863281 365.074219 247.777344 364.039062 250.667969 C 363.003906 253.554688 361.902344 256.417969 360.726562 259.253906 C 359.554688 262.089844 358.308594 264.890625 356.996094 267.667969 C 355.6875 270.441406 354.304688 273.179688 352.859375 275.886719 C 351.414062 278.59375 349.902344 281.261719 348.324219 283.894531 C 346.746094 286.527344 345.105469 289.117188 343.402344 291.667969 C 341.695312 294.222656 339.929688 296.730469 338.101562 299.195312 C 336.273438 301.660156 334.386719 304.078125 332.4375 306.449219 C 330.492188 308.820312 328.488281 311.144531 326.429688 313.417969 C 324.367188 315.691406 322.253906 317.914062 320.082031 320.082031 C 317.914062 322.253906 315.691406 324.367188 313.417969 326.429688 C 311.144531 328.488281 308.820312 330.492188 306.449219 332.4375 C 304.078125 334.386719 301.660156 336.273438 299.195312 338.101562 C 296.730469 339.929688 294.222656 341.695312 291.667969 343.402344 C 289.117188 345.105469 286.527344 346.746094 283.894531 348.324219 C 281.261719 349.902344 278.59375 351.414062 275.886719 352.859375 C 273.179688 354.308594 270.441406 355.6875 267.667969 356.996094 C 264.890625 358.308594 262.089844 359.554688 259.253906 360.726562 C 256.417969 361.902344 253.554688 363.003906 250.667969 364.039062 C 247.777344 365.074219 244.863281 366.035156 241.929688 366.925781 C 238.992188 367.816406 236.035156 368.636719 233.058594 369.378906 C 230.082031 370.125 227.089844 370.796875 224.078125 371.398438 C 221.070312 371.996094 218.046875 372.519531 215.011719 372.96875 C 211.976562 373.421875 208.933594 373.796875 205.878906 374.097656 C 202.824219 374.398438 199.765625 374.625 196.699219 374.773438 C 193.636719 374.925781 190.570312 375 187.5 375 C 184.429688 375 181.363281 374.925781 178.300781 374.773438 C 175.234375 374.625 172.175781 374.398438 169.121094 374.097656 C 166.066406 373.796875 163.023438 373.421875 159.988281 372.96875 C 156.953125 372.519531 153.929688 371.996094 150.921875 371.398438 C 147.910156 370.796875 144.917969 370.125 141.941406 369.378906 C 138.964844 368.636719 136.007812 367.816406 133.070312 366.925781 C 130.136719 366.035156 127.222656 365.074219 124.332031 364.039062 C 121.445312 363.003906 118.582031 361.902344 115.746094 360.726562 C 112.910156 359.554688 110.105469 358.308594 107.332031 356.996094 C 104.558594 355.6875 101.820312 354.308594 99.113281 352.859375 C 96.40625 351.414062 93.738281 349.902344 91.105469 348.324219 C 88.472656 346.746094 85.882812 345.105469 83.332031 343.402344 C 80.777344 341.695312 78.269531 339.929688 75.804688 338.101562 C 73.339844 336.273438 70.921875 334.386719 68.550781 332.4375 C 66.179688 330.492188 63.855469 328.488281 61.582031 326.429688 C 59.308594 324.367188 57.085938 322.253906 54.917969 320.082031 C 52.746094 317.914062 50.632812 315.691406 48.570312 313.417969 C 46.511719 311.144531 44.507812 308.820312 42.558594 306.449219 C 40.613281 304.078125 38.726562 301.660156 36.898438 299.195312 C 35.070312 296.730469 33.304688 294.222656 31.597656 291.667969 C 29.894531 289.117188 28.253906 286.527344 26.675781 283.894531 C 25.097656 281.261719 23.585938 278.59375 22.140625 275.886719 C 20.691406 273.179688 19.3125 270.441406 18.003906 267.667969 C 16.691406 264.890625 15.445312 262.089844 14.273438 259.253906 C 13.097656 256.417969 11.996094 253.554688 10.960938 250.667969 C 9.925781 247.777344 8.964844 244.863281 8.074219 241.929688 C 7.183594 238.992188 6.363281 236.035156 5.617188 233.058594 C 4.875 230.082031 4.203125 227.089844 3.601562 224.078125 C 3.003906 221.070312 2.480469 218.046875 2.03125 215.011719 C 1.578125 211.976562 1.203125 208.933594 0.902344 205.878906 C 0.601562 202.824219 0.375 199.765625 0.226562 196.699219 C 0.0742188 193.636719 0 190.570312 0 187.5 C 0 184.429688 0.0742188 181.363281 0.226562 178.300781 C 0.375 175.234375 0.601562 172.175781 0.902344 169.121094 C 1.203125 166.066406 1.578125 163.023438 2.03125 159.988281 C 2.480469 156.953125 3.003906 153.929688 3.601562 150.921875 C 4.203125 147.910156 4.875 144.917969 5.617188 141.941406 C 6.363281 138.964844 7.183594 136.007812 8.074219 133.070312 C 8.964844 130.136719 9.925781 127.222656 10.960938 124.332031 C 11.996094 121.445312 13.097656 118.582031 14.273438 115.746094 C 15.445312 112.910156 16.691406 110.105469 18.003906 107.332031 C 19.3125 104.558594 20.691406 101.820312 22.140625 99.113281 C 23.585938 96.40625 25.097656 93.738281 26.675781 91.105469 C 28.253906 88.472656 29.894531 85.882812 31.597656 83.332031 C 33.304688 80.777344 35.070312 78.269531 36.898438 75.804688 C 38.726562 73.339844 40.613281 70.921875 42.558594 68.550781 C 44.507812 66.179688 46.511719 63.855469 48.570312 61.582031 C 50.632812 59.308594 52.746094 57.085938 54.917969 54.917969 C 57.085938 52.746094 59.308594 50.632812 61.582031 48.570312 C 63.855469 46.511719 66.179688 44.507812 68.550781 42.558594 C 70.921875 40.613281 73.339844 38.726562 75.804688 36.898438 C 78.269531 35.070312 80.777344 33.304688 83.332031 31.597656 C 85.882812 29.894531 88.472656 28.253906 91.105469 26.675781 C 93.738281 25.097656 96.40625 23.585938 99.113281 22.140625 C 101.820312 20.691406 104.558594 19.3125 107.332031 18.003906 C 110.105469 16.691406 112.910156 15.445312 115.746094 14.273438 C 118.582031 13.097656 121.445312 11.996094 124.332031 10.960938 C 127.222656 9.925781 130.136719 8.964844 133.070312 8.074219 C 136.007812 7.183594 138.964844 6.363281 141.941406 5.617188 C 144.917969 4.875 147.910156 4.203125 150.921875 3.601562 C 153.929688 3.003906 156.953125 2.480469 159.988281 2.03125 C 163.023438 1.578125 166.066406 1.203125 169.121094 0.902344 C 172.175781 0.601562 175.234375 0.375 178.300781 0.226562 C 181.363281 0.0742188 184.429688 0 187.5 0 C 190.570312 0 193.636719 0.0742188 196.699219 0.226562 C 199.765625 0.375 202.824219 0.601562 205.878906 0.902344 C 208.933594 1.203125 211.976562 1.578125 215.011719 2.03125 C 218.046875 2.480469 221.070312 3.003906 224.078125 3.601562 C 227.089844 4.203125 230.082031 4.875 233.058594 5.617188 C 236.035156 6.363281 238.992188 7.183594 241.929688 8.074219 C 244.863281 8.964844 247.777344 9.925781 250.667969 10.960938 C 253.554688 11.996094 256.417969 13.097656 259.253906 14.273438 C 262.089844 15.445312 264.890625 16.691406 267.667969 18.003906 C 270.441406 19.3125 273.179688 20.691406 275.886719 22.140625 C 278.59375 23.585938 281.261719 25.097656 283.894531 26.675781 C 286.527344 28.253906 289.117188 29.894531 291.667969 31.597656 C 294.222656 33.304688 296.730469 35.070312 299.195312 36.898438 C 301.660156 38.726562 304.078125 40.613281 306.449219 42.558594 C 308.820312 44.507812 311.144531 46.511719 313.417969 48.570312 C 315.691406 50.632812 317.914062 52.746094 320.082031 54.917969 C 322.253906 57.085938 324.367188 59.308594 326.429688 61.582031 C 328.488281 63.855469 330.492188 66.179688 332.4375 68.550781 C 334.386719 70.921875 336.273438 73.339844 338.101562 75.804688 C 339.929688 78.269531 341.695312 80.777344 343.402344 83.332031 C 345.105469 85.882812 346.746094 88.472656 348.324219 91.105469 C 349.902344 93.738281 351.414062 96.40625 352.859375 99.113281 C 354.304688 101.820312 355.6875 104.558594 356.996094 107.332031 C 358.308594 110.105469 359.554688 112.910156 360.726562 115.746094 C 361.902344 118.582031 363.003906 121.445312 364.039062 124.332031 C 365.074219 127.222656 366.035156 130.136719 366.925781 133.070312 C 367.816406 136.007812 368.636719 138.964844 369.378906 141.941406 C 370.125 144.917969 370.796875 147.910156 371.398438 150.921875 C 371.996094 153.929688 372.519531 156.953125 372.96875 159.988281 C 373.421875 163.023438 373.796875 166.066406 374.097656 169.121094 C 374.398438 172.175781 374.625 175.234375 374.773438 178.300781 C 374.925781 181.363281 375 184.429688 375 187.5 Z M 375 187.5 " fill-opacity="1" fill-rule="nonzero"/><path fill="#ffffff" d="M 214.628906 253.542969 C 213.832031 253.539062 213.15625 253.253906 212.601562 252.683594 L 184.324219 224.378906 C 184.058594 224.113281 183.851562 223.804688 183.707031 223.453125 C 183.5625 223.105469 183.492188 222.742188 183.492188 222.363281 C 183.492188 221.984375 183.5625 221.621094 183.707031 221.273438 C 183.851562 220.925781 184.058594 220.617188 184.324219 220.347656 L 224.75 179.921875 C 225.019531 179.65625 225.328125 179.449219 225.675781 179.304688 C 226.027344 179.160156 226.390625 179.089844 226.765625 179.089844 C 227.144531 179.089844 227.507812 179.160156 227.855469 179.304688 C 228.207031 179.449219 228.515625 179.65625 228.78125 179.921875 L 257.085938 208.226562 C 257.636719 208.78125 257.914062 209.445312 257.917969 210.226562 C 257.921875 211.019531 257.644531 211.695312 257.085938 212.257812 L 216.660156 252.683594 C 216.101562 253.253906 215.425781 253.539062 214.628906 253.542969 Z M 190.386719 222.378906 L 214.628906 246.625 L 251.027344 210.226562 L 226.667969 185.980469 Z M 190.386719 222.378906 " fill-opacity="1" fill-rule="nonzero"/><g clip-path="url(#8465d70a35)"><path fill="#ffffff" d="M 171.6875 268.179688 C 171.457031 268.179688 171.234375 268.152344 171.011719 268.097656 C 170.792969 268.042969 170.582031 267.964844 170.378906 267.859375 C 170.175781 267.753906 169.988281 267.625 169.816406 267.476562 C 169.644531 267.324219 169.496094 267.15625 169.363281 266.972656 C 169.230469 266.785156 169.125 266.585938 169.039062 266.375 C 168.957031 266.164062 168.898438 265.945312 168.867188 265.71875 C 168.835938 265.492188 168.832031 265.265625 168.851562 265.039062 C 168.875 264.8125 168.925781 264.59375 169 264.378906 L 183.636719 221.492188 C 183.71875 221.261719 183.824219 221.046875 183.957031 220.847656 C 184.089844 220.644531 184.25 220.464844 184.429688 220.304688 C 184.609375 220.140625 184.804688 220.003906 185.019531 219.894531 C 185.234375 219.78125 185.460938 219.699219 185.695312 219.644531 C 185.933594 219.589844 186.171875 219.566406 186.414062 219.574219 C 186.652344 219.578125 186.890625 219.617188 187.125 219.683594 C 187.355469 219.75 187.578125 219.84375 187.785156 219.964844 C 187.992188 220.089844 188.183594 220.234375 188.355469 220.40625 L 216.660156 248.710938 C 217.007812 249.058594 217.253906 249.46875 217.390625 249.941406 C 217.527344 250.414062 217.539062 250.890625 217.433594 251.371094 C 217.320312 251.851562 217.097656 252.273438 216.769531 252.640625 C 216.4375 253.003906 216.039062 253.269531 215.574219 253.429688 L 172.6875 268.066406 C 172.359375 268.164062 172.027344 268.203125 171.6875 268.179688 Z M 187.554688 227.640625 L 176.289062 260.71875 L 209.511719 249.453125 Z M 187.554688 227.640625 " fill-opacity="1" fill-rule="nonzero"/></g><g clip-path="url(#b99e76620c)"><path fill="#ffffff" d="M 171.6875 268.179688 C 171.457031 268.179688 171.234375 268.152344 171.011719 268.097656 C 170.792969 268.042969 170.582031 267.964844 170.378906 267.859375 C 170.175781 267.753906 169.988281 267.625 169.816406 267.476562 C 169.644531 267.324219 169.496094 267.15625 169.363281 266.972656 C 169.230469 266.785156 169.125 266.585938 169.039062 266.375 C 168.957031 266.164062 168.898438 265.945312 168.867188 265.71875 C 168.835938 265.492188 168.832031 265.265625 168.851562 265.039062 C 168.875 264.8125 168.925781 264.59375 169 264.378906 L 175.347656 245.679688 C 175.453125 245.367188 175.609375 245.078125 175.816406 244.820312 C 176.019531 244.558594 176.265625 244.34375 176.546875 244.167969 C 176.828125 243.992188 177.132812 243.871094 177.457031 243.800781 C 177.777344 243.734375 178.105469 243.71875 178.433594 243.765625 C 180.3125 244.003906 182.105469 244.539062 183.804688 245.378906 C 185.503906 246.214844 187.019531 247.308594 188.355469 248.652344 C 189.691406 249.996094 190.777344 251.515625 191.613281 253.214844 C 192.449219 254.910156 192.992188 256.699219 193.242188 258.574219 C 193.289062 258.902344 193.277344 259.230469 193.207031 259.554688 C 193.136719 259.878906 193.015625 260.179688 192.839844 260.460938 C 192.664062 260.742188 192.449219 260.988281 192.1875 261.191406 C 191.929688 261.398438 191.640625 261.554688 191.328125 261.660156 L 172.628906 268.007812 C 172.324219 268.121094 172.011719 268.175781 171.6875 268.179688 Z M 179.949219 249.96875 L 176.289062 260.71875 L 187.039062 257.058594 C 186.757812 256.238281 186.386719 255.457031 185.925781 254.722656 C 185.464844 253.984375 184.925781 253.308594 184.3125 252.695312 C 183.699219 252.082031 183.023438 251.542969 182.285156 251.082031 C 181.550781 250.621094 180.769531 250.25 179.949219 249.96875 Z M 179.949219 249.96875 " fill-opacity="1" fill-rule="nonzero"/></g><path fill="#ffffff" d="M 255.058594 214.285156 L 222.722656 181.921875 L 232.84375 171.828125 C 233.246094 171.445312 233.6875 171.101562 234.15625 170.800781 C 234.625 170.5 235.121094 170.246094 235.640625 170.039062 C 236.160156 169.832031 236.695312 169.675781 237.242188 169.570312 C 237.792969 169.464844 238.34375 169.410156 238.902344 169.410156 C 239.460938 169.410156 240.015625 169.464844 240.566406 169.570312 C 241.113281 169.675781 241.648438 169.832031 242.167969 170.039062 C 242.683594 170.246094 243.179688 170.5 243.652344 170.800781 C 244.121094 171.101562 244.558594 171.445312 244.964844 171.828125 L 265.179688 192.042969 C 265.578125 192.441406 265.929688 192.875 266.242188 193.34375 C 266.554688 193.8125 266.820312 194.304688 267.035156 194.824219 C 267.25 195.34375 267.414062 195.878906 267.523438 196.433594 C 267.632812 196.984375 267.6875 197.542969 267.6875 198.105469 C 267.6875 198.667969 267.632812 199.222656 267.523438 199.777344 C 267.414062 200.328125 267.25 200.863281 267.035156 201.382812 C 266.820312 201.90625 266.554688 202.398438 266.242188 202.867188 C 265.929688 203.335938 265.578125 203.769531 265.179688 204.164062 Z M 230.8125 181.921875 L 255.058594 206.195312 L 261.148438 200.132812 C 261.417969 199.867188 261.625 199.554688 261.773438 199.203125 C 261.917969 198.851562 261.992188 198.484375 261.992188 198.105469 C 261.992188 197.722656 261.917969 197.355469 261.773438 197.003906 C 261.625 196.652344 261.417969 196.34375 261.148438 196.074219 L 240.960938 175.859375 C 240.695312 175.59375 240.386719 175.390625 240.035156 175.246094 C 239.6875 175.101562 239.324219 175.03125 238.945312 175.03125 C 238.570312 175.03125 238.207031 175.101562 237.855469 175.246094 C 237.507812 175.390625 237.199219 175.59375 236.929688 175.859375 Z M 230.8125 181.921875 " fill-opacity="1" fill-rule="nonzero"/><path fill="#ffffff" d="M 214.628906 253.542969 C 213.832031 253.539062 213.15625 253.253906 212.601562 252.683594 L 204.539062 244.621094 C 204.265625 244.351562 204.058594 244.042969 203.910156 243.691406 C 203.765625 243.339844 203.691406 242.972656 203.691406 242.59375 C 203.691406 242.210938 203.765625 241.84375 203.910156 241.492188 C 204.058594 241.140625 204.265625 240.832031 204.539062 240.5625 L 244.964844 200.132812 C 245.234375 199.867188 245.542969 199.664062 245.890625 199.519531 C 246.238281 199.375 246.601562 199.304688 246.980469 199.304688 C 247.359375 199.304688 247.722656 199.375 248.070312 199.519531 C 248.417969 199.664062 248.726562 199.867188 248.996094 200.132812 L 257.085938 208.226562 C 257.636719 208.78125 257.914062 209.445312 257.917969 210.226562 C 257.921875 211.019531 257.644531 211.695312 257.085938 212.257812 L 216.660156 252.683594 C 216.101562 253.253906 215.425781 253.539062 214.628906 253.542969 Z M 210.597656 242.59375 L 214.628906 246.625 L 251.027344 210.226562 L 246.996094 206.195312 Z M 210.597656 242.59375 " fill-opacity="1" fill-rule="nonzero"/><path fill="#ffffff" d="M 194.417969 233.328125 C 193.617188 233.347656 192.933594 233.082031 192.359375 232.527344 L 184.296875 224.4375 C 184.027344 224.167969 183.824219 223.859375 183.679688 223.511719 C 183.535156 223.160156 183.464844 222.796875 183.464844 222.421875 C 183.464844 222.042969 183.535156 221.679688 183.679688 221.332031 C 183.824219 220.980469 184.027344 220.671875 184.296875 220.40625 L 224.75 179.921875 C 225.019531 179.65625 225.328125 179.449219 225.675781 179.304688 C 226.027344 179.160156 226.390625 179.089844 226.765625 179.089844 C 227.144531 179.089844 227.507812 179.160156 227.855469 179.304688 C 228.207031 179.449219 228.515625 179.65625 228.78125 179.921875 L 236.875 188.011719 C 237.421875 188.566406 237.699219 189.234375 237.703125 190.011719 C 237.707031 190.804688 237.429688 191.480469 236.875 192.042969 L 196.445312 232.527344 C 195.878906 233.074219 195.203125 233.339844 194.417969 233.328125 Z M 190.386719 222.378906 L 194.417969 226.410156 L 230.8125 190.011719 L 226.667969 185.980469 Z M 190.386719 222.378906 " fill-opacity="1" fill-rule="nonzero"/><g clip-path="url(#0b88f303cc)"><path fill="#ffffff" d="M 160.90625 266.835938 L 109.445312 266.835938 C 109.066406 266.835938 108.699219 266.765625 108.351562 266.621094 C 108 266.472656 107.691406 266.265625 107.421875 266 C 107.15625 265.730469 106.949219 265.421875 106.804688 265.070312 C 106.65625 264.722656 106.585938 264.355469 106.585938 263.976562 L 106.585938 246.824219 C 106.585938 246.445312 106.65625 246.078125 106.804688 245.730469 C 106.949219 245.378906 107.15625 245.070312 107.421875 244.800781 C 107.691406 244.535156 108 244.328125 108.351562 244.183594 C 108.699219 244.035156 109.066406 243.964844 109.445312 243.964844 L 135.175781 243.964844 L 135.175781 232.527344 L 109.445312 232.527344 C 109.066406 232.527344 108.699219 232.457031 108.351562 232.308594 C 108 232.164062 107.691406 231.957031 107.421875 231.691406 C 107.15625 231.421875 106.949219 231.113281 106.804688 230.761719 C 106.65625 230.414062 106.585938 230.046875 106.585938 229.667969 L 106.585938 212.515625 C 106.585938 212.136719 106.65625 211.769531 106.804688 211.421875 C 106.949219 211.070312 107.15625 210.761719 107.421875 210.492188 C 107.691406 210.222656 108 210.019531 108.351562 209.871094 C 108.699219 209.726562 109.066406 209.65625 109.445312 209.65625 L 152.332031 209.65625 L 152.332031 201.078125 C 152.332031 200.699219 152.402344 200.335938 152.546875 199.984375 C 152.691406 199.632812 152.898438 199.324219 153.167969 199.054688 C 153.4375 198.789062 153.746094 198.582031 154.09375 198.4375 C 154.445312 198.292969 154.808594 198.21875 155.191406 198.21875 C 155.570312 198.21875 155.933594 198.292969 156.285156 198.4375 C 156.632812 198.582031 156.941406 198.789062 157.210938 199.054688 C 157.480469 199.324219 157.6875 199.632812 157.832031 199.984375 C 157.976562 200.335938 158.046875 200.699219 158.046875 201.078125 L 158.046875 212.515625 C 158.046875 212.894531 157.976562 213.257812 157.832031 213.609375 C 157.6875 213.957031 157.480469 214.269531 157.210938 214.535156 C 156.941406 214.804688 156.632812 215.011719 156.285156 215.15625 C 155.933594 215.300781 155.570312 215.375 155.191406 215.375 L 112.304688 215.375 L 112.304688 226.808594 L 138.035156 226.808594 C 138.414062 226.808594 138.777344 226.882812 139.128906 227.027344 C 139.480469 227.171875 139.789062 227.378906 140.058594 227.648438 C 140.324219 227.914062 140.53125 228.222656 140.675781 228.574219 C 140.820312 228.925781 140.894531 229.289062 140.894531 229.667969 L 140.894531 246.824219 C 140.894531 247.203125 140.820312 247.566406 140.675781 247.917969 C 140.53125 248.269531 140.324219 248.578125 140.058594 248.84375 C 139.789062 249.113281 139.480469 249.320312 139.128906 249.464844 C 138.777344 249.609375 138.414062 249.683594 138.035156 249.683594 L 112.304688 249.683594 L 112.304688 261.117188 L 160.90625 261.117188 C 161.285156 261.117188 161.652344 261.191406 162 261.335938 C 162.351562 261.480469 162.660156 261.6875 162.929688 261.957031 C 163.199219 262.222656 163.402344 262.535156 163.550781 262.882812 C 163.695312 263.234375 163.765625 263.597656 163.765625 263.976562 C 163.765625 264.355469 163.695312 264.722656 163.550781 265.070312 C 163.402344 265.421875 163.199219 265.730469 162.929688 266 C 162.660156 266.265625 162.351562 266.472656 162 266.621094 C 161.652344 266.765625 161.285156 266.835938 160.90625 266.835938 Z M 160.90625 266.835938 " fill-opacity="1" fill-rule="nonzero"/></g><path fill="#ffffff" d="M 166.625 181.0625 L 143.753906 181.0625 C 143.375 181.0625 143.007812 180.992188 142.660156 180.847656 C 142.308594 180.703125 142 180.496094 141.730469 180.226562 C 141.464844 179.957031 141.257812 179.648438 141.113281 179.300781 C 140.964844 178.949219 140.894531 178.585938 140.894531 178.207031 L 140.894531 172.488281 C 140.890625 172.035156 140.785156 171.605469 140.578125 171.203125 C 140.375 170.800781 140.085938 170.464844 139.722656 170.199219 C 139.300781 169.878906 138.890625 169.542969 138.492188 169.199219 C 138.089844 168.851562 137.703125 168.492188 137.324219 168.121094 C 136.945312 167.75 136.582031 167.367188 136.226562 166.976562 C 135.871094 166.582031 135.53125 166.175781 135.203125 165.761719 C 134.871094 165.347656 134.554688 164.925781 134.253906 164.492188 C 133.949219 164.054688 133.660156 163.613281 133.382812 163.160156 C 133.109375 162.710938 132.847656 162.25 132.601562 161.78125 C 132.351562 161.3125 132.121094 160.839844 131.902344 160.355469 C 131.683594 159.875 131.480469 159.386719 131.292969 158.890625 C 131.105469 158.394531 130.933594 157.894531 130.777344 157.390625 C 130.617188 156.886719 130.476562 156.375 130.351562 155.859375 C 130.226562 155.347656 130.117188 154.828125 130.023438 154.308594 C 129.929688 153.785156 129.851562 153.261719 129.789062 152.738281 C 129.730469 152.210938 129.683594 151.683594 129.65625 151.15625 C 129.625 150.628906 129.613281 150.097656 129.617188 149.570312 C 129.621094 149.039062 129.640625 148.511719 129.679688 147.984375 C 129.714844 147.457031 129.765625 146.929688 129.835938 146.402344 C 129.90625 145.878906 129.992188 145.355469 130.089844 144.835938 C 130.191406 144.316406 130.308594 143.800781 130.441406 143.289062 C 130.574219 142.777344 130.726562 142.269531 130.890625 141.765625 C 131.054688 141.261719 131.234375 140.765625 131.429688 140.273438 C 131.625 139.78125 131.832031 139.296875 132.058594 138.816406 C 132.285156 138.335938 132.523438 137.867188 132.777344 137.402344 C 133.03125 136.9375 133.300781 136.480469 133.582031 136.035156 C 133.863281 135.585938 134.160156 135.148438 134.46875 134.71875 C 134.777344 134.289062 135.101562 133.867188 135.4375 133.457031 C 135.773438 133.050781 136.121094 132.648438 136.480469 132.261719 C 136.839844 131.875 137.210938 131.496094 137.59375 131.132812 C 137.976562 130.765625 138.371094 130.414062 138.777344 130.074219 C 139.179688 129.730469 139.597656 129.402344 140.019531 129.089844 C 140.445312 128.773438 140.878906 128.472656 141.324219 128.183594 C 141.769531 127.894531 142.21875 127.621094 142.679688 127.359375 C 143.140625 127.097656 143.609375 126.851562 144.085938 126.621094 C 144.5625 126.390625 145.042969 126.171875 145.535156 125.96875 C 146.023438 125.769531 146.519531 125.582031 147.019531 125.410156 C 147.519531 125.238281 148.027344 125.082031 148.535156 124.941406 C 149.046875 124.804688 149.5625 124.679688 150.078125 124.570312 C 150.597656 124.460938 151.117188 124.371094 151.640625 124.292969 C 152.164062 124.21875 152.691406 124.15625 153.21875 124.113281 C 153.746094 124.070312 154.273438 124.042969 154.804688 124.03125 C 155.332031 124.019531 155.863281 124.023438 156.390625 124.046875 C 156.921875 124.066406 157.449219 124.105469 157.972656 124.160156 C 158.5 124.214844 159.027344 124.285156 159.546875 124.371094 C 160.070312 124.457031 160.589844 124.558594 161.105469 124.675781 C 161.621094 124.796875 162.132812 124.929688 162.640625 125.078125 C 163.148438 125.230469 163.652344 125.394531 164.148438 125.574219 C 164.644531 125.757812 165.136719 125.953125 165.621094 126.164062 C 166.105469 126.375 166.585938 126.601562 167.058594 126.84375 C 167.527344 127.082031 167.992188 127.339844 168.449219 127.609375 C 168.902344 127.878906 169.351562 128.160156 169.789062 128.457031 C 170.226562 128.753906 170.65625 129.066406 171.074219 129.390625 C 171.492188 129.710938 171.902344 130.046875 172.300781 130.398438 C 172.699219 130.746094 173.085938 131.105469 173.460938 131.480469 C 173.835938 131.851562 174.199219 132.234375 174.554688 132.628906 C 174.90625 133.027344 175.246094 133.429688 175.574219 133.847656 C 175.898438 134.261719 176.214844 134.6875 176.515625 135.125 C 176.816406 135.558594 177.105469 136.003906 177.378906 136.457031 C 177.652344 136.910156 177.910156 137.371094 178.15625 137.839844 C 178.398438 138.308594 178.628906 138.785156 178.847656 139.269531 C 179.0625 139.753906 179.261719 140.242188 179.449219 140.738281 C 179.632812 141.234375 179.804688 141.734375 179.957031 142.242188 C 180.113281 142.746094 180.253906 143.257812 180.375 143.773438 C 180.5 144.289062 180.605469 144.804688 180.695312 145.328125 C 180.789062 145.847656 180.863281 146.371094 180.921875 146.898438 C 181.039062 148 181.082031 149.105469 181.054688 150.210938 C 181.027344 151.320312 180.929688 152.421875 180.761719 153.515625 C 180.589844 154.609375 180.351562 155.691406 180.042969 156.753906 C 179.734375 157.820312 179.359375 158.859375 178.917969 159.875 C 178.472656 160.890625 177.96875 161.871094 177.398438 162.820312 C 176.828125 163.773438 176.199219 164.683594 175.511719 165.550781 C 174.824219 166.417969 174.085938 167.242188 173.292969 168.015625 C 172.496094 168.789062 171.65625 169.507812 170.773438 170.171875 C 170.410156 170.441406 170.132812 170.777344 169.929688 171.179688 C 169.730469 171.582031 169.628906 172.007812 169.628906 172.457031 L 169.628906 178.175781 C 169.632812 178.570312 169.558594 178.949219 169.40625 179.3125 C 169.253906 179.675781 169.035156 179.996094 168.75 180.269531 C 168.46875 180.542969 168.140625 180.75 167.769531 180.886719 C 167.402344 181.023438 167.019531 181.085938 166.625 181.0625 Z M 146.613281 175.347656 L 163.765625 175.347656 L 163.765625 172.488281 C 163.769531 171.140625 164.074219 169.867188 164.679688 168.667969 C 165.28125 167.464844 166.121094 166.460938 167.199219 165.652344 C 167.835938 165.175781 168.445312 164.65625 169.023438 164.105469 C 169.597656 163.550781 170.140625 162.96875 170.648438 162.347656 C 171.15625 161.730469 171.621094 161.085938 172.050781 160.410156 C 172.480469 159.738281 172.871094 159.042969 173.214844 158.320312 C 173.5625 157.601562 173.863281 156.863281 174.121094 156.105469 C 174.378906 155.347656 174.589844 154.582031 174.757812 153.796875 C 174.921875 153.015625 175.039062 152.226562 175.113281 151.433594 C 175.183594 150.636719 175.207031 149.839844 175.179688 149.039062 C 175.15625 148.242188 175.085938 147.445312 174.964844 146.65625 C 174.847656 145.867188 174.679688 145.085938 174.464844 144.316406 C 174.253906 143.546875 173.996094 142.792969 173.691406 142.054688 C 173.386719 141.3125 173.042969 140.59375 172.652344 139.898438 C 172.261719 139.199219 171.832031 138.527344 171.363281 137.882812 C 170.894531 137.234375 170.386719 136.621094 169.84375 136.035156 C 169.296875 135.449219 168.722656 134.898438 168.113281 134.378906 C 167.503906 133.863281 166.863281 133.386719 166.195312 132.945312 C 164.949219 132.117188 163.621094 131.441406 162.21875 130.910156 C 160.816406 130.378906 159.375 130.011719 157.890625 129.808594 C 156.40625 129.601562 154.917969 129.5625 153.421875 129.695312 C 151.929688 129.824219 150.46875 130.117188 149.042969 130.574219 C 148.109375 130.863281 147.203125 131.21875 146.324219 131.644531 C 145.445312 132.066406 144.601562 132.554688 143.792969 133.101562 C 142.984375 133.648438 142.222656 134.253906 141.503906 134.914062 C 140.785156 135.578125 140.121094 136.285156 139.507812 137.046875 C 138.890625 137.804688 138.335938 138.605469 137.84375 139.445312 C 137.347656 140.289062 136.914062 141.160156 136.546875 142.066406 C 136.179688 142.96875 135.882812 143.898438 135.652344 144.84375 C 135.421875 145.792969 135.265625 146.753906 135.175781 147.726562 C 135.027344 149.429688 135.09375 151.121094 135.375 152.804688 C 135.65625 154.488281 136.144531 156.109375 136.835938 157.667969 C 137.527344 159.230469 138.40625 160.675781 139.464844 162.015625 C 140.523438 163.351562 141.734375 164.539062 143.09375 165.566406 C 144.199219 166.375 145.0625 167.386719 145.679688 168.605469 C 146.300781 169.828125 146.613281 171.121094 146.613281 172.488281 Z M 146.613281 175.347656 " fill-opacity="1" fill-rule="nonzero"/><path fill="#ffffff" d="M 160.90625 192.5 L 149.472656 192.5 C 148.910156 192.5 148.351562 192.445312 147.796875 192.335938 C 147.246094 192.226562 146.710938 192.0625 146.1875 191.847656 C 145.667969 191.632812 145.175781 191.367188 144.707031 191.054688 C 144.238281 190.742188 143.804688 190.386719 143.40625 189.988281 C 143.007812 189.589844 142.652344 189.15625 142.339844 188.6875 C 142.027344 188.21875 141.761719 187.726562 141.546875 187.207031 C 141.332031 186.683594 141.167969 186.148438 141.058594 185.597656 C 140.949219 185.042969 140.894531 184.488281 140.894531 183.921875 L 140.894531 178.207031 C 140.894531 177.824219 140.964844 177.460938 141.113281 177.109375 C 141.257812 176.761719 141.464844 176.453125 141.730469 176.183594 C 142 175.914062 142.308594 175.707031 142.660156 175.5625 C 143.007812 175.417969 143.375 175.347656 143.753906 175.347656 L 166.625 175.347656 C 167.003906 175.347656 167.371094 175.417969 167.71875 175.5625 C 168.070312 175.707031 168.378906 175.914062 168.648438 176.183594 C 168.914062 176.453125 169.121094 176.761719 169.265625 177.109375 C 169.414062 177.460938 169.484375 177.824219 169.484375 178.207031 L 169.484375 183.921875 C 169.484375 184.488281 169.429688 185.042969 169.320312 185.597656 C 169.210938 186.148438 169.046875 186.683594 168.832031 187.207031 C 168.617188 187.726562 168.351562 188.21875 168.039062 188.6875 C 167.726562 189.15625 167.371094 189.589844 166.972656 189.988281 C 166.574219 190.386719 166.140625 190.742188 165.671875 191.054688 C 165.203125 191.367188 164.710938 191.632812 164.191406 191.847656 C 163.667969 192.0625 163.132812 192.226562 162.582031 192.335938 C 162.027344 192.445312 161.472656 192.5 160.90625 192.5 Z M 146.613281 181.0625 L 146.613281 183.921875 C 146.613281 184.300781 146.683594 184.667969 146.828125 185.015625 C 146.976562 185.367188 147.183594 185.675781 147.449219 185.945312 C 147.71875 186.214844 148.027344 186.417969 148.378906 186.566406 C 148.726562 186.710938 149.09375 186.78125 149.472656 186.78125 L 160.90625 186.78125 C 161.285156 186.78125 161.652344 186.710938 162 186.566406 C 162.351562 186.417969 162.660156 186.214844 162.929688 185.945312 C 163.199219 185.675781 163.402344 185.367188 163.550781 185.015625 C 163.695312 184.667969 163.765625 184.300781 163.765625 183.921875 L 163.765625 181.0625 Z M 146.613281 181.0625 " fill-opacity="1" fill-rule="nonzero"/><g clip-path="url(#7a3cb8321b)"><path fill="#ffffff" d="M 155.191406 118.164062 C 154.808594 118.164062 154.445312 118.09375 154.09375 117.945312 C 153.746094 117.800781 153.4375 117.59375 153.167969 117.328125 C 152.898438 117.058594 152.691406 116.75 152.546875 116.398438 C 152.402344 116.050781 152.332031 115.683594 152.332031 115.304688 L 152.332031 109.585938 C 152.332031 109.207031 152.402344 108.84375 152.546875 108.492188 C 152.691406 108.144531 152.898438 107.832031 153.167969 107.566406 C 153.4375 107.296875 153.746094 107.089844 154.09375 106.945312 C 154.445312 106.800781 154.808594 106.726562 155.191406 106.726562 C 155.570312 106.726562 155.933594 106.800781 156.285156 106.945312 C 156.632812 107.089844 156.941406 107.296875 157.210938 107.566406 C 157.480469 107.832031 157.6875 108.144531 157.832031 108.492188 C 157.976562 108.84375 158.046875 109.207031 158.046875 109.585938 L 158.046875 115.304688 C 158.046875 115.683594 157.976562 116.050781 157.832031 116.398438 C 157.6875 116.75 157.480469 117.058594 157.210938 117.328125 C 156.941406 117.59375 156.632812 117.800781 156.285156 117.945312 C 155.933594 118.09375 155.570312 118.164062 155.191406 118.164062 Z M 155.191406 118.164062 " fill-opacity="1" fill-rule="nonzero"/></g><path fill="#ffffff" d="M 130.914062 128.199219 C 130.136719 128.195312 129.46875 127.921875 128.914062 127.371094 L 124.855469 123.339844 C 124.585938 123.070312 124.378906 122.757812 124.234375 122.40625 C 124.089844 122.054688 124.015625 121.691406 124.015625 121.308594 C 124.015625 120.929688 124.089844 120.5625 124.234375 120.210938 C 124.378906 119.859375 124.585938 119.550781 124.855469 119.28125 C 125.125 119.011719 125.4375 118.804688 125.789062 118.660156 C 126.136719 118.511719 126.503906 118.441406 126.886719 118.441406 C 127.265625 118.441406 127.632812 118.511719 127.984375 118.65625 C 128.335938 118.804688 128.644531 119.011719 128.914062 119.28125 L 132.945312 123.339844 C 133.210938 123.605469 133.417969 123.914062 133.5625 124.265625 C 133.707031 124.613281 133.777344 124.976562 133.777344 125.355469 C 133.777344 125.734375 133.707031 126.097656 133.5625 126.445312 C 133.417969 126.792969 133.210938 127.101562 132.945312 127.371094 C 132.382812 127.929688 131.707031 128.203125 130.914062 128.199219 Z M 130.914062 128.199219 " fill-opacity="1" fill-rule="nonzero"/><path fill="#ffffff" d="M 120.878906 152.472656 L 115.164062 152.472656 C 114.785156 152.472656 114.417969 152.402344 114.066406 152.253906 C 113.71875 152.109375 113.410156 151.902344 113.140625 151.636719 C 112.871094 151.367188 112.667969 151.058594 112.519531 150.707031 C 112.375 150.359375 112.304688 149.992188 112.304688 149.613281 C 112.304688 149.234375 112.375 148.871094 112.519531 148.519531 C 112.667969 148.171875 112.871094 147.859375 113.140625 147.59375 C 113.410156 147.324219 113.71875 147.117188 114.066406 146.972656 C 114.417969 146.828125 114.785156 146.753906 115.164062 146.753906 L 120.878906 146.753906 C 121.257812 146.753906 121.625 146.828125 121.976562 146.972656 C 122.324219 147.117188 122.632812 147.324219 122.902344 147.59375 C 123.171875 147.859375 123.378906 148.171875 123.523438 148.519531 C 123.667969 148.871094 123.738281 149.234375 123.738281 149.613281 C 123.738281 149.992188 123.667969 150.359375 123.523438 150.707031 C 123.378906 151.058594 123.171875 151.367188 122.902344 151.636719 C 122.632812 151.902344 122.324219 152.109375 121.976562 152.253906 C 121.625 152.402344 121.257812 152.472656 120.878906 152.472656 Z M 120.878906 152.472656 " fill-opacity="1" fill-rule="nonzero"/><path fill="#ffffff" d="M 126.882812 180.777344 C 126.09375 180.78125 125.417969 180.507812 124.855469 179.949219 C 124.585938 179.679688 124.375 179.371094 124.230469 179.019531 C 124.082031 178.667969 124.007812 178.300781 124.007812 177.917969 C 124.007812 177.539062 124.082031 177.171875 124.230469 176.820312 C 124.375 176.46875 124.585938 176.15625 124.855469 175.890625 L 128.914062 171.859375 C 129.171875 171.554688 129.484375 171.316406 129.839844 171.144531 C 130.199219 170.96875 130.578125 170.875 130.976562 170.859375 C 131.375 170.84375 131.757812 170.910156 132.128906 171.054688 C 132.5 171.199219 132.828125 171.414062 133.109375 171.695312 C 133.390625 171.976562 133.601562 172.304688 133.75 172.675781 C 133.894531 173.046875 133.957031 173.429688 133.941406 173.828125 C 133.929688 174.226562 133.832031 174.605469 133.660156 174.964844 C 133.488281 175.320312 133.25 175.628906 132.945312 175.890625 L 128.914062 179.949219 C 128.351562 180.507812 127.675781 180.78125 126.882812 180.777344 Z M 126.882812 180.777344 " fill-opacity="1" fill-rule="nonzero"/><path fill="#ffffff" d="M 183.496094 180.777344 C 182.703125 180.78125 182.027344 180.507812 181.464844 179.949219 L 177.433594 175.890625 C 177.128906 175.628906 176.894531 175.320312 176.71875 174.964844 C 176.546875 174.605469 176.453125 174.226562 176.4375 173.828125 C 176.421875 173.429688 176.484375 173.046875 176.632812 172.675781 C 176.777344 172.304688 176.988281 171.976562 177.269531 171.695312 C 177.554688 171.414062 177.878906 171.199219 178.25 171.054688 C 178.621094 170.910156 179.003906 170.84375 179.402344 170.859375 C 179.800781 170.875 180.179688 170.96875 180.539062 171.144531 C 180.898438 171.316406 181.207031 171.554688 181.464844 171.859375 L 185.523438 175.890625 C 185.796875 176.15625 186.003906 176.46875 186.148438 176.820312 C 186.296875 177.171875 186.371094 177.539062 186.371094 177.917969 C 186.371094 178.300781 186.296875 178.667969 186.148438 179.019531 C 186.003906 179.371094 185.796875 179.679688 185.523438 179.949219 C 184.960938 180.507812 184.285156 180.78125 183.496094 180.777344 Z M 183.496094 180.777344 " fill-opacity="1" fill-rule="nonzero"/><path fill="#ffffff" d="M 195.21875 152.472656 L 189.5 152.472656 C 189.121094 152.472656 188.753906 152.402344 188.40625 152.253906 C 188.054688 152.109375 187.746094 151.902344 187.476562 151.636719 C 187.207031 151.367188 187.003906 151.058594 186.855469 150.707031 C 186.710938 150.359375 186.640625 149.992188 186.640625 149.613281 C 186.640625 149.234375 186.710938 148.871094 186.855469 148.519531 C 187.003906 148.171875 187.207031 147.859375 187.476562 147.59375 C 187.746094 147.324219 188.054688 147.117188 188.40625 146.972656 C 188.753906 146.828125 189.121094 146.753906 189.5 146.753906 L 195.21875 146.753906 C 195.597656 146.753906 195.960938 146.828125 196.3125 146.972656 C 196.660156 147.117188 196.96875 147.324219 197.238281 147.59375 C 197.507812 147.859375 197.714844 148.171875 197.859375 148.519531 C 198.003906 148.871094 198.074219 149.234375 198.074219 149.613281 C 198.074219 149.992188 198.003906 150.359375 197.859375 150.707031 C 197.714844 151.058594 197.507812 151.367188 197.238281 151.636719 C 196.96875 151.902344 196.660156 152.109375 196.3125 152.253906 C 195.960938 152.402344 195.597656 152.472656 195.21875 152.472656 Z M 195.21875 152.472656 " fill-opacity="1" fill-rule="nonzero"/><path fill="#ffffff" d="M 179.464844 128.199219 C 178.671875 128.203125 177.996094 127.929688 177.433594 127.371094 C 177.167969 127.101562 176.960938 126.792969 176.816406 126.445312 C 176.675781 126.097656 176.601562 125.734375 176.601562 125.355469 C 176.601562 124.976562 176.675781 124.613281 176.816406 124.265625 C 176.960938 123.914062 177.167969 123.605469 177.433594 123.339844 L 181.464844 119.28125 C 181.734375 119.011719 182.042969 118.804688 182.394531 118.65625 C 182.746094 118.511719 183.113281 118.441406 183.492188 118.441406 C 183.875 118.441406 184.242188 118.511719 184.59375 118.660156 C 184.945312 118.804688 185.253906 119.011719 185.523438 119.28125 C 185.792969 119.550781 186 119.859375 186.144531 120.210938 C 186.289062 120.5625 186.363281 120.929688 186.363281 121.308594 C 186.363281 121.691406 186.292969 122.054688 186.144531 122.40625 C 186 122.757812 185.792969 123.070312 185.523438 123.339844 L 181.464844 127.371094 C 180.910156 127.921875 180.242188 128.195312 179.464844 128.199219 Z M 179.464844 128.199219 " fill-opacity="1" fill-rule="nonzero"/><path fill="#ffffff" d="M 166.625 152.472656 C 166.246094 152.472656 165.882812 152.402344 165.53125 152.253906 C 165.179688 152.109375 164.871094 151.902344 164.605469 151.636719 C 164.335938 151.367188 164.128906 151.058594 163.984375 150.707031 C 163.839844 150.359375 163.765625 149.992188 163.765625 149.613281 C 163.765625 149.050781 163.710938 148.492188 163.601562 147.941406 C 163.492188 147.390625 163.328125 146.851562 163.113281 146.332031 C 162.898438 145.8125 162.632812 145.316406 162.320312 144.847656 C 162.007812 144.378906 161.652344 143.949219 161.253906 143.550781 C 160.855469 143.152344 160.421875 142.796875 159.953125 142.484375 C 159.488281 142.167969 158.992188 141.90625 158.472656 141.691406 C 157.953125 141.472656 157.414062 141.3125 156.863281 141.203125 C 156.3125 141.09375 155.753906 141.039062 155.191406 141.039062 C 154.808594 141.039062 154.445312 140.964844 154.09375 140.820312 C 153.746094 140.675781 153.4375 140.46875 153.167969 140.199219 C 152.898438 139.933594 152.691406 139.621094 152.546875 139.273438 C 152.402344 138.921875 152.332031 138.558594 152.332031 138.179688 C 152.332031 137.800781 152.402344 137.433594 152.546875 137.082031 C 152.691406 136.734375 152.898438 136.425781 153.167969 136.15625 C 153.4375 135.886719 153.746094 135.683594 154.09375 135.535156 C 154.445312 135.390625 154.808594 135.320312 155.191406 135.320312 C 156.128906 135.320312 157.058594 135.410156 157.976562 135.59375 C 158.898438 135.777344 159.792969 136.046875 160.660156 136.40625 C 161.527344 136.765625 162.351562 137.207031 163.132812 137.726562 C 163.914062 138.25 164.632812 138.84375 165.296875 139.507812 C 165.960938 140.167969 166.554688 140.890625 167.074219 141.671875 C 167.597656 142.453125 168.039062 143.277344 168.398438 144.144531 C 168.757812 145.011719 169.027344 145.90625 169.210938 146.824219 C 169.394531 147.746094 169.484375 148.675781 169.484375 149.613281 C 169.484375 149.992188 169.414062 150.359375 169.265625 150.707031 C 169.121094 151.058594 168.914062 151.367188 168.648438 151.636719 C 168.378906 151.902344 168.070312 152.109375 167.71875 152.253906 C 167.371094 152.402344 167.003906 152.472656 166.625 152.472656 Z M 166.625 152.472656 " fill-opacity="1" fill-rule="nonzero"/></svg>