<svg xmlns="http://www.w3.org/2000/svg" xmlns:xlink="http://www.w3.org/1999/xlink" width="500" zoomAndPan="magnify" viewBox="0 0 375 374.999991" height="500" preserveAspectRatio="xMidYMid meet" version="1.0"><defs><clipPath id="277eeae356"><path d="M 164 114.335938 L 211 114.335938 L 211 149 L 164 149 Z M 164 114.335938 " clip-rule="nonzero"/></clipPath><clipPath id="1daf374023"><path d="M 104.96875 242.605469 L 269.945312 242.605469 L 269.945312 260.585938 L 104.96875 260.585938 Z M 104.96875 242.605469 " clip-rule="nonzero"/></clipPath></defs><path fill="#ff914d" d="M 375 187.5 C 375 190.570312 374.925781 193.636719 374.773438 196.699219 C 374.625 199.765625 374.398438 202.824219 374.097656 205.878906 C 373.796875 208.933594 373.421875 211.976562 372.96875 215.011719 C 372.519531 218.046875 371.996094 221.070312 371.398438 224.078125 C 370.796875 227.089844 370.125 230.082031 369.378906 233.058594 C 368.636719 236.035156 367.816406 238.992188 366.925781 241.929688 C 366.035156 244.863281 365.074219 247.777344 364.039062 250.667969 C 363.003906 253.554688 361.902344 256.417969 360.726562 259.253906 C 359.554688 262.089844 358.308594 264.890625 356.996094 267.667969 C 355.6875 270.441406 354.304688 273.179688 352.859375 275.886719 C 351.414062 278.59375 349.902344 281.261719 348.324219 283.894531 C 346.746094 286.527344 345.105469 289.117188 343.402344 291.667969 C 341.695312 294.222656 339.929688 296.730469 338.101562 299.195312 C 336.273438 301.660156 334.386719 304.078125 332.4375 306.449219 C 330.492188 308.820312 328.488281 311.144531 326.429688 313.417969 C 324.367188 315.691406 322.253906 317.914062 320.082031 320.082031 C 317.914062 322.253906 315.691406 324.367188 313.417969 326.429688 C 311.144531 328.488281 308.820312 330.492188 306.449219 332.4375 C 304.078125 334.386719 301.660156 336.273438 299.195312 338.101562 C 296.730469 339.929688 294.222656 341.695312 291.667969 343.402344 C 289.117188 345.105469 286.527344 346.746094 283.894531 348.324219 C 281.261719 349.902344 278.59375 351.414062 275.886719 352.859375 C 273.179688 354.308594 270.441406 355.6875 267.667969 356.996094 C 264.890625 358.308594 262.089844 359.554688 259.253906 360.726562 C 256.417969 361.902344 253.554688 363.003906 250.667969 364.039062 C 247.777344 365.074219 244.863281 366.035156 241.929688 366.925781 C 238.992188 367.816406 236.035156 368.636719 233.058594 369.378906 C 230.082031 370.125 227.089844 370.796875 224.078125 371.398438 C 221.070312 371.996094 218.046875 372.519531 215.011719 372.96875 C 211.976562 373.421875 208.933594 373.796875 205.878906 374.097656 C 202.824219 374.398438 199.765625 374.625 196.699219 374.773438 C 193.636719 374.925781 190.570312 375 187.5 375 C 184.429688 375 181.363281 374.925781 178.300781 374.773438 C 175.234375 374.625 172.175781 374.398438 169.121094 374.097656 C 166.066406 373.796875 163.023438 373.421875 159.988281 372.96875 C 156.953125 372.519531 153.929688 371.996094 150.921875 371.398438 C 147.910156 370.796875 144.917969 370.125 141.941406 369.378906 C 138.964844 368.636719 136.007812 367.816406 133.070312 366.925781 C 130.136719 366.035156 127.222656 365.074219 124.332031 364.039062 C 121.445312 363.003906 118.582031 361.902344 115.746094 360.726562 C 112.910156 359.554688 110.105469 358.308594 107.332031 356.996094 C 104.558594 355.6875 101.820312 354.308594 99.113281 352.859375 C 96.40625 351.414062 93.738281 349.902344 91.105469 348.324219 C 88.472656 346.746094 85.882812 345.105469 83.332031 343.402344 C 80.777344 341.695312 78.269531 339.929688 75.804688 338.101562 C 73.339844 336.273438 70.921875 334.386719 68.550781 332.4375 C 66.179688 330.492188 63.855469 328.488281 61.582031 326.429688 C 59.308594 324.367188 57.085938 322.253906 54.917969 320.082031 C 52.746094 317.914062 50.632812 315.691406 48.570312 313.417969 C 46.511719 311.144531 44.507812 308.820312 42.558594 306.449219 C 40.613281 304.078125 38.726562 301.660156 36.898438 299.195312 C 35.070312 296.730469 33.304688 294.222656 31.597656 291.667969 C 29.894531 289.117188 28.253906 286.527344 26.675781 283.894531 C 25.097656 281.261719 23.585938 278.59375 22.140625 275.886719 C 20.691406 273.179688 19.3125 270.441406 18.003906 267.667969 C 16.691406 264.890625 15.445312 262.089844 14.273438 259.253906 C 13.097656 256.417969 11.996094 253.554688 10.960938 250.667969 C 9.925781 247.777344 8.964844 244.863281 8.074219 241.929688 C 7.183594 238.992188 6.363281 236.035156 5.617188 233.058594 C 4.875 230.082031 4.203125 227.089844 3.601562 224.078125 C 3.003906 221.070312 2.480469 218.046875 2.03125 215.011719 C 1.578125 211.976562 1.203125 208.933594 0.902344 205.878906 C 0.601562 202.824219 0.375 199.765625 0.226562 196.699219 C 0.0742188 193.636719 0 190.570312 0 187.5 C 0 184.429688 0.0742188 181.363281 0.226562 178.300781 C 0.375 175.234375 0.601562 172.175781 0.902344 169.121094 C 1.203125 166.066406 1.578125 163.023438 2.03125 159.988281 C 2.480469 156.953125 3.003906 153.929688 3.601562 150.921875 C 4.203125 147.910156 4.875 144.917969 5.617188 141.941406 C 6.363281 138.964844 7.183594 136.007812 8.074219 133.070312 C 8.964844 130.136719 9.925781 127.222656 10.960938 124.332031 C 11.996094 121.445312 13.097656 118.582031 14.273438 115.746094 C 15.445312 112.910156 16.691406 110.105469 18.003906 107.332031 C 19.3125 104.558594 20.691406 101.820312 22.140625 99.113281 C 23.585938 96.40625 25.097656 93.738281 26.675781 91.105469 C 28.253906 88.472656 29.894531 85.882812 31.597656 83.332031 C 33.304688 80.777344 35.070312 78.269531 36.898438 75.804688 C 38.726562 73.339844 40.613281 70.921875 42.558594 68.550781 C 44.507812 66.179688 46.511719 63.855469 48.570312 61.582031 C 50.632812 59.308594 52.746094 57.085938 54.917969 54.917969 C 57.085938 52.746094 59.308594 50.632812 61.582031 48.570312 C 63.855469 46.511719 66.179688 44.507812 68.550781 42.558594 C 70.921875 40.613281 73.339844 38.726562 75.804688 36.898438 C 78.269531 35.070312 80.777344 33.304688 83.332031 31.597656 C 85.882812 29.894531 88.472656 28.253906 91.105469 26.675781 C 93.738281 25.097656 96.40625 23.585938 99.113281 22.140625 C 101.820312 20.691406 104.558594 19.3125 107.332031 18.003906 C 110.105469 16.691406 112.910156 15.445312 115.746094 14.273438 C 118.582031 13.097656 121.445312 11.996094 124.332031 10.960938 C 127.222656 9.925781 130.136719 8.964844 133.070312 8.074219 C 136.007812 7.183594 138.964844 6.363281 141.941406 5.617188 C 144.917969 4.875 147.910156 4.203125 150.921875 3.601562 C 153.929688 3.003906 156.953125 2.480469 159.988281 2.03125 C 163.023438 1.578125 166.066406 1.203125 169.121094 0.902344 C 172.175781 0.601562 175.234375 0.375 178.300781 0.226562 C 181.363281 0.0742188 184.429688 0 187.5 0 C 190.570312 0 193.636719 0.0742188 196.699219 0.226562 C 199.765625 0.375 202.824219 0.601562 205.878906 0.902344 C 208.933594 1.203125 211.976562 1.578125 215.011719 2.03125 C 218.046875 2.480469 221.070312 3.003906 224.078125 3.601562 C 227.089844 4.203125 230.082031 4.875 233.058594 5.617188 C 236.035156 6.363281 238.992188 7.183594 241.929688 8.074219 C 244.863281 8.964844 247.777344 9.925781 250.667969 10.960938 C 253.554688 11.996094 256.417969 13.097656 259.253906 14.273438 C 262.089844 15.445312 264.890625 16.691406 267.667969 18.003906 C 270.441406 19.3125 273.179688 20.691406 275.886719 22.140625 C 278.59375 23.585938 281.261719 25.097656 283.894531 26.675781 C 286.527344 28.253906 289.117188 29.894531 291.667969 31.597656 C 294.222656 33.304688 296.730469 35.070312 299.195312 36.898438 C 301.660156 38.726562 304.078125 40.613281 306.449219 42.558594 C 308.820312 44.507812 311.144531 46.511719 313.417969 48.570312 C 315.691406 50.632812 317.914062 52.746094 320.082031 54.917969 C 322.253906 57.085938 324.367188 59.308594 326.429688 61.582031 C 328.488281 63.855469 330.492188 66.179688 332.4375 68.550781 C 334.386719 70.921875 336.273438 73.339844 338.101562 75.804688 C 339.929688 78.269531 341.695312 80.777344 343.402344 83.332031 C 345.105469 85.882812 346.746094 88.472656 348.324219 91.105469 C 349.902344 93.738281 351.414062 96.40625 352.859375 99.113281 C 354.304688 101.820312 355.6875 104.558594 356.996094 107.332031 C 358.308594 110.105469 359.554688 112.910156 360.726562 115.746094 C 361.902344 118.582031 363.003906 121.445312 364.039062 124.332031 C 365.074219 127.222656 366.035156 130.136719 366.925781 133.070312 C 367.816406 136.007812 368.636719 138.964844 369.378906 141.941406 C 370.125 144.917969 370.796875 147.910156 371.398438 150.921875 C 371.996094 153.929688 372.519531 156.953125 372.96875 159.988281 C 373.421875 163.023438 373.796875 166.066406 374.097656 169.121094 C 374.398438 172.175781 374.625 175.234375 374.773438 178.300781 C 374.925781 181.363281 375 184.429688 375 187.5 Z M 375 187.5 " fill-opacity="1" fill-rule="nonzero"/><path fill="#ffffff" d="M 144.613281 242.589844 L 230.378906 242.589844 L 234.167969 191.898438 C 234.199219 191.480469 234 191.195312 233.875 191.0625 C 233.753906 190.929688 233.484375 190.707031 233.066406 190.707031 L 141.929688 190.707031 C 141.511719 190.707031 141.242188 190.929688 141.117188 191.0625 C 140.996094 191.195312 140.792969 191.480469 140.824219 191.898438 Z M 232.484375 247.121094 L 142.511719 247.121094 C 141.328125 247.121094 140.339844 246.207031 140.253906 245.023438 L 136.308594 192.234375 C 136.191406 190.675781 136.734375 189.125 137.796875 187.980469 C 138.859375 186.835938 140.367188 186.179688 141.929688 186.179688 L 233.066406 186.179688 C 234.628906 186.179688 236.132812 186.835938 237.199219 187.980469 C 238.261719 189.125 238.804688 190.675781 238.6875 192.234375 L 234.742188 245.023438 C 234.652344 246.207031 233.667969 247.121094 232.484375 247.121094 " fill-opacity="1" fill-rule="nonzero"/><path fill="#ffffff" d="M 187.496094 190.0625 C 186.8125 190.0625 186.164062 189.75 185.734375 189.21875 L 176.78125 178.121094 C 176.457031 177.71875 176.28125 177.214844 176.28125 176.699219 L 176.28125 168.753906 C 176.28125 167.5 177.292969 166.488281 178.546875 166.488281 C 179.796875 166.488281 180.8125 167.5 180.8125 168.753906 L 180.8125 175.898438 L 187.496094 184.1875 L 194.183594 175.898438 L 194.183594 168.753906 C 194.183594 167.5 195.199219 166.488281 196.449219 166.488281 C 197.699219 166.488281 198.714844 167.5 198.714844 168.753906 L 198.714844 176.699219 C 198.714844 177.214844 198.539062 177.71875 198.214844 178.121094 L 189.261719 189.21875 C 188.832031 189.75 188.183594 190.0625 187.496094 190.0625 " fill-opacity="1" fill-rule="nonzero"/><g clip-path="url(#277eeae356)"><path fill="#ffffff" d="M 208.582031 148.183594 C 207.332031 148.183594 206.316406 147.167969 206.316406 145.917969 L 206.316406 137.6875 C 206.316406 127.347656 197.90625 118.902344 187.566406 118.867188 C 187.542969 118.867188 187.523438 118.867188 187.5 118.867188 C 182.554688 118.867188 177.871094 120.820312 174.308594 124.371094 C 170.675781 127.988281 168.675781 132.777344 168.675781 137.851562 L 168.675781 145.917969 C 168.675781 147.167969 167.664062 148.183594 166.410156 148.183594 C 165.160156 148.183594 164.144531 147.167969 164.144531 145.917969 L 164.144531 137.851562 C 164.144531 134.679688 164.777344 131.589844 166.019531 128.671875 C 167.21875 125.859375 168.933594 123.332031 171.109375 121.160156 C 175.527344 116.757812 181.347656 114.335938 187.5 114.335938 C 187.527344 114.335938 187.554688 114.335938 187.582031 114.335938 C 193.800781 114.359375 199.644531 116.796875 204.039062 121.203125 C 208.429688 125.609375 210.847656 131.464844 210.847656 137.6875 L 210.847656 145.917969 C 210.847656 147.167969 209.835938 148.183594 208.582031 148.183594 " fill-opacity="1" fill-rule="nonzero"/></g><path fill="#ffffff" d="M 174.152344 144.046875 L 174.152344 155.925781 C 174.152344 163.28125 180.140625 169.269531 187.496094 169.269531 C 194.855469 169.269531 200.84375 163.28125 200.84375 155.925781 L 200.84375 142.660156 L 196.542969 137.859375 C 189.722656 143.007812 178.894531 143.910156 174.152344 144.046875 Z M 187.496094 173.800781 C 177.640625 173.800781 169.621094 165.78125 169.621094 155.925781 L 169.621094 141.792969 C 169.621094 141.179688 169.871094 140.59375 170.308594 140.167969 C 170.75 139.742188 171.339844 139.511719 171.953125 139.527344 C 172.117188 139.53125 188.3125 139.917969 195.144531 133.089844 C 195.582031 132.648438 196.1875 132.410156 196.808594 132.425781 C 197.429688 132.441406 198.019531 132.714844 198.433594 133.179688 L 204.796875 140.28125 C 205.167969 140.695312 205.375 141.234375 205.375 141.792969 L 205.375 155.925781 C 205.375 165.78125 197.355469 173.800781 187.496094 173.800781 " fill-opacity="1" fill-rule="nonzero"/><path fill="#ffffff" d="M 169.621094 147.3125 C 167.792969 147.339844 166.308594 148.835938 166.308594 150.671875 C 166.308594 152.507812 167.792969 154.003906 169.621094 154.027344 Z M 171.886719 158.558594 L 169.667969 158.558594 C 165.316406 158.558594 161.777344 155.019531 161.777344 150.671875 C 161.777344 146.320312 165.316406 142.78125 169.667969 142.78125 L 171.886719 142.78125 C 173.136719 142.78125 174.152344 143.796875 174.152344 145.046875 L 174.152344 156.292969 C 174.152344 157.546875 173.136719 158.558594 171.886719 158.558594 " fill-opacity="1" fill-rule="nonzero"/><path fill="#ffffff" d="M 205.375 147.3125 L 205.375 154.027344 C 207.203125 154.003906 208.683594 152.507812 208.683594 150.671875 C 208.683594 148.835938 207.203125 147.339844 205.375 147.3125 Z M 205.328125 158.558594 L 203.109375 158.558594 C 201.855469 158.558594 200.84375 157.546875 200.84375 156.292969 L 200.84375 145.046875 C 200.84375 143.796875 201.855469 142.78125 203.109375 142.78125 L 205.328125 142.78125 C 209.675781 142.78125 213.214844 146.320312 213.214844 150.671875 C 213.214844 155.019531 209.675781 158.558594 205.328125 158.558594 " fill-opacity="1" fill-rule="nonzero"/><path fill="#ffffff" d="M 150.726562 190.707031 C 150.230469 190.707031 149.726562 190.542969 149.308594 190.207031 C 148.332031 189.421875 148.179688 187.996094 148.964844 187.023438 C 151.472656 183.90625 154.824219 181.632812 158.648438 180.449219 L 177.957031 174.480469 C 179.152344 174.113281 180.417969 174.785156 180.785156 175.984375 C 181.152344 177.179688 180.480469 178.445312 179.285156 178.8125 L 179.210938 178.835938 L 159.988281 184.777344 C 157.027344 185.691406 154.4375 187.453125 152.496094 189.863281 C 152.046875 190.417969 151.390625 190.707031 150.726562 190.707031 " fill-opacity="1" fill-rule="nonzero"/><path fill="#ffffff" d="M 224.265625 190.707031 C 223.605469 190.707031 222.949219 190.417969 222.5 189.863281 C 220.558594 187.453125 217.96875 185.691406 215.007812 184.777344 L 195.710938 178.8125 C 194.515625 178.445312 193.84375 177.179688 194.210938 175.984375 C 194.578125 174.785156 195.84375 174.113281 197.039062 174.480469 L 197.113281 174.503906 L 216.34375 180.449219 C 220.171875 181.632812 223.523438 183.90625 226.03125 187.023438 C 226.816406 187.996094 226.660156 189.421875 225.6875 190.207031 C 225.269531 190.542969 224.765625 190.707031 224.265625 190.707031 " fill-opacity="1" fill-rule="nonzero"/><path fill="#ffffff" d="M 176.347656 227.769531 C 175.867188 227.769531 175.378906 227.617188 174.96875 227.300781 L 163.484375 218.441406 C 162.929688 218.011719 162.601562 217.351562 162.601562 216.648438 C 162.601562 215.945312 162.929688 215.285156 163.484375 214.855469 L 174.96875 205.996094 C 175.957031 205.234375 177.378906 205.417969 178.144531 206.40625 C 178.910156 207.398438 178.726562 208.820312 177.734375 209.585938 L 168.578125 216.648438 L 177.734375 223.710938 C 178.726562 224.476562 178.910156 225.898438 178.144531 226.890625 C 177.699219 227.46875 177.027344 227.769531 176.347656 227.769531 " fill-opacity="1" fill-rule="nonzero"/><path fill="#ffffff" d="M 198.644531 227.769531 C 197.96875 227.769531 197.296875 227.46875 196.851562 226.890625 C 196.085938 225.898438 196.269531 224.476562 197.261719 223.710938 L 206.417969 216.648438 L 197.261719 209.585938 C 196.269531 208.820312 196.085938 207.398438 196.851562 206.40625 C 197.613281 205.417969 199.039062 205.234375 200.027344 205.996094 L 211.511719 214.855469 C 212.066406 215.285156 212.394531 215.945312 212.394531 216.648438 C 212.394531 217.351562 212.066406 218.011719 211.511719 218.441406 L 200.027344 227.300781 C 199.617188 227.617188 199.128906 227.769531 198.644531 227.769531 " fill-opacity="1" fill-rule="nonzero"/><path fill="#ffffff" d="M 183.316406 234.519531 C 183.125 234.519531 182.925781 234.496094 182.730469 234.441406 C 181.519531 234.117188 180.804688 232.878906 181.128906 231.667969 L 189.492188 200.457031 C 189.816406 199.246094 191.054688 198.53125 192.265625 198.855469 C 193.472656 199.179688 194.191406 200.421875 193.867188 201.628906 L 185.503906 232.839844 C 185.234375 233.855469 184.316406 234.519531 183.316406 234.519531 " fill-opacity="1" fill-rule="nonzero"/><g clip-path="url(#1daf374023)"><path fill="#ffffff" d="M 109.503906 256.125 L 265.492188 256.125 C 265.347656 251.15625 261.261719 247.160156 256.261719 247.160156 L 118.734375 247.160156 C 113.730469 247.160156 109.648438 251.15625 109.503906 256.125 Z M 267.761719 260.65625 L 107.234375 260.65625 C 105.980469 260.65625 104.96875 259.640625 104.96875 258.390625 L 104.96875 256.394531 C 104.96875 248.804688 111.144531 242.628906 118.734375 242.628906 L 256.261719 242.628906 C 263.851562 242.628906 270.027344 248.804688 270.027344 256.394531 L 270.027344 258.390625 C 270.027344 259.640625 269.011719 260.65625 267.761719 260.65625 " fill-opacity="1" fill-rule="nonzero"/></g></svg>